<svg width="16" height="16" viewBox="0 0 16 16" fill="none" xmlns="http://www.w3.org/2000/svg">
<path d="M11.6054 8.09432C11.5213 7.93832 11.3612 7.84107 11.1872 7.84107H8.47689V2.48953C8.47689 2.21931 8.26267 2 7.99872 2C7.73476 2 7.52054 2.21931 7.52054 2.48953V7.84107H4.81024C4.63555 7.84107 4.47552 7.93832 4.392 8.09432C4.3072 8.25031 4.31294 8.4409 4.40539 8.59168L7.59386 13.7716C7.68184 13.9138 7.83422 14 7.99872 14C8.16321 14 8.31559 13.9138 8.40357 13.7716L11.592 8.59168C11.6405 8.51205 11.6654 8.42132 11.6654 8.3306C11.6654 8.24966 11.645 8.16807 11.6054 8.09432Z" fill="#11CABE"/>
</svg>
