<svg width="24" height="24" viewBox="0 0 24 24" fill="none" xmlns="http://www.w3.org/2000/svg">
<path d="M3 12C3 11.5796 3.30771 11.2317 3.70703 11.1767L3.81836 11.1699L18.2012 11.1699L13.0049 5.91891C12.6847 5.59535 12.6831 5.06907 13.002 4.74411C13.2918 4.44871 13.7466 4.4216 14.0674 4.66208L14.1592 4.74216L20.7598 11.4111C20.7627 11.4141 20.7647 11.4179 20.7676 11.4209C20.7964 11.4509 20.8226 11.4834 20.8467 11.5175C20.851 11.5237 20.8552 11.5299 20.8594 11.5361C20.8816 11.5695 20.9006 11.6049 20.918 11.6416C20.9226 11.6514 20.9274 11.6609 20.9316 11.6709C20.9472 11.7073 20.9594 11.7452 20.9697 11.7841C20.9721 11.793 20.9745 11.8016 20.9766 11.8105C20.9859 11.8512 20.9929 11.8927 20.9961 11.9355C20.9966 11.9417 20.9967 11.9479 20.9971 11.9541C20.9979 11.9693 21 11.9846 21 12C21 12.0124 20.9966 12.0247 20.9961 12.0371C20.9948 12.0666 20.9927 12.0957 20.9883 12.125C20.9852 12.1458 20.9812 12.1662 20.9766 12.1865C20.9702 12.2146 20.9624 12.2421 20.9531 12.2695C20.9458 12.2911 20.9377 12.3122 20.9287 12.333C20.9198 12.3535 20.9101 12.3736 20.8994 12.3935C20.8858 12.419 20.8705 12.443 20.8545 12.4668C20.8486 12.4754 20.8451 12.4856 20.8389 12.4941L20.8105 12.5273C20.8012 12.5388 20.7922 12.5505 20.7822 12.5615L20.7598 12.5879L14.1592 19.2578C13.839 19.5814 13.3208 19.5808 13.002 19.2558C12.7121 18.9604 12.6865 18.4983 12.9248 18.1738L13.0049 18.081L18.2002 12.83H3.81836C3.36653 12.83 3.00006 12.4585 3 12Z" fill="white"/>
</svg>
