<svg width="40" height="40" viewBox="0 0 40 40" fill="none" xmlns="http://www.w3.org/2000/svg">
<path d="M19.9999 38.3866C30.1072 38.3866 38.3007 30.1931 38.3007 20.0859C38.3007 9.97867 30.1072 1.78516 19.9999 1.78516C9.89273 1.78516 1.69922 9.97867 1.69922 20.0859C1.69922 30.1931 9.89273 38.3866 19.9999 38.3866Z" stroke="#DDCBFF" stroke-width="1.28878" stroke-miterlimit="10"/>
<path d="M17.3161 5.70312H15.4141V9.5071H17.3161V5.70312Z" fill="#8547F6"/>
<path d="M21.914 5.70312H20.0117V9.5071H21.914V5.70312Z" fill="#8547F6"/>
<path d="M17.3161 30.668H15.4141V34.4722H17.3161V30.668Z" fill="#6C24F5"/>
<path d="M21.914 30.668H20.0117V34.4722H21.914V30.668Z" fill="#6C24F5"/>
<path d="M24.9053 19.4146C26.1212 19.1409 27.1282 18.5808 27.9263 17.7333C28.724 16.886 29.123 15.7746 29.123 14.3987C29.123 12.6508 28.475 11.2167 27.1795 10.0954C25.8838 8.97443 23.9478 8.41406 21.3715 8.41406H12.0234V31.7606C13.2854 17.0876 24.9053 19.4146 24.9053 19.4146ZM16.9597 12.4036H20.7101C21.8045 12.4036 22.6497 12.6622 23.2467 13.1792C23.8429 13.696 24.1416 14.3762 24.1416 15.2196C24.1416 16.139 23.8073 16.8633 23.1384 17.3912C22.4695 17.9199 21.6295 18.1833 20.6191 18.1833H16.96L16.9597 12.4036Z" fill="#8547F6"/>
<path d="M23.2477 13.1779C22.651 12.6609 21.8055 12.4023 20.7111 12.4023H19.4035C20.4979 12.4023 21.3431 12.6609 21.9401 13.1779C22.5365 13.6947 22.835 14.375 22.835 15.2183C22.835 16.1378 22.5004 16.8621 21.8318 17.3899C21.1629 17.9186 20.3229 18.182 19.3125 18.182H20.6201C21.6308 18.182 22.4708 17.9186 23.1394 17.3899C23.8083 16.8621 24.1426 16.138 24.1426 15.2183C24.1426 14.375 23.8441 13.6947 23.2477 13.1779Z" fill="#6C24F5"/>
<path d="M23.9094 22.447C23.2214 21.8312 22.285 21.5234 21.0993 21.5234H19.9105C21.0965 21.5234 22.0327 21.8312 22.7206 22.447C23.4086 23.0625 23.7524 23.853 23.7524 24.8181C23.7524 25.6919 23.4387 26.3948 22.8121 26.927C22.185 27.4588 21.1797 27.7251 19.7969 27.7251H20.9854C22.3685 27.7251 23.3738 27.4591 24.0009 26.927C24.6278 26.395 24.9412 25.6919 24.9412 24.8181C24.9409 23.8533 24.5973 23.0625 23.9094 22.447Z" fill="#8547F6"/>
<path d="M29.3053 22.3345C28.8189 21.5066 28.1861 20.8604 27.4076 20.3964C26.6284 19.933 24.9053 19.4162 24.9053 19.4162C24.9053 19.4162 13.2854 17.0894 12.0234 31.7619H21.9984C23.7462 31.7619 25.2167 31.4825 26.4101 30.924C27.603 30.3654 28.5057 29.5996 29.1173 28.6268C29.7293 27.6546 30.0352 26.5485 30.0352 25.3095C30.035 24.155 29.7919 23.1632 29.3053 22.3345ZM23.9991 26.9287C23.3717 27.4605 22.3667 27.7267 20.9836 27.7267H16.9597V21.5251H21.0978C22.2837 21.5251 23.2199 21.8329 23.9078 22.4487C24.5958 23.0642 24.9394 23.8547 24.9394 24.8198C24.9394 25.6936 24.6259 26.3967 23.9991 26.9287Z" fill="#6C24F5"/>
<path d="M36.328 23.762C38.356 14.7443 32.6897 5.78997 23.672 3.762C14.6542 1.73402 5.69994 7.40034 3.67197 16.4181C1.644 25.4358 7.31031 34.3901 16.328 36.4181C25.3458 38.446 34.3001 32.7797 36.328 23.762Z" stroke="#8547F6" stroke-width="0.515513" stroke-miterlimit="10"/>
<path d="M3.41797 20.0859H8.40144" stroke="#8547F6" stroke-width="0.515513" stroke-miterlimit="10"/>
<path d="M31.5977 20.0859H36.5809" stroke="#8547F6" stroke-width="0.515513" stroke-miterlimit="10"/>
</svg>
