<svg width="31" height="31" viewBox="0 0 31 31" fill="none" xmlns="http://www.w3.org/2000/svg">
<g clip-path="url(#clip0_63_10251)">
<circle cx="15.3914" cy="15.6727" r="14.7977" fill="#F3BA2F"/>
<path d="M11.5607 14.0994L15.3925 10.2676L19.2261 14.1011L21.4556 11.8715L15.3925 5.80859L9.33134 11.8697L11.5608 14.0992L11.5607 14.0994ZM5.52734 15.6737L7.75694 13.4438L9.98638 15.6732L7.75678 17.9028L5.52734 15.6737ZM11.5607 17.2483L15.3925 21.0798L19.226 17.2465L21.4567 19.4748L21.4556 19.476L15.3925 25.5388L9.33134 19.4777L9.32818 19.4746L11.5609 17.248L11.5607 17.2483ZM20.7986 15.6747L23.0282 13.4451L25.2576 15.6745L23.0281 17.9041L20.7986 15.6747Z" fill="white"/>
<path d="M17.6537 15.6726H17.6546L15.3924 13.4102L13.7203 15.0818L13.5282 15.274L13.1321 15.6703L13.1289 15.6733L13.1321 15.6766L15.3924 17.9373L17.6548 15.6749L17.6559 15.6737L17.6538 15.6726" fill="white"/>
</g>
<defs>
<clipPath id="clip0_63_10251">
<rect width="29.5954" height="29.5953" fill="white" transform="translate(0.59375 0.875)"/>
</clipPath>
</defs>
</svg>
