<svg width="172" height="45" viewBox="0 0 172 45" fill="none" xmlns="http://www.w3.org/2000/svg">
<path d="M4.95112 36.3529L0.984375 33.3256V43.6365C0.984375 44.3175 1.53647 44.8696 2.21752 44.8696H169.925C170.606 44.8696 171.158 44.3175 171.158 43.6365V6.35998L164.637 11.097C164.125 11.4694 163.413 11.3927 162.992 10.9195L156.946 4.13208C156.572 3.71193 155.961 3.59836 155.461 3.85602L154.298 4.45517C153.801 4.71106 153.194 4.60095 152.819 4.18684L150.124 1.21152C149.735 0.782331 149.1 0.681515 148.597 0.969192L146.268 2.30258C146.112 2.39159 145.939 2.44564 145.76 2.46097L135.358 3.35409C134.899 3.39351 134.5 3.68574 134.324 4.1117L129.304 16.2583C128.91 17.2117 127.589 17.2887 127.087 16.3874L122.4 7.9736C122.182 7.58281 121.77 7.34055 121.323 7.34055H116.72C116.158 7.34055 115.667 7.72059 115.527 8.2647L113.721 15.2415C113.58 15.7856 113.089 16.1657 112.527 16.1657H109.711C109.561 16.1657 109.412 16.1382 109.272 16.0846L105.323 14.5778C104.759 14.3625 104.122 14.5875 103.818 15.1094L98.8084 23.7111C98.4207 24.3769 97.5241 24.528 96.9395 24.0261L95.7083 22.969C95.1415 22.4823 94.2755 22.6075 93.8697 23.2347L92.7716 24.9317C92.2975 25.6644 91.2333 25.6863 90.7294 24.9738L83.2787 14.4377C82.737 13.6716 81.5722 13.7672 81.1625 14.6113L79.6231 17.7833C79.3834 18.2772 78.8461 18.5532 78.305 18.4603L74.3923 17.7884C73.8651 17.6979 73.3397 17.9575 73.0914 18.4313L68.6895 26.8298C68.4901 27.2102 68.1071 27.4595 67.6785 27.4878L61.5208 27.8945C61.1558 27.9186 60.8204 28.1035 60.6051 28.3992L56.5003 34.038C55.9396 34.8081 54.7546 34.6788 54.3733 33.8058L52.5031 29.5239C52.1632 28.7459 51.1571 28.536 50.5346 29.1133L38.7047 40.0826C38.1118 40.6323 37.1591 40.4723 36.7784 39.7591L32.2521 31.2804C31.8059 30.4446 30.623 30.4033 30.1196 31.2059L27.4916 35.3962C27.3373 35.6422 27.1012 35.8259 26.8248 35.9148L23.7459 36.9061C23.1432 37.1002 22.4914 36.8062 22.2379 36.2259L19.5811 30.1429C19.3848 29.6937 18.9412 29.4034 18.451 29.4034H16.4354C16.0546 29.4034 15.6951 29.2274 15.4615 28.9265L13.5934 26.5207C13.04 25.808 11.9335 25.9116 11.522 26.7146L6.79666 35.9351C6.44612 36.6191 5.5621 36.8192 4.95112 36.3529Z" fill="url(#paint0_linear_1_3034)"/>
<path d="M0.984375 33.3256L4.95112 36.3529C5.5621 36.8192 6.44612 36.6191 6.79666 35.9351L11.522 26.7146C11.9335 25.9116 13.04 25.808 13.5934 26.5207L15.4615 28.9265C15.6951 29.2274 16.0546 29.4034 16.4354 29.4034H18.451C18.9412 29.4034 19.3848 29.6937 19.5811 30.1429L22.2379 36.2259C22.4914 36.8062 23.1432 37.1002 23.7459 36.9061L26.8248 35.9148C27.1012 35.8259 27.3373 35.6422 27.4916 35.3962L30.1196 31.2059C30.623 30.4033 31.8059 30.4446 32.2521 31.2804L36.7784 39.7591C37.1591 40.4723 38.1118 40.6323 38.7047 40.0826L50.5346 29.1133C51.1571 28.536 52.1632 28.7459 52.5031 29.5239L54.3733 33.8058C54.7546 34.6788 55.9396 34.8081 56.5003 34.038L60.6051 28.3992C60.8204 28.1035 61.1558 27.9186 61.5208 27.8945L67.6785 27.4878C68.1071 27.4595 68.4901 27.2102 68.6895 26.8298L73.0914 18.4313C73.3397 17.9575 73.8651 17.6979 74.3923 17.7884L78.305 18.4603C78.8461 18.5532 79.3834 18.2772 79.6231 17.7833L81.1625 14.6113C81.5722 13.7672 82.737 13.6716 83.2787 14.4377L90.7294 24.9738C91.2333 25.6863 92.2975 25.6644 92.7716 24.9317L93.8697 23.2347C94.2755 22.6075 95.1415 22.4823 95.7083 22.969L96.9395 24.0261C97.5241 24.528 98.4207 24.3769 98.8084 23.7111L103.818 15.1094C104.122 14.5875 104.759 14.3625 105.323 14.5778L109.272 16.0846C109.412 16.1382 109.561 16.1657 109.711 16.1657H112.527C113.089 16.1657 113.58 15.7856 113.721 15.2415L115.527 8.2647C115.667 7.72059 116.158 7.34055 116.72 7.34055H121.323C121.77 7.34055 122.182 7.58281 122.4 7.9736L127.087 16.3874C127.589 17.2887 128.91 17.2117 129.304 16.2583L134.324 4.1117C134.5 3.68574 134.899 3.39351 135.358 3.35409L145.76 2.46097C145.939 2.44564 146.112 2.39159 146.268 2.30258L148.597 0.969192C149.1 0.681515 149.735 0.782331 150.124 1.21152L152.819 4.18684C153.194 4.60095 153.801 4.71106 154.298 4.45517L155.461 3.85602C155.961 3.59836 156.572 3.71194 156.946 4.13209L162.992 10.9195C163.413 11.3927 164.125 11.4694 164.637 11.097L171.158 6.35998" stroke="#11CABE" stroke-width="1.23314" stroke-linecap="round"/>
<defs>
<linearGradient id="paint0_linear_1_3034" x1="86.0711" y1="0.476562" x2="86.0711" y2="44.8696" gradientUnits="userSpaceOnUse">
<stop offset="0.260417" stop-color="#BCFBFF" stop-opacity="0.4"/>
<stop offset="1" stop-opacity="0"/>
</linearGradient>
</defs>
</svg>
