<svg width="256" height="67" viewBox="0 0 256 67" fill="none" xmlns="http://www.w3.org/2000/svg">
<g clip-path="url(#clip0_37_29086)">
<g clip-path="url(#clip1_37_29086)">
<path fill-rule="evenodd" clip-rule="evenodd" d="M0.5 64.9793C35.3313 64.9793 31.6687 28 66.5 28C101.331 28 97.1687 45.923 132 45.923C166.831 45.923 166.169 7.5 201 7.5C235.831 7.5 236.614 60.9863 271.446 60.9863" fill="url(#paint0_linear_37_29086)"/>
<path fill-rule="evenodd" clip-rule="evenodd" d="M272.5 64.9805C238.487 64.9805 215.513 35.5013 181.5 35.5013C147.487 35.5013 150.513 25.5013 116.5 25.5013C82.4874 25.5013 91.5126 2.98047 57.5 2.98047C23.4874 2.98047 34.5126 60.8318 0.5 60.8318" fill="url(#paint1_linear_37_29086)"/>
</g>
</g>
<defs>
<linearGradient id="paint0_linear_37_29086" x1="135.5" y1="7.67626" x2="135.681" y2="64.9802" gradientUnits="userSpaceOnUse">
<stop stop-color="#30E0A1"/>
<stop offset="1" stop-color="#252836" stop-opacity="0.28"/>
</linearGradient>
<linearGradient id="paint1_linear_37_29086" x1="136.5" y1="-15.4048" x2="136.5" y2="70.4826" gradientUnits="userSpaceOnUse">
<stop stop-color="#BD47FB"/>
<stop offset="1" stop-color="#252836" stop-opacity="0.11"/>
</linearGradient>
<clipPath id="clip0_37_29086">
<rect width="255" height="66.0249" fill="white" transform="translate(0.5 0.96875)"/>
</clipPath>
<clipPath id="clip1_37_29086">
<rect width="272" height="72" fill="white" transform="translate(0.5 -2.01953)"/>
</clipPath>
</defs>
</svg>
