<svg width="1282" height="427" viewBox="0 0 1282 427" fill="none" xmlns="http://www.w3.org/2000/svg">
<g clip-path="url(#clip0_53_4)">
<g opacity="0.4">
<mask id="mask0_53_4" style="mask-type:alpha" maskUnits="userSpaceOnUse" x="-134" y="88" width="1547" height="828">
<ellipse opacity="0.64" cx="639.5" cy="502" rx="773.5" ry="414" fill="white"/>
</mask>
<g mask="url(#mask0_53_4)">
<path opacity="0.2" d="M-430.613 1718.89V-413.641M-389.603 1718.89V-413.641M-348.593 1718.89V-413.641M-307.582 1718.89V-413.641M-266.572 1718.89V-413.641M-225.562 1718.89V-413.641M-184.552 1718.89V-413.641M-143.542 1718.89V-413.641M-102.531 1718.89V-413.641M-61.5212 1718.89V-413.641M-20.511 1718.89V-413.641M20.4992 1718.89V-413.641M61.5095 1718.89V-413.641M102.52 1718.89V-413.641M143.53 1718.89V-413.641M184.54 1718.89V-413.641M225.55 1718.89V-413.641M266.561 1718.89V-413.641M307.571 1718.89V-413.641M348.581 1718.89V-413.641M389.591 1718.89V-413.641M430.601 1718.89V-413.641M471.611 1718.89V-413.641M512.622 1718.89V-413.641M553.632 1718.89V-413.641M594.642 1718.89V-413.641M635.652 1718.89V-413.641M-430.891 652.902L1701.64 652.902M-430.891 693.912L1701.64 693.913M-430.891 734.923L1701.64 734.923M-430.891 775.933L1701.64 775.933M-430.891 816.943H1701.64M-430.891 857.953H1701.64M-430.891 898.964H1701.64M-430.891 939.974H1701.64M-430.891 980.984L1701.64 980.984M-430.891 1021.99H1701.64M-430.891 1063H1701.64M-430.891 1104.01H1701.64M-430.891 1145.02H1701.64M-430.891 1186.03H1701.64M-430.891 1227.05H1701.64M-430.891 1268.06L1701.64 1268.06M-430.891 1309.07L1701.64 1309.07M-430.891 1350.08L1701.64 1350.08M-430.891 1391.09H1701.64M-430.891 1432.1H1701.64M-430.891 1473.11H1701.64M-430.891 1514.12H1701.64M-430.891 1555.13L1701.64 1555.13M-430.891 1596.14L1701.64 1596.14M-430.891 1637.15L1701.64 1637.15M-430.891 1678.16H1701.64M-430.891 1719.17H1701.64M-430.891 -413.363L1701.64 -413.363M-430.891 -372.353L1701.64 -372.353M-430.891 -331.343L1701.64 -331.343M-430.891 -290.332L1701.64 -290.332M-430.891 -249.322L1701.64 -249.322M-430.891 -208.312L1701.64 -208.312M-430.891 -167.302L1701.64 -167.302M-430.891 -126.292L1701.64 -126.292M-430.891 -85.2814L1701.64 -85.2813M-430.891 -44.2712L1701.64 -44.2711M-430.891 -3.26096L1701.64 -3.26092M-430.891 37.7492L1701.64 37.7493M-430.891 78.7595L1701.64 78.7595M-430.891 119.77L1701.64 119.77M-430.891 160.78L1701.64 160.78M-430.891 201.79L1701.64 201.79M-430.891 242.8L1701.64 242.8M-430.891 283.81L1701.64 283.811M-430.891 324.821L1701.64 324.821M-430.891 365.831L1701.64 365.831M-430.891 406.841L1701.64 406.841M-430.891 447.851L1701.64 447.851M-430.891 488.861L1701.64 488.861M-430.891 529.872L1701.64 529.872M-430.891 570.882L1701.64 570.882M-430.891 611.892L1701.64 611.892M676.662 1718.89V-413.641M717.673 1718.89V-413.641M758.683 1718.89V-413.641M799.693 1718.89V-413.641M840.703 1718.89V-413.641M881.714 1718.89V-413.641M922.724 1718.89V-413.641M963.734 1718.89V-413.641M1004.74 1718.89V-413.641M1045.75 1718.89V-413.641M1086.76 1718.89V-413.641M1127.77 1718.89V-413.641M1168.78 1718.89V-413.641M1209.8 1718.89V-413.641M1250.81 1718.89V-413.641M1291.82 1718.89V-413.641M1332.83 1718.89V-413.641M1373.84 1718.89V-413.641M1414.85 1718.89V-413.641M1455.86 1718.89V-413.641M1496.87 1718.89V-413.641M1537.88 1718.89V-413.641M1578.89 1718.89V-413.641M1619.9 1718.89V-413.641M1660.91 1718.89V-413.641M1701.92 1718.89V-413.641" stroke="white" stroke-width="0.872957"/>
</g>
</g>
</g>
<defs>
<clipPath id="clip0_53_4">
<rect width="1282" height="427" fill="white"/>
</clipPath>
</defs>
</svg>
