<svg width="34" height="34" viewBox="0 0 34 34" fill="none" xmlns="http://www.w3.org/2000/svg">
<path d="M11.4033 29.6727C11.3621 29.6727 11.3072 29.7001 11.2661 29.7001C8.60425 28.383 6.43638 26.2014 5.10547 23.5396C5.10547 23.4984 5.13291 23.4435 5.13291 23.4023C6.80684 23.8963 8.53564 24.2667 10.2507 24.5549C10.5526 26.2837 10.9093 27.9988 11.4033 29.6727Z" fill="white"/>
<path d="M29.636 23.5533C28.2776 26.2837 26.0137 28.4927 23.2559 29.8236C23.7772 28.0811 24.2163 26.3249 24.5044 24.5549C26.2333 24.2667 27.9346 23.8963 29.6085 23.4023C29.5948 23.4572 29.636 23.5121 29.636 23.5533Z" fill="white"/>
<path d="M29.7458 11.5641C28.0169 11.0427 26.2744 10.6174 24.5044 10.3155C24.2163 8.54556 23.791 6.78931 23.2559 5.07422C26.096 6.43257 28.3874 8.72393 29.7458 11.5641Z" fill="white"/>
<path d="M11.4037 5.22085C10.9097 6.89478 10.553 8.59614 10.2648 10.325C8.49487 10.5994 6.73862 11.0384 4.99609 11.5598C6.327 8.80195 8.53604 6.53804 11.2665 5.17969C11.3076 5.17969 11.3625 5.22085 11.4037 5.22085Z" fill="white"/>
<path d="M22.1591 10.0244C18.9759 9.66763 15.7652 9.66763 12.582 10.0244C12.925 8.14463 13.3641 6.26489 13.9815 4.45376C14.009 4.34399 13.9953 4.26167 14.009 4.1519C15.0929 3.89121 16.2043 3.72656 17.3706 3.72656C18.5231 3.72656 19.6482 3.89121 20.7184 4.1519C20.7321 4.26167 20.7321 4.34399 20.7596 4.45376C21.377 6.27861 21.8161 8.14463 22.1591 10.0244Z" fill="white"/>
<path d="M9.94819 22.2411C8.05474 21.8981 6.18872 21.459 4.37759 20.8416C4.26782 20.8142 4.1855 20.8279 4.07573 20.8142C3.81504 19.7302 3.65039 18.6188 3.65039 17.4526C3.65039 16.3 3.81504 15.175 4.07573 14.1047C4.1855 14.091 4.26782 14.091 4.37759 14.0636C6.20244 13.4599 8.05474 13.0071 9.94819 12.6641C9.60518 15.8473 9.60518 19.0579 9.94819 22.2411Z" fill="white"/>
<path d="M31.0927 17.4526C31.0927 18.6188 30.9281 19.7302 30.6674 20.8142C30.5576 20.8279 30.4753 20.8142 30.3655 20.8416C28.5407 21.4453 26.6747 21.8981 24.7949 22.2411C25.1517 19.0579 25.1517 15.8473 24.7949 12.6641C26.6747 13.0071 28.5544 13.4461 30.3655 14.0636C30.4753 14.091 30.5576 14.1047 30.6674 14.1047C30.9281 15.1887 31.0927 16.3 31.0927 17.4526Z" fill="white"/>
<path d="M22.1591 24.8711C21.8161 26.7646 21.377 28.6306 20.7596 30.4417C20.7321 30.5515 20.7321 30.6338 20.7184 30.7436C19.6482 31.0042 18.5231 31.1689 17.3706 31.1689C16.2043 31.1689 15.0929 31.0042 14.009 30.7436C13.9953 30.6338 14.009 30.5515 13.9815 30.4417C13.3778 28.6168 12.925 26.7646 12.582 24.8711C14.1736 25.0495 15.7652 25.1729 17.3706 25.1729C18.9759 25.1729 20.5812 25.0495 22.1591 24.8711Z" fill="white"/>
<path d="M22.5346 22.6128C19.103 23.0457 15.6392 23.0457 12.2075 22.6128C11.7746 19.1811 11.7746 15.7173 12.2075 12.2857C15.6392 11.8527 19.103 11.8527 22.5346 12.2857C22.9676 15.7173 22.9676 19.1811 22.5346 22.6128Z" fill="white"/>
</svg>
