<svg width="31" height="31" viewBox="0 0 31 31" fill="none" xmlns="http://www.w3.org/2000/svg">
<g clip-path="url(#clip0_63_13046)">
<path d="M29.7464 19.0285C27.7693 26.9601 19.7334 31.7816 11.8132 29.8044C3.88136 27.8272 -0.940139 19.7916 1.03709 11.8715C3.0142 3.93996 11.0385 -0.881544 18.9703 1.09568C26.8905 3.06123 31.7237 11.0968 29.7464 19.0285Z" fill="url(#paint0_linear_63_13046)"/>
<path d="M22.4358 13.608C22.7248 11.6427 21.2334 10.5791 19.1756 9.87394L19.8462 7.20342L18.2277 6.79879L17.5803 9.39995C17.1525 9.2959 16.7132 9.19186 16.2739 9.09937L16.9213 6.48666L15.3028 6.08203L14.6439 8.74099C14.2855 8.66007 13.9387 8.57914 13.6034 8.49822V8.48666L11.3606 7.93174L10.9329 9.66585C10.9329 9.66585 12.1352 9.9433 12.1121 9.95486C12.771 10.1167 12.8866 10.556 12.8635 10.9028L12.1005 13.9433C12.1467 13.9549 12.2045 13.9664 12.2739 14.0011C12.2161 13.9895 12.1583 13.978 12.1005 13.9549L11.0369 18.2092C10.956 18.4057 10.7479 18.7063 10.297 18.5907C10.3086 18.6138 9.11784 18.3017 9.11784 18.3017L8.30859 20.163L10.4242 20.6948C10.8173 20.7988 11.1988 20.8913 11.5803 20.9953L10.9097 23.689L12.5282 24.0936L13.1988 21.4231C13.6381 21.5387 14.0774 21.6543 14.4936 21.7583L13.8346 24.4173L15.4531 24.8219L16.1236 22.1283C18.8982 22.6485 20.9791 22.4404 21.8462 19.9317C22.5514 17.9202 21.8115 16.7526 20.3548 15.9895C21.43 15.7468 22.2277 15.0416 22.4358 13.608ZM18.7248 18.8104C18.2277 20.8219 14.8288 19.7352 13.7306 19.4578L14.6207 15.8855C15.719 16.163 19.2566 16.7063 18.7248 18.8104ZM19.2334 13.5734C18.771 15.4115 15.9502 14.4751 15.0369 14.2439L15.8462 11.0069C16.7595 11.2381 19.7074 11.6658 19.2334 13.5734Z" fill="white"/>
</g>
<defs>
<linearGradient id="paint0_linear_63_13046" x1="15.3834" y1="0.645241" x2="15.3834" y2="30.2447" gradientUnits="userSpaceOnUse">
<stop stop-color="#F9AA4B"/>
<stop offset="1" stop-color="#F7931A"/>
</linearGradient>
<clipPath id="clip0_63_13046">
<rect width="29.5954" height="29.5954" fill="white" transform="translate(0.59375 0.652344)"/>
</clipPath>
</defs>
</svg>
