<svg width="37" height="38" viewBox="0 0 37 38" fill="none" xmlns="http://www.w3.org/2000/svg">
<path fill-rule="evenodd" clip-rule="evenodd" d="M8.15859 8.94766C8.76068 8.34557 9.73685 8.34557 10.3389 8.94766L18.4992 17.1079L26.6594 8.94766C27.2615 8.34557 28.2376 8.34557 28.8397 8.94766C29.4418 9.54974 29.4418 10.5259 28.8397 11.128L20.6795 19.2882L28.8397 27.4484C29.4418 28.0505 29.4418 29.0267 28.8397 29.6288C28.2376 30.2309 27.2615 30.2309 26.6594 29.6288L18.4992 21.4686L10.3389 29.6288C9.73685 30.2309 8.76068 30.2309 8.15859 29.6288C7.55651 29.0267 7.55651 28.0505 8.15859 27.4484L16.3188 19.2882L8.15859 11.128C7.55651 10.5259 7.55651 9.54974 8.15859 8.94766Z" fill="#FCFCFD"/>
</svg>
