<svg width="12" height="12" viewBox="0 0 12 12" fill="none" xmlns="http://www.w3.org/2000/svg">
<path d="M11 3.77422C11 4.10422 10.73 4.37422 10.4 4.37422H1.6C1.27 4.37422 1 4.10422 1 3.77422V3.76922C1 2.62422 1.925 1.69922 3.07 1.69922H8.925C10.07 1.69922 11 2.62922 11 3.77422Z" fill="#8547F6"/>
<path d="M1 5.725V8.23C1 9.375 1.925 10.3 3.07 10.3H8.925C10.07 10.3 11 9.37 11 8.225V5.725C11 5.395 10.73 5.125 10.4 5.125H1.6C1.27 5.125 1 5.395 1 5.725ZM4 8.625H3C2.795 8.625 2.625 8.455 2.625 8.25C2.625 8.045 2.795 7.875 3 7.875H4C4.205 7.875 4.375 8.045 4.375 8.25C4.375 8.455 4.205 8.625 4 8.625ZM7.25 8.625H5.25C5.045 8.625 4.875 8.455 4.875 8.25C4.875 8.045 5.045 7.875 5.25 7.875H7.25C7.455 7.875 7.625 8.045 7.625 8.25C7.625 8.455 7.455 8.625 7.25 8.625Z" fill="#8547F6"/>
</svg>
