<svg width="12" height="12" viewBox="0 0 12 12" fill="none" xmlns="http://www.w3.org/2000/svg">
<path d="M9.985 4.375H8.515C7.88 4.375 7.5 3.995 7.5 3.36V1.89C7.5 1.255 7.88 0.875 8.515 0.875H9.985C10.62 0.875 11 1.255 11 1.89V3.36C11 3.995 10.62 4.375 9.985 4.375ZM10.095 2.72C10.035 2.66 9.955 2.63 9.875 2.63C9.795 2.63 9.715 2.66 9.655 2.72L9.565 2.81V1.69C9.565 1.515 9.425 1.375 9.25 1.375C9.075 1.375 8.935 1.515 8.935 1.69V2.81L8.845 2.72C8.725 2.6 8.525 2.6 8.405 2.72C8.285 2.84 8.285 3.04 8.405 3.16L9.03 3.785C9.055 3.81 9.09 3.83 9.125 3.845C9.135 3.85 9.145 3.85 9.155 3.855C9.18 3.865 9.205 3.87 9.235 3.87C9.245 3.87 9.255 3.87 9.265 3.87C9.3 3.87 9.33 3.865 9.365 3.85C9.37 3.85 9.37 3.85 9.375 3.85C9.41 3.835 9.44 3.815 9.465 3.79C9.47 3.785 9.47 3.785 9.475 3.785L10.1 3.16C10.22 3.04 10.22 2.84 10.095 2.72Z" fill="#8547F6"/>
<path d="M1 5.73V8.23C1 9.375 1.925 10.3 3.07 10.3H8.925C10.07 10.3 11 9.37 11 8.225V5.73C11 5.395 10.73 5.125 10.395 5.125H1.605C1.27 5.125 1 5.395 1 5.73ZM4 8.625H3C2.795 8.625 2.625 8.455 2.625 8.25C2.625 8.045 2.795 7.875 3 7.875H4C4.205 7.875 4.375 8.045 4.375 8.25C4.375 8.455 4.205 8.625 4 8.625ZM7.25 8.625H5.25C5.045 8.625 4.875 8.455 4.875 8.25C4.875 8.045 5.045 7.875 5.25 7.875H7.25C7.455 7.875 7.625 8.045 7.625 8.25C7.625 8.455 7.455 8.625 7.25 8.625Z" fill="#8547F6"/>
<path d="M6.75 2.30422V3.76922C6.75 4.10422 6.48 4.37422 6.145 4.37422H1.605C1.265 4.37422 1 4.09422 1 3.75922C1.005 3.19422 1.23 2.67922 1.605 2.30422C1.98 1.92922 2.5 1.69922 3.07 1.69922H6.145C6.48 1.69922 6.75 1.96922 6.75 2.30422Z" fill="#8547F6"/>
</svg>
