<svg width="34" height="34" viewBox="0 0 34 34" fill="none" xmlns="http://www.w3.org/2000/svg">
<path d="M33.1933 17.018C32.7954 16.6201 32.1368 16.6201 31.7389 17.018L31.1077 17.6492V16.9494C31.1077 9.3755 24.9471 3.21484 17.3732 3.21484C13.1883 3.21484 9.2779 5.0946 6.65722 8.36016C6.30048 8.79922 6.36908 9.45782 6.82187 9.81457C7.26094 10.1576 7.90582 10.089 8.26256 9.64991C10.4991 6.86458 13.8195 5.27297 17.3732 5.27297C23.8083 5.27297 29.0496 10.5143 29.0496 16.9494V17.6354L28.4185 17.0043C28.0206 16.6064 27.362 16.6064 26.9641 17.0043C26.5662 17.4022 26.5662 18.0608 26.9641 18.4587L29.3515 20.8461C29.4475 20.9422 29.5573 21.0108 29.6808 21.0656C29.8043 21.1205 29.9415 21.148 30.0787 21.148C30.2159 21.148 30.3394 21.1205 30.4766 21.0656C30.6001 21.0108 30.7098 20.9422 30.8059 20.8461L33.1933 18.4587C33.5912 18.0745 33.5912 17.4159 33.1933 17.018Z" fill="white"/>
<path d="M27.9238 24.0854C27.4847 23.7287 26.8261 23.7973 26.4831 24.2501C24.2466 27.0354 20.9262 28.627 17.3725 28.627C10.9374 28.627 5.69603 23.3856 5.69603 16.9506V16.2645L6.32718 16.8957C6.533 17.1015 6.79369 17.1976 7.05439 17.1976C7.31508 17.1976 7.57578 17.0878 7.76787 16.882C8.16578 16.4841 8.16578 15.8255 7.76787 15.4276L5.39417 13.0401C5.29812 12.9578 5.17463 12.8755 5.05115 12.8206C4.80417 12.7108 4.51603 12.7108 4.26906 12.8206C4.14557 12.8755 4.03581 12.9578 3.93976 13.0401L1.55233 15.4276C1.15443 15.8255 1.15443 16.4841 1.55233 16.882C1.95024 17.2799 2.60884 17.2799 3.00674 16.882L3.6379 16.2508V16.9506C3.6379 24.5245 9.79856 30.6851 17.3725 30.6851C21.5573 30.6851 25.4677 28.8054 28.0884 25.5398C28.4452 25.1008 28.3766 24.4422 27.9238 24.0854Z" fill="white"/>
<path d="M22.1075 16.4573C22.478 15.9085 22.6838 15.2636 22.6838 14.5501C22.6838 12.7252 21.0785 11.1199 19.2536 11.1199H18.1285V9.74781C18.1285 9.18526 17.662 8.71875 17.0994 8.71875C16.5369 8.71875 16.0703 9.18526 16.0703 9.74781V11.1199H13.2576C12.695 11.1199 12.2285 11.5864 12.2285 12.149V16.9513V21.7535C12.2285 22.3161 12.695 22.7826 13.2576 22.7826H16.0703V24.1547C16.0703 24.7172 16.5369 25.1838 17.0994 25.1838C17.662 25.1838 18.1285 24.7172 18.1285 24.1547V22.7826H20.118C22.2036 22.7826 23.8912 21.2459 23.8912 19.3524C23.8912 18.1312 23.1777 17.061 22.1075 16.4573ZM14.2866 13.178H19.2536C20.0082 13.178 20.6257 13.9327 20.6257 14.5501C20.6257 15.3047 20.0082 15.9222 19.2536 15.9222H14.2866V13.178ZM20.118 20.7245H14.2866V17.9803H19.2536H20.118C21.0647 17.9803 21.8331 18.5977 21.8331 19.3524C21.8331 20.107 21.0647 20.7245 20.118 20.7245Z" fill="white"/>
</svg>
