<svg width="653" height="444" viewBox="0 0 653 444" fill="none" xmlns="http://www.w3.org/2000/svg">
<g opacity="0.5">
<g opacity="0.5">
<path d="M366.54 298.695H289.257L203.3 249.013C192.26 242.704 172.939 243.493 160.125 250.788L77.3219 298.695H0.0394884V322.156C-0.35481 326.493 2.20813 330.633 7.53116 333.787L163.279 423.687C174.319 429.996 193.64 429.207 206.455 421.913L356.091 335.562C362.794 331.816 366.343 326.887 366.54 322.156V298.695Z" fill="url(#paint0_linear_94_4423)"/>
<path d="M117.935 386.825C117.935 389.191 116.358 389.98 114.387 388.994C112.415 387.811 110.838 385.051 110.838 382.685C110.838 380.319 112.415 379.531 114.387 380.517C116.358 381.7 117.935 384.46 117.935 386.825Z" fill="#6DE0F6"/>
<path d="M116.161 388.005C114.189 386.822 112.612 384.062 112.612 381.696C112.612 379.33 112.612 380.513 113.007 379.922C111.626 379.922 110.838 380.711 110.838 382.485C110.838 384.259 112.415 387.611 114.387 388.794C115.767 389.582 116.95 389.385 117.541 388.399C117.147 388.399 116.555 388.399 116.161 388.005Z" fill="#267FE5"/>
<path d="M129.172 393.134C129.172 395.5 127.594 396.288 125.623 395.303C123.651 394.12 122.074 391.36 122.074 388.994C122.074 386.628 123.651 385.839 125.623 386.825C127.594 388.008 129.172 390.768 129.172 393.134Z" fill="#6DE0F6"/>
<path d="M140.216 399.642C140.216 402.008 138.639 402.796 136.668 401.81C134.696 400.628 133.119 397.867 133.119 395.502C133.119 393.136 134.696 392.347 136.668 393.333C138.639 394.516 140.216 397.276 140.216 399.642Z" fill="#6DE0F6"/>
<path d="M127.198 394.314C125.227 393.131 123.649 390.371 123.649 388.005C123.649 385.639 123.649 386.822 124.044 386.23C122.664 386.23 121.875 387.019 121.875 388.793C121.875 390.568 123.452 393.919 125.424 395.102C126.804 395.891 127.987 395.694 128.578 394.708C128.184 394.708 127.592 394.708 127.198 394.314Z" fill="#267FE5"/>
<path d="M138.442 400.821C136.471 399.639 134.893 396.878 134.893 394.513C134.893 392.147 134.893 393.33 135.288 392.738C133.908 392.738 133.119 393.527 133.119 395.301C133.119 397.076 134.696 400.427 136.668 401.61C138.048 402.399 139.231 402.201 139.822 401.216C139.428 401.216 138.836 401.216 138.442 400.821Z" fill="#267FE5"/>
<path d="M19.5565 298.699H0.0387012V322.16C-0.158448 325.314 1.02445 328.272 3.58739 330.834C2.0102 328.666 1.22159 326.3 1.41874 323.737V300.276H21.1336C20.7393 299.685 20.1479 299.291 19.5565 298.699Z" fill="#D4088C"/>
<path d="M341.898 298.699C341.898 299.094 341.701 299.488 341.504 300.079H365.359V323.54C365.162 326.497 363.782 329.454 361.022 332.215C364.57 329.06 366.542 325.709 366.739 322.357V298.896H342.095L341.898 298.699Z" fill="#6DE0F6"/>
<g style="mix-blend-mode:lighten" opacity="0.5">
<path d="M54.6474 360.995V302.836H26.4551V344.829L54.6474 360.995Z" fill="#A31FA9"/>
</g>
<g style="mix-blend-mode:lighten" opacity="0.5">
<path d="M71.8002 371.048V319.789H64.1113V366.513L71.8002 371.048Z" fill="#A31FA9"/>
</g>
<g style="mix-blend-mode:lighten" opacity="0.5">
<path d="M85.6029 378.941V322.754H77.9141V374.604L85.6029 378.941Z" fill="#A31FA9"/>
</g>
<path d="M163.279 400.223L7.53117 310.323C-3.50918 304.015 -2.12912 292.777 10.6856 285.286L160.322 198.934C173.136 191.64 192.457 190.654 203.497 197.16L359.245 287.06C370.286 293.369 368.905 304.606 356.091 312.098L206.455 398.449C193.64 405.744 174.319 406.729 163.279 400.223Z" fill="url(#paint1_linear_94_4423)"/>
<path d="M164.856 400.221L9.10837 310.321C-1.93198 304.012 -0.551952 292.775 12.2627 285.283L161.899 198.932C168.208 195.186 176.094 193.215 183.98 192.82C175.699 192.82 167.025 194.989 160.322 198.932L10.6856 285.283C-2.12912 292.578 -3.50918 303.815 7.53117 310.321L163.279 400.221C168.799 403.376 176.488 404.756 184.374 404.558C177.079 404.558 170.179 403.376 164.856 400.221Z" fill="#70E8FC"/>
<path d="M359.048 287.263L203.3 197.364C197.78 194.209 190.091 192.829 182.008 193.026C189.105 193.026 196.203 194.406 201.131 197.364L356.879 287.263C367.919 293.572 366.539 304.81 353.725 312.301L204.089 398.653C197.78 402.399 189.894 404.37 182.008 404.764C190.288 404.764 199.16 402.793 206.06 398.653L355.696 312.301C368.511 305.007 369.891 293.769 358.851 287.263H359.048Z" fill="#6DE0F6"/>
<path d="M182.202 378.736C176.682 378.736 171.556 377.553 167.613 375.384L51.6896 308.354C47.7466 305.988 45.3809 302.833 45.3809 299.088C45.3809 295.342 48.5353 290.61 53.8583 287.456L165.248 223.185C175.105 217.468 190.088 216.876 198.763 221.805L314.687 288.836C318.63 291.202 320.995 294.356 320.995 298.102C320.995 301.848 317.841 306.579 312.518 309.734L201.129 374.004C195.806 377.159 188.905 378.736 182.202 378.736ZM184.174 221.214C178.062 221.214 171.753 222.791 166.628 225.551L55.2383 289.822C50.7039 292.385 47.9438 295.933 47.9438 299.088C47.9438 302.242 49.7181 304.213 52.8725 305.988L168.796 373.019C176.682 377.553 190.483 376.962 199.551 371.639L310.941 307.368C315.475 304.805 318.235 301.256 318.235 298.102C318.235 294.947 316.461 292.976 313.307 291.202L197.383 224.171C193.834 222.199 189.103 221.214 184.174 221.214Z" fill="#480689"/>
<path d="M210.792 412.055L342.487 335.758C343.67 334.969 344.656 333.195 344.656 331.618V329.449C344.656 327.872 343.67 327.083 342.487 327.872L210.792 404.169C209.609 404.957 208.623 406.732 208.623 408.309V410.477C208.623 412.055 209.609 412.843 210.792 412.055Z" fill="#6DE0F6"/>
<path d="M339.727 334.181C340.91 333.392 341.896 331.618 341.896 330.041V328.266L342.685 327.872C343.867 327.083 344.853 327.872 344.853 329.449V331.618C344.853 333.195 343.867 335.166 342.685 335.758L210.989 412.055C209.806 412.843 208.82 412.055 208.82 410.477V410.083L339.924 334.378L339.727 334.181Z" fill="#267FE5"/>
</g>
<path d="M357.078 270.894C357.078 270.5 357.078 270.105 357.078 269.711C357.078 267.345 355.895 265.177 354.121 263.205C353.135 262.022 351.755 261.036 350.178 260.051L202.316 174.685C200.936 173.897 199.556 173.305 198.176 172.714C197.978 172.714 197.781 172.714 197.387 172.714C196.007 172.319 194.627 171.925 193.247 171.531C193.247 171.531 193.247 171.531 193.05 171.531C190.29 170.939 187.135 170.742 183.981 170.742C183.389 170.742 182.798 170.742 182.404 170.742C179.052 170.742 175.898 171.334 172.743 172.122H172.349C170.772 172.517 169.195 173.108 167.618 173.699C167.42 173.699 167.026 173.699 166.632 174.094C164.857 174.882 163.083 175.671 161.506 176.46L19.5585 258.474C13.2498 262.022 9.8982 266.754 9.50391 271.091V271.683C9.50391 271.88 9.50391 272.077 9.50391 272.471V293.566C9.50391 294.158 9.50391 294.946 9.50391 295.538C9.50391 295.538 9.50391 295.735 9.50391 295.932C9.50391 296.523 9.70106 297.115 10.0954 297.706C11.0811 300.269 13.2497 302.438 16.4041 304.409L164.266 389.775C174.715 395.886 193.05 395.098 205.273 388.001L347.22 305.986C350.178 304.409 352.346 302.438 353.923 300.466C354.515 299.678 355.106 298.889 355.501 298.101C355.895 297.312 356.289 296.721 356.486 295.932C356.486 295.932 356.486 295.538 356.486 295.34C356.684 294.552 356.881 293.96 356.881 293.172V270.894H357.078Z" fill="#6DE0F6"/>
<path d="M366.54 249.796H289.257L203.3 200.115C192.26 193.806 172.939 194.595 160.125 201.889L77.3219 249.796H0.0394884V273.257C-0.35481 277.594 2.20813 281.734 7.53116 284.889L163.279 374.789C174.319 381.098 193.64 380.309 206.455 373.014L356.091 286.663C362.794 282.917 366.343 277.989 366.54 273.257V249.796Z" fill="url(#paint2_linear_94_4423)"/>
<path d="M19.5565 249.809H0.0387012V273.269C-0.158448 276.424 1.02445 279.381 3.58739 281.944C2.0102 279.775 1.22159 277.409 1.41874 274.847V251.386H21.1336C20.7393 250.794 20.1479 250.4 19.5565 249.809Z" fill="#D4088C"/>
<path d="M341.898 249.809C341.898 250.203 341.701 250.597 341.504 251.189H365.359V274.649C365.162 277.607 363.782 280.564 361.022 283.324C364.57 280.17 366.542 276.818 366.739 273.466V250.006H342.095L341.898 249.809Z" fill="#6DE0F6"/>
<g style="mix-blend-mode:lighten" opacity="0.5">
<path d="M54.6474 312.096V253.938H26.4551V295.93L54.6474 312.096Z" fill="#A31FA9"/>
</g>
<g style="mix-blend-mode:lighten" opacity="0.5">
<path d="M71.8002 322.153V270.895H64.1113V317.619L71.8002 322.153Z" fill="#A31FA9"/>
</g>
<g style="mix-blend-mode:lighten" opacity="0.5">
<path d="M85.6029 330.039V273.852H77.9141V325.505L85.6029 330.039Z" fill="#A31FA9"/>
</g>
<path d="M163.279 351.333L7.53117 261.433C-3.50918 255.124 -2.12912 243.887 10.6856 236.395L160.322 150.044C173.136 142.749 192.457 141.763 203.497 148.269L359.245 238.169C370.286 244.478 368.905 255.716 356.091 263.207L206.455 349.559C193.64 356.853 174.319 357.839 163.279 351.333Z" fill="url(#paint3_linear_94_4423)"/>
<path d="M164.856 351.33L9.10837 261.431C-1.93198 255.122 -0.551952 243.884 12.2627 236.393L161.899 150.041C168.208 146.295 176.094 144.324 183.98 143.93C175.699 143.93 167.025 146.098 160.322 150.041L10.6856 236.393C-2.12912 243.687 -3.50918 254.925 7.53117 261.431L163.279 351.33C168.799 354.485 176.488 355.865 184.374 355.668C177.079 355.668 170.179 354.485 164.856 351.33Z" fill="#D4088C"/>
<path d="M359.048 238.17L203.3 148.27C197.78 145.115 190.091 143.735 182.008 143.932C189.105 143.932 196.203 145.313 201.131 148.27L356.879 238.17C367.919 244.479 366.539 255.716 353.725 263.208L204.089 349.559C197.78 353.305 189.894 355.276 182.008 355.671C190.288 355.671 199.16 353.699 206.06 349.559L355.696 263.208C368.511 255.913 369.891 244.676 358.851 238.17H359.048Z" fill="#6DE0F6"/>
<path d="M182.205 329.053C176.882 329.053 171.756 328.067 168.01 325.701L52.0863 258.671C48.3405 256.502 46.1719 253.545 46.1719 250.193C46.1719 246.842 49.1291 242.307 54.255 239.153L165.644 174.882C175.305 169.362 189.894 168.771 198.371 173.502L314.295 240.533C318.041 242.702 320.209 245.659 320.209 249.01C320.209 252.362 317.252 256.896 312.126 260.051L200.737 324.321C195.414 327.279 188.711 328.856 182.205 328.856V329.053ZM184.176 171.531C177.867 171.531 171.362 173.108 166.236 176.065L54.8464 240.336C49.9177 243.096 47.1576 246.842 47.1576 250.391C47.1576 253.939 49.1291 256.108 52.4806 258.079L168.404 325.11C176.487 329.842 190.682 329.25 199.948 323.73L311.337 259.459C316.266 256.699 319.026 252.953 319.026 249.405C319.026 245.856 317.055 243.687 313.703 241.716L197.78 174.685C194.034 172.517 189.302 171.531 184.176 171.531Z" fill="#480689"/>
<path d="M210.792 363.164L342.487 286.867C343.67 286.079 344.656 284.304 344.656 282.727V280.558C344.656 278.981 343.67 278.193 342.487 278.981L210.792 355.278C209.609 356.067 208.623 357.841 208.623 359.418V361.587C208.623 363.164 209.609 363.952 210.792 363.164Z" fill="#6DE0F6"/>
<path d="M339.727 285.29C340.91 284.501 341.896 282.727 341.896 281.15V279.376L342.685 278.981C343.867 278.193 344.853 278.981 344.853 280.558V282.727C344.853 284.304 343.867 286.276 342.685 286.867L210.989 363.164C209.806 363.952 208.82 363.164 208.82 361.587V361.192L339.924 285.487L339.727 285.29Z" fill="#267FE5"/>
<path d="M117.935 337.931C117.935 340.297 116.358 341.085 114.387 340.1C112.415 338.917 110.838 336.157 110.838 333.791C110.838 331.425 112.415 330.636 114.387 331.622C116.358 332.805 117.935 335.565 117.935 337.931Z" fill="#6DE0F6"/>
<path d="M116.161 339.114C114.189 337.931 112.612 335.171 112.612 332.806C112.612 330.44 112.612 331.623 113.007 331.031C111.626 331.031 110.838 331.82 110.838 333.594C110.838 335.369 112.415 338.72 114.387 339.903C115.767 340.692 116.95 340.494 117.541 339.509C117.147 339.509 116.555 339.509 116.161 339.114Z" fill="#267FE5"/>
<path d="M129.172 344.439C129.172 346.804 127.594 347.593 125.623 346.607C123.651 345.424 122.074 342.664 122.074 340.299C122.074 337.933 123.651 337.144 125.623 338.13C127.594 339.313 129.172 342.073 129.172 344.439Z" fill="#6DE0F6"/>
<path d="M140.216 350.747C140.216 353.113 138.639 353.902 136.668 352.916C134.696 351.733 133.119 348.973 133.119 346.607C133.119 344.241 134.696 343.453 136.668 344.438C138.639 345.621 140.216 348.381 140.216 350.747Z" fill="#6DE0F6"/>
<path d="M127.198 345.622C125.227 344.439 123.649 341.679 123.649 339.313C123.649 336.948 123.649 338.131 124.044 337.539C122.664 337.539 121.875 338.328 121.875 340.102C121.875 341.876 123.452 345.228 125.424 346.411C126.804 347.199 127.987 347.002 128.578 346.017C128.184 346.017 127.592 346.016 127.198 345.622Z" fill="#267FE5"/>
<path d="M138.442 351.927C136.471 350.744 134.893 347.984 134.893 345.618C134.893 343.252 134.893 344.435 135.288 343.844C133.908 343.844 133.119 344.632 133.119 346.407C133.119 348.181 134.696 351.533 136.668 352.715C138.048 353.504 139.231 353.307 139.822 352.321C139.428 352.321 138.836 352.321 138.442 351.927Z" fill="#267FE5"/>
</g>
<path opacity="0.5" d="M166.631 333.388L38.0894 259.063C29.0206 253.74 30.0063 244.474 40.6524 238.56L164.068 167.389C174.714 161.277 190.683 160.686 199.752 166.009L328.293 240.334C337.362 245.657 336.376 254.923 325.73 260.837L202.315 332.008C191.669 338.12 175.7 338.711 166.631 333.388Z" fill="#2A0263"/>
<path d="M366.54 154.781H289.257L203.3 105.099C192.26 98.7903 172.939 99.5789 160.125 106.873L77.3219 154.781H0.0394884V178.241C-0.35481 182.579 2.20813 186.719 7.53116 189.873L163.279 279.773C174.319 286.082 193.64 285.293 206.455 277.999L356.091 191.648C362.794 187.902 366.343 182.973 366.54 178.241V154.781Z" fill="url(#paint4_linear_94_4423)"/>
<path d="M19.5565 154.785H0.0387012V178.246C-0.158448 181.4 1.02445 184.357 3.58739 186.92C2.0102 184.752 1.22159 182.386 1.41874 179.823V156.362H21.1336C20.7393 155.771 20.1479 155.377 19.5565 154.785Z" fill="#D4088C"/>
<path d="M341.898 154.785C341.898 155.179 341.701 155.574 341.504 156.165H365.359V179.626C365.162 182.583 363.782 185.54 361.022 188.301C364.57 185.146 366.542 181.795 366.739 178.443V154.982H342.095L341.898 154.785Z" fill="#6DE0F6"/>
<g style="mix-blend-mode:lighten" opacity="0.5">
<path d="M54.6474 217.276V159.117H26.4551V200.913L54.6474 217.276Z" fill="#D4088C"/>
</g>
<g style="mix-blend-mode:lighten" opacity="0.3">
<path d="M71.8002 227.13V175.871H64.1113V222.793L71.8002 227.13Z" fill="#D4088C"/>
</g>
<g style="mix-blend-mode:lighten" opacity="0.1">
<path d="M85.6029 235.02V178.832H77.9141V230.682L85.6029 235.02Z" fill="#D4088C"/>
</g>
<path d="M163.279 256.309L7.53117 166.409C-3.50918 160.101 -2.12912 148.863 10.6856 141.371L160.322 55.0202C173.136 47.7257 192.457 46.7399 203.497 53.2459L359.245 143.146C370.286 149.455 368.905 160.692 356.091 168.184L206.455 254.535C193.64 261.83 174.319 262.815 163.279 256.309Z" fill="url(#paint5_linear_94_4423)"/>
<path d="M164.856 256.307L9.10837 166.407C-1.93198 160.098 -0.551952 148.861 12.2627 141.369L161.899 55.0179C168.208 51.2721 176.094 49.3005 183.98 48.9062C175.699 48.9062 167.025 51.0749 160.322 55.0179L10.6856 141.369C-2.12912 148.664 -3.50918 159.901 7.53117 166.407L163.279 256.307C168.799 259.462 176.488 260.842 184.374 260.644C177.079 260.644 170.179 259.462 164.856 256.307Z" fill="#70E8FC"/>
<path d="M359.048 143.349L203.3 53.4495C197.78 50.2951 190.091 48.915 182.008 49.1122C189.105 49.1122 196.203 50.4922 201.131 53.4495L356.879 143.349C367.919 149.658 366.539 160.896 353.725 168.387L204.089 254.739C197.78 258.484 189.894 260.456 182.008 260.85C190.288 260.85 199.16 258.879 206.06 254.739L355.696 168.387C368.511 161.093 369.891 149.855 358.851 143.349H359.048Z" fill="#6DE0F6"/>
<path d="M182.202 235.025C176.682 235.025 171.556 233.842 167.613 231.673L51.6896 164.643C47.7466 162.277 45.3809 159.123 45.3809 155.377C45.3809 151.631 48.5353 146.899 53.8583 143.745L165.248 79.4743C175.105 73.757 190.088 73.1655 198.763 78.0943L314.687 145.125C318.63 147.491 320.995 150.645 320.995 154.391C320.995 158.137 317.841 162.868 312.518 166.023L201.129 230.293C195.806 233.448 188.905 235.025 182.202 235.025ZM168.993 229.308C176.879 233.842 190.68 233.251 199.749 227.928L311.138 163.657C315.672 161.094 318.432 157.545 318.432 154.391C318.432 151.237 316.658 149.265 313.504 147.491L197.58 80.46C189.694 75.9256 175.894 76.5171 166.825 81.8401L55.4355 146.111C50.901 148.674 48.141 152.222 48.141 155.377C48.141 158.531 49.9153 160.503 53.0697 162.277L168.993 229.308Z" fill="#480689"/>
<path d="M210.792 268.137L342.487 191.84C343.67 191.051 344.656 189.277 344.656 187.7V185.531C344.656 183.954 343.67 183.165 342.487 183.954L210.792 260.251C209.609 261.039 208.623 262.814 208.623 264.391V266.559C208.623 268.137 209.609 268.925 210.792 268.137Z" fill="#6DE0F6"/>
<path d="M339.727 190.263C340.91 189.474 341.896 187.7 341.896 186.123V184.348L342.685 183.954C343.867 183.165 344.853 183.954 344.853 185.531V187.7C344.853 189.277 343.867 191.248 342.685 191.84L210.989 268.137C209.806 268.925 208.82 268.137 208.82 266.559V266.165L339.924 190.46L339.727 190.263Z" fill="#267FE5"/>
<path d="M357.078 126.98C357.078 126.586 357.078 126.191 357.078 125.797C357.078 123.431 355.895 121.263 354.121 119.291C353.135 118.108 351.755 117.122 350.178 116.137L202.316 30.7711C200.936 29.9825 199.556 29.3911 198.176 28.7996C197.978 28.7996 197.781 28.7996 197.387 28.7996C196.007 28.4053 194.627 28.011 193.247 27.6167C193.247 27.6167 193.247 27.6167 193.05 27.6167C190.29 27.0253 187.135 26.8281 183.981 26.8281C183.389 26.8281 182.798 26.8281 182.404 26.8281C179.052 26.8281 175.898 27.4196 172.743 28.2082H172.349C170.772 28.6025 169.195 29.1939 167.618 29.7854C167.42 29.7854 167.026 29.7854 166.632 30.1797C164.857 30.9683 163.083 31.7569 161.506 32.5455L19.5585 114.559C13.2498 118.108 9.8982 122.84 9.50391 127.177V127.768C9.50391 127.966 9.50391 128.163 9.50391 128.557V149.652C9.50391 150.243 9.50391 151.032 9.50391 151.624C9.50391 151.624 9.50391 151.821 9.50391 152.018C9.50391 152.609 9.70106 153.201 10.0954 153.792C11.0811 156.355 13.2497 158.524 16.4041 160.495L164.266 245.861C174.715 251.972 193.05 251.184 205.273 244.086L347.22 162.072C350.178 160.495 352.346 158.524 353.923 156.552C354.515 155.764 355.106 154.975 355.501 154.186C355.895 153.398 356.289 152.806 356.486 152.018C356.486 152.018 356.486 151.624 356.486 151.426C356.684 150.638 356.881 150.046 356.881 149.258V126.98H357.078Z" fill="#6DE0F6"/>
<path d="M366.54 105.878H289.257L203.3 56.1968C192.26 49.888 172.939 50.6766 160.125 57.9711L77.3219 105.878H0.0394884V129.339C-0.35481 133.676 2.20813 137.817 7.53116 140.971L163.279 230.871C174.319 237.18 193.64 236.391 206.455 229.097L356.091 142.745C362.794 138.999 366.343 134.071 366.54 129.339V105.878Z" fill="url(#paint6_linear_94_4423)"/>
<path d="M19.5565 105.887H0.0387012V129.347C-0.158448 132.502 1.02445 135.459 3.58739 138.022C2.0102 135.853 1.22159 133.488 1.41874 130.925V107.464H21.1336C20.7393 106.872 20.1479 106.478 19.5565 105.887Z" fill="#D4088C"/>
<path d="M341.898 105.887C341.898 106.281 341.701 106.675 341.504 107.267H365.359V130.727C365.162 133.685 363.782 136.642 361.022 139.402C364.57 136.248 366.542 132.896 366.739 129.545V106.084H342.095L341.898 105.887Z" fill="#6DE0F6"/>
<g style="mix-blend-mode:lighten" opacity="0.5">
<path d="M54.6474 168.179V110.02H26.4551V152.012L54.6474 168.179Z" fill="#D4088C"/>
</g>
<g style="mix-blend-mode:lighten" opacity="0.3">
<path d="M71.8002 178.231V126.973H64.1113V173.697L71.8002 178.231Z" fill="#D4088C"/>
</g>
<g style="mix-blend-mode:lighten" opacity="0.1">
<path d="M85.6029 186.125V129.938H77.9141V181.788L85.6029 186.125Z" fill="#D4088C"/>
</g>
<path d="M163.279 207.415L7.53117 117.515C-3.50918 111.206 -2.12912 99.9686 10.6856 92.477L160.322 6.12565C173.136 -1.16887 192.457 -2.1546 203.497 4.35132L359.245 94.2513C370.286 100.56 368.905 111.798 356.091 119.289L206.455 205.641C193.64 212.935 174.319 213.921 163.279 207.415Z" fill="url(#paint7_linear_94_4423)"/>
<path d="M164.856 207.413L9.10837 117.513C-1.93198 111.204 -0.551952 99.9663 12.2627 92.4747L161.899 6.12334C168.208 2.37751 176.094 0.406017 183.98 0.0117188C175.699 0.0117188 167.025 2.18036 160.322 6.12334L10.6856 92.4747C-2.12912 99.7692 -3.50918 111.007 7.53117 117.513L163.279 207.413C168.799 210.567 176.488 211.947 184.374 211.75C177.079 211.75 170.179 210.567 164.856 207.413Z" fill="#D4088C"/>
<path d="M359.048 94.2557L203.3 4.35572C197.78 1.20134 190.091 -0.178714 182.008 0.0184348C189.105 0.0184348 196.203 1.39849 201.131 4.35572L356.879 94.2557C367.919 100.564 366.539 111.802 353.725 119.294L204.089 205.645C197.78 209.391 189.894 211.362 182.008 211.757C190.288 211.757 199.16 209.785 206.06 205.645L355.696 119.294C368.511 111.999 369.891 100.762 358.851 94.2557H359.048Z" fill="#6DE0F6"/>
<path d="M210.792 219.246L342.487 142.949C343.67 142.161 344.656 140.386 344.656 138.809V136.64C344.656 135.063 343.67 134.275 342.487 135.063L210.792 211.36C209.609 212.149 208.623 213.923 208.623 215.5V217.669C208.623 219.246 209.609 220.035 210.792 219.246Z" fill="#6DE0F6"/>
<path d="M339.727 141.372C340.91 140.583 341.896 138.809 341.896 137.232V135.458L342.685 135.063C343.867 134.275 344.853 135.063 344.853 136.64V138.809C344.853 140.386 343.867 142.358 342.685 142.949L210.989 219.246C209.806 220.035 208.82 219.246 208.82 217.669V217.274L339.924 141.569L339.727 141.372Z" fill="#267FE5"/>
<path style="mix-blend-mode:lighten" opacity="0.8" d="M467.283 443.011L652.998 335.762L334.996 190.66L215.918 259.465L467.283 443.011Z" fill="url(#paint8_linear_94_4423)"/>
<path style="mix-blend-mode:lighten" opacity="0.8" d="M467.283 394.318L652.998 287.068L334.996 141.77L215.918 210.772L467.283 394.318Z" fill="url(#paint9_linear_94_4423)"/>
<path d="M183.585 42.5985L176.291 38.4584L183.585 34.1211L190.88 38.4584L183.585 42.5985Z" fill="#6DE0F6"/>
<path opacity="0.4" d="M212.763 59.3584L205.469 55.2183L212.763 51.0781L220.058 55.2183L212.763 59.3584Z" fill="#6DE0F6"/>
<path d="M227.349 67.8329L220.055 63.6927L227.349 59.3555L234.644 63.6927L227.349 67.8329Z" fill="#6DE0F6"/>
<path opacity="0.4" d="M241.939 76.3134L234.645 72.1732L241.939 67.8359L249.234 72.1732L241.939 76.3134Z" fill="#6DE0F6"/>
<path d="M256.531 84.786L249.236 80.4487L256.531 76.3086L263.825 80.4487L256.531 84.786Z" fill="#6DE0F6"/>
<path d="M271.121 93.0615L263.826 88.9214L271.121 84.7812L278.415 88.9214L271.121 93.0615Z" fill="#6DE0F6"/>
<path d="M285.711 101.54L278.416 97.3998L285.711 93.0625L293.005 97.3998L285.711 101.54Z" fill="#6DE0F6"/>
<path d="M168.8 51.0829L161.506 46.7456L168.8 42.6055L176.095 46.7456L168.8 51.0829Z" fill="#6DE0F6"/>
<path d="M183.388 59.5555L176.094 55.2183L183.388 51.0781L190.683 55.2183L183.388 59.5555Z" fill="#6DE0F6"/>
<path d="M197.978 67.8349L190.684 63.6948L197.978 59.5547L205.273 63.6948L197.978 67.8349Z" fill="#6DE0F6"/>
<path d="M212.562 76.3134L205.268 72.1732L212.562 67.8359L219.857 72.1732L212.562 76.3134Z" fill="#6DE0F6"/>
<path d="M227.152 84.7899L219.857 80.4526L227.152 76.3125L234.446 80.4526L227.152 84.7899Z" fill="#6DE0F6"/>
<path d="M241.744 93.2586L234.449 88.9214L241.744 84.7812L249.038 88.9214L241.744 93.2586Z" fill="#6DE0F6"/>
<path d="M256.334 101.546L249.039 97.4058L256.334 93.2656L263.628 97.4058L256.334 101.546Z" fill="#6DE0F6"/>
<path d="M270.925 110.02L263.631 105.88L270.925 101.543L278.417 105.88L270.925 110.02Z" fill="#6DE0F6"/>
<path d="M285.711 118.497L278.416 114.16L285.711 110.02L293.005 114.16L285.711 118.497Z" fill="#6DE0F6"/>
<path d="M154.21 59.5555L146.916 55.2183L154.21 51.0781L161.505 55.2183L154.21 59.5555Z" fill="#6DE0F6"/>
<path d="M168.8 67.8349L161.506 63.6948L168.8 59.5547L176.095 63.6948L168.8 67.8349Z" fill="#6DE0F6"/>
<path d="M183.388 76.3134L176.094 72.1732L183.388 67.8359L190.683 72.1732L183.388 76.3134Z" fill="#6DE0F6"/>
<path opacity="0.4" d="M212.562 93.2743L205.268 88.937L212.562 84.7969L219.857 88.937L212.562 93.2743Z" fill="#6DE0F6"/>
<path opacity="0.4" d="M227.152 101.546L219.857 97.4058L227.152 93.2656L234.446 97.4058L227.152 101.546Z" fill="#6DE0F6"/>
<path d="M241.744 110.024L234.449 105.884L241.744 101.547L249.038 105.884L241.744 110.024Z" fill="#6DE0F6"/>
<path d="M256.334 118.497L249.039 114.357L256.334 110.02L263.628 114.357L256.334 118.497Z" fill="#6DE0F6"/>
<path d="M270.92 126.981L263.625 122.644L270.92 118.504L278.214 122.644L270.92 126.981Z" fill="#6DE0F6"/>
<path opacity="0.4" d="M139.423 68.0243L132.129 63.687L139.423 59.5469L146.915 63.687L139.423 68.0243Z" fill="#6DE0F6"/>
<path opacity="0.4" d="M154.21 76.3115L146.916 72.1714L154.21 68.0312L161.505 72.1714L154.21 76.3115Z" fill="#6DE0F6"/>
<path d="M183.388 93.2586L176.094 89.1185L183.388 84.7812L190.683 89.1185L183.388 93.2586Z" fill="#6DE0F6"/>
<path d="M197.972 101.743L190.678 97.4058L197.972 93.2656L205.267 97.4058L197.972 101.743Z" fill="#6DE0F6"/>
<path d="M212.562 110.019L205.268 105.878L212.562 101.738L219.857 105.878L212.562 110.019Z" fill="#6DE0F6"/>
<path opacity="0.4" d="M227.152 118.497L219.857 114.357L227.152 110.02L234.446 114.357L227.152 118.497Z" fill="#6DE0F6"/>
<path d="M241.744 126.97L234.449 122.829L241.744 118.492L249.038 122.829L241.744 126.97Z" fill="#6DE0F6"/>
<path d="M256.334 135.45L249.039 131.113L256.334 126.973L263.628 131.113L256.334 135.45Z" fill="#6DE0F6"/>
<path d="M124.832 76.5086L117.537 72.1714L124.832 68.0312L132.126 72.1714L124.832 76.5086Z" fill="#6DE0F6"/>
<path d="M139.423 84.7881L132.129 80.648L139.423 76.5078L146.718 80.648L139.423 84.7881Z" fill="#6DE0F6"/>
<path d="M154.013 93.2586L146.719 89.1185L154.013 84.7812L161.308 89.1185L154.013 93.2586Z" fill="#6DE0F6"/>
<path d="M168.601 101.743L161.307 97.4058L168.601 93.2656L175.896 97.4058L168.601 101.743Z" fill="#6DE0F6"/>
<path d="M183.187 110.224L175.893 105.886L183.187 101.746L190.482 105.886L183.187 110.224Z" fill="#6DE0F6"/>
<path d="M197.779 118.491L190.484 114.351L197.779 110.211L205.073 114.351L197.779 118.491Z" fill="#6DE0F6"/>
<path d="M212.369 126.981L205.074 122.841L212.369 118.504L219.663 122.841L212.369 126.981Z" fill="#6DE0F6"/>
<path d="M226.957 135.45L219.662 131.113L226.957 126.973L234.251 131.113L226.957 135.45Z" fill="#6DE0F6"/>
<path d="M241.742 143.931L234.25 139.593L241.742 135.453L249.036 139.593L241.742 143.931Z" fill="#6DE0F6"/>
<path d="M110.246 84.9852L102.951 80.648L110.246 76.5078L117.54 80.648L110.246 84.9852Z" fill="#6DE0F6"/>
<path d="M124.838 93.2685L117.543 89.1284L124.838 84.9883L132.132 89.1284L124.838 93.2685Z" fill="#6DE0F6"/>
<path opacity="0.4" d="M139.427 101.743L132.133 97.6029L139.427 93.2656L146.722 97.6029L139.427 101.743Z" fill="#6DE0F6"/>
<path d="M154.013 110.224L146.719 105.886L154.013 101.746L161.308 105.886L154.013 110.224Z" fill="#6DE0F6"/>
<path d="M183.191 126.979L175.896 122.839L183.191 118.699L190.486 122.839L183.191 126.979Z" fill="#6DE0F6"/>
<path d="M197.783 135.45L190.488 131.31L197.783 126.973L205.077 131.31L197.783 135.45Z" fill="#6DE0F6"/>
<path d="M212.371 143.931L205.076 139.593L212.371 135.453L219.665 139.593L212.371 143.931Z" fill="#6DE0F6"/>
<path d="M226.957 152.407L219.662 148.07L226.957 143.93L234.251 148.07L226.957 152.407Z" fill="#6DE0F6"/>
<path d="M95.4606 93.2685L88.166 89.1284L95.4606 84.9883L102.755 89.1284L95.4606 93.2685Z" fill="#6DE0F6"/>
<path d="M110.248 101.743L102.756 97.6029L110.248 93.2656L117.542 97.6029L110.248 101.743Z" fill="#6DE0F6"/>
<path opacity="0.4" d="M124.838 110.224L117.543 106.083L124.838 101.746L132.132 106.083L124.838 110.224Z" fill="#6DE0F6"/>
<path d="M139.427 118.7L132.133 114.363L139.427 110.223L146.722 114.363L139.427 118.7Z" fill="#6DE0F6"/>
<path d="M154.013 126.983L146.719 122.843L154.013 118.703L161.308 122.843L154.013 126.983Z" fill="#6DE0F6"/>
<path opacity="0.4" d="M183.191 143.938L175.896 139.798L183.191 135.461L190.486 139.798L183.191 143.938Z" fill="#6DE0F6"/>
<path d="M197.783 152.407L190.488 148.07L197.783 143.93L205.077 148.07L197.783 152.407Z" fill="#6DE0F6"/>
<path d="M80.8707 101.745L73.5762 97.605L80.8707 93.4648L88.1652 97.605L80.8707 101.745Z" fill="#6DE0F6"/>
<path opacity="0.4" d="M95.4606 110.224L88.166 106.083L95.4606 101.746L102.755 106.083L95.4606 110.224Z" fill="#6DE0F6"/>
<path d="M110.05 118.7L102.756 114.363L110.05 110.223L117.345 114.363L110.05 118.7Z" fill="#6DE0F6"/>
<path d="M124.636 127.181L117.342 122.843L124.636 118.703L131.931 122.843L124.636 127.181Z" fill="#6DE0F6"/>
<path d="M139.228 135.464L131.934 131.324L139.228 127.184L146.523 131.324L139.228 135.464Z" fill="#6DE0F6"/>
<path d="M153.816 143.938L146.521 139.798L153.816 135.461L161.111 139.798L153.816 143.938Z" fill="#6DE0F6"/>
<path d="M168.408 152.415L161.113 148.078L168.408 143.938L175.702 148.078L168.408 152.415Z" fill="#6DE0F6"/>
<path opacity="0.4" d="M182.996 160.884L175.701 156.546L182.996 152.406L190.29 156.546L182.996 160.884Z" fill="#6DE0F6"/>
<path d="M197.582 169.167L190.287 165.027L197.582 160.887L204.876 165.027L197.582 169.167Z" fill="#6DE0F6"/>
<path d="M66.2828 110.214L58.9883 106.074L66.2828 101.934L73.5773 106.074L66.2828 110.214Z" fill="#6DE0F6"/>
<path d="M95.4606 127.177L88.166 122.839L95.4606 118.699L102.755 122.839L95.4606 127.177Z" fill="#6DE0F6"/>
<path d="M110.048 135.653L102.754 131.316L110.048 127.176L117.343 131.316L110.048 135.653Z" fill="#6DE0F6"/>
<path d="M124.636 143.937L117.342 139.796L124.636 135.656L131.931 139.796L124.636 143.937Z" fill="#6DE0F6"/>
<path d="M139.228 152.407L131.934 148.267L139.228 143.93L146.523 148.267L139.228 152.407Z" fill="#6DE0F6"/>
<path opacity="0.4" d="M153.816 160.884L146.521 156.546L153.816 152.406L161.111 156.546L153.816 160.884Z" fill="#6DE0F6"/>
<path d="M168.408 169.356L161.113 165.019L168.408 160.879L175.702 165.019L168.408 169.356Z" fill="#6DE0F6"/>
<path d="M182.99 177.64L175.695 173.5L182.99 169.359L190.284 173.5L182.99 177.64Z" fill="#6DE0F6"/>
<path d="M182.205 185.135C176.882 185.135 171.756 184.149 168.01 181.784L52.0863 114.753C48.3405 112.584 46.1719 109.627 46.1719 106.275C46.1719 102.924 49.1291 98.3894 54.255 95.2351L165.644 30.9645C175.305 25.4443 189.894 24.8528 198.371 29.5844L314.295 96.6151C318.041 98.7838 320.209 101.741 320.209 105.093C320.209 108.444 317.252 112.978 312.126 116.133L200.737 180.404C195.414 183.361 188.711 184.938 182.205 184.938V185.135ZM168.602 180.995C176.685 185.727 190.879 185.135 200.145 179.615L311.535 115.344C316.463 112.584 319.223 108.838 319.223 105.29C319.223 101.741 317.252 99.5724 313.9 97.6009L197.977 30.5702C189.894 25.8386 175.699 26.43 166.433 31.9502L55.0436 96.2208C50.1149 98.9809 47.3548 102.727 47.3548 106.275C47.3548 109.824 49.3262 111.993 52.6778 113.964L168.602 180.995Z" fill="#480689"/>
<path d="M117.935 194.013C117.935 196.379 116.358 197.167 114.387 196.182C112.415 194.999 110.838 192.239 110.838 189.873C110.838 187.507 112.415 186.718 114.387 187.704C116.358 188.887 117.935 191.647 117.935 194.013Z" fill="#6DE0F6"/>
<path d="M116.161 195.189C114.189 194.006 112.612 191.246 112.612 188.88C112.612 186.514 112.612 187.697 113.007 187.105C111.626 187.105 110.838 187.894 110.838 189.668C110.838 191.443 112.415 194.794 114.387 195.977C115.767 196.766 116.95 196.569 117.541 195.583C117.147 195.583 116.555 195.583 116.161 195.189Z" fill="#267FE5"/>
<path d="M129.172 200.521C129.172 202.886 127.594 203.675 125.623 202.689C123.651 201.506 122.074 198.746 122.074 196.381C122.074 194.015 123.651 193.226 125.623 194.212C127.594 195.395 129.172 198.155 129.172 200.521Z" fill="#6DE0F6"/>
<path d="M140.216 206.829C140.216 209.195 138.639 209.984 136.668 208.998C134.696 207.815 133.119 205.055 133.119 202.689C133.119 200.323 134.696 199.535 136.668 200.521C138.639 201.703 140.216 204.464 140.216 206.829Z" fill="#6DE0F6"/>
<path d="M127.198 201.7C125.227 200.517 123.649 197.757 123.649 195.392C123.649 193.026 123.649 194.209 124.044 193.617C122.664 193.617 121.875 194.406 121.875 196.18C121.875 197.954 123.452 201.306 125.424 202.489C126.804 203.277 127.987 203.08 128.578 202.095C128.184 202.095 127.592 202.095 127.198 201.7Z" fill="#267FE5"/>
<path d="M138.442 208.005C136.471 206.822 134.893 204.062 134.893 201.696C134.893 199.33 134.893 200.513 135.288 199.922C133.908 199.922 133.119 200.71 133.119 202.485C133.119 204.259 134.696 207.611 136.668 208.794C138.048 209.582 139.231 209.385 139.822 208.399C139.428 208.399 138.836 208.399 138.442 208.005Z" fill="#267FE5"/>
<path d="M117.935 242.904C117.935 245.269 116.358 246.058 114.387 245.072C112.415 243.889 110.838 241.129 110.838 238.763C110.838 236.398 112.415 235.609 114.387 236.595C116.358 237.778 117.935 240.538 117.935 242.904Z" fill="#6DE0F6"/>
<path d="M116.161 244.091C114.189 242.908 112.612 240.148 112.612 237.782C112.612 235.416 112.612 236.599 113.007 236.008C111.626 236.008 110.838 236.796 110.838 238.571C110.838 240.345 112.415 243.697 114.387 244.88C115.767 245.668 116.95 245.471 117.541 244.485C117.147 244.485 116.555 244.485 116.161 244.091Z" fill="#267FE5"/>
<path d="M129.172 249.216C129.172 251.582 127.594 252.37 125.623 251.385C123.651 250.202 122.074 247.442 122.074 245.076C122.074 242.71 123.651 241.921 125.623 242.907C127.594 244.09 129.172 246.85 129.172 249.216Z" fill="#6DE0F6"/>
<path d="M140.216 255.72C140.216 258.086 138.639 258.874 136.668 257.889C134.696 256.706 133.119 253.946 133.119 251.58C133.119 249.214 134.696 248.425 136.668 249.411C138.639 250.594 140.216 253.354 140.216 255.72Z" fill="#6DE0F6"/>
<path d="M127.198 250.396C125.227 249.213 123.649 246.453 123.649 244.087C123.649 241.721 123.649 242.904 124.044 242.312C122.664 242.312 121.875 243.101 121.875 244.875C121.875 246.65 123.452 250.001 125.424 251.184C126.804 251.973 127.987 251.776 128.578 250.79C128.184 250.79 127.592 250.79 127.198 250.396Z" fill="#267FE5"/>
<path d="M138.442 256.903C136.471 255.721 134.893 252.96 134.893 250.595C134.893 248.229 134.893 249.412 135.288 248.82C133.908 248.82 133.119 249.609 133.119 251.383C133.119 253.158 134.696 256.509 136.668 257.692C138.048 258.481 139.231 258.283 139.822 257.298C139.428 257.298 138.836 257.298 138.442 256.903Z" fill="#267FE5"/>
<defs>
<linearGradient id="paint0_linear_94_4423" x1="-34.6588" y1="336.35" x2="411.884" y2="336.35" gradientUnits="userSpaceOnUse">
<stop stop-color="#8A16A0"/>
<stop offset="0.1" stop-color="#740F98"/>
<stop offset="0.2" stop-color="#640A92"/>
<stop offset="0.3" stop-color="#5A068F"/>
<stop offset="0.5" stop-color="#58068E"/>
<stop offset="0.6" stop-color="#4D21A3"/>
<stop offset="0.9" stop-color="#3167D9"/>
<stop offset="1" stop-color="#2C75E4"/>
</linearGradient>
<linearGradient id="paint1_linear_94_4423" x1="835.526" y1="782.748" x2="1109.22" y2="730.193" gradientUnits="userSpaceOnUse">
<stop stop-color="#2C75E4"/>
<stop offset="0.2" stop-color="#317DE5"/>
<stop offset="0.4" stop-color="#3F94E9"/>
<stop offset="0.7" stop-color="#56BAEF"/>
<stop offset="1" stop-color="#6DE0F6"/>
</linearGradient>
<linearGradient id="paint2_linear_94_4423" x1="-405.496" y1="287.452" x2="-403.525" y2="287.452" gradientUnits="userSpaceOnUse">
<stop stop-color="#8A16A0"/>
<stop offset="0.1" stop-color="#740F98"/>
<stop offset="0.2" stop-color="#640A92"/>
<stop offset="0.3" stop-color="#5A068F"/>
<stop offset="0.5" stop-color="#58068E"/>
<stop offset="0.6" stop-color="#4D21A3"/>
<stop offset="0.9" stop-color="#3167D9"/>
<stop offset="1" stop-color="#2C75E4"/>
</linearGradient>
<linearGradient id="paint3_linear_94_4423" x1="814.377" y1="721.595" x2="1088.08" y2="669.041" gradientUnits="userSpaceOnUse">
<stop stop-color="#8D139B"/>
<stop offset="0.2" stop-color="#841BA1"/>
<stop offset="0.4" stop-color="#6D32B1"/>
<stop offset="0.8" stop-color="#4958CC"/>
<stop offset="1" stop-color="#2979E4"/>
</linearGradient>
<linearGradient id="paint4_linear_94_4423" x1="-405.496" y1="192.633" x2="-403.525" y2="192.633" gradientUnits="userSpaceOnUse">
<stop stop-color="#8A16A0"/>
<stop offset="0.1" stop-color="#740F98"/>
<stop offset="0.2" stop-color="#640A92"/>
<stop offset="0.3" stop-color="#5A068F"/>
<stop offset="0.5" stop-color="#58068E"/>
<stop offset="0.6" stop-color="#4D21A3"/>
<stop offset="0.9" stop-color="#3167D9"/>
<stop offset="1" stop-color="#2C75E4"/>
</linearGradient>
<linearGradient id="paint5_linear_94_4423" x1="773.359" y1="602.986" x2="1046.89" y2="550.333" gradientUnits="userSpaceOnUse">
<stop stop-color="#2C75E4"/>
<stop offset="0.2" stop-color="#317DE5"/>
<stop offset="0.4" stop-color="#3F94E9"/>
<stop offset="0.7" stop-color="#56BAEF"/>
<stop offset="1" stop-color="#6DE0F6"/>
</linearGradient>
<linearGradient id="paint6_linear_94_4423" x1="-405.496" y1="143.534" x2="-403.525" y2="143.534" gradientUnits="userSpaceOnUse">
<stop stop-color="#8A16A0"/>
<stop offset="0.1" stop-color="#740F98"/>
<stop offset="0.2" stop-color="#640A92"/>
<stop offset="0.3" stop-color="#5A068F"/>
<stop offset="0.5" stop-color="#58068E"/>
<stop offset="0.6" stop-color="#4D21A3"/>
<stop offset="0.9" stop-color="#3167D9"/>
<stop offset="1" stop-color="#2C75E4"/>
</linearGradient>
<linearGradient id="paint7_linear_94_4423" x1="752.039" y1="541.731" x2="1025.74" y2="489.177" gradientUnits="userSpaceOnUse">
<stop stop-color="#8D139B"/>
<stop offset="0.2" stop-color="#841BA1"/>
<stop offset="0.4" stop-color="#6D32B1"/>
<stop offset="0.8" stop-color="#4958CC"/>
<stop offset="1" stop-color="#2979E4"/>
</linearGradient>
<linearGradient id="paint8_linear_94_4423" x1="473.297" y1="439.528" x2="330.955" y2="192.985" gradientUnits="userSpaceOnUse">
<stop stop-color="#071033"/>
<stop offset="0.2" stop-color="#071235"/>
<stop offset="0.4" stop-color="#091B3F"/>
<stop offset="0.5" stop-color="#0B2A4F"/>
<stop offset="0.6" stop-color="#0F4065"/>
<stop offset="0.7" stop-color="#135B82"/>
<stop offset="0.8" stop-color="#197DA6"/>
<stop offset="0.9" stop-color="#20A4D0"/>
<stop offset="1" stop-color="#25BFEC"/>
</linearGradient>
<linearGradient id="paint9_linear_94_4423" x1="494.373" y1="378.645" x2="352.032" y2="132.102" gradientUnits="userSpaceOnUse">
<stop stop-color="#071033"/>
<stop offset="0.2" stop-color="#071235"/>
<stop offset="0.4" stop-color="#091B3F"/>
<stop offset="0.5" stop-color="#0B2A4F"/>
<stop offset="0.6" stop-color="#0F4065"/>
<stop offset="0.7" stop-color="#135B82"/>
<stop offset="0.8" stop-color="#197DA6"/>
<stop offset="0.9" stop-color="#20A4D0"/>
<stop offset="1" stop-color="#25BFEC"/>
</linearGradient>
</defs>
</svg>
