<svg width="16" height="17" viewBox="0 0 16 17" fill="none" xmlns="http://www.w3.org/2000/svg">
<path d="M8.33398 10.3333H6.66732C6.39398 10.3333 6.16732 10.1067 6.16732 9.83333C6.16732 9.56 6.39398 9.33333 6.66732 9.33333H8.33398C10.0807 9.33333 11.5007 7.91333 11.5007 6.16667C11.5007 4.42 10.0807 3 8.33398 3H5.00065C3.25398 3 1.83398 4.42 1.83398 6.16667C1.83398 6.9 2.09398 7.61333 2.56065 8.18C2.73398 8.39333 2.70732 8.70667 2.49398 8.88667C2.28065 9.06 1.96732 9.03333 1.78732 8.82C1.17398 8.07333 0.833984 7.13333 0.833984 6.16667C0.833984 3.86667 2.70065 2 5.00065 2H8.33398C10.634 2 12.5007 3.86667 12.5007 6.16667C12.5007 8.46667 10.634 10.3333 8.33398 10.3333Z" fill="#8547F6"/>
<path d="M11 14.9974H7.66667C5.36667 14.9974 3.5 13.1307 3.5 10.8307C3.5 8.53073 5.36667 6.66406 7.66667 6.66406H9.33333C9.60667 6.66406 9.83333 6.89073 9.83333 7.16406C9.83333 7.4374 9.60667 7.66406 9.33333 7.66406H7.66667C5.92 7.66406 4.5 9.08406 4.5 10.8307C4.5 12.5774 5.92 13.9974 7.66667 13.9974H11C12.7467 13.9974 14.1667 12.5774 14.1667 10.8307C14.1667 10.0974 13.9067 9.38406 13.44 8.8174C13.2667 8.60406 13.2933 8.29073 13.5067 8.11073C13.72 7.93073 14.0333 7.96406 14.2133 8.1774C14.8333 8.92406 15.1733 9.86406 15.1733 10.8307C15.1667 13.1307 13.3 14.9974 11 14.9974Z" fill="#8547F6"/>
</svg>
