<svg width="409" height="301" viewBox="0 0 409 301" fill="none" xmlns="http://www.w3.org/2000/svg">
<g style="mix-blend-mode:multiply">
<path opacity="0.1" d="M248.31 60.3163C262.28 52.1861 274.927 58.0579 288.8 66.1881L384.136 124.616C397.977 132.714 407.849 140.037 393.879 148.168L168.621 287.51C154.651 295.641 132.035 295.608 118.227 287.51L15.8571 226.889C1.95183 218.759 2.04862 205.595 16.0184 197.465L248.278 60.3486L248.31 60.3163Z" fill="#F6F8FA"/>
<path opacity="0.2" d="M247.699 60.8964C261.54 52.8307 274.316 58.5089 288.092 66.5423L382.493 124.293C396.204 132.326 405.722 139.714 391.881 147.78L168.429 285.961C154.589 294.027 132.198 293.995 118.487 285.961L17.1817 226.017C3.4378 217.951 3.50233 204.917 17.343 196.852L247.699 60.8641V60.8964Z" fill="#F4F6F9"/>
<path opacity="0.2" d="M247.05 61.4457C260.762 53.4768 273.699 58.8969 287.346 66.8981L380.779 123.939C394.362 131.875 403.524 139.392 389.78 147.361L168.136 284.381C154.424 292.35 132.259 292.318 118.677 284.381L18.4365 225.147C4.82163 217.178 4.88615 204.273 18.5978 196.272L247.05 61.4457Z" fill="#F2F5F8"/>
<path opacity="0.2" d="M246.441 61.9922C260.023 54.0879 273.122 59.3144 286.608 67.2188L379.073 123.582C392.526 131.454 401.302 139.036 387.719 146.94L167.881 282.798C154.298 290.703 132.36 290.67 118.906 282.798L19.7303 224.274C6.24452 216.369 6.30904 203.593 19.8917 195.689L246.441 61.9922Z" fill="#F0F3F7"/>
<path opacity="0.3" d="M245.795 62.5722C259.248 54.7646 272.508 59.7653 285.865 67.5729L377.362 123.258C390.687 131.066 399.107 138.712 385.654 146.552L167.622 281.249C154.169 289.057 132.423 289.057 119.131 281.249L21.0203 223.402C7.6635 215.594 7.72803 202.915 21.1816 195.107L245.827 62.5399L245.795 62.5722Z" fill="#EEF1F6"/>
<path opacity="0.3" d="M245.179 63.1206C258.504 55.3776 271.893 60.1524 285.121 67.8955L375.65 122.903C388.845 130.614 396.879 138.39 383.554 146.133L167.329 279.668C154.005 287.411 132.486 287.379 119.29 279.668L22.2438 222.531C9.01608 214.788 9.0806 202.27 22.4051 194.527L245.147 63.1206H245.179Z" fill="#ECF0F5"/>
<path opacity="0.3" d="M244.537 63.6684C257.733 55.9899 271.283 60.5712 284.382 68.2497L373.943 122.58C387.01 130.226 394.688 138.066 381.493 145.745L167.075 278.119C153.879 285.797 132.586 285.765 119.519 278.119L23.5376 221.691C10.439 214.013 10.5035 201.624 23.6989 193.978L244.537 63.7007V63.6684Z" fill="#E9EEF3"/>
<path opacity="0.4" d="M243.891 64.2513C256.957 56.6695 270.669 61.025 283.638 68.6068L372.264 122.26C385.169 129.809 392.493 137.778 379.458 145.36L166.847 276.572C153.781 284.154 132.681 284.122 119.776 276.572L24.8588 220.822C11.8892 213.241 11.9537 200.981 25.0201 193.367L243.955 64.219L243.891 64.2513Z" fill="#E7ECF2"/>
<path opacity="0.4" d="M243.278 64.7987C256.215 57.2815 270.056 61.4433 282.897 68.9283L370.554 121.904C383.33 129.389 390.299 137.422 377.362 144.939L166.557 274.99C153.62 282.508 132.746 282.475 119.97 274.99L26.1175 219.95C13.2769 212.433 13.3415 200.302 26.2788 192.785L243.31 64.7987H243.278Z" fill="#E5EAF1"/>
<path opacity="0.4" d="M242.633 65.3454C255.409 57.925 269.443 61.8288 282.155 69.2492L368.845 121.547C381.492 128.935 388.106 137.065 375.297 144.518L166.299 273.44C153.523 280.86 132.843 280.828 120.164 273.44L27.3762 219.11C14.6647 211.689 14.7292 199.655 27.5375 192.235L242.665 65.3777L242.633 65.3454Z" fill="#E3E9F0"/>
<path opacity="0.5" d="M242.02 65.9285C254.667 58.5726 268.863 62.2828 281.413 69.6387L367.135 121.259C379.653 128.583 385.88 136.81 373.233 144.133L166.042 271.894C153.395 279.25 132.94 279.217 120.39 271.894L28.6349 218.241C16.0524 210.885 16.1169 199.012 28.7962 191.656L242.02 65.9285Z" fill="#E1E7EF"/>
<path opacity="0.5" d="M241.376 66.477C253.894 59.2179 268.218 62.7023 280.672 69.9614L365.426 120.904C377.815 128.163 383.687 136.455 371.136 143.714L165.752 270.313C153.234 277.572 132.973 277.572 120.584 270.313L29.8935 217.37C17.4401 210.111 17.5047 198.335 30.0549 191.076L241.376 66.5093V66.477Z" fill="#DFE5EE"/>
<path opacity="0.5" d="M240.761 67.0265C253.15 59.8319 267.636 63.0905 279.96 70.2851L363.747 120.55C376.006 127.713 381.491 136.101 369.102 143.296L165.524 268.733C153.136 275.928 133.1 275.895 120.841 268.733L31.2147 216.5C18.8904 209.305 18.9549 197.658 31.376 190.496L240.793 67.0588L240.761 67.0265Z" fill="#DCE4EC"/>
<path opacity="0.5" d="M240.116 67.6075C252.376 60.4775 267.023 63.5424 279.187 70.6402L362.005 120.228C374.136 127.326 379.266 135.811 367.006 142.909L165.235 267.185C152.975 274.315 133.165 274.283 121.035 267.185L32.4735 215.629C20.2782 208.499 20.3427 197.013 32.6025 189.883L240.116 67.5753V67.6075Z" fill="#DAE2EB"/>
<path opacity="0.6" d="M239.504 68.1544C251.635 61.1211 266.411 63.9602 278.477 70.9935L360.36 119.872C372.362 126.873 377.104 135.454 364.974 142.488L164.977 265.602C152.846 272.636 133.23 272.603 121.229 265.602L33.7322 214.756C21.6659 207.723 21.7304 196.334 33.8612 189.301L239.472 68.1544H239.504Z" fill="#D8E0EA"/>
<path opacity="0.6" d="M238.859 68.7361C250.86 61.7673 265.798 64.3806 277.703 71.3493L358.618 119.55C370.491 126.486 374.878 135.133 362.877 142.101L164.687 264.055C152.685 271.023 133.295 270.991 121.422 264.055L34.9904 213.918C23.0855 206.95 23.1177 195.722 35.1195 188.753L238.826 68.7361H238.859Z" fill="#D6DFE9"/>
<path opacity="0.6" d="M238.244 69.2844C250.116 62.4124 265.215 64.7999 276.991 71.6719L356.938 119.195C368.682 126.035 372.715 134.81 360.842 141.682L164.459 262.474C152.586 269.346 133.422 269.313 121.678 262.474L36.3113 213.015C24.5354 206.143 24.5999 195.012 36.4403 188.14L238.244 69.2521V69.2844Z" fill="#D4DDE8"/>
<path opacity="0.7" d="M237.599 69.8326C249.342 63.0251 264.571 65.219 276.25 71.9942L355.229 118.84C366.843 125.615 370.489 134.455 358.745 141.262L164.169 260.892C152.425 267.7 133.487 267.668 121.872 260.892L37.57 212.143C25.9231 205.336 25.9876 194.334 37.699 187.559L237.599 69.8326Z" fill="#D2DBE7"/>
<path opacity="0.7" d="M236.986 70.4117C248.601 63.701 263.99 65.6368 275.508 72.3797L353.519 118.548C365.005 125.258 368.296 134.163 356.681 140.906L163.911 259.375C152.297 266.085 133.552 266.053 122.066 259.375L38.8286 211.335C27.3108 204.625 27.3754 193.752 38.9577 187.009L236.954 70.4117H236.986Z" fill="#CFD9E5"/>
<path opacity="0.7" d="M236.34 70.9596C247.826 64.3135 263.377 66.0557 274.765 72.7018L351.809 118.192C363.165 124.806 366.069 133.84 354.616 140.486L163.653 257.793C152.167 264.439 133.648 264.407 122.292 257.793L40.1186 210.431C28.7298 203.785 28.7944 193.042 40.2476 186.396L236.34 70.9274V70.9596Z" fill="#CDD8E4"/>
<path opacity="0.8" d="M235.697 71.5079C247.021 64.9586 262.733 66.4749 273.993 73.0242L350.1 117.837C361.328 124.386 363.877 133.485 352.52 140.066L163.364 256.244C152.039 262.794 133.714 262.794 122.487 256.244L41.346 209.592C30.0863 203.043 30.1508 192.429 41.4751 185.847L235.664 71.5401L235.697 71.5079Z" fill="#CBD6E3"/>
<path opacity="0.8" d="M235.082 72.0911C246.277 65.6063 262.15 66.9291 273.281 73.3816L348.421 117.517C359.519 123.97 361.681 133.197 350.486 139.682L163.136 254.698C151.941 261.183 133.809 261.151 122.743 254.698L42.6672 208.756C31.5366 202.271 31.6011 191.786 42.7962 185.301L235.082 72.1234V72.0911Z" fill="#C9D4E2"/>
<path opacity="0.8" d="M234.437 72.6374C245.503 66.2171 261.538 67.3141 272.54 73.7343L346.712 117.192C357.681 123.58 359.488 132.872 348.421 139.26L162.879 253.115C151.812 259.535 133.907 259.503 122.937 253.115L43.9259 207.85C32.9243 201.43 32.9888 191.074 44.0549 184.686L234.437 72.6374Z" fill="#C7D3E1"/>
<path opacity="0.9" d="M233.824 73.1886C244.761 66.8651 260.924 67.7362 271.797 74.0597L345.001 116.84C355.841 123.131 357.293 132.52 346.356 138.843L162.62 251.537C151.683 257.86 134.003 257.828 123.163 251.537L45.2158 206.982C34.3433 200.659 34.4078 190.431 45.3449 184.108L233.824 73.2209V73.1886Z" fill="#C5D1E0"/>
<path opacity="0.9" d="M233.179 73.7669C243.987 67.5079 260.312 68.1854 271.055 74.4122L343.292 116.515C354.003 122.742 355.067 132.227 344.259 138.454L162.33 249.986C151.522 256.245 134.068 256.213 123.357 249.986L46.4745 206.141C35.731 199.882 35.7955 189.784 46.6035 183.525L233.179 73.7669Z" fill="#C2CFDE"/>
<path opacity="0.9" d="M232.565 74.3158C243.244 68.1536 259.731 68.573 270.313 74.7674L341.581 116.193C352.163 122.323 352.873 131.905 342.194 138.067L162.071 248.438C151.392 254.6 134.132 254.568 123.582 248.438L47.7644 205.27C37.15 199.108 37.2145 189.139 47.8935 182.944L232.565 74.3158Z" fill="#C0CDDD"/>
<path d="M231.919 74.864C242.469 68.7663 259.085 68.9922 269.57 75.0898L339.871 115.838C350.291 121.903 350.646 131.55 340.129 137.647L161.813 246.857C151.263 252.954 134.228 252.922 123.807 246.857L49.0543 204.399C38.569 198.301 38.6335 188.461 49.1834 182.363L231.952 74.8963L231.919 74.864Z" fill="#BECCDC"/>
<path d="M231.306 75.4457C241.727 69.4449 258.503 69.4449 268.86 75.4457L338.225 115.484C348.516 121.485 348.516 131.228 338.096 137.229L161.586 245.277C151.165 251.278 134.356 251.278 124.032 245.277L50.3443 203.529C39.9879 197.528 40.0525 187.785 50.4733 181.784L231.338 75.4457H231.306Z" fill="#BCCADB"/>
</g>
<path d="M346.098 110.998C356.713 117.128 356.777 127.065 346.228 133.163L153.232 245.308C142.682 251.438 125.551 251.438 114.936 245.308L33.763 198.463C23.1486 192.333 23.0841 182.396 33.634 176.266L226.63 64.1206C237.147 57.9907 254.311 57.9907 264.925 64.1206L346.098 110.966V110.998ZM36.0214 177.653C26.7943 183.009 26.5362 191.913 35.8278 197.301L117.001 244.147C126.325 249.535 141.682 249.341 150.941 243.985L343.937 131.84C353.164 126.484 353.132 117.741 343.808 112.353L262.635 65.5079C253.343 60.1523 238.276 60.1523 229.049 65.5079L36.0537 177.653H36.0214Z" fill="#EBEDF2"/>
<path d="M257.442 68.0238C251.054 64.3459 240.73 64.3459 234.375 68.0238L39.8948 181.04C33.5391 184.75 33.6036 190.719 39.9594 194.397L121.874 241.694C128.262 245.372 138.587 245.404 144.942 241.694L339.422 128.678C345.778 125 345.713 118.999 339.358 115.321L257.442 68.0238Z" fill="url(#paint0_radial_15_229)"/>
<path d="M343.774 112.354C353.098 117.742 353.13 126.453 343.903 131.841L150.908 243.986C141.68 249.342 126.291 249.535 116.967 244.147L35.7941 197.302C26.5024 191.946 26.7605 183.042 35.9877 177.654L228.983 65.5087C238.21 60.153 253.277 60.153 262.569 65.5087L343.742 112.354H343.774ZM39.9238 181.041C33.568 184.752 33.6325 190.72 39.9883 194.398L121.903 241.695C128.291 245.373 138.615 245.406 144.971 241.695L339.451 128.679C345.807 125.001 345.742 119 339.386 115.322L257.471 68.0251C251.083 64.3472 240.759 64.3472 234.403 68.0251L39.9238 181.041Z" fill="#F2F4F8"/>
<path d="M25.794 187.298C25.794 191.331 28.4395 195.396 33.7951 198.461L114.968 245.307C125.583 251.437 142.714 251.437 153.264 245.307L346.26 133.161C351.486 130.129 354.099 126.16 354.099 122.16V133.226C354.067 137.227 351.454 141.195 346.227 144.228L153.232 256.373C142.682 262.503 125.55 262.503 114.936 256.373L33.7629 209.527C28.4072 206.43 25.7617 202.397 25.7617 198.364V187.298H25.794Z" fill="url(#paint1_linear_15_229)"/>
<g style="mix-blend-mode:multiply">
<path opacity="0.3" d="M259.118 51.3132C252.73 47.6352 242.406 47.6352 236.05 51.3132L41.5707 164.329C35.2149 168.04 35.2794 174.008 41.6352 177.686L123.55 224.983C129.938 228.661 140.262 228.694 146.618 224.983L341.098 111.967C347.454 108.289 347.389 102.288 341.033 98.6103L259.118 51.3132Z" fill="url(#paint2_radial_15_229)"/>
<path opacity="0.3" d="M259.118 29.0514C252.73 25.3735 242.406 25.3735 236.05 29.0514L41.5707 142.068C35.2149 145.778 35.2794 151.747 41.6352 155.425L123.55 202.722C129.938 206.4 140.262 206.432 146.618 202.722L341.098 89.7054C347.454 86.0274 347.389 80.0265 341.033 76.3486L259.118 29.0514Z" fill="url(#paint3_radial_15_229)"/>
<path opacity="0.3" d="M259.118 2.75846C252.73 -0.919488 242.406 -0.919488 236.05 2.75846L41.5707 115.775C35.2149 119.485 35.2794 125.454 41.6352 129.132L123.55 176.429C129.938 180.107 140.262 180.139 146.618 176.429L341.098 63.4124C347.454 59.7345 347.389 53.7336 341.033 50.0556L259.118 2.75846Z" fill="url(#paint4_radial_15_229)"/>
</g>
<defs>
<radialGradient id="paint0_radial_15_229" cx="0" cy="0" r="1" gradientUnits="userSpaceOnUse" gradientTransform="translate(188.36 65.2654) rotate(90) scale(179.199 109.863)">
<stop stop-color="#B189FF"/>
<stop offset="1" stop-color="#8144F6"/>
</radialGradient>
<linearGradient id="paint1_linear_15_229" x1="25.7617" y1="191.589" x2="354.099" y2="191.589" gradientUnits="userSpaceOnUse">
<stop stop-color="#F5F7FA"/>
<stop offset="1" stop-color="#DFE6F0"/>
</linearGradient>
<radialGradient id="paint2_radial_15_229" cx="0" cy="0" r="1" gradientUnits="userSpaceOnUse" gradientTransform="translate(190.036 48.5547) rotate(90) scale(179.199 109.863)">
<stop stop-color="#B189FF"/>
<stop offset="1" stop-color="#8144F6"/>
</radialGradient>
<radialGradient id="paint3_radial_15_229" cx="0" cy="0" r="1" gradientUnits="userSpaceOnUse" gradientTransform="translate(190.036 26.293) rotate(90) scale(179.199 109.863)">
<stop stop-color="#B189FF"/>
<stop offset="1" stop-color="#8144F6"/>
</radialGradient>
<radialGradient id="paint4_radial_15_229" cx="0" cy="0" r="1" gradientUnits="userSpaceOnUse" gradientTransform="translate(190.036) rotate(90) scale(179.199 109.863)">
<stop stop-color="#B189FF"/>
<stop offset="1" stop-color="#8144F6"/>
</radialGradient>
</defs>
</svg>
