<svg width="256" height="67" viewBox="0 0 256 67" fill="none" xmlns="http://www.w3.org/2000/svg">
<g clip-path="url(#clip0_63_10899)">
<g clip-path="url(#clip1_63_10899)">
<path d="M0.5 62.7169C35.3313 62.7169 31.212 14.7461 66.0433 14.7461C100.875 14.7461 96.7553 27.5383 131.587 27.5383C166.418 27.5383 161.05 48.5541 195.881 48.5541C230.713 48.5541 236.614 59.3505 271.446 59.3505" stroke="#FA2256" stroke-width="3" stroke-linecap="round"/>
<path d="M0.5 62.7169C35.3313 62.7169 31.212 14.7461 66.0433 14.7461C100.875 14.7461 96.7553 27.5383 131.587 27.5383C166.418 27.5383 161.05 48.5541 195.881 48.5541C230.713 48.5541 236.614 59.3505 271.446 59.3505" stroke="url(#paint0_linear_63_10899)" stroke-width="3" stroke-linecap="round"/>
<path fill-rule="evenodd" clip-rule="evenodd" d="M0.5 62.7169C35.3313 62.7169 31.212 14.7461 66.0433 14.7461C100.875 14.7461 96.7553 27.5383 131.587 27.5383C166.418 27.5383 161.05 48.5541 195.881 48.5541C230.713 48.5541 236.614 59.3505 271.446 59.3505" fill="url(#paint1_linear_63_10899)"/>
<path fill-rule="evenodd" clip-rule="evenodd" d="M0.5 62.7177C34.5126 62.7177 38.8544 29.429 72.867 29.429C106.88 29.429 101.24 2.98047 135.252 2.98047C169.265 2.98047 168.616 40.3732 202.628 40.3732C236.641 40.3732 238.487 59.2201 272.5 59.2201" fill="url(#paint2_linear_63_10899)"/>
<path d="M0.5 62.7177C34.5126 62.7177 38.8544 29.429 72.867 29.429C106.88 29.429 101.24 2.98047 135.252 2.98047C169.265 2.98047 168.616 40.3732 202.628 40.3732C236.641 40.3732 238.487 59.2201 272.5 59.2201" stroke="#11CABE" stroke-width="3" stroke-linecap="round"/>
<path d="M0.5 62.7177C34.5126 62.7177 38.8544 29.429 72.867 29.429C106.88 29.429 101.24 2.98047 135.252 2.98047C169.265 2.98047 168.616 40.3732 202.628 40.3732C236.641 40.3732 238.487 59.2201 272.5 59.2201" stroke="url(#paint3_linear_63_10899)" stroke-width="3" stroke-linecap="round"/>
</g>
</g>
<defs>
<linearGradient id="paint0_linear_63_10899" x1="135.973" y1="14.7461" x2="135.973" y2="62.7169" gradientUnits="userSpaceOnUse">
<stop stop-color="#8AFF6C"/>
<stop offset="1" stop-color="#02C751"/>
</linearGradient>
<linearGradient id="paint1_linear_63_10899" x1="135.5" y1="-2.90354" x2="135.887" y2="64.9802" gradientUnits="userSpaceOnUse">
<stop stop-color="#30E0A1"/>
<stop offset="1" stop-color="#1A1A1A" stop-opacity="0"/>
</linearGradient>
<linearGradient id="paint2_linear_63_10899" x1="136.5" y1="-7.88085" x2="136.5" y2="62.7177" gradientUnits="userSpaceOnUse">
<stop stop-color="#BD47FB"/>
<stop offset="1" stop-opacity="0"/>
</linearGradient>
<linearGradient id="paint3_linear_63_10899" x1="272.5" y1="17.9146" x2="7.28465" y2="18.9468" gradientUnits="userSpaceOnUse">
<stop stop-color="#E323FF"/>
<stop offset="1" stop-color="#7517F8"/>
</linearGradient>
<clipPath id="clip0_63_10899">
<rect width="255" height="66.0249" fill="white" transform="translate(0.5 0.96875)"/>
</clipPath>
<clipPath id="clip1_63_10899">
<rect width="272" height="72" fill="white" transform="translate(0.5 -2.01953)"/>
</clipPath>
</defs>
</svg>
