<svg width="31" height="31" viewBox="0 0 31 31" fill="none" xmlns="http://www.w3.org/2000/svg">
<g clip-path="url(#clip0_63_9746)">
<circle cx="15.3914" cy="15.618" r="14.7977" fill="#7F6EE9"/>
<path d="M15.7167 4.55105V4.56156C15.7272 4.61409 15.7272 4.67712 15.7272 4.74016V12.3151C15.7167 12.3571 15.6852 12.3676 15.6536 12.3886C15.433 12.4937 15.2229 12.5883 15.0023 12.6828C14.6976 12.8194 14.3824 12.9665 14.0777 13.1031L12.9746 13.6074C12.6699 13.7439 12.3652 13.8805 12.071 14.0171C11.7138 14.1852 11.3461 14.3428 10.9889 14.5109C10.6842 14.6475 10.3795 14.7945 10.0644 14.9311C9.81221 15.0467 9.56007 15.1518 9.31842 15.2673C9.29741 15.2778 9.2764 15.2883 9.25539 15.2883C9.24488 15.2883 9.24488 15.2883 9.23438 15.2778L9.51804 14.8051C10.0644 13.9015 10.6002 13.0085 11.1465 12.105C11.7243 11.1384 12.3127 10.1718 12.8905 9.20528C13.4263 8.31225 13.9727 7.41923 14.5085 6.52621C14.8972 5.87483 15.2964 5.22344 15.6852 4.57206C15.6957 4.55105 15.7062 4.54054 15.7062 4.51953H15.7167C15.7062 4.53004 15.7167 4.54054 15.7167 4.55105Z" fill="#F3F3F3"/>
<path d="M22.171 15.2766L22.1815 15.2871L20.6371 16.2011L15.7833 19.0693C15.7623 19.0798 15.7412 19.0903 15.7307 19.1008C15.6992 19.1008 15.6992 19.0693 15.6992 19.0588V18.9642V12.4714C15.6992 12.4399 15.6992 12.3979 15.7097 12.3663C15.7202 12.3243 15.7517 12.3348 15.7833 12.3453C15.9198 12.4084 16.0669 12.4714 16.2035 12.5344C16.6133 12.7236 17.023 12.9127 17.4327 13.0913C17.7899 13.2489 18.1366 13.417 18.4939 13.5746C18.8511 13.7321 19.2083 13.9002 19.5655 14.0578C19.8702 14.1944 20.1853 14.3415 20.49 14.4781C20.7947 14.6147 21.1099 14.7617 21.4146 14.8983C21.6562 15.0034 21.8979 15.119 22.1395 15.224C22.1395 15.2555 22.15 15.266 22.171 15.2766Z" fill="#8A8DA7"/>
<path d="M15.7167 25.6269C15.7167 25.6374 15.7062 25.6479 15.7062 25.6584H15.6957C15.6957 25.6374 15.6746 25.6269 15.6641 25.6059C15.0128 24.6918 14.3614 23.7673 13.71 22.8533C13.0481 21.9182 12.3757 20.9727 11.7138 20.0376C11.073 19.1341 10.4216 18.22 9.78069 17.3165C9.6126 17.0749 9.4445 16.8437 9.2764 16.6021C9.26589 16.5811 9.25539 16.5706 9.23438 16.5391C9.26589 16.5391 9.28691 16.5601 9.29741 16.5706C10.2114 17.1064 11.115 17.6422 12.029 18.178C13.0796 18.7979 14.1197 19.4177 15.1704 20.0376L15.7062 20.3528C15.7272 20.3738 15.7272 20.3948 15.7272 20.4158V25.4798C15.7272 25.5323 15.7272 25.5849 15.7167 25.6269Z" fill="#F3F3F3"/>
<path d="M9.22656 15.2987V15.2882C9.56276 15.1411 9.88845 14.9835 10.2246 14.8364C10.6554 14.6368 11.0862 14.4477 11.5169 14.2481C11.8426 14.101 12.1788 13.9434 12.5045 13.7963C12.9878 13.5757 13.4605 13.3655 13.9438 13.1449C14.2695 12.9978 14.5952 12.8507 14.9314 12.6931C15.1625 12.5881 15.4042 12.483 15.6353 12.378C15.6563 12.3675 15.6878 12.3569 15.6984 12.3359C15.7089 12.3359 15.7089 12.3464 15.6984 12.3569V19.0284C15.6984 19.0599 15.6878 19.0914 15.7089 19.1124C15.6878 19.1439 15.6668 19.1124 15.6563 19.1019C15.5618 19.0494 15.4672 18.9968 15.3727 18.9338C13.345 17.7361 11.3068 16.5279 9.27909 15.3302C9.26859 15.3197 9.24757 15.3092 9.22656 15.2987Z" fill="#C5C8D9"/>
<path d="M22.1512 16.5391H22.1617C22.1617 16.5601 22.1407 16.5811 22.1302 16.6021C20.1971 19.3232 18.2639 22.0548 16.3308 24.7759C16.1312 25.0596 15.9211 25.3432 15.7214 25.6269C15.7109 25.6164 15.7109 25.6059 15.7109 25.5954V25.5323V20.4368V20.3423C16.1522 20.0796 16.5829 19.8275 17.0242 19.5648C18.7262 18.5562 20.4282 17.5582 22.1197 16.5496C22.1302 16.5601 22.1407 16.5496 22.1512 16.5391Z" fill="#C5C8D9"/>
<path d="M15.7046 12.3581V12.3371V12.274V4.64655C15.7046 4.61503 15.6941 4.59402 15.7151 4.5625C17.8479 8.10307 19.9806 11.6331 22.1029 15.1737C22.1239 15.2052 22.1554 15.2473 22.1659 15.2893C22.0188 15.2368 21.8822 15.1632 21.7456 15.1002C21.5775 15.0266 21.3989 14.9426 21.2308 14.869C21.1258 14.8165 21.0102 14.7745 20.9052 14.7219C20.7265 14.6379 20.5479 14.5644 20.3693 14.4803C20.2643 14.4383 20.1592 14.3858 20.0542 14.3332L19.3607 14.018C19.2452 13.9655 19.1296 13.913 19.0035 13.8604L18.4992 13.6398C18.3942 13.5978 18.2891 13.5453 18.1841 13.4927L17.4907 13.1775C17.3751 13.125 17.2595 13.0725 17.1334 13.02L16.6291 12.7993C16.5136 12.7468 16.4085 12.6943 16.293 12.6417C16.0933 12.5472 15.8937 12.4526 15.6836 12.3686C15.7151 12.3581 15.7046 12.3581 15.7046 12.3581Z" fill="#C5C8D9"/>
</g>
<defs>
<clipPath id="clip0_63_9746">
<rect width="29.5954" height="29.5954" fill="white" transform="translate(0.59375 0.820312)"/>
</clipPath>
</defs>
</svg>
