<svg width="172" height="44" viewBox="0 0 172 44" fill="none" xmlns="http://www.w3.org/2000/svg">
<path d="M165.736 38.7758H171.156V41.9658C171.156 42.6469 170.604 43.199 169.923 43.199H2.21599C1.53494 43.199 0.982849 42.6469 0.982849 41.9658V10.5208L7.73657 25.025C8.23273 26.0906 9.79681 25.9237 10.057 24.7775L11.9967 16.2324C12.1792 15.4287 13.0835 15.0267 13.8024 15.4297L17.0775 17.2661C17.6305 17.5761 18.3285 17.4163 18.6916 16.8966L21.4175 12.9938C21.8324 12.3997 22.6676 12.2897 23.2222 12.7561L33.0161 20.993C33.3577 21.2803 33.8279 21.3605 34.2454 21.2029L36.1711 20.4757C36.7531 20.256 37.4076 20.5041 37.6976 21.0545L42.7408 30.6247C43.2188 31.5318 44.5307 31.4932 44.9546 30.5596L49.0365 21.5684C49.0698 21.4951 49.1102 21.4252 49.1571 21.3598L54.4043 14.0398C54.8619 13.4016 55.7915 13.3479 56.3195 13.9293L58.7668 16.6246C59.1552 17.0524 59.7885 17.1531 60.2905 16.8669L66.8572 13.1232C67.5527 12.7267 68.4357 13.0877 68.6543 13.8579L70.7435 21.2209C70.7879 21.3775 70.863 21.5238 70.9643 21.6513L73.5807 24.9446C74.0357 25.5172 74.8863 25.5703 75.4089 25.0587L78.7824 21.7561C78.9796 21.5631 79.2358 21.4418 79.5101 21.4116L82.4816 21.0843C82.9383 21.034 83.3292 20.734 83.4958 20.3058L88.693 6.95011C89.0291 6.08661 90.1618 5.88831 90.7711 6.5863L93.2502 9.42579C93.863 10.1276 95.0028 9.92254 95.3325 9.05113L97.8126 2.49576C98.1822 1.51887 99.5229 1.4151 100.038 2.32348L104.595 10.352C104.814 10.738 105.223 10.9765 105.667 10.9765H112.594C112.99 10.9765 113.362 11.1666 113.594 11.4876L115.846 14.6054C116.338 15.2869 117.353 15.2869 117.845 14.6054L119.014 12.9873C119.61 12.1614 120.894 12.3741 121.193 13.3482L129.08 39.1017C129.193 39.4706 129.472 39.7653 129.834 39.8982L134.485 41.6055C135.051 41.8134 135.685 41.5812 135.982 41.0566L139.428 34.9854C139.795 34.3376 140.649 34.1611 141.243 34.61L149.774 41.0522C150.398 41.5235 151.298 41.3023 151.632 40.5953L153.498 36.6503C153.546 36.5487 153.607 36.4541 153.681 36.3692L159.046 30.1876C159.632 29.5125 160.719 29.6658 161.096 30.4766L164.618 38.0619C164.82 38.4973 165.256 38.7758 165.736 38.7758Z" fill="url(#paint0_linear_1_3022)"/>
<path d="M171.156 38.7758H165.736C165.256 38.7758 164.82 38.4973 164.618 38.0619L161.096 30.4766C160.719 29.6658 159.632 29.5125 159.046 30.1876L153.681 36.3692C153.607 36.4541 153.546 36.5487 153.498 36.6503L151.632 40.5953C151.298 41.3023 150.398 41.5235 149.774 41.0522L141.243 34.61C140.649 34.1611 139.795 34.3376 139.428 34.9854L135.982 41.0566C135.685 41.5812 135.051 41.8134 134.485 41.6055L129.834 39.8982C129.472 39.7653 129.193 39.4706 129.08 39.1017L121.193 13.3482C120.894 12.3741 119.61 12.1614 119.014 12.9873L117.845 14.6054C117.353 15.2869 116.338 15.2869 115.846 14.6054L113.594 11.4876C113.362 11.1666 112.99 10.9765 112.594 10.9765H105.667C105.223 10.9765 104.814 10.738 104.595 10.352L100.038 2.32348C99.5229 1.4151 98.1822 1.51887 97.8126 2.49576L95.3325 9.05113C95.0028 9.92254 93.863 10.1276 93.2502 9.42579L90.7711 6.5863C90.1617 5.88831 89.0291 6.08661 88.693 6.95011L83.4958 20.3058C83.3292 20.734 82.9383 21.034 82.4816 21.0843L79.5101 21.4116C79.2358 21.4418 78.9796 21.5631 78.7824 21.7561L75.4089 25.0587C74.8863 25.5703 74.0357 25.5172 73.5807 24.9446L70.9643 21.6513C70.863 21.5238 70.788 21.3775 70.7435 21.2209L68.6543 13.8579C68.4357 13.0877 67.5527 12.7267 66.8572 13.1232L60.2905 16.8669C59.7885 17.1531 59.1552 17.0524 58.7668 16.6246L56.3195 13.9293C55.7916 13.3479 54.8619 13.4015 54.4043 14.0398L49.1571 21.3598C49.1102 21.4252 49.0698 21.4951 49.0365 21.5684L44.9546 30.5596C44.5307 31.4932 43.2188 31.5318 42.7408 30.6247L37.6977 21.0545C37.4076 20.5041 36.7531 20.256 36.1711 20.4757L34.2454 21.2029C33.8278 21.3605 33.3577 21.2803 33.0161 20.993L23.2222 12.7561C22.6676 12.2897 21.8324 12.3997 21.4175 12.9938L18.6916 16.8966C18.3285 17.4163 17.6305 17.5761 17.0775 17.2661L13.8024 15.4297C13.0835 15.0267 12.1792 15.4287 11.9967 16.2324L10.1241 24.482C9.85726 25.6575 8.23601 25.7913 7.78003 24.6755L1.99578 10.5208" stroke="#FA2256" stroke-width="1.23314" stroke-linecap="round"/>
<defs>
<linearGradient id="paint0_linear_1_3022" x1="86.0695" y1="0.0390625" x2="86.0695" y2="43.199" gradientUnits="userSpaceOnUse">
<stop offset="0.104167" stop-color="#FCE2ED" stop-opacity="0.38"/>
<stop offset="1" stop-color="#2C2C2C" stop-opacity="0"/>
</linearGradient>
</defs>
</svg>
