<svg width="8" height="13" viewBox="0 0 8 13" fill="none" xmlns="http://www.w3.org/2000/svg">
<path fill-rule="evenodd" clip-rule="evenodd" d="M0.679689 5.20411C1.00261 5.52703 1.52616 5.52703 1.84908 5.20411L4.15848 2.89471L6.46788 5.20411C6.7908 5.52703 7.31435 5.52703 7.63727 5.20411C7.96019 4.88119 7.96019 4.35764 7.63727 4.03472L4.74318 1.14063C4.42026 0.817708 3.8967 0.817708 3.57378 1.14063L0.679689 4.03472C0.356771 4.35764 0.356771 4.88119 0.679689 5.20411Z" fill="#777E91"/>
<path fill-rule="evenodd" clip-rule="evenodd" d="M0.679689 8.16698C1.00261 7.84406 1.52616 7.84406 1.84908 8.16698L4.15848 10.4764L6.46788 8.16698C6.7908 7.84406 7.31435 7.84406 7.63727 8.16698C7.96019 8.4899 7.96019 9.01345 7.63727 9.33637L4.74318 12.2305C4.42026 12.5534 3.8967 12.5534 3.57378 12.2305L0.679689 9.33637C0.356771 9.01345 0.356771 8.4899 0.679689 8.16698Z" fill="#777E91"/>
</svg>
