<svg width="16" height="16" viewBox="0 0 16 16" fill="none" xmlns="http://www.w3.org/2000/svg">
<path d="M4.39196 7.90568C4.47612 8.06168 4.63615 8.15893 4.81021 8.15893H7.52051V13.5105C7.52051 13.7807 7.73473 14 7.99868 14C8.26263 14 8.47686 13.7807 8.47686 13.5105V8.15893H11.1872C11.3618 8.15893 11.5219 8.06168 11.6054 7.90568C11.6902 7.74969 11.6845 7.5591 11.592 7.40832L8.40354 2.22845C8.31555 2.08616 8.16317 2 7.99868 2C7.83419 2 7.68181 2.08616 7.59383 2.22845L4.40535 7.40832C4.3569 7.48795 4.33203 7.57868 4.33203 7.6694C4.33203 7.75034 4.35243 7.83193 4.39196 7.90568Z" fill="#11CABE"/>
</svg>
