<svg width="828" height="505" viewBox="0 0 828 505" fill="none" xmlns="http://www.w3.org/2000/svg">
<path opacity="0.4" d="M413.798 14.0586L2.77344 252.988L416.49 491.918L827.515 252.988L413.798 14.0586ZM788.49 231.308L752.008 252.54L715.227 231.308L751.709 210.077L788.49 231.308ZM415.892 231.308L452.374 210.077L489.155 231.308L452.673 252.54L415.892 231.308ZM451.776 252.988L415.293 274.22L378.512 252.988L414.994 231.757L451.776 252.988ZM414.994 230.86L378.213 209.628L414.695 188.397L451.477 209.628L414.994 230.86ZM414.247 231.308L377.764 252.54L340.983 231.308L377.465 210.077L414.247 231.308ZM376.867 252.988L340.385 274.22L303.604 252.988L340.086 231.757L376.867 252.988ZM377.764 253.437L414.546 274.668L378.064 295.9L341.282 274.668L377.764 253.437ZM415.293 275.117L452.075 296.348L415.593 317.58L378.811 296.348L415.293 275.117ZM416.041 274.668L452.523 253.437L489.305 274.668L452.823 295.9L416.041 274.668ZM453.421 252.988L489.903 231.757L526.684 252.988L490.202 274.22L453.421 252.988ZM490.651 231.308L527.133 210.077L563.914 231.308L527.432 252.54L490.651 231.308ZM489.903 230.86L453.122 209.628L489.604 188.397L526.385 209.628L489.903 230.86ZM452.374 209.18L415.593 187.948L452.075 166.716L488.856 187.948L452.374 209.18ZM414.845 187.499L378.064 166.268L414.546 145.036L451.327 166.268L414.845 187.499ZM413.948 187.948L377.465 209.18L340.684 187.948L377.166 166.716L413.948 187.948ZM376.718 209.628L340.235 230.86L303.454 209.628L339.936 188.397L376.718 209.628ZM339.338 231.308L302.856 252.54L266.075 231.308L302.557 210.077L339.338 231.308ZM302.108 252.988L265.626 274.22L228.845 252.988L265.327 231.757L302.108 252.988ZM302.856 253.437L339.637 274.668L303.155 295.9L266.374 274.668L302.856 253.437ZM340.385 275.117L377.166 296.348L340.684 317.58L303.903 296.348L340.385 275.117ZM377.914 296.797L414.695 318.029L378.213 339.26L341.432 318.029L377.914 296.797ZM415.593 318.477L452.374 339.709L415.892 360.94L379.11 339.709L415.593 318.477ZM416.34 318.029L452.823 296.797L489.604 318.029L453.122 339.26L416.34 318.029ZM453.57 296.348L490.052 275.117L526.834 296.348L490.352 317.58L453.57 296.348ZM490.95 274.668L527.432 253.437L564.213 274.668L527.731 295.9L490.95 274.668ZM528.18 252.988L564.662 231.757L601.443 252.988L564.961 274.22L528.18 252.988ZM565.559 231.308L602.041 210.077L638.823 231.308L602.34 252.54L565.559 231.308ZM564.662 230.86L527.88 209.628L564.363 188.397L601.144 209.628L564.662 230.86ZM527.133 209.18L490.352 187.948L526.834 166.716L563.615 187.948L527.133 209.18ZM489.604 187.499L452.823 166.268L489.305 145.036L526.086 166.268L489.604 187.499ZM452.075 165.819L415.293 144.588L451.776 123.356L488.557 144.588L452.075 165.819ZM414.546 144.139L377.764 122.908L414.247 101.676L451.028 122.908L414.546 144.139ZM413.798 144.588L377.316 165.819L340.535 144.588L377.017 123.356L413.798 144.588ZM376.419 166.268L339.936 187.499L303.155 166.268L339.637 145.036L376.419 166.268ZM339.189 187.948L302.706 209.18L265.925 187.948L302.407 166.716L339.189 187.948ZM301.809 209.628L265.327 230.86L228.546 209.628L265.028 188.397L301.809 209.628ZM264.579 231.308L228.097 252.54L191.316 231.308L227.798 210.077L264.579 231.308ZM227.2 252.988L190.717 274.22L153.936 252.988L190.418 231.757L227.2 252.988ZM228.097 253.437L264.878 274.668L228.396 295.9L191.615 274.668L228.097 253.437ZM265.626 275.117L302.407 296.348L265.925 317.58L229.144 296.348L265.626 275.117ZM303.155 296.797L339.936 318.029L303.454 339.26L266.673 318.029L303.155 296.797ZM340.684 318.477L377.465 339.709L340.983 360.94L304.202 339.709L340.684 318.477ZM378.213 340.157L414.994 361.389L378.512 382.62L341.731 361.389L378.213 340.157ZM415.742 361.837L452.523 383.069L416.041 404.3L379.26 383.069L415.742 361.837ZM416.49 361.389L452.972 340.157L489.753 361.389L453.271 382.62L416.49 361.389ZM453.869 339.709L490.352 318.477L527.133 339.709L490.651 360.94L453.869 339.709ZM491.099 318.029L527.581 296.797L564.363 318.029L527.88 339.26L491.099 318.029ZM528.479 296.348L564.961 275.117L601.742 296.348L565.26 317.58L528.479 296.348ZM565.709 274.668L602.191 253.437L638.972 274.668L602.49 295.9L565.709 274.668ZM603.088 252.988L639.57 231.757L676.352 252.988L639.87 274.22L603.088 252.988ZM640.318 231.308L676.8 210.077L713.582 231.308L677.099 252.54L640.318 231.308ZM639.57 230.86L602.789 209.628L639.271 188.397L676.053 209.628L639.57 230.86ZM602.041 209.18L565.26 187.948L601.742 166.716L638.524 187.948L602.041 209.18ZM564.512 187.499L527.731 166.268L564.213 145.036L600.995 166.268L564.512 187.499ZM526.983 165.819L490.202 144.588L526.684 123.356L563.466 144.588L526.983 165.819ZM489.454 144.139L452.673 122.908L489.155 101.676L525.937 122.908L489.454 144.139ZM451.776 122.459L414.994 101.228L451.477 79.996L488.258 101.228L451.776 122.459ZM414.247 100.779L377.465 79.5475L413.948 58.3159L450.729 79.5475L414.247 100.779ZM413.499 101.228L377.017 122.459L340.235 101.228L376.718 79.996L413.499 101.228ZM376.269 122.908L339.787 144.139L303.005 122.908L339.488 101.676L376.269 122.908ZM338.89 144.588L302.407 165.819L265.626 144.588L302.108 123.356L338.89 144.588ZM301.66 166.268L265.177 187.499L228.396 166.268L264.878 145.036L301.66 166.268ZM264.28 187.948L227.798 209.18L191.017 187.948L227.499 166.716L264.28 187.948ZM227.05 209.628L190.568 230.86L153.787 209.628L190.269 188.397L227.05 209.628ZM189.671 231.308L153.188 252.54L116.407 231.308L152.889 210.077L189.671 231.308ZM152.441 252.988L115.959 274.22L79.1771 252.988L115.66 231.757L152.441 252.988ZM153.188 253.437L189.97 274.668L153.488 295.9L116.706 274.668L153.188 253.437ZM190.717 275.117L227.499 296.348L191.017 317.58L154.235 296.348L190.717 275.117ZM228.247 296.797L265.028 318.029L228.546 339.26L191.764 318.029L228.247 296.797ZM265.776 318.477L302.557 339.709L266.075 360.94L229.293 339.709L265.776 318.477ZM303.305 340.157L340.086 361.389L303.604 382.62L266.822 361.389L303.305 340.157ZM340.983 361.837L377.764 383.069L341.282 404.3L304.501 383.069L340.983 361.837ZM378.512 383.517L415.293 404.749L378.811 425.981L342.03 404.749L378.512 383.517ZM416.041 405.198L452.823 426.429L416.34 447.661L379.559 426.429L416.041 405.198ZM416.789 404.749L453.271 383.517L490.052 404.749L453.57 425.981L416.789 404.749ZM454.168 383.069L490.651 361.837L527.432 383.069L490.95 404.3L454.168 383.069ZM491.398 361.389L527.88 340.157L564.662 361.389L528.18 382.62L491.398 361.389ZM528.628 339.709L565.111 318.477L601.892 339.709L565.41 360.94L528.628 339.709ZM566.008 318.029L602.49 296.797L639.271 318.029L602.789 339.26L566.008 318.029ZM603.238 296.348L639.72 275.117L676.501 296.348L640.019 317.58L603.238 296.348ZM640.617 274.668L677.099 253.437L713.881 274.668L677.398 295.9L640.617 274.668ZM677.847 252.988L714.329 231.757L751.111 252.988L714.628 274.22L677.847 252.988ZM750.961 209.628L714.479 230.86L677.698 209.628L714.18 188.397L750.961 209.628ZM713.432 187.948L676.95 209.18L640.169 187.948L676.651 166.716L713.432 187.948ZM675.754 166.268L639.271 187.499L602.49 166.268L638.972 145.036L675.754 166.268ZM638.225 144.588L601.742 165.819L564.961 144.588L601.443 123.356L638.225 144.588ZM600.696 122.908L564.213 144.139L527.432 122.908L563.914 101.676L600.696 122.908ZM563.167 101.228L526.684 122.459L489.903 101.228L526.385 79.996L563.167 101.228ZM525.638 79.5475L489.155 100.779L452.374 79.5475L488.856 58.3159L525.638 79.5475ZM488.109 57.8674L451.626 79.0989L414.845 57.8674L451.327 36.6358L488.109 57.8674ZM413.798 14.9557L450.58 36.1872L414.097 57.4188L377.316 36.1872L413.798 14.9557ZM376.568 36.6358L413.35 57.8674L376.867 79.0989L340.086 57.8674L376.568 36.6358ZM339.189 58.3159L375.97 79.5475L339.488 100.779L302.706 79.5475L339.189 58.3159ZM301.959 79.996L338.74 101.228L302.258 122.459L265.476 101.228L301.959 79.996ZM264.579 101.676L301.361 122.908L264.878 144.139L228.097 122.908L264.579 101.676ZM227.349 123.356L264.131 144.588L227.648 165.819L190.867 144.588L227.349 123.356ZM189.97 145.036L226.751 166.268L190.269 187.499L153.488 166.268L189.97 145.036ZM152.74 166.716L189.521 187.948L153.039 209.18L116.258 187.948L152.74 166.716ZM115.36 188.397L152.142 209.628L115.66 230.86L78.8781 209.628L115.36 188.397ZM78.1305 210.077L114.912 231.308L78.4295 252.54L41.6481 231.308L78.1305 210.077ZM4.26862 252.988L40.751 231.757L77.5324 252.988L41.05 274.22L4.26862 252.988ZM41.7976 274.668L78.28 253.437L115.061 274.668L78.579 295.9L41.7976 274.668ZM79.3266 296.348L115.809 275.117L152.59 296.348L116.108 317.58L79.3266 296.348ZM117.005 318.029L153.488 296.797L190.269 318.029L153.787 339.26L117.005 318.029ZM154.534 339.709L191.017 318.477L227.798 339.709L191.316 360.94L154.534 339.709ZM192.063 361.389L228.546 340.157L265.327 361.389L228.845 382.62L192.063 361.389ZM229.592 383.069L266.075 361.837L302.856 383.069L266.374 404.3L229.592 383.069ZM267.121 404.749L303.604 383.517L340.385 404.749L303.903 425.981L267.121 404.749ZM304.65 426.429L341.133 405.198L377.914 426.429L341.432 447.661L304.65 426.429ZM342.179 448.109L378.662 426.878L415.443 448.109L378.961 469.341L342.179 448.109ZM416.49 491.021L379.708 469.789L416.191 448.558L452.972 469.789L416.49 491.021ZM453.72 469.341L416.938 448.109L453.421 426.878L490.202 448.109L453.72 469.341ZM491.099 447.661L454.318 426.429L490.8 405.198L527.581 426.429L491.099 447.661ZM528.329 425.981L491.548 404.749L528.03 383.517L564.811 404.749L528.329 425.981ZM565.709 404.3L528.927 383.069L565.41 361.837L602.191 383.069L565.709 404.3ZM602.939 382.62L566.157 361.389L602.639 340.157L639.421 361.389L602.939 382.62ZM640.318 360.94L603.537 339.709L640.019 318.477L676.8 339.709L640.318 360.94ZM677.548 339.26L640.767 318.029L677.249 296.797L714.03 318.029L677.548 339.26ZM714.928 317.58L678.146 296.348L714.628 275.117L751.41 296.348L714.928 317.58ZM752.157 295.9L715.376 274.668L751.858 253.437L788.64 274.668L752.157 295.9ZM752.756 252.988L789.238 231.757L826.019 252.988L789.537 274.22L752.756 252.988Z" fill="url(#paint0_radial_93_8309)"/>
<path d="M448.853 308.334L301.891 223.566" stroke="url(#paint1_linear_93_8309)" stroke-width="1.20067" stroke-miterlimit="10"/>
<path d="M1 258.391L208.477 378.938" stroke="url(#paint2_linear_93_8309)" stroke-width="1.20067" stroke-miterlimit="10"/>
<path d="M326.857 380.376L564.111 241.098" stroke="url(#paint3_linear_93_8309)" stroke-width="1.20067" stroke-miterlimit="10"/>
<path d="M359.765 189.23V196.675C359.765 196.915 359.525 197.395 359.045 197.635V190.191C359.525 189.951 359.765 189.471 359.765 189.23Z" fill="#4E1999"/>
<path d="M181.582 196.913V189.469C181.582 189.709 181.822 190.189 182.302 190.429V197.873C181.822 197.633 181.582 197.153 181.582 196.913Z" fill="#4E1999"/>
<path d="M359.044 190.191V197.876L272.596 248.064L272.836 240.38L359.044 190.191Z" fill="url(#paint4_linear_93_8309)"/>
<path d="M269.474 240.38L269.234 248.064L182.305 197.876V190.191L269.474 240.38Z" fill="url(#paint5_linear_93_8309)"/>
<path d="M359.042 188.267C360.002 188.747 360.002 189.708 359.042 190.188L272.593 240.376C271.633 240.857 270.192 240.857 269.231 240.376L182.302 190.188C181.342 189.708 181.342 188.747 182.302 188.267L268.751 138.079C269.712 137.599 271.152 137.599 272.113 138.079L359.042 188.267Z" fill="url(#paint6_linear_93_8309)"/>
<path d="M359.042 188.267C360.002 188.747 360.002 189.708 359.042 190.188L272.593 240.376C271.633 240.857 270.192 240.857 269.231 240.376L182.302 190.188C181.342 189.708 181.342 188.747 182.302 188.267L268.751 138.079C269.712 137.599 271.152 137.599 272.113 138.079L359.042 188.267Z" stroke="url(#paint7_linear_93_8309)" stroke-width="1.20067" stroke-miterlimit="10"/>
<path d="M272.833 240.379V247.823C271.872 248.303 270.431 248.303 269.471 247.823V240.379C270.431 240.859 271.872 240.859 272.833 240.379Z" fill="#B42B8E"/>
<path d="M425.8 412.787C427.481 413.748 427.481 415.189 425.8 416.149L274.275 504.279C272.594 505.239 269.953 505.239 268.512 504.279L116.026 416.149C114.345 415.189 114.345 413.748 116.026 412.787L267.551 324.658C269.232 323.697 271.874 323.697 273.315 324.658L425.8 412.787Z" fill="#FF2492"/>
<g style="mix-blend-mode:color-dodge">
<path d="M518.971 82.1291C518.971 82.1291 518.971 81.889 518.971 81.6489V80.2081C518.01 79.4877 517.29 79.0074 516.81 78.287C516.089 77.5666 515.609 76.8462 515.369 76.1258C515.129 75.4054 514.889 74.685 514.889 73.9646C514.889 73.9646 514.889 73.9646 515.129 73.9646L516.81 74.9251C516.81 74.9251 517.05 74.9251 517.05 75.1652C517.05 75.1652 517.05 75.4054 517.05 75.6455C517.05 76.1258 517.53 76.8462 518.01 77.3264C518.491 77.8067 518.971 78.287 519.691 78.7673C520.412 79.2475 521.132 79.4877 521.612 79.4877C522.093 79.4877 522.333 79.0074 522.333 78.5271C522.333 78.0468 522.333 77.8067 522.093 77.3264C522.093 76.8462 521.613 76.606 521.132 76.1258C520.652 75.6455 519.931 75.1653 519.211 74.2047C517.77 73.004 516.81 71.8033 516.089 70.8428C515.369 69.8823 515.129 68.6816 515.129 67.4809C515.129 66.2803 515.369 65.5598 516.089 65.3197C516.81 65.0796 517.77 65.0796 518.971 65.5598V64.119V63.8789C518.971 63.8789 518.971 63.8789 519.211 63.8789L520.412 64.5993C520.412 64.5993 520.412 64.5993 520.652 64.8394C520.652 64.8394 520.652 65.0796 520.652 65.3197V66.7605C521.372 67.2408 522.093 67.9612 522.573 68.6816C523.053 69.402 523.534 70.1224 523.774 70.8428C524.014 71.5632 524.254 72.2836 524.254 72.7639C524.254 72.7639 524.254 72.7639 524.254 73.004C524.254 73.004 524.254 73.004 524.014 73.004L522.333 72.0435C522.093 72.0435 521.853 71.5632 521.853 71.3231C521.853 70.8428 521.613 70.3625 521.132 69.8823C520.652 69.402 520.172 68.9217 519.691 68.4415C518.971 67.9612 518.491 67.9612 518.01 67.9612C517.53 67.9612 517.53 68.4414 517.53 68.9217C517.53 69.402 517.53 69.6421 517.77 70.1224C517.77 70.3625 518.251 70.8428 518.731 71.3231C519.211 71.8033 519.691 72.2836 520.412 73.004C521.612 73.9646 522.333 74.685 523.053 75.4054C523.774 76.1258 524.254 76.8462 524.494 77.5666C524.734 78.287 524.974 79.0074 524.974 79.9679C524.974 81.1686 524.494 81.889 523.774 82.3693C523.053 82.6094 522.093 82.3693 520.652 81.889V83.3298V83.57C520.652 83.57 520.652 83.57 520.412 83.57L519.211 82.8495C519.211 82.8495 519.211 82.8496 518.971 82.6094V82.1291Z" fill="url(#paint8_radial_93_8309)"/>
<path d="M525.453 94.6183L522.091 99.6611L523.772 100.622C523.772 100.622 524.012 100.622 524.012 100.862C524.012 100.862 524.012 101.102 524.012 101.342V102.543C524.012 102.543 524.012 102.543 524.012 102.783C524.012 102.783 524.012 102.783 523.772 102.783L521.37 101.342V102.062L523.772 103.503C523.772 103.503 524.012 103.503 524.012 103.743C524.012 103.743 524.012 103.984 524.012 104.224V105.424C524.012 105.424 524.012 105.424 524.012 105.664C524.012 105.664 524.012 105.664 523.772 105.664L521.37 104.224V105.424V105.664C521.37 105.664 521.37 105.664 521.13 105.664L519.449 104.704C519.449 104.704 519.209 104.704 519.209 104.464C519.209 104.464 519.209 104.224 519.209 103.984V102.783L516.808 101.342C516.808 101.342 516.808 101.342 516.568 101.102C516.568 101.102 516.568 100.862 516.568 100.622V99.421C516.568 99.421 516.568 99.421 516.568 99.1809C516.568 99.1809 516.568 99.1809 516.808 99.1809L519.209 100.622V99.9013L516.808 98.4605C516.808 98.4605 516.808 98.4605 516.568 98.2203C516.568 98.2203 516.568 97.9802 516.568 97.74V96.5394C516.568 96.5394 516.568 96.5394 516.568 96.2993C516.568 96.2993 516.568 96.2993 516.808 96.2993L518.489 97.2598L515.127 88.3748C515.127 88.3748 515.127 88.3748 515.127 88.1346C515.127 88.1346 515.127 88.1347 515.127 87.8945C515.127 87.8945 515.127 87.8945 515.367 87.8945L517.048 88.8551C517.048 88.8551 517.528 89.3353 517.528 89.5755L520.41 97.0197L523.291 92.9373C523.291 92.9373 523.532 92.9373 523.772 92.9373L525.453 93.8979C525.453 93.8979 525.453 93.8979 525.693 94.138C525.693 94.138 525.693 94.3782 525.693 94.6183H525.453Z" fill="url(#paint9_radial_93_8309)"/>
<path d="M521.37 131.113C520.89 130.632 520.65 130.152 519.93 129.672C519.449 129.191 519.209 128.711 518.969 128.471C518.729 128.231 518.489 127.991 518.249 127.751C517.768 127.751 517.528 127.51 517.288 127.751C517.288 127.751 517.048 128.231 516.808 128.471L515.367 127.751C515.367 127.751 515.367 127.751 515.127 127.511C515.127 127.511 515.127 127.511 515.127 127.27C515.127 126.31 515.127 125.83 515.607 125.349C516.087 124.869 516.568 124.869 517.048 124.869C517.048 124.389 517.048 123.909 517.048 123.428C517.048 122.948 517.048 122.708 517.048 122.468L515.607 121.747C515.607 121.747 515.607 121.747 515.367 121.507C515.367 121.507 515.367 121.267 515.367 121.027V119.826V119.586C515.367 119.586 515.367 119.586 515.607 119.586L516.568 120.066C516.568 119.586 516.568 119.346 516.568 118.866C516.568 117.185 517.048 115.984 517.768 115.504C518.489 115.024 519.689 115.264 521.37 115.984C522.331 116.464 523.291 117.185 524.012 118.145C524.732 118.866 525.213 119.826 525.693 120.787C526.173 121.747 526.173 122.708 526.413 123.668C526.413 123.668 526.413 123.668 526.413 123.908C526.413 123.908 526.413 123.908 526.173 123.908L524.492 122.948C524.252 122.948 524.012 122.468 524.012 122.228C523.772 120.547 523.051 119.346 521.851 118.626C521.13 118.145 520.65 118.145 520.41 118.626C520.17 118.866 519.93 119.586 519.93 120.547C519.93 121.507 519.93 121.507 519.93 121.747L523.051 123.428C523.051 123.428 523.051 123.428 523.291 123.668C523.291 123.668 523.291 123.908 523.291 124.149V125.349C523.291 125.349 523.291 125.349 523.291 125.589C523.291 125.589 523.292 125.589 523.051 125.589L520.17 123.908C520.17 124.869 520.17 125.83 520.17 126.31C520.41 126.55 520.65 126.79 520.89 127.03C520.89 127.27 521.37 127.511 521.61 127.991C521.851 128.471 522.091 128.711 522.331 128.951C522.331 129.191 522.811 129.432 523.051 129.672C523.532 129.912 523.772 129.912 524.012 129.672C524.012 129.672 524.492 129.191 524.492 128.951L525.693 129.672C525.693 129.672 525.693 129.672 525.933 129.912C525.933 129.912 525.933 129.912 525.933 130.152C525.933 130.872 525.933 131.593 525.453 131.833C525.213 132.313 524.732 132.553 524.252 132.553C523.772 132.553 523.291 132.553 522.811 132.073C522.331 131.833 521.851 131.353 521.37 131.113Z" fill="url(#paint10_radial_93_8309)"/>
<path d="M527.136 154.649C527.136 154.649 527.136 154.889 527.136 155.13C527.136 155.85 526.895 156.57 526.415 157.051C525.935 157.531 525.455 157.771 524.494 157.531C523.774 157.531 522.813 157.051 521.612 156.57C520.172 155.61 518.731 154.649 518.01 153.209C517.05 151.768 516.57 150.327 516.33 148.646L515.129 147.926C515.129 147.926 515.129 147.926 514.889 147.685C514.889 147.685 514.889 147.445 514.889 147.205V146.004V145.764C514.889 145.764 514.889 145.764 515.129 145.764L516.33 146.485V145.764L515.129 145.044C515.129 145.044 515.129 145.044 514.889 144.804C514.889 144.804 514.889 144.564 514.889 144.324V143.123V142.883C514.889 142.883 514.889 142.883 515.129 142.883L516.33 143.603C516.33 142.162 517.05 141.202 518.01 140.962C518.971 140.721 520.172 140.962 521.612 141.922C522.813 142.643 523.774 143.363 524.494 144.083C525.214 145.044 525.935 145.764 526.415 146.725C526.895 147.685 527.136 148.646 527.136 149.366C527.136 149.366 527.136 149.366 527.136 149.606C527.136 149.606 527.136 149.606 526.895 149.606L525.214 148.646C525.214 148.646 524.974 148.646 524.974 148.406C524.974 148.406 524.974 148.166 524.974 147.926C524.974 147.205 524.494 146.485 524.014 145.764C523.533 145.284 523.053 144.804 522.333 144.324C520.892 143.363 519.932 143.843 519.691 145.284L522.813 146.965C522.813 146.965 522.813 146.965 523.053 147.205C523.293 147.445 523.053 147.445 523.053 147.685V148.886C523.053 148.886 523.053 148.886 523.053 149.126C523.053 149.126 523.053 149.126 522.813 149.126L519.691 147.445V148.166L522.813 149.847C522.813 149.847 522.813 149.847 523.053 150.087C523.053 150.087 523.053 150.327 523.053 150.567V151.768C523.053 151.768 523.053 151.768 523.053 152.008C523.053 152.008 523.053 152.008 522.813 152.008L519.691 150.327C519.932 152.008 520.892 153.449 522.333 154.409C523.053 154.889 523.533 155.13 524.014 154.889C524.494 154.889 524.734 154.409 524.974 153.929V153.689C524.974 153.689 524.974 153.689 525.214 153.689L526.895 154.649C526.895 154.649 526.896 154.649 527.136 154.889V154.649Z" fill="url(#paint11_radial_93_8309)"/>
</g>
<g style="mix-blend-mode:color-dodge">
<path d="M596.771 6.72378L593.409 11.7666L595.09 12.7272C595.09 12.7272 595.33 12.7272 595.33 12.9673C595.33 12.9673 595.33 13.2074 595.33 13.4476V14.6482C595.33 14.6482 595.33 14.6482 595.33 14.8884C595.33 14.8884 595.33 14.8884 595.09 14.8884L592.689 13.4476V14.168L595.09 15.6088C595.09 15.6088 595.33 15.6088 595.33 15.8489C595.33 15.8489 595.33 16.089 595.33 16.3292V17.5299C595.33 17.5299 595.33 17.5299 595.33 17.77C595.33 17.77 595.33 17.77 595.09 17.77L592.689 16.3292V17.5299V17.77C592.689 17.77 592.689 17.77 592.449 17.77L590.768 16.8094C590.768 16.8094 590.528 16.8094 590.528 16.5693C590.528 16.5693 590.528 16.3292 590.528 16.0891V14.8884L588.126 13.4476C588.126 13.4476 588.126 13.4476 587.886 13.2074C587.886 13.2074 587.886 12.9673 587.886 12.7272V11.5265C587.886 11.5265 587.886 11.5265 587.886 11.2864C587.886 11.2864 587.886 11.2864 588.126 11.2864L590.528 12.7272V12.0067L588.126 10.5659C588.126 10.5659 588.126 10.5659 587.886 10.3258C587.886 10.3258 587.886 10.0857 587.886 9.84555V8.64487C587.886 8.64487 587.886 8.64486 587.886 8.40472C587.886 8.40472 587.886 8.40472 588.126 8.40472L589.807 9.36526L586.445 0.480281C586.445 0.480281 586.445 0.480284 586.445 0.24015C586.445 0.24015 586.445 0.240135 586.445 0C586.445 0 586.445 0 586.686 0L588.367 0.960543C588.367 0.960543 588.847 1.44082 588.847 1.68096L591.728 8.885L594.61 4.8027C594.61 4.8027 594.85 4.8027 595.09 4.8027L596.771 5.76324C596.771 5.76324 596.771 5.76324 597.011 6.00337C597.011 6.00337 597.011 6.24352 597.011 6.48365L596.771 6.72378Z" fill="url(#paint12_radial_93_8309)"/>
<path d="M592.689 43.218C592.209 42.7377 591.968 42.2575 591.248 41.7772C590.768 41.2969 590.528 40.8167 590.288 40.5765C590.047 40.3364 589.807 40.0963 589.567 39.8561C589.087 39.8561 588.847 39.616 588.607 39.8561C588.607 39.8561 588.366 40.3364 588.126 40.5765L586.686 39.8561C586.686 39.8561 586.685 39.8561 586.445 39.616C586.445 39.616 586.445 39.616 586.445 39.3759C586.445 38.4153 586.445 37.9351 586.926 37.4548C587.406 36.9745 587.886 36.9745 588.367 36.9745C588.367 36.4942 588.367 36.014 588.367 35.5337C588.367 35.0534 588.367 34.8133 588.367 34.5732L586.926 33.8528C586.926 33.8528 586.926 33.8527 586.686 33.6126C586.686 33.6126 586.686 33.3725 586.686 33.1323V31.9317V31.6915C586.686 31.6915 586.685 31.6915 586.926 31.6915L587.886 32.1718C587.886 31.6915 587.886 31.4514 587.886 30.9711C587.886 29.2902 588.366 28.0895 589.087 27.6092C589.807 27.129 591.008 27.3691 592.689 28.0895C593.649 28.5698 594.61 29.2902 595.33 30.2507C596.051 30.9711 596.531 31.9317 597.011 32.8922C597.492 33.8528 597.492 34.8133 597.732 35.7738C597.732 35.7738 597.732 35.7738 597.732 36.014C597.732 36.014 597.732 36.014 597.492 36.014L595.811 35.0534C595.57 35.0534 595.33 34.5732 595.33 34.333C595.09 32.6521 594.37 31.4514 593.169 30.731C592.449 30.2507 591.968 30.2507 591.728 30.731C591.488 30.9711 591.248 31.6915 591.248 32.6521C591.248 33.6126 591.248 33.6126 591.248 33.8528L594.37 35.5337C594.37 35.5337 594.37 35.5337 594.61 35.7738C594.61 35.7738 594.61 36.014 594.61 36.2541V37.4548C594.61 37.4548 594.61 37.4548 594.61 37.6949C594.61 37.6949 594.61 37.6949 594.37 37.6949L591.488 36.014C591.488 36.9745 591.488 37.935 591.488 38.4153C591.728 38.6554 591.968 38.8956 592.209 39.1357C592.209 39.3759 592.689 39.616 592.929 40.0963C593.169 40.5765 593.409 40.8167 593.649 41.0568C593.649 41.2969 594.13 41.5371 594.37 41.7772C594.85 42.0173 595.09 42.0173 595.33 41.7772C595.33 41.7772 595.811 41.2969 595.811 41.0568L597.011 41.7772C597.011 41.7772 597.011 41.7772 597.251 42.0173C597.251 42.0173 597.251 42.0173 597.251 42.2575C597.251 42.9779 597.252 43.6983 596.771 43.9384C596.531 44.4187 596.051 44.6588 595.571 44.6588C595.09 44.6588 594.61 44.6588 594.13 44.1785C593.649 43.9384 593.169 43.4581 592.689 43.218Z" fill="url(#paint13_radial_93_8309)"/>
<path d="M598.214 66.7548C598.214 66.7548 598.214 66.9949 598.214 67.235C598.214 67.9554 597.974 68.6758 597.493 69.1561C597.013 69.6364 596.533 69.8765 595.572 69.6364C594.852 69.6364 593.891 69.1561 592.691 68.6759C591.25 67.7153 589.809 66.7548 589.089 65.3139C588.128 63.8731 587.648 62.4323 587.408 60.7514L586.207 60.031C586.207 60.031 586.207 60.031 585.967 59.7908C585.967 59.7908 585.967 59.5507 585.967 59.3106V58.1099V57.8698C585.967 57.8698 585.967 57.8698 586.207 57.8698L587.408 58.5902V57.8698L586.207 57.1494C586.207 57.1494 586.207 57.1494 585.967 56.9092C585.967 56.9092 585.967 56.6691 585.967 56.429V55.2283V54.9882C585.967 54.9882 585.967 54.9882 586.207 54.9882L587.408 55.7086C587.408 54.2678 588.128 53.3072 589.089 53.0671C590.049 52.8269 591.25 53.0671 592.691 54.0276C593.891 54.748 594.852 55.4684 595.572 56.1888C596.293 57.1494 597.013 57.8698 597.493 58.8303C597.974 59.7908 598.214 60.7514 598.214 61.4718C598.214 61.4718 598.214 61.4718 598.214 61.7119C598.214 61.7119 598.214 61.7119 597.974 61.7119L596.293 60.7514C596.293 60.7514 596.052 60.7514 596.052 60.5113C596.052 60.5113 596.052 60.2711 596.052 60.031C596.052 59.3106 595.572 58.5902 595.092 57.8698C594.612 57.3895 594.131 56.6691 593.411 56.429C591.97 55.4684 591.01 55.9487 590.769 57.3895L593.891 59.0705C593.891 59.0705 593.891 59.0705 594.131 59.3106C594.131 59.3106 594.131 59.5507 594.131 59.7908V60.9915C594.131 60.9915 594.131 60.9915 594.131 61.2317C594.131 61.2317 594.131 61.2317 593.891 61.2317L590.769 59.5507V60.2711L593.891 61.9521C593.891 61.9521 593.891 61.9521 594.131 62.1922C594.131 62.1922 594.131 62.4323 594.131 62.6725V63.8732C594.131 63.8732 594.131 63.8731 594.131 64.1133C594.131 64.3534 594.131 64.1133 593.891 64.1133L590.769 62.4323C591.01 64.1133 591.97 65.5541 593.411 66.5146C594.131 66.9949 594.612 67.235 595.092 66.9949C595.572 66.9949 595.812 66.5146 596.052 66.0344V65.7942C596.052 65.7942 596.052 65.7942 596.293 65.7942L597.974 66.7548C597.974 66.7548 597.973 66.7548 598.214 66.9949V66.7548Z" fill="url(#paint14_radial_93_8309)"/>
</g>
<g style="mix-blend-mode:color-dodge" opacity="0.5">
<path style="mix-blend-mode:color-dodge" opacity="0.5" d="M562.191 123.192C562.191 123.192 562.191 123.432 562.191 123.672C562.191 124.392 562.191 124.873 561.47 125.353C560.99 125.833 560.51 125.833 559.789 125.833C559.069 125.833 558.109 125.353 556.908 124.873C555.947 124.392 555.227 123.672 554.506 122.951C553.786 122.231 553.306 121.511 552.826 120.55C552.345 119.59 552.345 118.869 552.345 117.909C552.345 116.948 552.345 116.948 552.345 116.708H551.865C551.865 116.468 551.865 116.228 551.625 116.228C551.625 116.228 551.625 115.988 551.625 115.747V115.267V115.027C551.625 115.027 551.625 115.027 551.865 115.027L553.306 115.988C553.546 115.988 554.026 115.988 554.506 115.988L551.625 114.307C551.625 114.307 551.625 114.307 551.385 114.066C551.385 114.066 551.385 113.826 551.385 113.586V113.106V112.866C551.385 112.866 551.385 112.866 551.625 112.866L557.868 116.468C558.109 116.468 558.349 116.468 558.589 116.228C558.589 116.228 558.589 115.747 558.589 115.507C558.589 115.027 558.589 114.547 558.109 114.066C557.868 113.586 557.388 113.106 556.908 112.866C556.187 112.386 555.707 112.386 555.227 112.386C554.747 112.386 554.506 112.626 554.506 113.106C554.506 113.106 554.266 113.106 554.026 113.106L552.345 112.145C552.345 112.145 552.345 112.145 552.105 111.905C552.105 111.905 552.105 111.665 552.105 111.425C552.105 110.705 552.105 110.224 552.826 109.984C553.306 109.504 553.786 109.504 554.506 109.504C555.227 109.504 556.188 109.744 557.148 110.464C557.868 110.945 558.829 111.425 559.309 112.145C560.03 112.866 560.51 113.586 560.75 114.307C560.99 115.027 561.23 115.988 561.23 116.708C561.23 117.428 561.23 117.909 560.75 118.149H561.47C561.47 118.629 561.47 118.629 561.711 118.869C561.711 118.869 561.711 119.109 561.711 119.349V119.83C561.711 119.83 561.711 119.83 561.711 120.07C561.711 120.07 561.711 120.07 561.47 120.07L559.069 118.629C558.589 118.629 558.108 118.629 557.628 118.629L561.711 121.03C561.711 121.03 561.711 121.03 561.951 121.271C561.951 121.271 561.951 121.511 561.951 121.751V122.231C561.951 122.231 561.951 122.231 561.951 122.471C561.951 122.471 561.951 122.471 561.711 122.471L554.987 118.629C554.987 118.629 554.747 119.109 554.747 119.59C554.747 120.07 554.747 120.79 555.227 121.271C555.707 121.751 556.187 122.231 556.908 122.711C557.628 123.192 558.349 123.432 558.829 123.192C559.309 123.192 559.549 122.951 559.789 122.471C559.789 122.471 560.03 122.471 560.27 122.471L561.951 123.432C561.951 123.432 561.951 123.432 562.191 123.672V123.192Z" fill="url(#paint15_radial_93_8309)"/>
<path style="mix-blend-mode:color-dodge" opacity="0.5" d="M556.19 29.2971C556.19 29.2971 556.19 29.057 556.19 28.8168V27.376C555.229 26.6556 554.509 26.1754 554.028 25.455C553.308 24.7346 552.828 24.0142 552.588 23.2938C552.348 22.5733 552.107 21.8529 552.107 21.1325C552.107 21.1325 552.108 21.1325 552.348 21.1325L554.028 22.0931C554.028 22.0931 554.269 22.0931 554.269 22.3332C554.269 22.3332 554.269 22.5733 554.269 22.8135C554.269 23.2937 554.749 24.0142 555.229 24.4944C555.709 24.9747 556.19 25.455 556.91 25.9352C557.631 26.4155 558.351 26.6556 558.831 26.6556C559.311 26.6556 559.552 26.1754 559.552 25.6951C559.552 25.2148 559.552 24.9747 559.311 24.4944C559.311 24.0142 558.831 23.774 558.351 23.2938C557.871 22.8135 557.15 22.3332 556.43 21.3727C554.989 20.172 554.029 18.9713 553.308 18.0108C552.588 17.0502 552.348 15.8496 552.348 14.6489C552.348 13.4482 552.588 12.7278 553.308 12.4877C554.029 12.2475 554.989 12.2475 556.19 12.7278V11.287V11.0469C556.19 11.0469 556.19 11.0469 556.43 11.0469L557.63 11.7673C557.63 11.7673 557.631 11.7673 557.871 12.0074C557.871 12.0074 557.871 12.2475 557.871 12.4877V13.9285C558.591 14.4088 559.311 15.1292 559.792 15.8496C560.272 16.57 560.752 17.2904 560.992 18.0108C561.233 18.7312 561.473 19.4516 561.473 19.9319C561.473 19.9319 561.473 19.9319 561.473 20.172C561.473 20.172 561.473 20.172 561.233 20.172L559.552 19.2114C559.312 19.2114 559.071 18.7312 559.071 18.4911C559.071 18.0108 558.831 17.5305 558.351 17.0502C557.871 16.57 557.39 16.0897 556.91 15.6094C556.19 15.1292 555.709 15.1292 555.229 15.1292C554.749 15.1292 554.749 15.6094 554.749 16.0897C554.749 16.57 554.749 16.8101 554.989 17.2904C554.989 17.5305 555.469 18.0108 555.95 18.4911C556.43 18.9713 556.91 19.4516 557.63 20.172C558.831 21.1325 559.552 21.8529 560.272 22.5733C560.992 23.2937 561.473 24.0142 561.713 24.7346C561.953 25.455 562.193 26.1754 562.193 27.1359C562.193 28.3366 561.713 29.057 560.992 29.5373C560.272 29.7774 559.312 29.5373 557.871 29.057V30.4978V30.7379C557.871 30.7379 557.871 30.7379 557.63 30.7379L556.43 30.0175C556.43 30.0175 556.43 30.0175 556.19 29.7774V29.2971Z" fill="url(#paint16_radial_93_8309)"/>
<path style="mix-blend-mode:color-dodge" opacity="0.5" d="M562.671 41.7863L559.31 46.8291L560.991 47.7896C560.991 47.7896 561.231 47.7896 561.231 48.0298C561.231 48.0298 561.231 48.2699 561.231 48.5101V49.7107C561.231 49.7107 561.231 49.7107 561.231 49.9509C561.231 49.9509 561.231 49.9509 560.991 49.9509L558.589 48.5101V49.2304L560.991 50.6713C560.991 50.6713 561.231 50.6713 561.231 50.9114C561.231 50.9114 561.231 51.1515 561.231 51.3917V52.5923C561.231 52.5923 561.231 52.5923 561.231 52.8325C561.231 52.8325 561.231 52.8325 560.991 52.8325L558.589 51.3917V52.5923V52.8325C558.589 52.8325 558.589 52.8325 558.349 52.8325L556.668 51.8719C556.668 51.8719 556.428 51.8719 556.428 51.6318C556.428 51.6318 556.428 51.3917 556.428 51.1515V49.9509L554.027 48.5101C554.027 48.5101 554.027 48.5101 553.786 48.2699C553.786 48.2699 553.786 48.0298 553.786 47.7896V46.589C553.786 46.589 553.786 46.589 553.786 46.3488C553.786 46.3488 553.786 46.3488 554.027 46.3488L556.428 47.7896V47.0692L554.027 45.6284C554.027 45.6284 554.027 45.6284 553.786 45.3883C553.786 45.3883 553.786 45.1482 553.786 44.908V43.7074C553.786 43.7074 553.786 43.7074 553.786 43.4672C553.786 43.4672 553.786 43.4672 554.027 43.4672L555.708 44.4277L552.346 35.5428C552.346 35.5428 552.346 35.5428 552.346 35.3026C552.346 35.3026 552.346 35.3026 552.346 35.0625C552.346 35.0625 552.346 35.0625 552.586 35.0625L554.267 36.023C554.267 36.023 554.747 36.5033 554.747 36.7434L557.629 43.9475L560.51 39.8652C560.51 39.8652 560.75 39.8652 560.991 39.8652L562.671 40.8257C562.671 40.8257 562.671 40.8257 562.912 41.0659C562.912 41.0659 562.912 41.306 562.912 41.5461L562.671 41.7863Z" fill="url(#paint17_radial_93_8309)"/>
<path style="mix-blend-mode:color-dodge" opacity="0.5" d="M556.19 152.246C556.19 152.246 556.19 152.006 556.19 151.766V150.325C555.229 149.605 554.509 149.125 554.028 148.404C553.308 147.684 552.828 146.963 552.588 146.243C552.348 145.523 552.107 144.802 552.107 144.082C552.107 144.082 552.108 144.082 552.348 144.082L554.028 145.042C554.028 145.042 554.269 145.042 554.269 145.282C554.269 145.282 554.269 145.523 554.269 145.763C554.269 146.243 554.749 146.963 555.229 147.444C555.709 147.924 556.19 148.404 556.91 148.884C557.631 149.365 558.351 149.605 558.831 149.605C559.311 149.605 559.552 149.125 559.552 148.644C559.552 148.164 559.552 147.924 559.311 147.444C559.311 146.963 558.831 146.723 558.351 146.243C557.871 145.763 557.15 145.282 556.43 144.322C554.989 143.121 554.029 141.921 553.308 140.96C552.588 139.999 552.348 138.799 552.348 137.598C552.348 136.397 552.588 135.677 553.308 135.437C554.029 135.197 554.989 135.197 556.19 135.677V134.236V133.996C556.19 133.996 556.19 133.996 556.43 133.996L557.63 134.717C557.63 134.717 557.631 134.716 557.871 134.957C557.871 134.957 557.871 135.197 557.871 135.437V136.878C558.591 137.358 559.311 138.078 559.792 138.799C560.272 139.519 560.752 140.24 560.992 140.96C561.233 141.68 561.473 142.401 561.473 142.881C561.473 142.881 561.473 142.881 561.473 143.121C561.473 143.121 561.473 143.121 561.233 143.121L559.552 142.161C559.312 142.161 559.071 141.68 559.071 141.44C559.071 140.96 558.831 140.48 558.351 139.999C557.871 139.519 557.39 139.039 556.91 138.559C556.19 138.078 555.709 138.078 555.229 138.078C554.749 138.078 554.749 138.559 554.749 139.039C554.749 139.519 554.749 139.759 554.989 140.24C554.989 140.48 555.469 140.96 555.95 141.44C556.43 141.921 556.91 142.401 557.63 143.121C558.831 144.082 559.552 144.802 560.272 145.523C560.992 146.243 561.473 146.963 561.713 147.684C561.953 148.404 562.193 149.125 562.193 150.085C562.193 151.286 561.713 152.006 560.992 152.486C560.272 152.727 559.312 152.486 557.871 152.006V153.447V153.687C557.871 153.687 557.871 153.687 557.63 153.687L556.43 152.967C556.43 152.967 556.43 152.967 556.19 152.727V152.246Z" fill="url(#paint18_radial_93_8309)"/>
<path style="mix-blend-mode:color-dodge" opacity="0.5" d="M562.671 164.736L559.31 169.778L560.991 170.739C560.991 170.739 561.231 170.739 561.231 170.979C561.231 170.979 561.231 171.219 561.231 171.459V172.66C561.231 172.66 561.231 172.66 561.231 172.9C561.231 172.9 561.231 172.9 560.991 172.9L558.589 171.459V172.18L560.991 173.62C560.991 173.62 561.231 173.621 561.231 173.861C561.231 173.861 561.231 174.101 561.231 174.341V175.542C561.231 175.542 561.231 175.542 561.231 175.782C561.231 175.782 561.231 175.782 560.991 175.782L558.589 174.341V175.542V175.782C558.589 175.782 558.589 175.782 558.349 175.782L556.668 174.821C556.668 174.821 556.428 174.821 556.428 174.581C556.428 174.581 556.428 174.341 556.428 174.101V172.9L554.027 171.459C554.027 171.459 554.027 171.459 553.786 171.219C553.786 171.219 553.786 170.979 553.786 170.739V169.538C553.786 169.538 553.786 169.538 553.786 169.298C553.786 169.298 553.786 169.298 554.027 169.298L556.428 170.739V170.018L554.027 168.578C554.027 168.578 554.027 168.578 553.786 168.338C553.786 168.338 553.786 168.097 553.786 167.857V166.657C553.786 166.657 553.786 166.657 553.786 166.416C553.786 166.416 553.786 166.416 554.027 166.416L555.708 167.377L552.346 158.492C552.346 158.492 552.346 158.492 552.346 158.252C552.346 158.252 552.346 158.252 552.346 158.012C552.346 158.012 552.346 158.012 552.586 158.012L554.267 158.972C554.267 158.972 554.747 159.453 554.747 159.693L557.629 167.137L560.51 163.055C560.51 163.055 560.75 163.055 560.991 163.055L562.671 164.015C562.671 164.015 562.671 164.015 562.912 164.255C562.912 164.255 562.912 164.495 562.912 164.736H562.671Z" fill="url(#paint19_radial_93_8309)"/>
<path style="mix-blend-mode:color-dodge" opacity="0.5" d="M558.589 78.2805C558.109 77.8002 557.869 77.32 557.148 76.8397C556.668 76.3594 556.428 75.8791 556.188 75.639C555.948 75.3989 555.708 75.1587 555.467 74.9186C554.987 74.9186 554.747 74.6785 554.507 74.9186C554.507 74.9186 554.267 75.3989 554.027 75.639L552.586 74.9186C552.586 74.9186 552.586 74.9186 552.346 74.6785C552.346 74.6785 552.346 74.6785 552.346 74.4383C552.346 73.4778 552.346 72.9975 552.826 72.5173C553.306 72.037 553.786 72.037 554.267 72.037C554.267 71.5567 554.267 71.0765 554.267 70.5962C554.267 70.1159 554.267 69.8758 554.267 69.6356L552.826 68.9152C552.826 68.9152 552.826 68.9152 552.586 68.6751C552.586 68.6751 552.586 68.435 552.586 68.1949V66.9942V66.754C552.586 66.754 552.586 66.754 552.826 66.754L553.786 67.2343C553.786 66.754 553.786 66.5139 553.786 66.0336C553.786 64.3527 554.267 63.152 554.987 62.6717C555.708 62.1915 556.908 62.4316 558.589 63.152C559.55 63.6323 560.51 64.3527 561.231 65.3132C561.951 66.0336 562.431 66.9942 562.912 67.9547C563.392 68.9152 563.392 69.8758 563.632 70.8363C563.632 70.8363 563.632 70.8363 563.632 71.0765C563.632 71.0765 563.632 71.0765 563.392 71.0765L561.711 70.1159C561.471 70.1159 561.231 69.6357 561.231 69.3955C560.99 67.7146 560.27 66.5139 559.069 65.7935C558.349 65.3132 557.869 65.3132 557.629 65.7935C557.388 66.0336 557.148 66.754 557.148 67.7146C557.148 68.6751 557.148 68.6751 557.148 68.9152L560.27 70.5962C560.27 70.5962 560.27 70.5962 560.51 70.8363C560.51 70.8363 560.51 71.0764 560.51 71.3166V72.5173C560.51 72.5173 560.51 72.5173 560.51 72.7574C560.51 72.7574 560.51 72.7574 560.27 72.7574L557.388 71.0765C557.388 72.037 557.388 72.9975 557.388 73.4778C557.629 73.7179 557.869 73.9581 558.109 74.1982C558.109 74.4384 558.589 74.6785 558.829 75.1587C559.069 75.639 559.31 75.8791 559.55 76.1193C559.55 76.3594 560.03 76.5996 560.27 76.8397C560.75 77.0798 560.99 77.0798 561.231 76.8397C561.231 76.8397 561.711 76.3594 561.711 76.1193L562.912 76.8397C562.912 76.8397 562.912 76.8397 563.152 77.0798C563.152 77.0798 563.152 77.0798 563.152 77.3199C563.152 78.0404 563.152 78.7608 562.671 79.0009C562.431 79.4812 561.951 79.7213 561.471 79.7213C560.991 79.7213 560.51 79.7213 560.03 79.241C559.55 79.0009 559.069 78.5206 558.589 78.2805Z" fill="url(#paint20_radial_93_8309)"/>
<path style="mix-blend-mode:color-dodge" opacity="0.5" d="M564.112 101.817C564.112 101.817 564.112 102.057 564.112 102.298C564.112 103.018 563.872 103.738 563.392 104.219C562.911 104.699 562.431 104.939 561.471 104.699C560.75 104.699 559.79 104.219 558.589 103.738C557.148 102.778 555.707 101.817 554.987 100.376C554.026 98.9357 553.546 97.4949 553.306 95.8139L552.105 95.0935C552.105 95.0935 552.105 95.0935 551.865 94.8534C551.865 94.8534 551.865 94.6132 551.865 94.3731V93.1724V92.9323C551.865 92.9323 551.865 92.9323 552.105 92.9323L553.306 93.6527V92.9323L552.105 92.2119C552.105 92.2119 552.105 92.2119 551.865 91.9718C551.865 91.9718 551.865 91.7316 551.865 91.4915V90.2908V90.0507C551.865 90.0507 551.865 90.0507 552.105 90.0507L553.306 90.7711C553.306 89.3303 554.026 88.3697 554.987 88.1296C555.947 87.8894 557.148 88.1296 558.589 89.0901C559.79 89.8105 560.75 90.5309 561.471 91.2513C562.191 92.2119 562.911 92.9323 563.392 93.8928C563.872 94.8534 564.112 95.8139 564.112 96.5343C564.112 96.5343 564.112 96.5343 564.112 96.7744C564.112 97.0146 564.112 96.7744 563.872 96.7744L562.191 95.8139C562.191 95.8139 561.951 95.8139 561.951 95.5738C561.951 95.5738 561.951 95.3336 561.951 95.0935C561.951 94.3731 561.471 93.6527 560.99 92.9323C560.51 92.452 560.03 91.7316 559.309 91.4915C557.869 90.5309 556.908 91.0112 556.668 92.452L559.79 94.133C559.79 94.133 559.79 94.133 560.03 94.3731C560.03 94.3731 560.03 94.6132 560.03 94.8534V96.054C560.03 96.054 560.03 96.0541 560.03 96.2942C560.03 96.2942 560.03 96.2942 559.79 96.2942L556.668 94.6132V95.3336L559.79 97.0146C559.79 97.0146 559.79 97.0146 560.03 97.2547C560.03 97.2547 560.03 97.4948 560.03 97.735V98.9356C560.03 98.9356 560.03 98.9357 560.03 99.1758C560.03 99.1758 560.03 99.1758 559.79 99.1758L556.668 97.4949C556.908 99.1758 557.869 100.617 559.309 101.577C560.03 102.057 560.51 102.298 560.99 102.057C561.471 102.057 561.711 101.577 561.951 101.097V100.857C561.951 100.857 561.951 100.857 562.191 100.857L563.872 101.817C563.872 101.817 563.872 101.817 564.112 102.057V101.817Z" fill="url(#paint21_radial_93_8309)"/>
</g>
<g style="mix-blend-mode:color-dodge" opacity="0.5">
<path style="mix-blend-mode:color-dodge" opacity="0.5" d="M636.396 169.051C636.396 169.051 636.396 169.291 636.396 169.531C636.396 170.252 636.396 170.732 635.675 171.212C635.195 171.692 634.715 171.692 633.995 171.692C633.274 171.692 632.314 171.212 631.113 170.732C630.152 170.252 629.432 169.531 628.712 168.811C627.991 168.09 627.511 167.37 627.031 166.41C626.55 165.449 626.55 164.729 626.55 163.768C626.55 162.807 626.55 162.807 626.55 162.567H626.07C626.07 162.327 626.07 162.087 625.83 162.087C625.83 162.087 625.83 161.847 625.83 161.607V161.127V160.886C625.83 160.886 625.83 160.886 626.07 160.886L627.511 161.847C627.751 161.847 628.231 161.847 628.712 161.847L625.83 160.166C625.83 160.166 625.83 160.166 625.59 159.926C625.59 159.926 625.59 159.686 625.59 159.446V158.965V158.725C625.59 158.725 625.59 158.725 625.83 158.725L632.073 162.327C632.314 162.327 632.554 162.327 632.794 162.087C632.794 162.087 632.794 161.607 632.794 161.367C632.794 160.886 632.794 160.406 632.314 159.926C632.073 159.446 631.593 158.965 631.113 158.725C630.393 158.245 629.912 158.245 629.432 158.245C628.952 158.245 628.712 158.485 628.712 158.965C628.712 158.965 628.471 158.965 628.231 158.965L626.55 158.005C626.55 158.005 626.55 158.005 626.31 157.765C626.31 157.765 626.31 157.525 626.31 157.284C626.31 156.564 626.31 156.084 627.031 155.844C627.511 155.363 627.991 155.363 628.712 155.363C629.432 155.363 630.392 155.603 631.353 156.324C632.073 156.804 633.034 157.284 633.514 158.005C634.235 158.725 634.715 159.446 634.955 160.166C635.195 160.886 635.435 161.847 635.435 162.567C635.435 163.288 635.435 163.768 634.955 164.008H635.675C635.675 164.488 635.675 164.488 635.916 164.729C635.916 164.729 635.916 164.969 635.916 165.209V165.689C635.916 165.689 635.916 165.689 635.916 165.929C635.916 165.929 635.916 165.929 635.675 165.929L633.274 164.488C632.794 164.488 632.314 164.488 631.833 164.488L635.916 166.89C635.916 166.89 635.916 166.89 636.156 167.13C636.396 167.37 636.156 167.37 636.156 167.61V168.09C636.156 168.09 636.156 168.09 636.156 168.331C636.156 168.331 636.156 168.331 635.916 168.331L629.192 164.488C629.192 164.488 628.952 164.969 628.952 165.449C628.952 165.929 628.952 166.65 629.432 167.13C629.912 167.61 630.393 168.09 631.113 168.571C631.833 169.051 632.554 169.291 633.034 169.051C633.514 169.051 633.754 168.811 633.995 168.331C633.995 168.331 634.235 168.331 634.475 168.331L636.156 169.291C636.156 169.291 636.156 169.291 636.396 169.531V169.051Z" fill="url(#paint22_radial_93_8309)"/>
<path style="mix-blend-mode:color-dodge" opacity="0.5" d="M630.393 75.1604C630.393 75.1604 630.393 74.9203 630.393 74.6801V73.2393C629.432 72.5189 628.712 72.0386 628.232 71.3182C627.511 70.5978 627.031 69.8774 626.791 69.157C626.551 68.4366 626.311 67.7162 626.311 66.9958C626.311 66.9958 626.31 66.9958 626.551 66.9958L628.232 67.9564C628.232 67.9564 628.472 67.9564 628.472 68.1965C628.472 68.1965 628.472 68.4366 628.472 68.6768C628.472 69.157 628.952 69.8774 629.432 70.3577C629.913 70.838 630.393 71.3183 631.113 71.7985C631.834 72.2788 632.554 72.5189 633.034 72.5189C633.515 72.5189 633.755 72.0387 633.755 71.5584C633.755 71.0781 633.755 70.838 633.515 70.3577C633.515 69.8774 633.034 69.6373 632.554 69.157C632.074 68.6768 631.353 68.1965 630.633 67.2359C629.192 66.0353 628.232 64.8346 627.511 63.8741C626.791 62.9135 626.551 61.7129 626.551 60.5122C626.551 59.3115 626.791 58.5911 627.511 58.351C628.232 58.1108 629.192 58.1108 630.393 58.5911V57.1503V56.9102C630.393 56.9102 630.393 56.9102 630.633 56.9102L631.834 57.6305C631.834 57.6305 631.834 57.6306 632.074 57.8707C632.074 57.8707 632.074 58.1108 632.074 58.351V59.7918C632.794 60.272 633.515 60.9924 633.995 61.7129C634.475 62.4333 634.955 63.1537 635.196 63.8741C635.436 64.5945 635.676 65.3149 635.676 65.7952C635.676 65.7952 635.676 65.7951 635.676 66.0353C635.676 66.0353 635.676 66.0353 635.436 66.0353L633.755 65.0747C633.515 65.0747 633.274 64.5945 633.274 64.3543C633.274 63.8741 633.034 63.3938 632.554 62.9135C632.074 62.4333 631.594 61.953 631.113 61.4727C630.393 60.9925 629.913 60.9924 629.432 60.9924C628.952 60.9924 628.952 61.4727 628.952 61.953C628.952 62.4333 628.952 62.6734 629.192 63.1537C629.192 63.3938 629.672 63.8741 630.153 64.3543C630.633 64.8346 631.113 65.3149 631.834 66.0353C633.034 66.9958 633.755 67.7162 634.475 68.4366C635.195 69.157 635.676 69.8775 635.916 70.5979C636.156 71.3183 636.396 72.0387 636.396 72.9992C636.396 74.1999 635.916 74.9203 635.196 75.4006C634.475 75.6407 633.515 75.4005 632.074 74.9203V76.3611V76.6012C632.074 76.6012 632.074 76.6012 631.834 76.6012L630.633 75.8808C630.633 75.8808 630.633 75.8808 630.393 75.6407V75.1604Z" fill="url(#paint23_radial_93_8309)"/>
<path style="mix-blend-mode:color-dodge" opacity="0.5" d="M636.636 87.6496L633.274 92.6924L634.955 93.6529C634.955 93.6529 635.196 93.653 635.196 93.8931C635.196 93.8931 635.196 94.1332 635.196 94.3734V95.574C635.196 95.574 635.196 95.574 635.196 95.8142C635.196 95.8142 635.195 95.8142 634.955 95.8142L632.554 94.3734V95.0938L634.955 96.5345C634.955 96.5345 635.196 96.5346 635.196 96.7747C635.196 96.7747 635.196 97.0148 635.196 97.255V98.4556C635.196 98.4556 635.196 98.4557 635.196 98.6958C635.196 98.6958 635.195 98.6958 634.955 98.6958L632.554 97.255V98.4556V98.6958C632.554 98.6958 632.554 98.6958 632.314 98.6958L630.633 97.7352C630.633 97.7352 630.393 97.7352 630.393 97.4951C630.393 97.4951 630.393 97.255 630.393 97.0148V95.8142L627.992 94.3734C627.992 94.3734 627.991 94.3733 627.751 94.1332C627.751 94.1332 627.751 93.8931 627.751 93.6529V92.4523C627.751 92.4523 627.751 92.4523 627.751 92.2122C627.751 92.2122 627.751 92.2122 627.992 92.2122L630.393 93.6529V92.9325L627.992 91.4917C627.992 91.4917 627.991 91.4917 627.751 91.2516C627.751 91.2516 627.751 91.0115 627.751 90.7713V89.5707C627.751 89.5707 627.751 89.5706 627.751 89.3305C627.751 89.3305 627.751 89.3305 627.992 89.3305L629.672 90.2911L626.311 81.4061C626.311 81.4061 626.311 81.4061 626.311 81.1659C626.311 81.1659 626.311 81.1659 626.311 80.9258C626.311 80.9258 626.31 80.9258 626.551 80.9258L628.232 81.8863C628.232 81.8863 628.712 82.3666 628.712 82.6068L631.594 90.0509L634.475 85.9686C634.475 85.9686 634.715 85.9686 634.955 85.9686L636.636 86.9292C636.636 86.9292 636.636 86.9292 636.876 87.1693C636.876 87.1693 636.876 87.4094 636.876 87.6496H636.636Z" fill="url(#paint24_radial_93_8309)"/>
<path style="mix-blend-mode:color-dodge" opacity="0.5" d="M630.393 198.106C630.393 198.106 630.393 197.866 630.393 197.625V196.185C629.432 195.464 628.712 194.984 628.232 194.264C627.511 193.543 627.031 192.823 626.791 192.102C626.551 191.382 626.311 190.662 626.311 189.941C626.311 189.941 626.31 189.941 626.551 189.941L628.232 190.902C628.232 190.902 628.472 190.902 628.472 191.142C628.472 191.142 628.472 191.382 628.472 191.622C628.472 192.102 628.952 192.823 629.432 193.303C629.913 193.783 630.393 194.264 631.113 194.744C631.834 195.224 632.554 195.464 633.034 195.464C633.515 195.464 633.755 194.984 633.755 194.504C633.755 194.023 633.755 193.783 633.515 193.303C633.515 192.823 633.034 192.583 632.554 192.102C632.074 191.622 631.353 191.142 630.633 190.181C629.192 188.981 628.232 187.78 627.511 186.819C626.791 185.859 626.551 184.658 626.551 183.457C626.551 182.257 626.791 181.536 627.511 181.296C628.232 181.056 629.192 181.056 630.393 181.536V180.096V179.855C630.393 179.855 630.393 179.855 630.633 179.855L631.834 180.576C631.834 180.576 631.834 180.576 632.074 180.816C632.074 180.816 632.074 181.056 632.074 181.296V182.737C632.794 183.217 633.515 183.938 633.995 184.658C634.475 185.379 634.955 186.099 635.196 186.819C635.436 187.54 635.676 188.26 635.676 188.74C635.676 188.74 635.676 188.74 635.676 188.981C635.676 188.981 635.676 188.981 635.436 188.981L633.755 188.02C633.515 188.02 633.274 187.54 633.274 187.3C633.274 186.819 633.034 186.339 632.554 185.859C632.074 185.379 631.594 184.898 631.113 184.418C630.393 183.938 629.913 183.938 629.432 183.938C628.952 183.938 628.952 184.418 628.952 184.898C628.952 185.379 628.952 185.619 629.192 186.099C629.192 186.339 629.672 186.819 630.153 187.3C630.633 187.78 631.113 188.26 631.834 188.981C633.034 189.941 633.755 190.662 634.475 191.382C635.195 192.102 635.676 192.823 635.916 193.543C636.156 194.264 636.396 194.984 636.396 195.944C636.396 197.145 635.916 197.866 635.196 198.346C634.475 198.586 633.515 198.346 632.074 197.866V199.306V199.547C632.074 199.547 632.074 199.547 631.834 199.547L630.633 198.826C630.633 198.826 630.633 198.826 630.393 198.586V198.106Z" fill="url(#paint25_radial_93_8309)"/>
<path style="mix-blend-mode:color-dodge" opacity="0.5" d="M636.636 210.599L633.274 215.642L634.955 216.602C634.955 216.602 635.196 216.602 635.196 216.842C635.196 216.842 635.196 217.082 635.196 217.323V218.523C635.196 218.523 635.196 218.523 635.196 218.763C635.196 219.003 635.195 218.763 634.955 218.763L632.554 217.323V218.043L634.955 219.484C634.955 219.484 635.196 219.484 635.196 219.724C635.196 219.724 635.196 219.964 635.196 220.204V221.405C635.196 221.405 635.196 221.405 635.196 221.645C635.196 221.645 635.195 221.645 634.955 221.645L632.554 220.204V221.405V221.645C632.554 221.645 632.554 221.645 632.314 221.645L630.633 220.684C630.633 220.684 630.393 220.684 630.393 220.444C630.393 220.444 630.393 220.204 630.393 219.964V218.763L627.992 217.323C627.992 217.323 627.991 217.323 627.751 217.082C627.751 217.082 627.751 216.842 627.751 216.602V215.401C627.751 215.401 627.751 215.401 627.751 215.161C627.751 215.161 627.751 215.161 627.992 215.161L630.393 216.602V215.882L627.992 214.441C627.992 214.441 627.991 214.441 627.751 214.201C627.751 214.201 627.751 213.961 627.751 213.721V212.52C627.751 212.52 627.751 212.52 627.751 212.28C627.751 212.28 627.751 212.28 627.992 212.28L629.672 213.24L626.311 204.355C626.311 204.355 626.311 204.355 626.311 204.115C626.311 204.115 626.311 204.115 626.311 203.875C626.311 203.875 626.31 203.875 626.551 203.875L628.232 204.836C628.232 204.836 628.712 205.316 628.712 205.556L631.594 213L634.475 208.918C634.475 208.918 634.715 208.918 634.955 208.918L636.636 209.878C636.636 209.878 636.636 209.878 636.876 210.118C636.876 210.118 636.876 210.359 636.876 210.599H636.636Z" fill="url(#paint26_radial_93_8309)"/>
<path style="mix-blend-mode:color-dodge" opacity="0.5" d="M632.794 124.144C632.314 123.664 632.074 123.183 631.353 122.703C630.873 122.223 630.633 121.742 630.393 121.502C630.153 121.262 629.913 121.022 629.673 120.782C629.192 120.782 628.952 120.542 628.712 120.782C628.712 120.782 628.472 121.262 628.232 121.502L626.791 120.782C626.791 120.782 626.791 120.782 626.551 120.542C626.551 120.542 626.551 120.542 626.551 120.302C626.551 119.341 626.551 118.861 627.031 118.381C627.511 117.9 627.992 117.9 628.472 117.9C628.472 117.42 628.472 116.94 628.472 116.459C628.472 115.979 628.472 115.739 628.472 115.499L627.031 114.779C627.031 114.779 627.031 114.779 626.791 114.538C626.791 114.538 626.791 114.298 626.791 114.058V112.857V112.617C626.791 112.617 626.791 112.617 627.031 112.617L627.992 113.098C627.992 112.617 627.992 112.377 627.992 111.897C627.992 110.216 628.472 109.015 629.192 108.535C629.913 108.055 631.113 108.295 632.794 109.015C633.755 109.496 634.715 110.216 635.436 111.177C636.156 111.897 636.637 112.857 637.117 113.818C637.597 114.779 637.597 115.739 637.837 116.7C637.837 116.7 637.837 116.7 637.837 116.94C637.837 116.94 637.837 116.94 637.597 116.94L635.916 115.979C635.676 115.979 635.436 115.499 635.436 115.259C635.196 113.578 634.475 112.377 633.275 111.657C632.554 111.177 632.074 111.177 631.834 111.657C631.594 111.897 631.353 112.617 631.353 113.578C631.353 114.538 631.353 114.538 631.353 114.779L634.475 116.459C634.475 116.459 634.475 116.459 634.715 116.7C634.715 116.7 634.715 116.94 634.715 117.18V118.381C634.715 118.381 634.715 118.381 634.715 118.621C634.715 118.621 634.715 118.621 634.475 118.621L631.594 116.94C631.594 117.9 631.594 118.861 631.594 119.341C631.834 119.581 632.074 119.821 632.314 120.061C632.314 120.302 632.794 120.542 633.034 121.022C633.275 121.502 633.515 121.742 633.755 121.983C633.755 122.223 634.235 122.463 634.475 122.703C634.955 122.943 635.196 122.943 635.436 122.703C635.436 122.703 635.916 122.223 635.916 121.983L637.117 122.703C637.117 122.703 637.117 122.703 637.357 122.943C637.357 122.943 637.357 122.943 637.357 123.183C637.357 123.904 637.357 124.624 636.877 124.864C636.636 125.344 636.156 125.585 635.676 125.585C635.196 125.585 634.715 125.585 634.235 125.104C633.755 124.864 633.275 124.384 632.794 124.144Z" fill="url(#paint27_radial_93_8309)"/>
<path style="mix-blend-mode:color-dodge" opacity="0.5" d="M638.313 147.681C638.313 147.681 638.313 147.921 638.313 148.161C638.313 148.881 638.073 149.602 637.593 150.082C637.113 150.562 636.632 150.802 635.672 150.562C634.951 150.562 633.991 150.082 632.79 149.602C631.349 148.641 629.909 147.681 629.188 146.24C628.228 144.799 627.747 143.358 627.507 141.677L626.307 140.957C626.307 140.957 626.307 140.957 626.066 140.717C626.066 140.717 626.066 140.477 626.066 140.236V139.036V138.796C626.066 138.796 626.066 138.796 626.307 138.796L627.507 139.516V138.796L626.307 138.075C626.307 138.075 626.307 138.075 626.066 137.835C626.066 137.835 626.066 137.595 626.066 137.355V136.154V135.914C626.066 135.914 626.066 135.914 626.307 135.914L627.507 136.634C627.507 135.194 628.228 134.233 629.188 133.993C630.149 133.753 631.349 133.993 632.79 134.953C633.991 135.674 634.951 136.394 635.672 137.115C636.392 138.075 637.113 138.796 637.593 139.756C638.073 140.717 638.313 141.677 638.313 142.398C638.313 142.398 638.313 142.398 638.313 142.638C638.313 142.638 638.313 142.638 638.073 142.638L636.392 141.677C636.392 141.677 636.152 141.677 636.152 141.437C636.152 141.437 636.152 141.197 636.152 140.957C636.152 140.236 635.672 139.516 635.192 138.796C634.711 138.315 634.231 137.595 633.511 137.355C632.07 136.394 631.109 136.874 630.869 138.315L633.991 139.996C633.991 139.996 633.991 139.996 634.231 140.236C634.231 140.236 634.231 140.477 634.231 140.717V141.917C634.231 141.917 634.231 141.917 634.231 142.157C634.231 142.157 634.231 142.157 633.991 142.157L630.869 140.476V141.197L633.991 142.878C633.991 142.878 633.991 142.878 634.231 143.118C634.231 143.118 634.231 143.358 634.231 143.598V144.799C634.231 144.799 634.231 144.799 634.231 145.039C634.231 145.039 634.231 145.039 633.991 145.039L630.869 143.358C631.109 145.039 632.07 146.48 633.511 147.44C634.231 147.921 634.711 148.161 635.192 147.921C635.672 147.921 635.912 147.44 636.152 146.96V146.72C636.152 146.72 636.152 146.72 636.392 146.72L638.073 147.681C638.073 147.681 638.073 147.681 638.313 147.921V147.681Z" fill="url(#paint28_radial_93_8309)"/>
</g>
<g style="mix-blend-mode:color-dodge" opacity="0.5">
<path style="mix-blend-mode:color-dodge" opacity="0.5" d="M596.773 195.707C596.773 195.707 596.773 195.947 596.773 196.187C596.773 196.908 596.773 197.388 596.052 197.868C595.572 198.349 595.092 198.349 594.372 198.349C593.651 198.349 592.691 197.868 591.49 197.388C590.529 196.908 589.809 196.188 589.089 195.467C588.368 194.747 587.888 194.026 587.408 193.066C586.927 192.105 586.927 191.385 586.927 190.424C586.927 189.464 586.927 189.464 586.927 189.224H586.447C586.447 188.983 586.447 188.743 586.207 188.743C586.207 188.743 586.207 188.503 586.207 188.263V187.783V187.543C586.207 187.543 586.207 187.543 586.447 187.543L587.888 188.503C588.128 188.503 588.608 188.503 589.089 188.503L586.207 186.822C586.207 186.822 586.207 186.822 585.967 186.582C585.967 186.582 585.967 186.342 585.967 186.102V185.622V185.381C585.967 185.381 585.967 185.381 586.207 185.381L592.45 188.983C592.69 188.983 592.931 188.983 593.171 188.743C593.171 188.743 593.171 188.263 593.171 188.023C593.171 187.543 593.171 187.062 592.691 186.582C592.45 186.102 591.97 185.622 591.49 185.381C590.769 184.901 590.289 184.901 589.809 184.901C589.329 184.901 589.089 185.141 589.089 185.622C589.089 185.622 588.848 185.622 588.608 185.622L586.927 184.661C586.927 184.661 586.927 184.661 586.687 184.421C586.687 184.421 586.687 184.181 586.687 183.941C586.687 183.22 586.687 182.74 587.408 182.5C587.888 182.02 588.368 182.02 589.089 182.02C589.809 182.02 590.769 182.26 591.73 182.98C592.45 183.46 593.411 183.941 593.891 184.661C594.612 185.381 595.092 186.102 595.332 186.822C595.572 187.543 595.812 188.503 595.812 189.224C595.812 189.944 595.812 190.424 595.332 190.664H596.052C596.052 191.145 596.052 191.145 596.293 191.385C596.293 191.385 596.293 191.625 596.293 191.865V192.345C596.293 192.345 596.293 192.345 596.293 192.585C596.293 192.585 596.292 192.585 596.052 192.585L593.651 191.145C593.171 191.145 592.691 191.145 592.21 191.145L596.293 193.546C596.293 193.546 596.293 193.546 596.533 193.786C596.773 194.026 596.533 194.026 596.533 194.266V194.747C596.533 194.747 596.533 194.747 596.533 194.987C596.533 194.987 596.533 194.987 596.293 194.987L589.569 191.145C589.569 191.145 589.329 191.625 589.329 192.105C589.329 192.585 589.329 193.306 589.809 193.786C590.289 194.266 590.769 194.747 591.49 195.227C592.21 195.707 592.931 195.947 593.411 195.707C593.891 195.707 594.131 195.467 594.372 194.987C594.372 194.987 594.612 194.987 594.852 194.987L596.533 195.947C596.533 195.947 596.533 195.947 596.773 196.187V195.707Z" fill="url(#paint29_radial_93_8309)"/>
<path style="mix-blend-mode:color-dodge" opacity="0.5" d="M590.77 101.821C590.77 101.821 590.77 101.58 590.77 101.34V99.8995C589.809 99.1791 589.089 98.6988 588.609 97.9784C587.888 97.258 587.408 96.5376 587.168 95.8172C586.928 95.0968 586.688 94.3764 586.688 93.656C586.688 93.656 586.687 93.656 586.928 93.656L588.609 94.6165C588.609 94.6165 588.849 94.6165 588.849 94.8566C588.849 94.8566 588.849 95.0968 588.849 95.3369C588.849 95.8172 589.329 96.5376 589.809 97.0179C590.289 97.4982 590.77 97.9784 591.49 98.4587C592.211 98.9389 592.931 99.1791 593.411 99.1791C593.892 99.1791 594.132 98.6988 594.132 98.2186C594.132 97.7383 594.132 97.4982 593.892 97.0179C593.892 96.5376 593.411 96.2975 592.931 95.8172C592.451 95.3369 591.73 94.8567 591.01 93.8961C589.569 92.6954 588.609 91.4947 587.888 90.5342C587.168 89.5737 586.928 88.373 586.928 87.1723C586.928 85.9717 587.168 85.2513 587.888 85.0111C588.609 84.771 589.569 84.771 590.77 85.2512V83.8105V83.5703C590.77 83.5703 590.77 83.5703 591.01 83.5703L592.211 84.2907C592.211 84.2907 592.211 84.2907 592.451 84.5308C592.451 84.5308 592.451 84.771 592.451 85.0111V86.4519C593.171 86.9322 593.892 87.6526 594.372 88.373C594.852 89.0934 595.332 89.8138 595.573 90.5342C595.813 91.2546 596.053 91.975 596.053 92.4553C596.053 92.4553 596.053 92.4553 596.053 92.6954C596.053 92.6954 596.053 92.6954 595.813 92.6954L594.132 91.7349C593.891 91.7349 593.651 91.2546 593.651 91.0145C593.651 90.5342 593.411 90.054 592.931 89.5737C592.451 89.0934 591.97 88.6131 591.49 88.1329C590.77 87.6526 590.289 87.6526 589.809 87.6526C589.329 87.6526 589.329 88.1329 589.329 88.6132C589.329 89.0934 589.329 89.3336 589.569 89.8138C589.569 90.054 590.049 90.5342 590.53 91.0145C591.01 91.4948 591.49 91.975 592.211 92.6954C593.411 93.656 594.132 94.3764 594.852 95.0968C595.572 95.8172 596.053 96.5376 596.293 97.258C596.533 97.9784 596.773 98.6988 596.773 99.6593C596.773 100.86 596.293 101.58 595.573 102.061C594.852 102.301 593.891 102.061 592.451 101.58V103.021V103.261C592.451 103.261 592.451 103.261 592.211 103.261L591.01 102.541C591.01 102.541 591.01 102.541 590.77 102.301V101.821Z" fill="url(#paint30_radial_93_8309)"/>
<path style="mix-blend-mode:color-dodge" opacity="0.5" d="M597.252 114.306L593.89 119.349L595.571 120.309C595.571 120.309 595.811 120.309 595.811 120.549C595.811 120.549 595.811 120.789 595.811 121.03V122.23C595.811 122.23 595.811 122.23 595.811 122.47C595.811 122.47 595.811 122.47 595.571 122.47L593.169 121.03V121.75L595.571 123.191C595.571 123.191 595.811 123.191 595.811 123.431C595.811 123.431 595.811 123.671 595.811 123.911V125.112C595.811 125.112 595.811 125.112 595.811 125.352C595.811 125.352 595.811 125.352 595.571 125.352L593.169 123.911V125.112V125.352C593.169 125.352 593.169 125.352 592.929 125.352L591.248 124.391C591.248 124.391 591.008 124.391 591.008 124.151C591.008 124.151 591.008 123.911 591.008 123.671V122.47L588.607 121.03C588.607 121.03 588.607 121.03 588.367 120.789C588.367 120.789 588.367 120.549 588.367 120.309V119.109C588.367 119.109 588.367 119.108 588.367 118.868C588.367 118.868 588.367 118.868 588.607 118.868L591.008 120.309V119.589L588.607 118.148C588.607 118.148 588.607 118.148 588.367 117.908C588.367 117.908 588.367 117.668 588.367 117.428V116.227C588.367 116.227 588.367 116.227 588.367 115.987C588.367 115.987 588.367 115.987 588.607 115.987L590.288 116.947L586.926 108.062C586.926 108.062 586.926 108.062 586.926 107.822C586.926 107.822 586.926 107.822 586.926 107.582C586.926 107.582 586.926 107.582 587.166 107.582L588.847 108.543C588.847 108.543 589.327 109.023 589.327 109.263L592.209 116.707L595.09 112.625C595.09 112.625 595.331 112.625 595.571 112.625L597.252 113.585C597.252 113.585 597.252 113.585 597.492 113.826C597.492 113.826 597.492 114.066 597.492 114.306H597.252Z" fill="url(#paint31_radial_93_8309)"/>
<path style="mix-blend-mode:color-dodge" opacity="0.5" d="M593.169 150.804C592.689 150.324 592.449 149.843 591.728 149.363C591.248 148.883 591.008 148.403 590.768 148.162C590.528 147.922 590.288 147.682 590.048 147.442C589.567 147.442 589.327 147.202 589.087 147.442C589.087 147.442 588.847 147.922 588.607 148.162L587.166 147.442C587.166 147.442 587.166 147.442 586.926 147.202C586.926 147.202 586.926 147.202 586.926 146.962C586.926 146.001 586.926 145.521 587.406 145.041C587.886 144.56 588.367 144.56 588.847 144.56C588.847 144.08 588.847 143.6 588.847 143.12C588.847 142.639 588.847 142.399 588.847 142.159L587.406 141.439C587.406 141.439 587.406 141.439 587.166 141.199C587.166 141.199 587.166 140.958 587.166 140.718V139.518V139.277C587.166 139.277 587.166 139.277 587.406 139.277L588.367 139.758C588.367 139.277 588.367 139.037 588.367 138.557C588.367 136.876 588.847 135.675 589.567 135.195C590.288 134.715 591.488 134.955 593.169 135.675C594.13 136.156 595.09 136.876 595.811 137.837C596.531 138.557 597.012 139.518 597.492 140.478C597.972 141.439 597.972 142.399 598.212 143.36C598.212 143.36 598.212 143.36 598.212 143.6C598.212 143.6 598.212 143.6 597.972 143.6L596.291 142.639C596.051 142.639 595.811 142.159 595.811 141.919C595.571 140.238 594.85 139.037 593.65 138.317C592.929 137.837 592.449 137.837 592.209 138.317C591.969 138.557 591.728 139.277 591.728 140.238C591.728 141.199 591.728 141.199 591.728 141.439L594.85 143.12C594.85 143.12 594.85 143.12 595.09 143.36C595.09 143.36 595.09 143.6 595.09 143.84V145.041C595.09 145.041 595.09 145.041 595.09 145.281C595.09 145.281 595.09 145.281 594.85 145.281L591.969 143.6C591.969 144.56 591.969 145.521 591.969 146.001C592.209 146.241 592.449 146.482 592.689 146.722C592.689 146.962 593.169 147.202 593.409 147.682C593.65 148.162 593.89 148.403 594.13 148.643C594.13 148.883 594.61 149.123 594.85 149.363C595.33 149.603 595.571 149.603 595.811 149.363C595.811 149.363 596.291 148.883 596.291 148.643L597.492 149.363C597.492 149.363 597.492 149.363 597.732 149.603C597.732 149.603 597.732 149.603 597.732 149.843C597.732 150.564 597.732 151.284 597.252 151.524C597.011 152.005 596.531 152.245 596.051 152.245C595.571 152.245 595.09 152.245 594.61 151.764C594.13 151.524 593.65 151.044 593.169 150.804Z" fill="url(#paint32_radial_93_8309)"/>
<path style="mix-blend-mode:color-dodge" opacity="0.5" d="M598.692 174.337C598.692 174.337 598.692 174.577 598.692 174.817C598.692 175.537 598.452 176.258 597.972 176.738C597.492 177.218 597.011 177.459 596.051 177.218C595.33 177.218 594.37 176.738 593.169 176.258C591.728 175.297 590.288 174.337 589.567 172.896C588.607 171.455 588.126 170.014 587.886 168.333L586.686 167.613C586.686 167.613 586.685 167.613 586.445 167.373C586.445 167.373 586.445 167.133 586.445 166.893V165.692V165.452C586.445 165.452 586.445 165.452 586.686 165.452L587.886 166.172V165.452L586.686 164.731C586.686 164.731 586.685 164.731 586.445 164.491C586.445 164.491 586.445 164.251 586.445 164.011V162.81V162.57C586.445 162.57 586.445 162.57 586.686 162.57L587.886 163.291C587.886 161.85 588.607 160.889 589.567 160.649C590.528 160.409 591.728 160.649 593.169 161.61C594.37 162.33 595.33 163.05 596.051 163.771C596.771 164.731 597.492 165.452 597.972 166.412C598.452 167.373 598.692 168.333 598.692 169.054C598.692 169.054 598.692 169.054 598.692 169.294C598.692 169.294 598.692 169.294 598.452 169.294L596.771 168.333C596.771 168.333 596.531 168.333 596.531 168.093C596.531 168.093 596.531 167.853 596.531 167.613C596.531 166.893 596.051 166.172 595.571 165.452C595.09 164.972 594.61 164.251 593.89 164.011C592.449 163.05 591.488 163.531 591.248 164.972L594.37 166.652C594.37 166.652 594.37 166.652 594.61 166.893C594.61 166.893 594.61 167.133 594.61 167.373V168.574C594.61 168.574 594.61 168.574 594.61 168.814C594.61 168.814 594.61 168.814 594.37 168.814L591.248 167.133V167.853L594.37 169.534C594.37 169.534 594.37 169.534 594.61 169.774C594.61 169.774 594.61 170.014 594.61 170.255V171.455C594.61 171.455 594.61 171.455 594.61 171.695C594.61 171.695 594.61 171.695 594.37 171.695L591.248 170.014C591.488 171.695 592.449 173.136 593.89 174.097C594.61 174.577 595.09 174.817 595.571 174.577C596.051 174.577 596.291 174.097 596.531 173.616V173.376C596.531 173.376 596.531 173.376 596.771 173.376L598.452 174.337C598.452 174.337 598.452 174.337 598.692 174.577V174.337Z" fill="url(#paint33_radial_93_8309)"/>
</g>
<path d="M376.332 324.184V413.034C376.332 413.514 376.091 413.754 375.371 414.234V325.384C375.851 325.144 376.091 324.664 376.332 324.184Z" fill="url(#paint34_linear_93_8309)"/>
<path d="M165.252 413.034V324.184C165.252 324.664 165.492 324.904 166.212 325.384V414.234C165.732 413.994 165.252 413.514 165.252 413.034Z" fill="url(#paint35_linear_93_8309)"/>
<path d="M273.074 384.702V473.792L375.372 414.239V325.148L273.074 384.702Z" fill="url(#paint36_linear_93_8309)"/>
<path d="M165.975 325.148V414.239L268.992 473.792V384.702L165.975 325.148Z" fill="url(#paint37_linear_93_8309)"/>
<path d="M375.372 322.988C376.573 323.709 376.573 324.669 375.372 325.39L273.075 384.943C271.874 385.664 270.193 385.664 268.993 384.943L165.975 325.39C164.774 324.669 164.774 323.709 165.975 322.988L268.272 263.435C269.473 262.714 271.154 262.714 272.354 263.435L375.372 322.988Z" fill="url(#paint38_linear_93_8309)"/>
<path d="M271.154 384.7C270.433 384.7 269.953 384.7 269.473 384.219L166.455 324.666C165.975 324.666 165.975 324.186 165.975 323.946C165.975 323.705 165.975 323.465 166.455 323.225L268.752 263.672C269.233 263.432 269.953 263.191 270.433 263.191C270.914 263.191 271.634 263.191 272.114 263.672L375.132 323.225C375.612 323.225 375.612 323.705 375.612 323.946C375.612 324.186 375.612 324.426 375.132 324.666L272.835 384.219C272.354 384.46 271.634 384.7 271.154 384.7Z" stroke="url(#paint39_linear_93_8309)" stroke-width="1.20067"/>
<path d="M273.078 384.938V473.787C271.878 474.508 270.197 474.508 268.996 473.787V384.938C270.197 385.658 271.878 385.658 273.078 384.938Z" fill="url(#paint40_linear_93_8309)"/>
<path d="M609.263 378.932C609.743 379.173 609.743 379.653 609.263 379.893L570.361 402.466C569.881 402.706 569.16 402.706 568.92 402.466L529.778 379.893C529.298 379.653 529.298 379.173 529.778 378.932L568.68 356.36C569.16 356.12 569.881 356.12 570.121 356.36L609.263 378.932Z" fill="url(#paint41_linear_93_8309)"/>
<path d="M569.64 401.981H569.16L530.018 379.409L568.919 356.836C568.919 356.836 569.16 356.836 569.4 356.836C569.64 356.836 569.88 356.836 569.88 356.836L609.022 379.409L570.12 401.981C570.12 401.981 569.88 401.981 569.64 401.981Z" stroke="url(#paint42_linear_93_8309)" stroke-width="1.20067"/>
<path d="M609.262 379.652V413.271C609.262 413.271 609.502 413.031 609.502 412.791V379.172C609.502 379.172 609.502 379.412 609.262 379.652Z" fill="url(#paint43_linear_93_8309)"/>
<path d="M570.363 402.221C569.883 402.461 569.162 402.461 568.922 402.221V435.84C569.402 436.08 570.123 436.08 570.363 435.84L609.265 413.267V379.648L570.363 402.221Z" fill="url(#paint44_linear_93_8309)"/>
<path d="M530.019 379.652C530.019 379.652 529.779 379.412 529.779 379.172V412.791C529.779 412.791 529.779 413.031 530.019 413.271L569.161 435.844V402.225L530.019 379.652Z" fill="url(#paint45_linear_93_8309)"/>
<path d="M712.762 236.534V279.758L449.094 129.193V85.969L466.864 78.2847C470.706 76.6037 476.949 80.2057 480.791 86.2091C484.634 92.2125 490.877 95.8145 494.719 94.1335L523.776 81.6465C527.618 79.9656 533.861 83.5676 537.703 89.571L549.23 107.581C553.072 113.584 559.316 117.187 563.158 115.506L564.359 115.025C568.201 113.344 574.444 116.946 578.286 122.95L598.698 155.128C602.54 161.131 608.783 164.733 612.626 163.052L647.925 147.924C651.768 146.243 658.011 149.845 661.853 155.848L713.002 236.293L712.762 236.534Z" fill="url(#paint46_linear_93_8309)"/>
<path d="M712.039 236.768L660.89 156.323C657.288 150.56 651.285 147.198 647.923 148.639L612.623 163.767C608.541 165.448 601.817 161.846 597.735 155.603L577.324 123.425C573.722 117.662 567.718 114.3 564.356 115.74L563.156 116.221C558.833 117.902 552.35 114.3 548.267 108.056L536.741 90.046C533.139 84.2828 527.135 80.9209 523.774 82.3617L494.717 94.8487C490.635 96.5297 483.911 92.9277 479.829 86.6842C476.227 80.9209 470.223 77.559 466.862 78.9999L449.092 86.6842L448.371 85.4835L466.141 77.7992C470.464 76.1182 476.947 79.7202 481.03 85.9638C484.632 91.727 490.635 95.0889 493.997 93.6481L523.053 81.1611C527.135 79.4801 533.859 83.0821 537.942 89.3256L549.468 107.336C553.07 113.099 559.073 116.461 562.435 115.02L563.636 114.54C567.718 112.619 574.442 116.461 578.524 122.704L598.936 154.882C602.538 160.646 608.541 164.008 611.903 162.567L647.203 147.438C651.285 145.757 658.009 149.359 662.091 155.603L713.24 236.048L712.039 236.768Z" fill="#FF2492"/>
<path d="M657.531 151.039C657.531 152.72 656.09 153.44 654.409 152.48C652.728 151.519 651.287 149.358 651.287 147.437C651.287 145.516 652.728 145.035 654.409 145.996C656.09 146.956 657.531 149.118 657.531 151.039Z" fill="white"/>
<path d="M610.941 165.208C610.941 168.09 608.539 169.051 605.658 167.37C602.776 165.689 600.375 161.847 600.375 158.965C600.375 156.083 602.776 155.123 605.658 156.804C608.539 158.485 610.941 162.327 610.941 165.208Z" fill="white"/>
<path d="M533.861 84.7621C533.861 86.4431 532.42 87.1635 530.739 86.203C529.058 85.2424 527.617 82.8411 527.617 81.1601C527.617 79.4792 529.058 78.7587 530.739 79.7193C532.42 80.6798 533.861 83.0812 533.861 84.7621Z" fill="white"/>
<path d="M492.796 96.0483C492.796 98.9299 490.395 99.8904 487.513 98.2095C484.632 96.5285 482.23 92.6864 482.23 89.8048C482.23 86.9231 484.632 85.9626 487.513 87.6435C490.395 89.3245 492.796 93.1666 492.796 96.0483Z" fill="white"/>
<path d="M606.38 234.849H604.939V172.895H606.38V234.849Z" fill="#FF2492"/>
<path d="M487.996 165.207L486.795 164.967V103.012L487.996 103.252V165.207Z" fill="#FF2492"/>
<path d="M655.128 262.711H653.928V159.934H655.128V262.711Z" fill="#FF2492"/>
<path d="M531.458 192.108H530.018V93.6523H531.458V192.108Z" fill="#FF2492"/>
<path d="M416.191 139.039L433.961 131.355C437.803 129.674 444.047 133.276 447.889 139.279C451.731 145.283 457.975 148.885 461.817 147.204L490.873 134.717C494.715 133.036 500.959 136.638 504.801 142.641L516.328 160.651C520.17 166.655 526.413 170.257 530.255 168.576L531.456 168.096C535.298 166.415 541.542 170.017 545.384 176.02L565.795 208.198C569.638 214.202 575.881 217.804 579.723 216.123L615.023 200.994C618.865 199.313 625.109 202.915 628.951 208.919L680.1 289.364L416.431 138.799L416.191 139.039Z" fill="url(#paint47_linear_93_8309)"/>
<path d="M433.007 147.446L274.758 74.2048C272.837 73.2442 269.955 73.2442 268.034 74.2048L110.746 147.446C109.785 147.926 109.305 148.647 109.305 149.367L140.522 416.877C140.522 417.598 141.003 418.318 141.963 418.798L268.994 492.04C270.915 493 273.797 493 275.718 492.04L401.789 418.798C402.75 418.318 403.23 417.598 403.23 416.877L434.447 149.367C434.447 148.647 433.967 147.926 433.007 147.446Z" fill="url(#paint48_linear_93_8309)"/>
<defs>
<radialGradient id="paint0_radial_93_8309" cx="0" cy="0" r="1" gradientUnits="userSpaceOnUse" gradientTransform="translate(475.958 232.608) rotate(22.7) scale(314.586 188.751)">
<stop stop-color="#F72684"/>
<stop offset="0.2" stop-color="#E12487" stop-opacity="0.64"/>
<stop offset="0.4" stop-color="#BF218B" stop-opacity="0.36"/>
<stop offset="0.7" stop-color="#901E91" stop-opacity="0.16"/>
<stop offset="1" stop-color="#4E1999" stop-opacity="0"/>
</radialGradient>
<linearGradient id="paint1_linear_93_8309" x1="301.65" y1="265.83" x2="449.093" y2="265.83" gradientUnits="userSpaceOnUse">
<stop stop-color="#FF0277"/>
<stop offset="0.7" stop-color="#FF30D6" stop-opacity="0.09"/>
<stop offset="1" stop-color="#FF43FD" stop-opacity="0"/>
</linearGradient>
<linearGradient id="paint2_linear_93_8309" x1="0.759865" y1="318.664" x2="208.717" y2="318.664" gradientUnits="userSpaceOnUse">
<stop stop-color="#FF43FD" stop-opacity="0"/>
<stop offset="0.3" stop-color="#FF30D6" stop-opacity="0.09"/>
<stop offset="1" stop-color="#FF0072"/>
</linearGradient>
<linearGradient id="paint3_linear_93_8309" x1="326.617" y1="310.737" x2="564.351" y2="310.737" gradientUnits="userSpaceOnUse">
<stop stop-color="#FF0277"/>
<stop offset="0.7" stop-color="#FF30D6" stop-opacity="0.09"/>
<stop offset="1" stop-color="#FF43FD" stop-opacity="0"/>
</linearGradient>
<linearGradient id="paint4_linear_93_8309" x1="272.596" y1="219.248" x2="359.044" y2="219.248" gradientUnits="userSpaceOnUse">
<stop stop-color="#B42B8E"/>
<stop offset="0.4" stop-color="#852292"/>
<stop offset="0.8" stop-color="#5D1B97"/>
<stop offset="1" stop-color="#4E1999"/>
</linearGradient>
<linearGradient id="paint5_linear_93_8309" x1="182.305" y1="219.248" x2="269.474" y2="219.248" gradientUnits="userSpaceOnUse">
<stop stop-color="#4E1999"/>
<stop offset="0.2" stop-color="#5D1B97"/>
<stop offset="0.6" stop-color="#852292"/>
<stop offset="1" stop-color="#B42B8E"/>
</linearGradient>
<linearGradient id="paint6_linear_93_8309" x1="270.672" y1="240.857" x2="270.672" y2="137.599" gradientUnits="userSpaceOnUse">
<stop stop-color="#9931B0"/>
<stop offset="1" stop-color="#7532B1"/>
</linearGradient>
<linearGradient id="paint7_linear_93_8309" x1="270.672" y1="241.577" x2="270.672" y2="137.118" gradientUnits="userSpaceOnUse">
<stop stop-color="#EE31B0"/>
<stop offset="1" stop-color="#7532B1"/>
</linearGradient>
<radialGradient id="paint8_radial_93_8309" cx="0" cy="0" r="1" gradientUnits="userSpaceOnUse" gradientTransform="translate(497.119 127.995) scale(66.9978 66.9976)">
<stop stop-color="#B4299A"/>
<stop offset="0.2" stop-color="#7C1C6C"/>
<stop offset="0.5" stop-color="#4A1244"/>
<stop offset="0.7" stop-color="#260A27"/>
<stop offset="0.9" stop-color="#100515"/>
<stop offset="1" stop-color="#08040F"/>
</radialGradient>
<radialGradient id="paint9_radial_93_8309" cx="0" cy="0" r="1" gradientUnits="userSpaceOnUse" gradientTransform="translate(497.117 127.997) scale(66.9971 66.9976)">
<stop stop-color="#B4299A"/>
<stop offset="0.2" stop-color="#7C1C6C"/>
<stop offset="0.5" stop-color="#4A1244"/>
<stop offset="0.7" stop-color="#260A27"/>
<stop offset="0.9" stop-color="#100515"/>
<stop offset="1" stop-color="#08040F"/>
</radialGradient>
<radialGradient id="paint10_radial_93_8309" cx="0" cy="0" r="1" gradientUnits="userSpaceOnUse" gradientTransform="translate(497.117 127.991) scale(66.9969 66.9976)">
<stop stop-color="#B4299A"/>
<stop offset="0.2" stop-color="#7C1C6C"/>
<stop offset="0.5" stop-color="#4A1244"/>
<stop offset="0.7" stop-color="#260A27"/>
<stop offset="0.9" stop-color="#100515"/>
<stop offset="1" stop-color="#08040F"/>
</radialGradient>
<radialGradient id="paint11_radial_93_8309" cx="0" cy="0" r="1" gradientUnits="userSpaceOnUse" gradientTransform="translate(497.119 127.994) scale(66.9981 66.9977)">
<stop stop-color="#B4299A"/>
<stop offset="0.2" stop-color="#7C1C6C"/>
<stop offset="0.5" stop-color="#4A1244"/>
<stop offset="0.7" stop-color="#260A27"/>
<stop offset="0.9" stop-color="#100515"/>
<stop offset="1" stop-color="#08040F"/>
</radialGradient>
<radialGradient id="paint12_radial_93_8309" cx="0" cy="0" r="1" gradientUnits="userSpaceOnUse" gradientTransform="translate(558.109 1.44081) scale(75.4028 75.4024)">
<stop stop-color="#B4299A"/>
<stop offset="0.2" stop-color="#7C1C6C"/>
<stop offset="0.5" stop-color="#4A1244"/>
<stop offset="0.7" stop-color="#260A27"/>
<stop offset="0.9" stop-color="#100515"/>
<stop offset="1" stop-color="#08040F"/>
</radialGradient>
<radialGradient id="paint13_radial_93_8309" cx="0" cy="0" r="1" gradientUnits="userSpaceOnUse" gradientTransform="translate(558.109 1.43452) scale(75.4026 75.4024)">
<stop stop-color="#B4299A"/>
<stop offset="0.2" stop-color="#7C1C6C"/>
<stop offset="0.5" stop-color="#4A1244"/>
<stop offset="0.7" stop-color="#260A27"/>
<stop offset="0.9" stop-color="#100515"/>
<stop offset="1" stop-color="#08040F"/>
</radialGradient>
<radialGradient id="paint14_radial_93_8309" cx="0" cy="0" r="1" gradientUnits="userSpaceOnUse" gradientTransform="translate(558.111 1.43812) scale(75.402 75.4023)">
<stop stop-color="#B4299A"/>
<stop offset="0.2" stop-color="#7C1C6C"/>
<stop offset="0.5" stop-color="#4A1244"/>
<stop offset="0.7" stop-color="#260A27"/>
<stop offset="0.9" stop-color="#100515"/>
<stop offset="1" stop-color="#08040F"/>
</radialGradient>
<radialGradient id="paint15_radial_93_8309" cx="0" cy="0" r="1" gradientUnits="userSpaceOnUse" gradientTransform="translate(522.569 23.0553) scale(104.459 104.459)">
<stop stop-color="#FA45C1"/>
<stop offset="0.2" stop-color="#CB389D"/>
<stop offset="0.7" stop-color="#571843"/>
<stop offset="1"/>
</radialGradient>
<radialGradient id="paint16_radial_93_8309" cx="0" cy="0" r="1" gradientUnits="userSpaceOnUse" gradientTransform="translate(522.571 23.0536) scale(104.459 104.459)">
<stop stop-color="#FA45C1"/>
<stop offset="0.2" stop-color="#CB389D"/>
<stop offset="0.7" stop-color="#571843"/>
<stop offset="1"/>
</radialGradient>
<radialGradient id="paint17_radial_93_8309" cx="0" cy="0" r="1" gradientUnits="userSpaceOnUse" gradientTransform="translate(522.569 23.0558) scale(104.458 104.459)">
<stop stop-color="#FA45C1"/>
<stop offset="0.2" stop-color="#CB389D"/>
<stop offset="0.7" stop-color="#571843"/>
<stop offset="1"/>
</radialGradient>
<radialGradient id="paint18_radial_93_8309" cx="0" cy="0" r="1" gradientUnits="userSpaceOnUse" gradientTransform="translate(522.571 146.003) scale(104.459 104.459)">
<stop stop-color="#FA45C1"/>
<stop offset="0.2" stop-color="#CB389D"/>
<stop offset="0.7" stop-color="#571843"/>
<stop offset="1"/>
</radialGradient>
<radialGradient id="paint19_radial_93_8309" cx="0" cy="0" r="1" gradientUnits="userSpaceOnUse" gradientTransform="translate(522.569 146.005) scale(104.458 104.459)">
<stop stop-color="#FA45C1"/>
<stop offset="0.2" stop-color="#CB389D"/>
<stop offset="0.7" stop-color="#571843"/>
<stop offset="1"/>
</radialGradient>
<radialGradient id="paint20_radial_93_8309" cx="0" cy="0" r="1" gradientUnits="userSpaceOnUse" gradientTransform="translate(522.569 23.0495) scale(104.458 104.459)">
<stop stop-color="#FA45C1"/>
<stop offset="0.2" stop-color="#CB389D"/>
<stop offset="0.7" stop-color="#571843"/>
<stop offset="1"/>
</radialGradient>
<radialGradient id="paint21_radial_93_8309" cx="0" cy="0" r="1" gradientUnits="userSpaceOnUse" gradientTransform="translate(522.569 23.0529) scale(104.458 104.459)">
<stop stop-color="#FA45C1"/>
<stop offset="0.2" stop-color="#CB389D"/>
<stop offset="0.7" stop-color="#571843"/>
<stop offset="1"/>
</radialGradient>
<radialGradient id="paint22_radial_93_8309" cx="0" cy="0" r="1" gradientUnits="userSpaceOnUse" gradientTransform="translate(597.974 115.741) scale(96.5342 96.5343)">
<stop stop-color="#FA45C1"/>
<stop offset="0.2" stop-color="#CB389D"/>
<stop offset="0.7" stop-color="#571843"/>
<stop offset="1"/>
</radialGradient>
<radialGradient id="paint23_radial_93_8309" cx="0" cy="0" r="1" gradientUnits="userSpaceOnUse" gradientTransform="translate(597.975 115.743) scale(96.5345 96.5343)">
<stop stop-color="#FA45C1"/>
<stop offset="0.2" stop-color="#CB389D"/>
<stop offset="0.7" stop-color="#571843"/>
<stop offset="1"/>
</radialGradient>
<radialGradient id="paint24_radial_93_8309" cx="0" cy="0" r="1" gradientUnits="userSpaceOnUse" gradientTransform="translate(597.975 115.745) scale(96.5334 96.5343)">
<stop stop-color="#FA45C1"/>
<stop offset="0.2" stop-color="#CB389D"/>
<stop offset="0.7" stop-color="#571843"/>
<stop offset="1"/>
</radialGradient>
<radialGradient id="paint25_radial_93_8309" cx="0" cy="0" r="1" gradientUnits="userSpaceOnUse" gradientTransform="translate(597.975 115.739) scale(96.5345 96.5342)">
<stop stop-color="#FA45C1"/>
<stop offset="0.2" stop-color="#CB389D"/>
<stop offset="0.7" stop-color="#571843"/>
<stop offset="1"/>
</radialGradient>
<radialGradient id="paint26_radial_93_8309" cx="0" cy="0" r="1" gradientUnits="userSpaceOnUse" gradientTransform="translate(597.975 115.746) scale(96.5334 96.5342)">
<stop stop-color="#FA45C1"/>
<stop offset="0.2" stop-color="#CB389D"/>
<stop offset="0.7" stop-color="#571843"/>
<stop offset="1"/>
</radialGradient>
<radialGradient id="paint27_radial_93_8309" cx="0" cy="0" r="1" gradientUnits="userSpaceOnUse" gradientTransform="translate(597.975 115.739) scale(96.5345 96.5343)">
<stop stop-color="#FA45C1"/>
<stop offset="0.2" stop-color="#CB389D"/>
<stop offset="0.7" stop-color="#571843"/>
<stop offset="1"/>
</radialGradient>
<radialGradient id="paint28_radial_93_8309" cx="0" cy="0" r="1" gradientUnits="userSpaceOnUse" gradientTransform="translate(597.97 115.743) scale(96.5349 96.5342)">
<stop stop-color="#FA45C1"/>
<stop offset="0.2" stop-color="#CB389D"/>
<stop offset="0.7" stop-color="#571843"/>
<stop offset="1"/>
</radialGradient>
<radialGradient id="paint29_radial_93_8309" cx="0" cy="0" r="1" gradientUnits="userSpaceOnUse" gradientTransform="translate(510.324 139.996) scale(77.0833 77.0833)">
<stop stop-color="#FA45C1"/>
<stop offset="0.2" stop-color="#CB389D"/>
<stop offset="0.7" stop-color="#571843"/>
<stop offset="1"/>
</radialGradient>
<radialGradient id="paint30_radial_93_8309" cx="0" cy="0" r="1" gradientUnits="userSpaceOnUse" gradientTransform="translate(510.324 140.002) scale(77.0835 77.0833)">
<stop stop-color="#FA45C1"/>
<stop offset="0.2" stop-color="#CB389D"/>
<stop offset="0.7" stop-color="#571843"/>
<stop offset="1"/>
</radialGradient>
<radialGradient id="paint31_radial_93_8309" cx="0" cy="0" r="1" gradientUnits="userSpaceOnUse" gradientTransform="translate(510.322 140) scale(77.0837 77.0832)">
<stop stop-color="#FA45C1"/>
<stop offset="0.2" stop-color="#CB389D"/>
<stop offset="0.7" stop-color="#571843"/>
<stop offset="1"/>
</radialGradient>
<radialGradient id="paint32_radial_93_8309" cx="0" cy="0" r="1" gradientUnits="userSpaceOnUse" gradientTransform="translate(510.323 139.998) scale(77.0835 77.0834)">
<stop stop-color="#FA45C1"/>
<stop offset="0.2" stop-color="#CB389D"/>
<stop offset="0.7" stop-color="#571843"/>
<stop offset="1"/>
</radialGradient>
<radialGradient id="paint33_radial_93_8309" cx="0" cy="0" r="1" gradientUnits="userSpaceOnUse" gradientTransform="translate(510.322 139.998) scale(77.0839 77.0833)">
<stop stop-color="#FA45C1"/>
<stop offset="0.2" stop-color="#CB389D"/>
<stop offset="0.7" stop-color="#571843"/>
<stop offset="1"/>
</radialGradient>
<linearGradient id="paint34_linear_93_8309" x1="375.851" y1="414.234" x2="375.851" y2="324.184" gradientUnits="userSpaceOnUse">
<stop stop-color="#FF4AAF"/>
<stop offset="0.1" stop-color="#F848AE"/>
<stop offset="0.3" stop-color="#E542AB"/>
<stop offset="0.5" stop-color="#C53AA7"/>
<stop offset="0.7" stop-color="#9A2EA2"/>
<stop offset="0.9" stop-color="#631E9B"/>
<stop offset="1" stop-color="#4E1999"/>
</linearGradient>
<linearGradient id="paint35_linear_93_8309" x1="165.732" y1="414.234" x2="165.732" y2="324.184" gradientUnits="userSpaceOnUse">
<stop stop-color="#FF4AAF"/>
<stop offset="0.1" stop-color="#F848AE"/>
<stop offset="0.3" stop-color="#E542AB"/>
<stop offset="0.5" stop-color="#C53AA7"/>
<stop offset="0.7" stop-color="#9A2EA2"/>
<stop offset="0.9" stop-color="#631E9B"/>
<stop offset="1" stop-color="#4E1999"/>
</linearGradient>
<linearGradient id="paint36_linear_93_8309" x1="344.154" y1="436.331" x2="306.693" y2="366.932" gradientUnits="userSpaceOnUse">
<stop stop-color="#AE2BB6"/>
<stop offset="0.4" stop-color="#8523A9"/>
<stop offset="0.8" stop-color="#5D1B9D"/>
<stop offset="1" stop-color="#4E1999"/>
</linearGradient>
<linearGradient id="paint37_linear_93_8309" x1="197.192" y1="434.89" x2="235.614" y2="368.133" gradientUnits="userSpaceOnUse">
<stop stop-color="#AE2BB6"/>
<stop offset="0.2" stop-color="#9C27B0"/>
<stop offset="0.7" stop-color="#6E1FA2"/>
<stop offset="1" stop-color="#4E1999"/>
</linearGradient>
<linearGradient id="paint38_linear_93_8309" x1="270.674" y1="385.183" x2="270.674" y2="262.955" gradientUnits="userSpaceOnUse">
<stop stop-color="#8231B0"/>
<stop offset="1" stop-color="#7532B1"/>
</linearGradient>
<linearGradient id="paint39_linear_93_8309" x1="270.673" y1="384.7" x2="270.673" y2="263.432" gradientUnits="userSpaceOnUse">
<stop stop-color="#B54ABF"/>
<stop offset="0.3" stop-color="#8F38B1" stop-opacity="0.36"/>
<stop offset="0.6" stop-color="#6C27A4" stop-opacity="0.09"/>
<stop offset="0.9" stop-color="#561C9C" stop-opacity="0"/>
<stop offset="1" stop-color="#4E1999" stop-opacity="0"/>
</linearGradient>
<linearGradient id="paint40_linear_93_8309" x1="271.157" y1="474.268" x2="271.157" y2="384.938" gradientUnits="userSpaceOnUse">
<stop stop-color="#C62BB6"/>
<stop offset="0.1" stop-color="#BF29B4"/>
<stop offset="0.4" stop-color="#AC27AF"/>
<stop offset="0.6" stop-color="#8C22A8"/>
<stop offset="0.9" stop-color="#611B9D"/>
<stop offset="1" stop-color="#4E1999"/>
</linearGradient>
<linearGradient id="paint41_linear_93_8309" x1="569.641" y1="402.466" x2="569.641" y2="356.12" gradientUnits="userSpaceOnUse">
<stop stop-color="#8231B0"/>
<stop offset="1" stop-color="#7532B1"/>
</linearGradient>
<linearGradient id="paint42_linear_93_8309" x1="569.64" y1="401.981" x2="569.64" y2="356.596" gradientUnits="userSpaceOnUse">
<stop stop-color="#B54ABF"/>
<stop offset="0.3" stop-color="#8F38B1" stop-opacity="0.36"/>
<stop offset="0.6" stop-color="#6C27A4" stop-opacity="0.09"/>
<stop offset="0.9" stop-color="#561C9C" stop-opacity="0"/>
<stop offset="1" stop-color="#4E1999" stop-opacity="0"/>
</linearGradient>
<linearGradient id="paint43_linear_93_8309" x1="609.502" y1="413.511" x2="609.502" y2="379.172" gradientUnits="userSpaceOnUse">
<stop stop-color="#4E1999"/>
<stop offset="0.6" stop-color="#5B22A8"/>
<stop offset="1" stop-color="#672BB6"/>
</linearGradient>
<linearGradient id="paint44_linear_93_8309" x1="589.093" y1="436.08" x2="589.093" y2="379.648" gradientUnits="userSpaceOnUse">
<stop stop-color="#4E1999"/>
<stop offset="0.6" stop-color="#5B22A8"/>
<stop offset="1" stop-color="#672BB6"/>
</linearGradient>
<linearGradient id="paint45_linear_93_8309" x1="536.743" y1="420.235" x2="561.717" y2="395.021" gradientUnits="userSpaceOnUse">
<stop stop-color="#B42B8E"/>
<stop offset="0.4" stop-color="#852292"/>
<stop offset="0.8" stop-color="#5D1B97"/>
<stop offset="1" stop-color="#4E1999"/>
</linearGradient>
<linearGradient id="paint46_linear_93_8309" x1="531.571" y1="204.8" x2="586.493" y2="123.752" gradientUnits="userSpaceOnUse">
<stop stop-color="#4E1999" stop-opacity="0"/>
<stop offset="0.2" stop-color="#7F1A8F" stop-opacity="0.09"/>
<stop offset="0.4" stop-color="#AC1B87" stop-opacity="0.25"/>
<stop offset="0.6" stop-color="#D01C80" stop-opacity="0.49"/>
<stop offset="0.8" stop-color="#E91D7B" stop-opacity="0.81"/>
<stop offset="0.9" stop-color="#F91D79"/>
<stop offset="1" stop-color="#FF1E78"/>
</linearGradient>
<linearGradient id="paint47_linear_93_8309" x1="506.823" y1="220.842" x2="540.746" y2="170.79" gradientUnits="userSpaceOnUse">
<stop stop-color="#4E1999" stop-opacity="0"/>
<stop offset="0.1" stop-color="#731A92" stop-opacity="0.04"/>
<stop offset="0.2" stop-color="#971B8B" stop-opacity="0.16"/>
<stop offset="0.4" stop-color="#B71B85" stop-opacity="0.36"/>
<stop offset="0.5" stop-color="#D11C80" stop-opacity="0.49"/>
<stop offset="0.6" stop-color="#E51D7C" stop-opacity="0.81"/>
<stop offset="0.8" stop-color="#F31D7A" stop-opacity="0.81"/>
<stop offset="0.9" stop-color="#FC1D78"/>
<stop offset="1" stop-color="#FF1E78"/>
</linearGradient>
<linearGradient id="paint48_linear_93_8309" x1="271.876" y1="611.387" x2="271.876" y2="191.631" gradientUnits="userSpaceOnUse">
<stop stop-color="#FF0277"/>
<stop offset="0.7" stop-color="#FF30D6" stop-opacity="0.09"/>
<stop offset="1" stop-color="#FF43FD" stop-opacity="0"/>
</linearGradient>
</defs>
</svg>
