<svg width="13" height="13" viewBox="0 0 13 13" fill="none" xmlns="http://www.w3.org/2000/svg">
<path fill-rule="evenodd" clip-rule="evenodd" d="M6.39359 10.753C8.74728 10.753 10.6553 8.84494 10.6553 6.49124C10.6553 4.13755 8.74728 2.2295 6.39359 2.2295C4.03989 2.2295 2.13184 4.13755 2.13184 6.49124C2.13184 8.84494 4.03989 10.753 6.39359 10.753ZM6.39359 11.8184C9.33571 11.8184 11.7208 9.43336 11.7208 6.49124C11.7208 3.54912 9.33571 1.16406 6.39359 1.16406C3.45147 1.16406 1.06641 3.54912 1.06641 6.49124C1.06641 9.43336 3.45147 11.8184 6.39359 11.8184Z" fill="#5D6588"/>
<path fill-rule="evenodd" clip-rule="evenodd" d="M6.396 3.82812C6.10179 3.82812 5.86328 4.06663 5.86328 4.36084C5.86328 4.65506 6.10179 4.89356 6.396 4.89356C6.69021 4.89356 6.92872 4.65506 6.92872 4.36084C6.92872 4.06663 6.69021 3.82812 6.396 3.82812ZM6.396 5.959C6.10179 5.959 5.86328 6.1975 5.86328 6.49172V8.62259C5.86328 8.9168 6.10179 9.15531 6.396 9.15531C6.69021 9.15531 6.92872 8.9168 6.92872 8.62259V6.49172C6.92872 6.1975 6.69021 5.959 6.396 5.959Z" fill="#5D6588"/>
</svg>
