<svg width="12" height="12" viewBox="0 0 12 12" fill="none" xmlns="http://www.w3.org/2000/svg">
<path d="M8.21875 0.710938C10.0339 0.710938 11.2409 2.00708 11.2412 3.86621V8.22266C11.2412 10.0822 10.0345 11.3779 8.21875 11.3779H3.5957C1.78051 11.3779 0.574219 10.0822 0.574219 8.22266V3.86621C0.574485 2.00877 1.78394 0.711004 3.5957 0.710938H8.21875ZM3.59961 1.51074C2.24268 1.51081 1.37812 2.43846 1.37793 3.86621V8.22266C1.37795 9.65261 2.23958 10.5781 3.59961 10.5781H8.22266C9.58311 10.5779 10.4443 9.65242 10.4443 8.22266V3.86621C10.4441 2.43659 9.58278 1.51074 8.22266 1.51074H3.59961ZM5.90234 5.31641C6.10485 5.31641 6.27234 5.46687 6.29883 5.66211L6.30273 5.71582V8.07324C6.30252 8.29398 6.12313 8.47266 5.90234 8.47266C5.7 8.47248 5.53331 8.32208 5.50684 8.12695L5.50293 8.07324V5.71582C5.50306 5.49513 5.68167 5.3166 5.90234 5.31641ZM5.9082 3.625C6.12904 3.62509 6.30762 3.80453 6.30762 4.02539C6.30753 4.22781 6.15709 4.3954 5.96191 4.42188L5.90234 4.4248C5.68165 4.42461 5.50303 4.2461 5.50293 4.02539C5.50293 3.82289 5.65339 3.65539 5.84863 3.62891L5.9082 3.625Z" fill="#CACACA"/>
</svg>
