<svg width="14" height="15" viewBox="0 0 14 15" fill="none" xmlns="http://www.w3.org/2000/svg">
<path d="M10.1328 7.5815C10.0597 7.44602 9.92072 7.36157 9.76957 7.36157H7.41589V2.71418C7.41589 2.47952 7.22985 2.28906 7.00063 2.28906C6.77141 2.28906 6.58537 2.47952 6.58537 2.71418V7.36157H4.23169C4.07999 7.36157 3.94101 7.44602 3.86848 7.5815C3.79484 7.71697 3.79983 7.88248 3.88011 8.01341L6.64905 12.5117C6.72545 12.6353 6.85778 12.7101 7.00063 12.7101C7.14348 12.7101 7.27581 12.6353 7.35222 12.5117L10.1212 8.01341C10.1632 7.94426 10.1848 7.86547 10.1848 7.78669C10.1848 7.7164 10.1671 7.64555 10.1328 7.5815Z" fill="#8547F6"/>
</svg>
