<svg width="41" height="41" viewBox="0 0 41 41" fill="none" xmlns="http://www.w3.org/2000/svg">
<g clip-path="url(#clip0_1_2700)">
<path d="M27.9143 36.6095C27.9143 36.941 27.7826 37.2589 27.5482 37.4933C27.3137 37.7278 26.9958 37.8595 26.6643 37.8595H14.1643C13.8327 37.8595 13.5148 37.7278 13.2804 37.4933C13.046 37.2589 12.9143 36.941 12.9143 36.6095C12.9143 36.2779 13.046 35.96 13.2804 35.7256C13.5148 35.4912 13.8327 35.3595 14.1643 35.3595H26.6643C26.9958 35.3595 27.3137 35.4912 27.5482 35.7256C27.7826 35.96 27.9143 36.2779 27.9143 36.6095ZM34.1643 16.6095C34.1697 18.6933 33.6989 20.7508 32.788 22.6249C31.877 24.4991 30.5499 26.1404 28.908 27.4235C28.601 27.6589 28.3519 27.9613 28.1796 28.3076C28.0074 28.654 27.9166 29.0351 27.9143 29.422V30.3595C27.9143 31.0225 27.6509 31.6584 27.182 32.1272C26.7132 32.5961 26.0773 32.8595 25.4143 32.8595H15.4143C14.7512 32.8595 14.1153 32.5961 13.6465 32.1272C13.1777 31.6584 12.9143 31.0225 12.9143 30.3595V29.422C12.914 29.0398 12.8261 28.6627 12.6574 28.3198C12.4886 27.9769 12.2435 27.6772 11.9408 27.4438C10.303 26.1683 8.97684 24.5369 8.06267 22.6731C7.1485 20.8093 6.6703 18.7619 6.66427 16.686C6.62364 9.23915 12.6424 3.03758 20.083 2.85946C21.9164 2.81528 23.74 3.13829 25.4467 3.80949C27.1533 4.48068 28.7085 5.4865 30.0206 6.76773C31.3327 8.04896 32.3752 9.57972 33.0868 11.2699C33.7985 12.9601 34.1648 14.7756 34.1643 16.6095ZM26.2986 16.9751C26.1826 16.8589 26.0447 16.7667 25.8929 16.7038C25.7412 16.6409 25.5785 16.6085 25.4143 16.6085C25.25 16.6085 25.0873 16.6409 24.9356 16.7038C24.7838 16.7667 24.646 16.8589 24.5299 16.9751L20.4143 21.0923L16.2986 16.9751C16.0641 16.7405 15.746 16.6088 15.4143 16.6088C15.0826 16.6088 14.7644 16.7405 14.5299 16.9751C14.2953 17.2096 14.1636 17.5278 14.1636 17.8595C14.1636 18.1912 14.2953 18.5093 14.5299 18.7438L19.1643 23.3766V29.1095C19.1643 29.441 19.296 29.7589 19.5304 29.9933C19.7648 30.2278 20.0827 30.3595 20.4143 30.3595C20.7458 30.3595 21.0637 30.2278 21.2982 29.9933C21.5326 29.7589 21.6643 29.441 21.6643 29.1095V23.3766L26.2986 18.7438C26.4149 18.6277 26.5071 18.4899 26.57 18.3381C26.6329 18.1864 26.6652 18.0237 26.6652 17.8595C26.6652 17.6952 26.6329 17.5325 26.57 17.3808C26.5071 17.229 26.4149 17.0912 26.2986 16.9751Z" fill="white"/>
</g>
<defs>
<clipPath id="clip0_1_2700">
<rect width="40" height="40" fill="white" transform="translate(0.414062 0.359375)"/>
</clipPath>
</defs>
</svg>
