<svg width="32" height="31" viewBox="0 0 32 31" fill="none" xmlns="http://www.w3.org/2000/svg">
<g clip-path="url(#clip0_78_3264)">
<path d="M27.0523 20.36L15.9983 26.8061L4.94433 20.36C4.72546 20.251 4.4733 20.2295 4.23916 20.2999C4.00502 20.3703 3.8065 20.5273 3.68402 20.7389C3.56153 20.9505 3.52428 21.2008 3.57984 21.4389C3.63541 21.677 3.77961 21.885 3.98311 22.0205L15.5177 28.749C15.6647 28.8347 15.8318 28.8799 16.0019 28.8799C16.1721 28.8799 16.3392 28.8347 16.4861 28.749L28.0208 22.0205C28.1315 21.9578 28.2288 21.8737 28.3068 21.7732C28.3848 21.6726 28.4421 21.5575 28.4753 21.4347C28.5086 21.3118 28.517 21.1835 28.5003 21.0574C28.4835 20.9312 28.4419 20.8096 28.3777 20.6996C28.3136 20.5897 28.2283 20.4935 28.1267 20.4168C28.0251 20.3401 27.9093 20.2843 27.786 20.2527C27.6627 20.2211 27.5344 20.2144 27.4084 20.2328C27.2825 20.2512 27.1614 20.2944 27.0523 20.36Z" fill="url(#paint0_linear_78_3264)"/>
<path d="M27.0523 14.5904L15.9983 21.0366L4.94433 14.5904C4.72546 14.4815 4.4733 14.46 4.23916 14.5304C4.00502 14.6008 3.8065 14.7577 3.68402 14.9693C3.56153 15.1809 3.52428 15.4313 3.57984 15.6694C3.63541 15.9074 3.77961 16.1154 3.98311 16.2509L15.5177 22.9795C15.6647 23.0652 15.8318 23.1103 16.0019 23.1103C16.1721 23.1103 16.3392 23.0652 16.4861 22.9795L28.0208 16.2509C28.1315 16.1883 28.2288 16.1042 28.3068 16.0036C28.3848 15.9031 28.4421 15.788 28.4753 15.6651C28.5086 15.5423 28.517 15.414 28.5003 15.2878C28.4835 15.1616 28.4419 15.04 28.3777 14.9301C28.3136 14.8201 28.2283 14.724 28.1267 14.6473C28.0251 14.5706 27.9093 14.5148 27.786 14.4832C27.6627 14.4516 27.5344 14.4448 27.4084 14.4632C27.2825 14.4816 27.1614 14.5249 27.0523 14.5904Z" fill="url(#paint1_linear_78_3264)"/>
<path d="M3.98465 10.4847L15.5193 17.2133C15.6662 17.299 15.8333 17.3441 16.0035 17.3441C16.1736 17.3441 16.3407 17.299 16.4877 17.2133L28.0223 10.4847C28.1674 10.4001 28.2878 10.2789 28.3714 10.1332C28.4551 9.98753 28.4991 9.82248 28.4991 9.65449C28.4991 9.4865 28.4551 9.32144 28.3714 9.17577C28.2878 9.03009 28.1674 8.90889 28.0223 8.82423L16.4877 2.09571C16.3407 2.01 16.1736 1.96484 16.0035 1.96484C15.8333 1.96484 15.6662 2.01 15.5193 2.09571L3.98465 8.82423C3.83955 8.90889 3.71917 9.03009 3.6355 9.17577C3.55184 9.32144 3.50781 9.4865 3.50781 9.65449C3.50781 9.82248 3.55184 9.98753 3.6355 10.1332C3.71917 10.2789 3.83955 10.4001 3.98465 10.4847Z" fill="url(#paint2_linear_78_3264)"/>
</g>
<defs>
<linearGradient id="paint0_linear_78_3264" x1="16.0317" y1="20.2227" x2="16.0317" y2="28.8799" gradientUnits="userSpaceOnUse">
<stop stop-color="white"/>
</linearGradient>
<linearGradient id="paint1_linear_78_3264" x1="16.0317" y1="14.4531" x2="16.0317" y2="23.1103" gradientUnits="userSpaceOnUse">
<stop stop-color="white"/>
</linearGradient>
<linearGradient id="paint2_linear_78_3264" x1="16.0035" y1="1.96484" x2="16.0035" y2="17.3441" gradientUnits="userSpaceOnUse">
<stop stop-color="white"/>
</linearGradient>
<clipPath id="clip0_78_3264">
<rect width="30.759" height="30.759" fill="white" transform="translate(0.621094 0.0429688)"/>
</clipPath>
</defs>
</svg>
