<svg width="165" height="48" viewBox="0 0 165 48" fill="none" xmlns="http://www.w3.org/2000/svg">
<path d="M23.9999 45.9569C36.1286 45.9569 45.9608 36.1247 45.9608 23.996C45.9608 11.8674 36.1286 2.03516 23.9999 2.03516C11.8713 2.03516 2.03906 11.8674 2.03906 23.996C2.03906 36.1247 11.8713 45.9569 23.9999 45.9569Z" stroke="#DDCBFF" stroke-width="1.54654" stroke-miterlimit="10"/>
<path d="M20.7824 6.73438H18.5V11.2991H20.7824V6.73438Z" fill="#8547F6"/>
<path d="M26.2983 6.73438H24.0156V11.2991H26.2983V6.73438Z" fill="#8547F6"/>
<path d="M20.7824 36.6914H18.5V41.2565H20.7824V36.6914Z" fill="#6C24F5"/>
<path d="M26.2983 36.6914H24.0156V41.2565H26.2983V36.6914Z" fill="#6C24F5"/>
<path d="M29.888 23.1889C31.347 22.8604 32.5555 22.1883 33.5131 21.1713C34.4704 20.1546 34.9492 18.8209 34.9492 17.1698C34.9492 15.0724 34.1716 13.3514 32.617 12.0059C31.0621 10.6607 28.7389 9.98828 25.6474 9.98828H14.4297V38.0042C15.9441 20.3965 29.888 23.1889 29.888 23.1889ZM20.3532 14.7758H24.8537C26.167 14.7758 27.1812 15.086 27.8976 15.7065C28.613 16.3266 28.9715 17.1429 28.9715 18.1549C28.9715 19.2582 28.5703 20.1274 27.7677 20.7609C26.965 21.3953 25.957 21.7114 24.7445 21.7114H20.3536L20.3532 14.7758Z" fill="#8547F6"/>
<path d="M27.898 15.7081C27.1819 15.0876 26.1674 14.7773 24.8541 14.7773H23.285C24.5983 14.7773 25.6125 15.0876 26.3289 15.7081C27.0446 16.3282 27.4028 17.1445 27.4028 18.1565C27.4028 19.2598 27.0013 20.129 26.199 20.7625C25.3963 21.3968 24.3883 21.713 23.1758 21.713H24.7449C25.9577 21.713 26.9657 21.3968 27.7681 20.7625C28.5707 20.129 28.9719 19.2601 28.9719 18.1565C28.9719 17.1445 28.6137 16.3282 27.898 15.7081Z" fill="#6C24F5"/>
<path d="M28.6928 26.827C27.8673 26.0881 26.7436 25.7188 25.3207 25.7188H23.8942C25.3173 25.7188 26.4407 26.0881 27.2663 26.827C28.0918 27.5656 28.5045 28.5143 28.5045 29.6723C28.5045 30.7209 28.128 31.5644 27.3761 32.2031C26.6236 32.8412 25.4173 33.1607 23.7578 33.1607H25.184C26.8438 33.1607 28.0501 32.8415 28.8026 32.2031C29.5549 31.5647 29.931 30.7209 29.931 29.6723C29.9307 28.5146 29.5184 27.5656 28.6928 26.827Z" fill="#8547F6"/>
<path d="M35.1679 26.6912C34.5842 25.6977 33.8248 24.9223 32.8907 24.3655C31.9557 23.8094 29.888 23.1892 29.888 23.1892C29.888 23.1892 15.9441 20.3971 14.4297 38.0042H26.3996C28.497 38.0042 30.2616 37.6689 31.6937 36.9986C33.1252 36.3283 34.2084 35.4094 34.9424 34.242C35.6767 33.0753 36.0438 31.7481 36.0438 30.2613C36.0435 28.8759 35.7518 27.6856 35.1679 26.6912ZM28.8004 32.2043C28.0476 32.8424 26.8416 33.1619 25.1819 33.1619H20.3532V25.72H25.3189C26.742 25.72 27.8654 26.0893 28.691 26.8282C29.5165 27.5669 29.9288 28.5155 29.9288 29.6736C29.9288 30.7221 29.5527 31.5659 28.8004 32.2043Z" fill="#6C24F5"/>
<path d="M43.5936 28.4066C46.0272 17.5853 39.2276 6.84015 28.4064 4.40658C17.5851 1.97302 6.83993 8.77259 4.40636 19.5939C1.97279 30.4151 8.77237 41.1603 19.5936 43.5939C30.4149 46.0274 41.1601 39.2278 43.5936 28.4066Z" stroke="#8547F6" stroke-width="0.618616" stroke-miterlimit="10"/>
<path d="M4.10156 23.9961H10.0817" stroke="#8547F6" stroke-width="0.618616" stroke-miterlimit="10"/>
<path d="M37.918 23.9961H43.8978" stroke="#8547F6" stroke-width="0.618616" stroke-miterlimit="10"/>
<path d="M67.16 23.408C68.104 23.584 68.88 24.056 69.488 24.824C70.096 25.592 70.4 26.472 70.4 27.464C70.4 28.36 70.176 29.152 69.728 29.84C69.296 30.512 68.664 31.04 67.832 31.424C67 31.808 66.016 32 64.88 32H57.656V15.248H64.568C65.704 15.248 66.68 15.432 67.496 15.8C68.328 16.168 68.952 16.68 69.368 17.336C69.8 17.992 70.016 18.736 70.016 19.568C70.016 20.544 69.752 21.36 69.224 22.016C68.712 22.672 68.024 23.136 67.16 23.408ZM61.016 22.16H64.088C64.888 22.16 65.504 21.984 65.936 21.632C66.368 21.264 66.584 20.744 66.584 20.072C66.584 19.4 66.368 18.88 65.936 18.512C65.504 18.144 64.888 17.96 64.088 17.96H61.016V22.16ZM64.4 29.264C65.216 29.264 65.848 29.072 66.296 28.688C66.76 28.304 66.992 27.76 66.992 27.056C66.992 26.336 66.752 25.776 66.272 25.376C65.792 24.96 65.144 24.752 64.328 24.752H61.016V29.264H64.4ZM74.3019 17.12C73.7099 17.12 73.2139 16.936 72.8139 16.568C72.4299 16.184 72.2379 15.712 72.2379 15.152C72.2379 14.592 72.4299 14.128 72.8139 13.76C73.2139 13.376 73.7099 13.184 74.3019 13.184C74.8939 13.184 75.3819 13.376 75.7659 13.76C76.1659 14.128 76.3659 14.592 76.3659 15.152C76.3659 15.712 76.1659 16.184 75.7659 16.568C75.3819 16.936 74.8939 17.12 74.3019 17.12ZM75.9579 18.704V32H72.5979V18.704H75.9579ZM86.1656 18.512C87.7496 18.512 89.0296 19.016 90.0056 20.024C90.9816 21.016 91.4696 22.408 91.4696 24.2V32H88.1096V24.656C88.1096 23.6 87.8456 22.792 87.3176 22.232C86.7896 21.656 86.0696 21.368 85.1576 21.368C84.2296 21.368 83.4936 21.656 82.9496 22.232C82.4216 22.792 82.1576 23.6 82.1576 24.656V32H78.7976V18.704H82.1576V20.36C82.6056 19.784 83.1736 19.336 83.8616 19.016C84.5656 18.68 85.3336 18.512 86.1656 18.512ZM93.3208 25.304C93.3208 23.96 93.5848 22.768 94.1128 21.728C94.6568 20.688 95.3848 19.888 96.2968 19.328C97.2248 18.768 98.2568 18.488 99.3928 18.488C100.385 18.488 101.249 18.688 101.985 19.088C102.737 19.488 103.337 19.992 103.785 20.6V18.704H107.169V32H103.785V30.056C103.353 30.68 102.753 31.2 101.985 31.616C101.233 32.016 100.361 32.216 99.3688 32.216C98.2488 32.216 97.2248 31.928 96.2968 31.352C95.3848 30.776 94.6568 29.968 94.1128 28.928C93.5848 27.872 93.3208 26.664 93.3208 25.304ZM103.785 25.352C103.785 24.536 103.625 23.84 103.305 23.264C102.985 22.672 102.553 22.224 102.009 21.92C101.465 21.6 100.881 21.44 100.257 21.44C99.6328 21.44 99.0568 21.592 98.5288 21.896C98.0008 22.2 97.5688 22.648 97.2328 23.24C96.9128 23.816 96.7528 24.504 96.7528 25.304C96.7528 26.104 96.9128 26.808 97.2328 27.416C97.5688 28.008 98.0008 28.464 98.5288 28.784C99.0728 29.104 99.6488 29.264 100.257 29.264C100.881 29.264 101.465 29.112 102.009 28.808C102.553 28.488 102.985 28.04 103.305 27.464C103.625 26.872 103.785 26.168 103.785 25.352ZM113.33 20.768C113.762 20.064 114.322 19.512 115.01 19.112C115.714 18.712 116.514 18.512 117.41 18.512V22.04H116.522C115.466 22.04 114.666 22.288 114.122 22.784C113.594 23.28 113.33 24.144 113.33 25.376V32H109.97V18.704H113.33V20.768ZM122.553 20.768C122.985 20.064 123.545 19.512 124.233 19.112C124.937 18.712 125.737 18.512 126.633 18.512V22.04H125.745C124.689 22.04 123.889 22.288 123.345 22.784C122.817 23.28 122.553 24.144 122.553 25.376V32H119.193V18.704H122.553V20.768ZM130.121 17.12C129.529 17.12 129.033 16.936 128.633 16.568C128.249 16.184 128.057 15.712 128.057 15.152C128.057 14.592 128.249 14.128 128.633 13.76C129.033 13.376 129.529 13.184 130.121 13.184C130.713 13.184 131.201 13.376 131.585 13.76C131.985 14.128 132.185 14.592 132.185 15.152C132.185 15.712 131.985 16.184 131.585 16.568C131.201 16.936 130.713 17.12 130.121 17.12ZM131.777 18.704V32H128.417V18.704H131.777ZM133.752 25.304C133.752 23.96 134.016 22.768 134.544 21.728C135.088 20.688 135.816 19.888 136.728 19.328C137.656 18.768 138.688 18.488 139.824 18.488C140.816 18.488 141.68 18.688 142.416 19.088C143.168 19.488 143.768 19.992 144.216 20.6V18.704H147.6V32H144.216V30.056C143.784 30.68 143.184 31.2 142.416 31.616C141.664 32.016 140.792 32.216 139.8 32.216C138.68 32.216 137.656 31.928 136.728 31.352C135.816 30.776 135.088 29.968 134.544 28.928C134.016 27.872 133.752 26.664 133.752 25.304ZM144.216 25.352C144.216 24.536 144.056 23.84 143.736 23.264C143.416 22.672 142.984 22.224 142.44 21.92C141.896 21.6 141.312 21.44 140.688 21.44C140.064 21.44 139.488 21.592 138.96 21.896C138.432 22.2 138 22.648 137.664 23.24C137.344 23.816 137.184 24.504 137.184 25.304C137.184 26.104 137.344 26.808 137.664 27.416C138 28.008 138.432 28.464 138.96 28.784C139.504 29.104 140.08 29.264 140.688 29.264C141.312 29.264 141.896 29.112 142.44 28.808C142.984 28.488 143.416 28.04 143.736 27.464C144.056 26.872 144.216 26.168 144.216 25.352ZM157.77 18.512C159.354 18.512 160.634 19.016 161.61 20.024C162.586 21.016 163.074 22.408 163.074 24.2V32H159.714V24.656C159.714 23.6 159.45 22.792 158.922 22.232C158.394 21.656 157.674 21.368 156.762 21.368C155.834 21.368 155.098 21.656 154.554 22.232C154.026 22.792 153.762 23.6 153.762 24.656V32H150.402V18.704H153.762V20.36C154.21 19.784 154.778 19.336 155.466 19.016C156.17 18.68 156.938 18.512 157.77 18.512Z" fill="#F4F5F6"/>
</svg>
