<svg width="32" height="32" viewBox="0 0 32 32" fill="none" xmlns="http://www.w3.org/2000/svg">
<path d="M16.0013 2.66797C13.3642 2.66797 10.7864 3.44996 8.59371 4.91504C6.40105 6.38013 4.69208 8.46251 3.68291 10.8989C2.67375 13.3352 2.4097 16.0161 2.92417 18.6025C3.43864 21.1889 4.70852 23.5647 6.57322 25.4294C8.43792 27.2941 10.8137 28.564 13.4001 29.0784C15.9865 29.5929 18.6674 29.3289 21.1038 28.3197C23.5401 27.3105 25.6225 25.6016 27.0876 23.4089C28.5527 21.2162 29.3346 18.6384 29.3346 16.0013C29.3346 14.2503 28.9898 12.5165 28.3197 10.8989C27.6496 9.28118 26.6675 7.81133 25.4294 6.57321C24.1913 5.3351 22.7214 4.35297 21.1038 3.68291C19.4861 3.01285 17.7523 2.66797 16.0013 2.66797ZM16.0013 26.668C13.8916 26.668 11.8294 26.0424 10.0752 24.8703C8.3211 23.6982 6.95393 22.0323 6.14659 20.0833C5.33926 18.1342 5.12802 15.9895 5.5396 13.9203C5.95117 11.8512 6.96708 9.95059 8.45884 8.45883C9.9506 6.96707 11.8512 5.95117 13.9203 5.53959C15.9895 5.12802 18.1342 5.33925 20.0833 6.14659C22.0323 6.95392 23.6982 8.3211 24.8703 10.0752C26.0424 11.8293 26.668 13.8916 26.668 16.0013C26.668 18.8303 25.5442 21.5434 23.5438 23.5438C21.5434 25.5442 18.8303 26.668 16.0013 26.668ZM21.3346 14.668H17.3346C16.502 14.668 17.502 14.668 16.9441 14.668C16.502 14.668 16.3549 14.668 16.0013 14.668C15.6477 14.668 15.502 14.668 15.105 14.668C14.668 14.668 15.002 14.668 14.8183 14.668L14.668 14.668H10.668C10.3144 14.668 9.97522 14.8084 9.72517 15.0585C9.47512 15.3085 9.33464 15.6477 9.33464 16.0013C9.33464 16.3549 9.47512 16.6941 9.72517 16.9441C9.97522 17.1942 10.3144 17.3346 10.668 17.3346H14.668C15.0585 17.3346 14.502 17.3346 15.0585 17.3346C15.502 17.3346 15.6477 17.3346 16.0013 17.3346C16.3549 17.3346 16.502 17.3346 16.9441 17.3346C17.502 17.3346 16.9441 17.3346 17.3346 17.3346L21.3346 17.3346C21.6883 17.3346 22.0274 17.1942 22.2775 16.9441C22.5275 16.6941 22.668 16.3549 22.668 16.0013C22.668 15.6477 22.5275 15.3085 22.2775 15.0585C22.0274 14.8084 21.6883 14.668 21.3346 14.668Z" fill="url(#paint0_radial_75_68)"/>
<defs>
<radialGradient id="paint0_radial_75_68" cx="0" cy="0" r="1" gradientUnits="userSpaceOnUse" gradientTransform="translate(15.8893 2.66797) rotate(90) scale(26.6667 9.48128)">
<stop stop-color="#B189FF"/>
<stop offset="1" stop-color="#8144F6"/>
</radialGradient>
</defs>
</svg>
