<svg width="34" height="34" viewBox="0 0 34 34" fill="none" xmlns="http://www.w3.org/2000/svg">
<path d="M31.0921 16.9513C31.0921 9.39112 24.9314 3.23047 17.3712 3.23047C9.81104 3.23047 3.65039 9.39112 3.65039 16.9513C3.65039 20.9303 5.36549 24.5115 8.08222 27.0224C8.08222 27.0361 8.08222 27.0361 8.0685 27.0498C8.20571 27.187 8.37036 27.2968 8.50757 27.4203C8.58989 27.4889 8.65849 27.5575 8.74082 27.6124C8.9878 27.8182 9.26221 28.0103 9.52291 28.2024C9.61895 28.271 9.70128 28.3259 9.79732 28.3945C10.058 28.5728 10.3324 28.7375 10.6206 28.8884C10.7166 28.9433 10.8264 29.0119 10.9224 29.0668C11.1968 29.2177 11.485 29.3549 11.7868 29.4784C11.8966 29.5333 12.0064 29.5882 12.1161 29.6294C12.418 29.7528 12.7199 29.8626 13.0217 29.9587C13.1315 29.9998 13.2413 30.041 13.351 30.0684C13.6803 30.1645 14.0096 30.2468 14.3389 30.3291C14.435 30.3566 14.531 30.384 14.6408 30.3977C15.025 30.48 15.4091 30.5349 15.807 30.5761C15.8619 30.5761 15.9168 30.5898 15.9717 30.6035C16.4382 30.6447 16.9047 30.6721 17.3712 30.6721C17.8377 30.6721 18.3042 30.6447 18.757 30.6035C18.8119 30.6035 18.8668 30.5898 18.9217 30.5761C19.3196 30.5349 19.7038 30.48 20.0879 30.3977C20.184 30.384 20.28 30.3428 20.3898 30.3291C20.7191 30.2468 21.0621 30.1782 21.3777 30.0684C21.4875 30.0273 21.5972 29.9861 21.707 29.9587C22.0089 29.8489 22.3244 29.7528 22.6126 29.6294C22.7223 29.5882 22.8321 29.5333 22.9419 29.4784C23.23 29.3549 23.5182 29.2177 23.8063 29.0668C23.9161 29.0119 24.0121 28.9433 24.1082 28.8884C24.3826 28.7238 24.657 28.5728 24.9314 28.3945C25.0275 28.3396 25.1098 28.271 25.2058 28.2024C25.4802 28.0103 25.7409 27.8182 25.9879 27.6124C26.0702 27.5438 26.1388 27.4752 26.2212 27.4203C26.3721 27.2968 26.523 27.1733 26.6602 27.0498C26.6602 27.0361 26.6602 27.0361 26.6465 27.0224C29.377 24.5115 31.0921 20.9303 31.0921 16.9513ZM24.1493 23.7706C20.431 21.2734 14.3389 21.2734 10.5931 23.7706C9.98942 24.1685 9.49547 24.635 9.08384 25.1426C6.99827 23.0296 5.70852 20.1345 5.70852 16.9513C5.70852 10.5162 10.9362 5.28859 17.3712 5.28859C23.8063 5.28859 29.0339 10.5162 29.0339 16.9513C29.0339 20.1345 27.7442 23.0296 25.6586 25.1426C25.2607 24.635 24.753 24.1685 24.1493 23.7706Z" fill="white"/>
<path d="M17.3719 9.99219C14.5317 9.99219 12.2266 12.2973 12.2266 15.1375C12.2266 17.9228 14.4082 20.1868 17.3033 20.2691C17.3444 20.2691 17.3993 20.2691 17.4268 20.2691C17.4542 20.2691 17.4954 20.2691 17.5228 20.2691C17.5365 20.2691 17.5502 20.2691 17.5502 20.2691C20.3219 20.173 22.5035 17.9228 22.5172 15.1375C22.5172 12.2973 20.2121 9.99219 17.3719 9.99219Z" fill="white"/>
</svg>
