<svg width="32" height="32" viewBox="0 0 32 32" fill="none" xmlns="http://www.w3.org/2000/svg">
<path d="M16.0001 2.66666C13.363 2.66666 10.7851 3.44865 8.59248 4.91374C6.39983 6.37882 4.69086 8.4612 3.68169 10.8976C2.67253 13.3339 2.40848 16.0148 2.92295 18.6012C3.43742 21.1876 4.7073 23.5634 6.572 25.4281C8.4367 27.2928 10.8125 28.5627 13.3989 29.0771C15.9853 29.5916 18.6662 29.3276 21.1025 28.3184C23.5389 27.3092 25.6213 25.6003 27.0863 23.4076C28.5514 21.2149 29.3334 18.6371 29.3334 16C29.3334 14.249 28.9885 12.5152 28.3185 10.8976C27.6484 9.27988 26.6663 7.81002 25.4282 6.57191C24.1901 5.33379 22.7202 4.35167 21.1025 3.6816C19.4849 3.01154 17.751 2.66666 16.0001 2.66666V2.66666ZM16.0001 26.6667C13.8904 26.6667 11.8281 26.0411 10.074 24.869C8.31988 23.6969 6.95271 22.031 6.14537 20.082C5.33804 18.1329 5.1268 15.9882 5.53838 13.919C5.94995 11.8499 6.96585 9.94928 8.45762 8.45752C9.94938 6.96576 11.85 5.94986 13.9191 5.53829C15.9883 5.12671 18.133 5.33795 20.082 6.14528C22.0311 6.95262 23.697 8.31979 24.8691 10.0739C26.0412 11.828 26.6668 13.8903 26.6668 16C26.6668 18.829 25.5429 21.5421 23.5426 23.5425C21.5422 25.5429 18.8291 26.6667 16.0001 26.6667V26.6667ZM21.3334 14.6667H17.3334V10.6667C17.3334 10.313 17.1929 9.9739 16.9429 9.72385C16.6928 9.47381 16.3537 9.33333 16.0001 9.33333C15.6465 9.33333 15.3073 9.47381 15.0573 9.72385C14.8072 9.9739 14.6668 10.313 14.6668 10.6667V14.6667H10.6668C10.3131 14.6667 9.97399 14.8071 9.72395 15.0572C9.4739 15.3072 9.33342 15.6464 9.33342 16C9.33342 16.3536 9.4739 16.6928 9.72395 16.9428C9.97399 17.1929 10.3131 17.3333 10.6668 17.3333H14.6668V21.3333C14.6668 21.687 14.8072 22.0261 15.0573 22.2761C15.3073 22.5262 15.6465 22.6667 16.0001 22.6667C16.3537 22.6667 16.6928 22.5262 16.9429 22.2761C17.1929 22.0261 17.3334 21.687 17.3334 21.3333V17.3333H21.3334C21.687 17.3333 22.0262 17.1929 22.2762 16.9428C22.5263 16.6928 22.6668 16.3536 22.6668 16C22.6668 15.6464 22.5263 15.3072 22.2762 15.0572C22.0262 14.8071 21.687 14.6667 21.3334 14.6667Z" fill="url(#paint0_radial_107_492)"/>
<defs>
<radialGradient id="paint0_radial_107_492" cx="0" cy="0" r="1" gradientUnits="userSpaceOnUse" gradientTransform="translate(15.888 2.66666) rotate(90) scale(26.6667 9.48128)">
<stop stop-color="#B189FF"/>
<stop offset="1" stop-color="#8144F6"/>
</radialGradient>
</defs>
</svg>
