<svg width="18" height="18" viewBox="0 0 18 18" fill="none" xmlns="http://www.w3.org/2000/svg">
<path d="M8.55518 4.66815C9.1428 4.66815 9.61963 5.14498 9.61963 5.7326V8.21893H12.1011C12.6887 8.21893 13.1655 8.69577 13.1655 9.28339C13.1655 9.87101 12.6887 10.3478 12.1011 10.3478H9.61963V12.8254C9.61963 13.413 9.1428 13.8898 8.55518 13.8898C7.96756 13.8898 7.49072 13.413 7.49072 12.8254V10.3478H5.0083C4.42068 10.3478 3.94385 9.87101 3.94385 9.28339C3.94385 8.69577 4.42068 8.21893 5.0083 8.21893H7.49072V5.7326C7.49072 5.14498 7.96756 4.66815 8.55518 4.66815Z" fill="#5D6588"/>
</svg>
