<svg width="36" height="35" viewBox="0 0 36 35" fill="none" xmlns="http://www.w3.org/2000/svg">
<path d="M18.0013 2.91797C9.96588 2.91797 3.41797 9.46588 3.41797 17.5013C3.41797 25.5367 9.96588 32.0846 18.0013 32.0846C26.0367 32.0846 32.5846 25.5367 32.5846 17.5013C32.5846 9.46588 26.0367 2.91797 18.0013 2.91797ZM24.9721 14.1471L16.7034 22.4159C16.4992 22.6201 16.2221 22.7367 15.9305 22.7367C15.6388 22.7367 15.3617 22.6201 15.1576 22.4159L11.0305 18.2888C10.6076 17.8659 10.6076 17.1659 11.0305 16.743C11.4534 16.3201 12.1534 16.3201 12.5763 16.743L15.9305 20.0971L23.4263 12.6013C23.8492 12.1784 24.5492 12.1784 24.9721 12.6013C25.3951 13.0242 25.3951 13.7096 24.9721 14.1471Z" fill="url(#paint0_radial_100_463)"/>
<defs>
<radialGradient id="paint0_radial_100_463" cx="0" cy="0" r="1" gradientUnits="userSpaceOnUse" gradientTransform="translate(17.8788 2.91797) rotate(90) scale(29.1667 10.3702)">
<stop stop-color="#B189FF"/>
<stop offset="1" stop-color="#8144F6"/>
</radialGradient>
</defs>
</svg>
