<svg width="177" height="176" viewBox="0 0 177 176" fill="none" xmlns="http://www.w3.org/2000/svg">
<path d="M60.4251 0.642578C62.0655 0.642578 63.3951 1.97232 63.3951 3.61259C63.3951 5.25295 62.0655 6.5826 60.4251 6.5826C58.7848 6.5826 57.4551 5.25295 57.4551 3.61259C57.4551 1.97232 58.7848 0.642578 60.4251 0.642578Z" fill="white"/>
<path d="M88.5227 0.642578C90.1631 0.642578 91.4928 1.97232 91.4928 3.61259C91.4928 5.25295 90.1631 6.5826 88.5227 6.5826C86.8825 6.5826 85.5527 5.25295 85.5527 3.61259C85.5527 1.97232 86.8825 0.642578 88.5227 0.642578Z" fill="white"/>
<path d="M116.597 0.642578C118.237 0.642578 119.567 1.97232 119.567 3.61259C119.567 5.25295 118.237 6.5826 116.597 6.5826C114.957 6.5826 113.627 5.25295 113.627 3.61259C113.627 1.97232 114.957 0.642578 116.597 0.642578Z" fill="white"/>
<path d="M63.516 7.6582H62.856C62.856 7.6582 62.4466 7.6582 61.9222 7.6582C61.842 7.6582 61.7592 7.6582 61.6746 7.6582C61.0082 7.6582 60.2399 7.6582 59.886 7.6582C58.2451 7.6582 56.916 8.98835 56.916 10.6282C56.916 12.2679 58.2451 13.5982 59.886 13.5982C60.3281 13.5982 61.0521 13.5982 61.6746 13.5982C61.7594 13.5982 61.8422 13.5982 61.9222 13.5982C62.4514 13.5982 62.856 13.5982 62.856 13.5982H63.516H63.9373V7.6582H63.516Z" fill="white"/>
<path d="M67.9888 7.6582C67.3863 7.6582 66.2589 7.6582 65.5798 7.6582C65.2448 7.6582 65.0188 7.6582 65.0188 7.6582H64.773H64.3588H63.9375V13.5982H64.3588H64.773H65.0188C65.0188 13.5982 65.2465 13.5982 65.5798 13.5982C66.3006 13.5982 67.5154 13.5982 67.9888 13.5982C69.629 13.5982 70.9588 12.2684 70.9588 10.6282C70.9588 8.98791 69.629 7.6582 67.9888 7.6582Z" fill="white"/>
<path d="M98.6235 14.6797H97.9635C97.9635 14.6797 97.554 14.6797 97.0296 14.6797C96.9494 14.6797 96.8666 14.6797 96.7821 14.6797C96.1156 14.6797 95.3474 14.6797 94.9934 14.6797C93.3526 14.6797 92.0234 16.0098 92.0234 17.6497C92.0234 19.2894 93.3526 20.6197 94.9934 20.6197C95.4355 20.6197 96.1596 20.6197 96.7821 20.6197C96.8668 20.6197 96.9496 20.6197 97.0296 20.6197C97.5588 20.6197 97.9635 20.6197 97.9635 20.6197H98.6235H99.0447V14.6797H98.6235Z" fill="white"/>
<path d="M103.096 14.6797C102.494 14.6797 101.366 14.6797 100.687 14.6797C100.352 14.6797 100.126 14.6797 100.126 14.6797H99.8805H99.4662H99.0449V20.6197H99.4662H99.8805H100.126C100.126 20.6197 100.354 20.6197 100.687 20.6197C101.408 20.6197 102.623 20.6197 103.096 20.6197C104.736 20.6197 106.066 19.2899 106.066 17.6497C106.066 16.0094 104.736 14.6797 103.096 14.6797Z" fill="white"/>
<path d="M60.4251 21.7051C62.0655 21.7051 63.3951 23.0348 63.3951 24.6751C63.3951 26.3155 62.0655 27.6451 60.4251 27.6451C58.7848 27.6451 57.4551 26.3155 57.4551 24.6751C57.4551 23.0348 58.7848 21.7051 60.4251 21.7051Z" fill="white"/>
<path d="M77.5746 21.7051H76.9146C76.9146 21.7051 76.5052 21.7051 75.9808 21.7051C75.9006 21.7051 75.8178 21.7051 75.7332 21.7051C75.0668 21.7051 74.2985 21.7051 73.9446 21.7051C72.3037 21.7051 70.9746 23.0352 70.9746 24.6751C70.9746 26.3148 72.3037 27.6451 73.9446 27.6451C74.3867 27.6451 75.1107 27.6451 75.7332 27.6451C75.818 27.6451 75.9008 27.6451 75.9808 27.6451C76.51 27.6451 76.9146 27.6451 76.9146 27.6451H77.5746H77.9959V21.7051H77.5746Z" fill="white"/>
<path d="M82.0474 21.7051C81.4449 21.7051 80.3175 21.7051 79.6384 21.7051C79.3034 21.7051 79.0774 21.7051 79.0774 21.7051H78.8316H78.4174H77.9961V27.6451H78.4174H78.8316H79.0774C79.0774 27.6451 79.3051 27.6451 79.6384 27.6451C80.3592 27.6451 81.574 27.6451 82.0474 27.6451C83.6876 27.6451 85.0174 26.3153 85.0174 24.6751C85.0174 23.0348 83.6876 21.7051 82.0474 21.7051Z" fill="white"/>
<path d="M95.5442 21.7051C97.1846 21.7051 98.5142 23.0348 98.5142 24.6751C98.5142 26.3155 97.1846 27.6451 95.5442 27.6451C93.904 27.6451 92.5742 26.3155 92.5742 24.6751C92.5742 23.0348 93.904 21.7051 95.5442 21.7051Z" fill="white"/>
<path d="M98.6235 28.7246H97.9635C97.9635 28.7246 97.554 28.7246 97.0296 28.7246C96.9494 28.7246 96.8666 28.7246 96.7821 28.7246C96.1156 28.7246 95.3474 28.7246 94.9934 28.7246C93.3526 28.7246 92.0234 30.0548 92.0234 31.6946C92.0234 33.3343 93.3526 34.6646 94.9934 34.6646C95.4355 34.6646 96.1596 34.6646 96.7821 34.6646C96.8668 34.6646 96.9496 34.6646 97.0296 34.6646C97.5588 34.6646 97.9635 34.6646 97.9635 34.6646H98.6235H99.0447V28.7246H98.6235Z" fill="white"/>
<path d="M102.556 28.7246H99.0449V34.6646H102.556H106.066V28.7246H102.556Z" fill="white"/>
<path d="M109.579 28.7246H106.068V34.6646H109.579H113.09V28.7246H109.579Z" fill="white"/>
<path d="M117.139 28.7246C116.537 28.7246 115.409 28.7246 114.73 28.7246C114.395 28.7246 114.169 28.7246 114.169 28.7246H113.923H113.509H113.088V34.6646H113.509H113.923H114.169C114.169 34.6646 114.397 34.6646 114.73 34.6646C115.451 34.6646 116.666 34.6646 117.139 34.6646C118.779 34.6646 120.109 33.3348 120.109 31.6946C120.109 30.0543 118.779 28.7246 117.139 28.7246Z" fill="white"/>
<path d="M81.5071 35.7441C83.1475 35.7441 84.4771 37.0739 84.4771 38.7142C84.4771 40.3545 83.1475 41.6842 81.5071 41.6842C79.8668 41.6842 78.5371 40.3545 78.5371 38.7142C78.5371 37.0739 79.8668 35.7441 81.5071 35.7441Z" fill="white"/>
<path d="M102.556 35.7441C104.196 35.7441 105.526 37.0739 105.526 38.7142C105.526 40.3545 104.196 41.6842 102.556 41.6842C100.916 41.6842 99.5859 40.3545 99.5859 38.7142C99.5859 37.0739 100.916 35.7441 102.556 35.7441Z" fill="white"/>
<path d="M60.4251 42.7676C62.0655 42.7676 63.3951 44.0973 63.3951 45.7376C63.3951 47.378 62.0655 48.7076 60.4251 48.7076C58.7848 48.7076 57.4551 47.378 57.4551 45.7376C57.4551 44.0973 58.7848 42.7676 60.4251 42.7676Z" fill="white"/>
<path d="M74.4837 42.7676C76.124 42.7676 77.4537 44.0973 77.4537 45.7376C77.4537 47.378 76.124 48.7076 74.4837 48.7076C72.8434 48.7076 71.5137 47.378 71.5137 45.7376C71.5137 44.0973 72.8434 42.7676 74.4837 42.7676Z" fill="white"/>
<path d="M88.5227 42.7676C90.1631 42.7676 91.4928 44.0973 91.4928 45.7376C91.4928 47.378 90.1631 48.7076 88.5227 48.7076C86.8825 48.7076 85.5527 47.378 85.5527 45.7376C85.5527 44.0973 86.8825 42.7676 88.5227 42.7676Z" fill="white"/>
<path d="M102.556 42.7676C104.196 42.7676 105.526 44.0973 105.526 45.7376C105.526 47.378 104.196 48.7076 102.556 48.7076C100.916 48.7076 99.5859 47.378 99.5859 45.7376C99.5859 44.0973 100.916 42.7676 102.556 42.7676Z" fill="white"/>
<path d="M116.597 42.7676C118.237 42.7676 119.567 44.0973 119.567 45.7376C119.567 47.378 118.237 48.7076 116.597 48.7076C114.957 48.7076 113.627 47.378 113.627 45.7376C113.627 44.0973 114.957 42.7676 116.597 42.7676Z" fill="white"/>
<path d="M60.4251 49.793C62.0655 49.793 63.3951 51.1227 63.3951 52.763C63.3951 54.4033 62.0655 55.733 60.4251 55.733C58.7848 55.733 57.4551 54.4033 57.4551 52.763C57.4551 51.1227 58.7848 49.793 60.4251 49.793Z" fill="white"/>
<path d="M74.4837 49.793C76.124 49.793 77.4537 51.1227 77.4537 52.763C77.4537 54.4033 76.124 55.733 74.4837 55.733C72.8434 55.733 71.5137 54.4033 71.5137 52.763C71.5137 51.1227 72.8434 49.793 74.4837 49.793Z" fill="white"/>
<path d="M88.5227 49.793C90.1631 49.793 91.4928 51.1227 91.4928 52.763C91.4928 54.4033 90.1631 55.733 88.5227 55.733C86.8825 55.733 85.5527 54.4033 85.5527 52.763C85.5527 51.1227 86.8825 49.793 88.5227 49.793Z" fill="white"/>
<path d="M105.645 49.793H104.985C104.985 49.793 104.576 49.793 104.051 49.793C103.971 49.793 103.888 49.793 103.804 49.793C103.137 49.793 102.369 49.793 102.015 49.793C100.374 49.793 99.0449 51.1231 99.0449 52.763C99.0449 54.4027 100.374 55.733 102.015 55.733C102.457 55.733 103.181 55.733 103.804 55.733C103.888 55.733 103.971 55.733 104.051 55.733C104.58 55.733 104.985 55.733 104.985 55.733H105.645H106.066V49.793H105.645Z" fill="white"/>
<path d="M109.579 49.793H106.068V55.733H109.579H113.09V49.793H109.579Z" fill="white"/>
<path d="M117.139 49.793C116.537 49.793 115.409 49.793 114.73 49.793C114.395 49.793 114.169 49.793 114.169 49.793H113.923H113.509H113.088V55.733H113.509H113.923H114.169C114.169 55.733 114.397 55.733 114.73 55.733C115.451 55.733 116.666 55.733 117.139 55.733C118.779 55.733 120.109 54.4032 120.109 52.763C120.109 51.1227 118.779 49.793 117.139 49.793Z" fill="white"/>
<path d="M4.25517 56.8086C5.89553 56.8086 7.22518 58.1383 7.22518 59.7786C7.22518 61.419 5.89553 62.7486 4.25517 62.7486C2.61489 62.7486 1.28516 61.419 1.28516 59.7786C1.28516 58.1383 2.61489 56.8086 4.25517 56.8086Z" fill="white"/>
<path d="M21.3891 56.8086H20.7291C20.7291 56.8086 20.3196 56.8086 19.7953 56.8086C19.7151 56.8086 19.6322 56.8086 19.5477 56.8086C18.8812 56.8086 18.113 56.8086 17.7591 56.8086C16.1182 56.8086 14.7891 58.1387 14.7891 59.7786C14.7891 61.4183 16.1182 62.7486 17.7591 62.7486C18.2011 62.7486 18.9252 62.7486 19.5477 62.7486C19.6324 62.7486 19.7152 62.7486 19.7953 62.7486C20.3245 62.7486 20.7291 62.7486 20.7291 62.7486H21.3891H21.8104V56.8086H21.3891Z" fill="white"/>
<path d="M25.8755 56.8086C25.273 56.8086 24.1456 56.8086 23.4665 56.8086C23.1315 56.8086 22.9055 56.8086 22.9055 56.8086H22.6598H22.2455H21.8242V62.7486H22.2455H22.6598H22.9055C22.9055 62.7486 23.1332 62.7486 23.4665 62.7486C24.1873 62.7486 25.4021 62.7486 25.8755 62.7486C27.5157 62.7486 28.8455 61.4188 28.8455 59.7786C28.8455 58.1383 27.5157 56.8086 25.8755 56.8086Z" fill="white"/>
<path d="M42.4653 56.8086H41.8053C41.8053 56.8086 41.3958 56.8086 40.8714 56.8086C40.7912 56.8086 40.7084 56.8086 40.6239 56.8086C39.9574 56.8086 39.1891 56.8086 38.8352 56.8086C37.1944 56.8086 35.8652 58.1387 35.8652 59.7786C35.8652 61.4183 37.1944 62.7486 38.8352 62.7486C39.2773 62.7486 40.0014 62.7486 40.6239 62.7486C40.7086 62.7486 40.7914 62.7486 40.8714 62.7486C41.4006 62.7486 41.8053 62.7486 41.8053 62.7486H42.4653H42.8865V56.8086H42.4653Z" fill="white"/>
<path d="M46.3857 56.8086H42.875V62.7486H46.3857H49.8963V56.8086H46.3857Z" fill="white"/>
<path d="M53.9478 56.8086C53.3453 56.8086 52.2179 56.8086 51.5388 56.8086C51.2038 56.8086 50.9778 56.8086 50.9778 56.8086H50.732H50.3178H49.8965V62.7486H50.3178H50.732H50.9778C50.9778 62.7486 51.2055 62.7486 51.5388 62.7486C52.2596 62.7486 53.4744 62.7486 53.9478 62.7486C55.588 62.7486 56.9178 61.4188 56.9178 59.7786C56.9178 58.1383 55.588 56.8086 53.9478 56.8086Z" fill="white"/>
<path d="M67.4485 56.8086C69.0889 56.8086 70.4185 58.1383 70.4185 59.7786C70.4185 61.419 69.0889 62.7486 67.4485 62.7486C65.8083 62.7486 64.4785 61.419 64.4785 59.7786C64.4785 58.1383 65.8083 56.8086 67.4485 56.8086Z" fill="white"/>
<path d="M84.5961 56.8086H83.9361C83.9361 56.8086 83.5267 56.8086 83.0023 56.8086C82.9221 56.8086 82.8392 56.8086 82.7547 56.8086C82.0882 56.8086 81.32 56.8086 80.9661 56.8086C79.3252 56.8086 77.9961 58.1387 77.9961 59.7786C77.9961 61.4183 79.3252 62.7486 80.9661 62.7486C81.4082 62.7486 82.1322 62.7486 82.7547 62.7486C82.8395 62.7486 82.9223 62.7486 83.0023 62.7486C83.5315 62.7486 83.9361 62.7486 83.9361 62.7486H84.5961H85.0174V56.8086H84.5961Z" fill="white"/>
<path d="M89.0669 56.8086C88.4644 56.8086 87.337 56.8086 86.6579 56.8086C86.3229 56.8086 86.0969 56.8086 86.0969 56.8086H85.8512H85.4369H85.0156V62.7486H85.4369H85.8512H86.0969C86.0969 62.7486 86.3246 62.7486 86.6579 62.7486C87.3787 62.7486 88.5935 62.7486 89.0669 62.7486C90.7071 62.7486 92.0369 61.4188 92.0369 59.7786C92.0369 58.1383 90.7071 56.8086 89.0669 56.8086Z" fill="white"/>
<path d="M102.556 56.8086C104.196 56.8086 105.526 58.1383 105.526 59.7786C105.526 61.419 104.196 62.7486 102.556 62.7486C100.916 62.7486 99.5859 61.419 99.5859 59.7786C99.5859 58.1383 100.916 56.8086 102.556 56.8086Z" fill="white"/>
<path d="M116.597 56.8086C118.237 56.8086 119.567 58.1383 119.567 59.7786C119.567 61.419 118.237 62.7486 116.597 62.7486C114.957 62.7486 113.627 61.419 113.627 59.7786C113.627 58.1383 114.957 56.8086 116.597 56.8086Z" fill="white"/>
<path d="M130.656 56.8086C132.296 56.8086 133.626 58.1383 133.626 59.7786C133.626 61.419 132.296 62.7486 130.656 62.7486C129.015 62.7486 127.686 61.419 127.686 59.7786C127.686 58.1383 129.015 56.8086 130.656 56.8086Z" fill="white"/>
<path d="M151.706 56.8086C153.347 56.8086 154.676 58.1383 154.676 59.7786C154.676 61.419 153.347 62.7486 151.706 62.7486C150.066 62.7486 148.736 61.419 148.736 59.7786C148.736 58.1383 150.066 56.8086 151.706 56.8086Z" fill="white"/>
<path d="M168.838 56.8086H168.178C168.178 56.8086 167.769 56.8086 167.244 56.8086C167.164 56.8086 167.081 56.8086 166.997 56.8086C166.33 56.8086 165.562 56.8086 165.208 56.8086C163.567 56.8086 162.238 58.1387 162.238 59.7786C162.238 61.4183 163.567 62.7486 165.208 62.7486C165.65 62.7486 166.374 62.7486 166.997 62.7486C167.082 62.7486 167.164 62.7486 167.244 62.7486C167.774 62.7486 168.178 62.7486 168.178 62.7486H168.838H169.26V56.8086H168.838Z" fill="white"/>
<path d="M173.327 56.8086C172.724 56.8086 171.597 56.8086 170.918 56.8086C170.583 56.8086 170.357 56.8086 170.357 56.8086H170.111H169.697H169.275V62.7486H169.697H170.111H170.357C170.357 62.7486 170.584 62.7486 170.918 62.7486C171.639 62.7486 172.853 62.7486 173.327 62.7486C174.967 62.7486 176.297 61.4188 176.297 59.7786C176.297 58.1383 174.967 56.8086 173.327 56.8086Z" fill="white"/>
<path d="M7.34612 63.8301H6.68612C6.68612 63.8301 6.27668 63.8301 5.75228 63.8301C5.67209 63.8301 5.58924 63.8301 5.50471 63.8301C4.83824 63.8301 4.07001 63.8301 3.71611 63.8301C2.07523 63.8301 0.746094 65.1602 0.746094 66.8001C0.746094 68.4398 2.07523 69.7701 3.71611 69.7701C4.15817 69.7701 4.88222 69.7701 5.50471 69.7701C5.58946 69.7701 5.67227 69.7701 5.75228 69.7701C6.28149 69.7701 6.68612 69.7701 6.68612 69.7701H7.34612H7.7674V63.8301H7.34612Z" fill="white"/>
<path d="M11.2763 63.8301H7.76562V69.7701H11.2763H14.7869V63.8301H11.2763Z" fill="white"/>
<path d="M18.2997 63.8301H14.7891V69.7701H18.2997H21.8104V63.8301H18.2997Z" fill="white"/>
<path d="M25.8755 63.8301C25.273 63.8301 24.1456 63.8301 23.4665 63.8301C23.1315 63.8301 22.9055 63.8301 22.9055 63.8301H22.6598H22.2455H21.8242V69.7701H22.2455H22.6598H22.9055C22.9055 69.7701 23.1332 69.7701 23.4665 69.7701C24.1873 69.7701 25.4021 69.7701 25.8755 69.7701C27.5157 69.7701 28.8455 68.4403 28.8455 66.8001C28.8455 65.1598 27.5157 63.8301 25.8755 63.8301Z" fill="white"/>
<path d="M81.5071 63.8301C83.1475 63.8301 84.4771 65.1598 84.4771 66.8001C84.4771 68.4405 83.1475 69.7701 81.5071 69.7701C79.8668 69.7701 78.5371 68.4405 78.5371 66.8001C78.5371 65.1598 79.8668 63.8301 81.5071 63.8301Z" fill="white"/>
<path d="M119.688 63.8301H119.028C119.028 63.8301 118.618 63.8301 118.094 63.8301C118.014 63.8301 117.931 63.8301 117.847 63.8301C117.18 63.8301 116.412 63.8301 116.058 63.8301C114.417 63.8301 113.088 65.1602 113.088 66.8001C113.088 68.4398 114.417 69.7701 116.058 69.7701C116.5 69.7701 117.224 69.7701 117.847 69.7701C117.931 69.7701 118.014 69.7701 118.094 69.7701C118.623 69.7701 119.028 69.7701 119.028 69.7701H119.688H120.109V63.8301H119.688Z" fill="white"/>
<path d="M124.176 63.8301C123.574 63.8301 122.446 63.8301 121.767 63.8301C121.432 63.8301 121.206 63.8301 121.206 63.8301H120.961H120.546H120.125V69.7701H120.546H120.961H121.206C121.206 69.7701 121.434 69.7701 121.767 69.7701C122.488 69.7701 123.703 69.7701 124.176 69.7701C125.816 69.7701 127.146 68.4403 127.146 66.8001C127.146 65.1598 125.816 63.8301 124.176 63.8301Z" fill="white"/>
<path d="M137.677 63.8301C139.317 63.8301 140.647 65.1598 140.647 66.8001C140.647 68.4405 139.317 69.7701 137.677 69.7701C136.037 69.7701 134.707 68.4405 134.707 66.8001C134.707 65.1598 136.037 63.8301 137.677 63.8301Z" fill="white"/>
<path d="M165.747 63.8301C167.388 63.8301 168.717 65.1598 168.717 66.8001C168.717 68.4405 167.388 69.7701 165.747 69.7701C164.107 69.7701 162.777 68.4405 162.777 66.8001C162.777 65.1598 164.107 63.8301 165.747 63.8301Z" fill="white"/>
<path d="M25.3294 70.8516C26.9697 70.8516 28.2994 72.1813 28.2994 73.8216C28.2994 75.4619 26.9697 76.7916 25.3294 76.7916C23.6891 76.7916 22.3594 75.4619 22.3594 73.8216C22.3594 72.1813 23.6891 70.8516 25.3294 70.8516Z" fill="white"/>
<path d="M42.4653 70.8516H41.8053C41.8053 70.8516 41.3958 70.8516 40.8714 70.8516C40.7912 70.8516 40.7084 70.8516 40.6239 70.8516C39.9574 70.8516 39.1891 70.8516 38.8352 70.8516C37.1944 70.8516 35.8652 72.1817 35.8652 73.8216C35.8652 75.4613 37.1944 76.7916 38.8352 76.7916C39.2773 76.7916 40.0014 76.7916 40.6239 76.7916C40.7086 76.7916 40.7914 76.7916 40.8714 76.7916C41.4006 76.7916 41.8053 76.7916 41.8053 76.7916H42.4653H42.8865V70.8516H42.4653Z" fill="white"/>
<path d="M46.9263 70.8516C46.3238 70.8516 45.1964 70.8516 44.5173 70.8516C44.1823 70.8516 43.9563 70.8516 43.9563 70.8516H43.7105H43.2963H42.875V76.7916H43.2963H43.7105H43.9563C43.9563 76.7916 44.184 76.7916 44.5173 76.7916C45.2381 76.7916 46.4529 76.7916 46.9263 76.7916C48.5665 76.7916 49.8963 75.4618 49.8963 73.8216C49.8963 72.1813 48.5665 70.8516 46.9263 70.8516Z" fill="white"/>
<path d="M63.516 70.8516H62.856C62.856 70.8516 62.4466 70.8516 61.9222 70.8516C61.842 70.8516 61.7592 70.8516 61.6746 70.8516C61.0082 70.8516 60.2399 70.8516 59.886 70.8516C58.2451 70.8516 56.916 72.1817 56.916 73.8216C56.916 75.4613 58.2451 76.7916 59.886 76.7916C60.3281 76.7916 61.0521 76.7916 61.6746 76.7916C61.7594 76.7916 61.8422 76.7916 61.9222 76.7916C62.4514 76.7916 62.856 76.7916 62.856 76.7916H63.516H63.9373V70.8516H63.516Z" fill="white"/>
<path d="M67.4482 70.8516H63.9375V76.7916H67.4482H70.9588V70.8516H67.4482Z" fill="white"/>
<path d="M74.4853 70.8516H70.9746V76.7916H74.4853H77.9959V70.8516H74.4853Z" fill="white"/>
<path d="M81.5067 70.8516H77.9961V76.7916H81.5067H85.0174V70.8516H81.5067Z" fill="white"/>
<path d="M88.5263 70.8516H85.0156V76.7916H88.5263H92.0369V70.8516H88.5263Z" fill="white"/>
<path d="M95.5341 70.8516H92.0234V76.7916H95.5341H99.0447V70.8516H95.5341Z" fill="white"/>
<path d="M103.096 70.8516C102.494 70.8516 101.366 70.8516 100.687 70.8516C100.352 70.8516 100.126 70.8516 100.126 70.8516H99.8805H99.4662H99.0449V76.7916H99.4662H99.8805H100.126C100.126 76.7916 100.354 76.7916 100.687 76.7916C101.408 76.7916 102.623 76.7916 103.096 76.7916C104.736 76.7916 106.066 75.4618 106.066 73.8216C106.066 72.1813 104.736 70.8516 103.096 70.8516Z" fill="white"/>
<path d="M116.597 70.8516C118.237 70.8516 119.567 72.1813 119.567 73.8216C119.567 75.4619 118.237 76.7916 116.597 76.7916C114.957 76.7916 113.627 75.4619 113.627 73.8216C113.627 72.1813 114.957 70.8516 116.597 70.8516Z" fill="white"/>
<path d="M137.677 70.8516C139.317 70.8516 140.647 72.1813 140.647 73.8216C140.647 75.4619 139.317 76.7916 137.677 76.7916C136.037 76.7916 134.707 75.4619 134.707 73.8216C134.707 72.1813 136.037 70.8516 137.677 70.8516Z" fill="white"/>
<path d="M4.25517 77.875C5.89553 77.875 7.22518 79.2047 7.22518 80.845C7.22518 82.4854 5.89553 83.815 4.25517 83.815C2.61489 83.815 1.28516 82.4854 1.28516 80.845C1.28516 79.2047 2.61489 77.875 4.25517 77.875Z" fill="white"/>
<path d="M74.4837 77.875C76.124 77.875 77.4537 79.2047 77.4537 80.845C77.4537 82.4854 76.124 83.815 74.4837 83.815C72.8434 83.815 71.5137 82.4854 71.5137 80.845C71.5137 79.2047 72.8434 77.875 74.4837 77.875Z" fill="white"/>
<path d="M91.6157 77.875H90.9556C90.9556 77.875 90.5462 77.875 90.0218 77.875C89.9416 77.875 89.8588 77.875 89.7742 77.875C89.1078 77.875 88.3395 77.875 87.9856 77.875C86.3448 77.875 85.0156 79.2051 85.0156 80.845C85.0156 82.4847 86.3448 83.815 87.9856 83.815C88.4277 83.815 89.1517 83.815 89.7742 83.815C89.859 83.815 89.9418 83.815 90.0218 83.815C90.551 83.815 90.9556 83.815 90.9556 83.815H91.6157H92.0369V77.875H91.6157Z" fill="white"/>
<path d="M95.5341 77.875H92.0234V83.815H95.5341H99.0447V77.875H95.5341Z" fill="white"/>
<path d="M102.556 77.875H99.0449V83.815H102.556H106.066V77.875H102.556Z" fill="white"/>
<path d="M110.12 77.875C109.517 77.875 108.39 77.875 107.711 77.875C107.376 77.875 107.15 77.875 107.15 77.875H106.904H106.49H106.068V83.815H106.49H106.904H107.15C107.15 83.815 107.377 83.815 107.711 83.815C108.431 83.815 109.646 83.815 110.12 83.815C111.76 83.815 113.09 82.4852 113.09 80.845C113.09 79.2047 111.76 77.875 110.12 77.875Z" fill="white"/>
<path d="M126.725 77.875H126.065C126.065 77.875 125.656 77.875 125.131 77.875C125.051 77.875 124.968 77.875 124.884 77.875C124.217 77.875 123.449 77.875 123.095 77.875C121.454 77.875 120.125 79.2051 120.125 80.845C120.125 82.4847 121.454 83.815 123.095 83.815C123.537 83.815 124.261 83.815 124.884 83.815C124.968 83.815 125.051 83.815 125.131 83.815C125.66 83.815 126.065 83.815 126.065 83.815H126.725H127.146V77.875H126.725Z" fill="white"/>
<path d="M131.198 77.875C130.595 77.875 129.468 77.875 128.789 77.875C128.454 77.875 128.228 77.875 128.228 77.875H127.982H127.568H127.146V83.815H127.568H127.982H128.228C128.228 83.815 128.455 83.815 128.789 83.815C129.51 83.815 130.724 83.815 131.198 83.815C132.838 83.815 134.168 82.4852 134.168 80.845C134.168 79.2047 132.838 77.875 131.198 77.875Z" fill="white"/>
<path d="M154.795 77.875H154.135C154.135 77.875 153.726 77.875 153.202 77.875C153.121 77.875 153.038 77.875 152.954 77.875C152.287 77.875 151.519 77.875 151.165 77.875C149.524 77.875 148.195 79.2051 148.195 80.845C148.195 82.4847 149.524 83.815 151.165 83.815C151.607 83.815 152.331 83.815 152.954 83.815C153.039 83.815 153.121 83.815 153.202 83.815C153.731 83.815 154.135 83.815 154.135 83.815H154.795H155.217V77.875H154.795Z" fill="white"/>
<path d="M159.27 77.875C158.668 77.875 157.54 77.875 156.861 77.875C156.526 77.875 156.3 77.875 156.3 77.875H156.054H155.64H155.219V83.815H155.64H156.054H156.3C156.3 83.815 156.528 83.815 156.861 83.815C157.582 83.815 158.797 83.815 159.27 83.815C160.91 83.815 162.24 82.4852 162.24 80.845C162.24 79.2047 160.91 77.875 159.27 77.875Z" fill="white"/>
<path d="M14.3657 84.8945H13.7056C13.7056 84.8945 13.2962 84.8945 12.7718 84.8945C12.6916 84.8945 12.6088 84.8945 12.5242 84.8945C11.8578 84.8945 11.0895 84.8945 10.7356 84.8945C9.09476 84.8945 7.76562 86.2247 7.76562 87.8645C7.76562 89.5042 9.09476 90.8346 10.7356 90.8346C11.1777 90.8346 11.9017 90.8346 12.5242 90.8346C12.609 90.8346 12.6918 90.8346 12.7718 90.8346C13.301 90.8346 13.7056 90.8346 13.7056 90.8346H14.3657H14.7869V84.8945H14.3657Z" fill="white"/>
<path d="M18.2997 84.8945H14.7891V90.8346H18.2997H21.8104V84.8945H18.2997Z" fill="white"/>
<path d="M25.8755 84.8945C25.273 84.8945 24.1456 84.8945 23.4665 84.8945C23.1315 84.8945 22.9055 84.8945 22.9055 84.8945H22.6598H22.2455H21.8242V90.8346H22.2455H22.6598H22.9055C22.9055 90.8346 23.1332 90.8346 23.4665 90.8346C24.1873 90.8346 25.4021 90.8346 25.8755 90.8346C27.5157 90.8346 28.8455 89.5047 28.8455 87.8645C28.8455 86.2242 27.5157 84.8945 25.8755 84.8945Z" fill="white"/>
<path d="M46.3958 84.8945C48.0362 84.8945 49.3658 86.2243 49.3658 87.8645C49.3658 89.5049 48.0362 90.8346 46.3958 90.8346C44.7555 90.8346 43.4258 89.5049 43.4258 87.8645C43.4258 86.2243 44.7555 84.8945 46.3958 84.8945Z" fill="white"/>
<path d="M70.5375 84.8945H69.8775C69.8775 84.8945 69.4681 84.8945 68.9437 84.8945C68.8635 84.8945 68.7806 84.8945 68.6961 84.8945C68.0296 84.8945 67.2614 84.8945 66.9075 84.8945C65.2666 84.8945 63.9375 86.2247 63.9375 87.8645C63.9375 89.5042 65.2666 90.8346 66.9075 90.8346C67.3496 90.8346 68.0736 90.8346 68.6961 90.8346C68.7809 90.8346 68.8637 90.8346 68.9437 90.8346C69.4729 90.8346 69.8775 90.8346 69.8775 90.8346H70.5375H70.9588V84.8945H70.5375Z" fill="white"/>
<path d="M75.0259 84.8945C74.4234 84.8945 73.296 84.8945 72.6169 84.8945C72.2819 84.8945 72.0559 84.8945 72.0559 84.8945H71.8101H71.3959H70.9746V90.8346H71.3959H71.8101H72.0559C72.0559 90.8346 72.2836 90.8346 72.6169 90.8346C73.3377 90.8346 74.5525 90.8346 75.0259 90.8346C76.6661 90.8346 77.9959 89.5047 77.9959 87.8645C77.9959 86.2242 76.6661 84.8945 75.0259 84.8945Z" fill="white"/>
<path d="M98.6235 84.8945H97.9635C97.9635 84.8945 97.554 84.8945 97.0296 84.8945C96.9494 84.8945 96.8666 84.8945 96.7821 84.8945C96.1156 84.8945 95.3474 84.8945 94.9934 84.8945C93.3526 84.8945 92.0234 86.2247 92.0234 87.8645C92.0234 89.5042 93.3526 90.8346 94.9934 90.8346C95.4355 90.8346 96.1596 90.8346 96.7821 90.8346C96.8668 90.8346 96.9496 90.8346 97.0296 90.8346C97.5588 90.8346 97.9635 90.8346 97.9635 90.8346H98.6235H99.0447V84.8945H98.6235Z" fill="white"/>
<path d="M103.096 84.8945C102.494 84.8945 101.366 84.8945 100.687 84.8945C100.352 84.8945 100.126 84.8945 100.126 84.8945H99.8805H99.4662H99.0449V90.8346H99.4662H99.8805H100.126C100.126 90.8346 100.354 90.8346 100.687 90.8346C101.408 90.8346 102.623 90.8346 103.096 90.8346C104.736 90.8346 106.066 89.5047 106.066 87.8645C106.066 86.2242 104.736 84.8945 103.096 84.8945Z" fill="white"/>
<path d="M126.725 84.8945H126.065C126.065 84.8945 125.656 84.8945 125.131 84.8945C125.051 84.8945 124.968 84.8945 124.884 84.8945C124.217 84.8945 123.449 84.8945 123.095 84.8945C121.454 84.8945 120.125 86.2247 120.125 87.8645C120.125 89.5042 121.454 90.8346 123.095 90.8346C123.537 90.8346 124.261 90.8346 124.884 90.8346C124.968 90.8346 125.051 90.8346 125.131 90.8346C125.66 90.8346 126.065 90.8346 126.065 90.8346H126.725H127.146V84.8945H126.725Z" fill="white"/>
<path d="M130.657 84.8945H127.146V90.8346H130.657H134.168V84.8945H130.657Z" fill="white"/>
<path d="M137.677 84.8945H134.166V90.8346H137.677H141.187V84.8945H137.677Z" fill="white"/>
<path d="M145.225 84.8945C144.623 84.8945 143.495 84.8945 142.816 84.8945C142.481 84.8945 142.255 84.8945 142.255 84.8945H142.009H141.595H141.174V90.8346H141.595H142.009H142.255C142.255 90.8346 142.483 90.8346 142.816 90.8346C143.537 90.8346 144.752 90.8346 145.225 90.8346C146.865 90.8346 148.195 89.5047 148.195 87.8645C148.195 86.2242 146.865 84.8945 145.225 84.8945Z" fill="white"/>
<path d="M161.819 84.8945H161.159C161.159 84.8945 160.749 84.8945 160.225 84.8945C160.145 84.8945 160.062 84.8945 159.977 84.8945C159.311 84.8945 158.543 84.8945 158.189 84.8945C156.548 84.8945 155.219 86.2247 155.219 87.8645C155.219 89.5042 156.548 90.8346 158.189 90.8346C158.631 90.8346 159.355 90.8346 159.977 90.8346C160.062 90.8346 160.145 90.8346 160.225 90.8346C160.754 90.8346 161.159 90.8346 161.159 90.8346H161.819H162.24V84.8945H161.819Z" fill="white"/>
<path d="M165.749 84.8945H162.238V90.8346H165.749H169.26V84.8945H165.749Z" fill="white"/>
<path d="M173.327 84.8945C172.724 84.8945 171.597 84.8945 170.918 84.8945C170.583 84.8945 170.357 84.8945 170.357 84.8945H170.111H169.697H169.275V90.8346H169.697H170.111H170.357C170.357 90.8346 170.584 90.8346 170.918 90.8346C171.639 90.8346 172.853 90.8346 173.327 90.8346C174.967 90.8346 176.297 89.5047 176.297 87.8645C176.297 86.2242 174.967 84.8945 173.327 84.8945Z" fill="white"/>
<path d="M39.3724 91.916C41.0127 91.916 42.3424 93.2458 42.3424 94.886C42.3424 96.5264 41.0127 97.856 39.3724 97.856C37.7321 97.856 36.4023 96.5264 36.4023 94.886C36.4023 93.2458 37.7321 91.916 39.3724 91.916Z" fill="white"/>
<path d="M56.4965 91.916H55.8365C55.8365 91.916 55.4271 91.916 54.9027 91.916C54.8225 91.916 54.7396 91.916 54.6551 91.916C53.9886 91.916 53.2204 91.916 52.8665 91.916C51.2256 91.916 49.8965 93.2462 49.8965 94.886C49.8965 96.5257 51.2256 97.856 52.8665 97.856C53.3086 97.856 54.0326 97.856 54.6551 97.856C54.7399 97.856 54.8227 97.856 54.9027 97.856C55.4319 97.856 55.8365 97.856 55.8365 97.856H56.4965H56.9178V91.916H56.4965Z" fill="white"/>
<path d="M60.4267 91.916H56.916V97.856H60.4267H63.9373V91.916H60.4267Z" fill="white"/>
<path d="M67.9888 91.916C67.3863 91.916 66.2589 91.916 65.5798 91.916C65.2448 91.916 65.0188 91.916 65.0188 91.916H64.773H64.3588H63.9375V97.856H64.3588H64.773H65.0188C65.0188 97.856 65.2465 97.856 65.5798 97.856C66.3006 97.856 67.5154 97.856 67.9888 97.856C69.629 97.856 70.9588 96.5262 70.9588 94.886C70.9588 93.2457 69.629 91.916 67.9888 91.916Z" fill="white"/>
<path d="M81.5071 91.916C83.1475 91.916 84.4771 93.2458 84.4771 94.886C84.4771 96.5264 83.1475 97.856 81.5071 97.856C79.8668 97.856 78.5371 96.5264 78.5371 94.886C78.5371 93.2458 79.8668 91.916 81.5071 91.916Z" fill="white"/>
<path d="M98.6235 91.916H97.9635C97.9635 91.916 97.554 91.916 97.0296 91.916C96.9494 91.916 96.8666 91.916 96.7821 91.916C96.1156 91.916 95.3474 91.916 94.9934 91.916C93.3526 91.916 92.0234 93.2462 92.0234 94.886C92.0234 96.5257 93.3526 97.856 94.9934 97.856C95.4355 97.856 96.1596 97.856 96.7821 97.856C96.8668 97.856 96.9496 97.856 97.0296 97.856C97.5588 97.856 97.9635 97.856 97.9635 97.856H98.6235H99.0447V91.916H98.6235Z" fill="white"/>
<path d="M102.556 91.916H99.0449V97.856H102.556H106.066V91.916H102.556Z" fill="white"/>
<path d="M109.579 91.916H106.068V97.856H109.579H113.09V91.916H109.579Z" fill="white"/>
<path d="M117.139 91.916C116.537 91.916 115.409 91.916 114.73 91.916C114.395 91.916 114.169 91.916 114.169 91.916H113.923H113.509H113.088V97.856H113.509H113.923H114.169C114.169 97.856 114.397 97.856 114.73 97.856C115.451 97.856 116.666 97.856 117.139 97.856C118.779 97.856 120.109 96.5262 120.109 94.886C120.109 93.2457 118.779 91.916 117.139 91.916Z" fill="white"/>
<path d="M133.747 91.916H133.087C133.087 91.916 132.677 91.916 132.153 91.916C132.072 91.916 131.99 91.916 131.905 91.916C131.239 91.916 130.47 91.916 130.116 91.916C128.476 91.916 127.146 93.2462 127.146 94.886C127.146 96.5257 128.476 97.856 130.116 97.856C130.559 97.856 131.283 97.856 131.905 97.856C131.99 97.856 132.073 97.856 132.153 97.856C132.682 97.856 133.087 97.856 133.087 97.856H133.747H134.168V91.916H133.747Z" fill="white"/>
<path d="M137.677 91.916H134.166V97.856H137.677H141.187V91.916H137.677Z" fill="white"/>
<path d="M145.225 91.916C144.623 91.916 143.495 91.916 142.816 91.916C142.481 91.916 142.255 91.916 142.255 91.916H142.009H141.595H141.174V97.856H141.595H142.009H142.255C142.255 97.856 142.483 97.856 142.816 97.856C143.537 97.856 144.752 97.856 145.225 97.856C146.865 97.856 148.195 96.5262 148.195 94.886C148.195 93.2457 146.865 91.916 145.225 91.916Z" fill="white"/>
<path d="M172.784 91.916C174.425 91.916 175.754 93.2458 175.754 94.886C175.754 96.5264 174.425 97.856 172.784 97.856C171.144 97.856 169.814 96.5264 169.814 94.886C169.814 93.2458 171.144 91.916 172.784 91.916Z" fill="white"/>
<path d="M14.3657 98.9375H13.7056C13.7056 98.9375 13.2962 98.9375 12.7718 98.9375C12.6916 98.9375 12.6088 98.9375 12.5242 98.9375C11.8578 98.9375 11.0895 98.9375 10.7356 98.9375C9.09476 98.9375 7.76562 100.268 7.76562 101.908C7.76562 103.547 9.09476 104.878 10.7356 104.878C11.1777 104.878 11.9017 104.878 12.5242 104.878C12.609 104.878 12.6918 104.878 12.7718 104.878C13.301 104.878 13.7056 104.878 13.7056 104.878H14.3657H14.7869V98.9375H14.3657Z" fill="white"/>
<path d="M18.8404 98.9375C18.2378 98.9375 17.1105 98.9375 16.4313 98.9375C16.0963 98.9375 15.8703 98.9375 15.8703 98.9375H15.6246H15.2103H14.7891V104.878H15.2103H15.6246H15.8703C15.8703 104.878 16.0981 104.878 16.4313 104.878C17.1522 104.878 18.367 104.878 18.8404 104.878C20.4805 104.878 21.8104 103.548 21.8104 101.908C21.8104 100.267 20.4805 98.9375 18.8404 98.9375Z" fill="white"/>
<path d="M35.4477 98.9375H34.7877C34.7877 98.9375 34.3782 98.9375 33.8538 98.9375C33.7736 98.9375 33.6908 98.9375 33.6063 98.9375C32.9398 98.9375 32.1716 98.9375 31.8177 98.9375C30.1768 98.9375 28.8477 100.268 28.8477 101.908C28.8477 103.547 30.1768 104.878 31.8177 104.878C32.2597 104.878 32.9838 104.878 33.6063 104.878C33.691 104.878 33.7738 104.878 33.8538 104.878C34.3831 104.878 34.7877 104.878 34.7877 104.878H35.4477H35.869V98.9375H35.4477Z" fill="white"/>
<path d="M39.3759 98.9375H35.8652V104.878H39.3759H42.8865V98.9375H39.3759Z" fill="white"/>
<path d="M46.3857 98.9375H42.875V104.878H46.3857H49.8963V98.9375H46.3857Z" fill="white"/>
<path d="M53.9478 98.9375C53.3453 98.9375 52.2179 98.9375 51.5388 98.9375C51.2038 98.9375 50.9778 98.9375 50.9778 98.9375H50.732H50.3178H49.8965V104.878H50.3178H50.732H50.9778C50.9778 104.878 51.2055 104.878 51.5388 104.878C52.2596 104.878 53.4744 104.878 53.9478 104.878C55.588 104.878 56.9178 103.548 56.9178 101.908C56.9178 100.267 55.588 98.9375 53.9478 98.9375Z" fill="white"/>
<path d="M74.4837 98.9375C76.124 98.9375 77.4537 100.267 77.4537 101.908C77.4537 103.548 76.124 104.878 74.4837 104.878C72.8434 104.878 71.5137 103.548 71.5137 101.908C71.5137 100.267 72.8434 98.9375 74.4837 98.9375Z" fill="white"/>
<path d="M88.5227 98.9375C90.1631 98.9375 91.4928 100.267 91.4928 101.908C91.4928 103.548 90.1631 104.878 88.5227 104.878C86.8825 104.878 85.5527 103.548 85.5527 101.908C85.5527 100.267 86.8825 98.9375 88.5227 98.9375Z" fill="white"/>
<path d="M102.556 98.9375C104.196 98.9375 105.526 100.267 105.526 101.908C105.526 103.548 104.196 104.878 102.556 104.878C100.916 104.878 99.5859 103.548 99.5859 101.908C99.5859 100.267 100.916 98.9375 102.556 98.9375Z" fill="white"/>
<path d="M123.634 98.9375C125.274 98.9375 126.604 100.267 126.604 101.908C126.604 103.548 125.274 104.878 123.634 104.878C121.994 104.878 120.664 103.548 120.664 101.908C120.664 100.267 121.994 98.9375 123.634 98.9375Z" fill="white"/>
<path d="M144.695 98.9375C146.335 98.9375 147.665 100.267 147.665 101.908C147.665 103.548 146.335 104.878 144.695 104.878C143.054 104.878 141.725 103.548 141.725 101.908C141.725 100.267 143.054 98.9375 144.695 98.9375Z" fill="white"/>
<path d="M161.819 98.9375H161.159C161.159 98.9375 160.749 98.9375 160.225 98.9375C160.145 98.9375 160.062 98.9375 159.977 98.9375C159.311 98.9375 158.543 98.9375 158.189 98.9375C156.548 98.9375 155.219 100.268 155.219 101.908C155.219 103.547 156.548 104.878 158.189 104.878C158.631 104.878 159.355 104.878 159.977 104.878C160.062 104.878 160.145 104.878 160.225 104.878C160.754 104.878 161.159 104.878 161.159 104.878H161.819H162.24V98.9375H161.819Z" fill="white"/>
<path d="M166.29 98.9375C165.687 98.9375 164.56 98.9375 163.881 98.9375C163.546 98.9375 163.32 98.9375 163.32 98.9375H163.074H162.66H162.238V104.878H162.66H163.074H163.32C163.32 104.878 163.547 104.878 163.881 104.878C164.601 104.878 165.816 104.878 166.29 104.878C167.93 104.878 169.26 103.548 169.26 101.908C169.26 100.267 167.93 98.9375 166.29 98.9375Z" fill="white"/>
<path d="M4.25517 105.957C5.89553 105.957 7.22518 107.287 7.22518 108.927C7.22518 110.567 5.89553 111.897 4.25517 111.897C2.61489 111.897 1.28516 110.567 1.28516 108.927C1.28516 107.287 2.61489 105.957 4.25517 105.957Z" fill="white"/>
<path d="M25.3294 105.957C26.9697 105.957 28.2994 107.287 28.2994 108.927C28.2994 110.567 26.9697 111.897 25.3294 111.897C23.6891 111.897 22.3594 110.567 22.3594 108.927C22.3594 107.287 23.6891 105.957 25.3294 105.957Z" fill="white"/>
<path d="M39.3724 105.957C41.0127 105.957 42.3424 107.287 42.3424 108.927C42.3424 110.567 41.0127 111.897 39.3724 111.897C37.7321 111.897 36.4023 110.567 36.4023 108.927C36.4023 107.287 37.7321 105.957 39.3724 105.957Z" fill="white"/>
<path d="M53.4056 105.957C55.0459 105.957 56.3756 107.287 56.3756 108.927C56.3756 110.567 55.0459 111.897 53.4056 111.897C51.7653 111.897 50.4355 110.567 50.4355 108.927C50.4355 107.287 51.7653 105.957 53.4056 105.957Z" fill="white"/>
<path d="M67.4485 105.957C69.0889 105.957 70.4185 107.287 70.4185 108.927C70.4185 110.567 69.0889 111.897 67.4485 111.897C65.8083 111.897 64.4785 110.567 64.4785 108.927C64.4785 107.287 65.8083 105.957 67.4485 105.957Z" fill="white"/>
<path d="M88.5227 105.957C90.1631 105.957 91.4928 107.287 91.4928 108.927C91.4928 110.567 90.1631 111.897 88.5227 111.897C86.8825 111.897 85.5527 110.567 85.5527 108.927C85.5527 107.287 86.8825 105.957 88.5227 105.957Z" fill="white"/>
<path d="M102.556 105.957C104.196 105.957 105.526 107.287 105.526 108.927C105.526 110.567 104.196 111.897 102.556 111.897C100.916 111.897 99.5859 110.567 99.5859 108.927C99.5859 107.287 100.916 105.957 102.556 105.957Z" fill="white"/>
<path d="M119.688 105.957H119.028C119.028 105.957 118.618 105.957 118.094 105.957C118.014 105.957 117.931 105.957 117.847 105.957C117.18 105.957 116.412 105.957 116.058 105.957C114.417 105.957 113.088 107.287 113.088 108.927C113.088 110.567 114.417 111.897 116.058 111.897C116.5 111.897 117.224 111.897 117.847 111.897C117.931 111.897 118.014 111.897 118.094 111.897C118.623 111.897 119.028 111.897 119.028 111.897H119.688H120.109V105.957H119.688Z" fill="white"/>
<path d="M124.176 105.957C123.574 105.957 122.446 105.957 121.767 105.957C121.432 105.957 121.206 105.957 121.206 105.957H120.961H120.546H120.125V111.897H120.546H120.961H121.206C121.206 111.897 121.434 111.897 121.767 111.897C122.488 111.897 123.703 111.897 124.176 111.897C125.816 111.897 127.146 110.567 127.146 108.927C127.146 107.287 125.816 105.957 124.176 105.957Z" fill="white"/>
<path d="M140.766 105.957H140.106C140.106 105.957 139.697 105.957 139.172 105.957C139.092 105.957 139.009 105.957 138.925 105.957C138.258 105.957 137.49 105.957 137.136 105.957C135.495 105.957 134.166 107.287 134.166 108.927C134.166 110.567 135.495 111.897 137.136 111.897C137.578 111.897 138.302 111.897 138.925 111.897C139.009 111.897 139.092 111.897 139.172 111.897C139.701 111.897 140.106 111.897 140.106 111.897H140.766H141.187V105.957H140.766Z" fill="white"/>
<path d="M145.225 105.957C144.623 105.957 143.495 105.957 142.816 105.957C142.481 105.957 142.255 105.957 142.255 105.957H142.009H141.595H141.174V111.897H141.595H142.009H142.255C142.255 111.897 142.483 111.897 142.816 111.897C143.537 111.897 144.752 111.897 145.225 111.897C146.865 111.897 148.195 110.567 148.195 108.927C148.195 107.287 146.865 105.957 145.225 105.957Z" fill="white"/>
<path d="M172.784 105.957C174.425 105.957 175.754 107.287 175.754 108.927C175.754 110.567 174.425 111.897 172.784 111.897C171.144 111.897 169.814 110.567 169.814 108.927C169.814 107.287 171.144 105.957 172.784 105.957Z" fill="white"/>
<path d="M21.3891 112.98H20.7291C20.7291 112.98 20.3196 112.98 19.7953 112.98C19.7151 112.98 19.6322 112.98 19.5477 112.98C18.8812 112.98 18.113 112.98 17.7591 112.98C16.1182 112.98 14.7891 114.311 14.7891 115.95C14.7891 117.59 16.1182 118.92 17.7591 118.92C18.2011 118.92 18.9252 118.92 19.5477 118.92C19.6324 118.92 19.7152 118.92 19.7953 118.92C20.3245 118.92 20.7291 118.92 20.7291 118.92H21.3891H21.8104V112.98H21.3891Z" fill="white"/>
<path d="M25.8755 112.98C25.273 112.98 24.1456 112.98 23.4665 112.98C23.1315 112.98 22.9055 112.98 22.9055 112.98H22.6598H22.2455H21.8242V118.92H22.2455H22.6598H22.9055C22.9055 118.92 23.1332 118.92 23.4665 118.92C24.1873 118.92 25.4021 118.92 25.8755 118.92C27.5157 118.92 28.8455 117.591 28.8455 115.95C28.8455 114.31 27.5157 112.98 25.8755 112.98Z" fill="white"/>
<path d="M49.475 112.98H48.815C48.815 112.98 48.4056 112.98 47.8812 112.98C47.801 112.98 47.7181 112.98 47.6336 112.98C46.9671 112.98 46.1989 112.98 45.845 112.98C44.2041 112.98 42.875 114.311 42.875 115.95C42.875 117.59 44.2041 118.92 45.845 118.92C46.2871 118.92 47.0111 118.92 47.6336 118.92C47.7184 118.92 47.8012 118.92 47.8812 118.92C48.4104 118.92 48.815 118.92 48.815 118.92H49.475H49.8963V112.98H49.475Z" fill="white"/>
<path d="M53.4071 112.98H49.8965V118.92H53.4071H56.9178V112.98H53.4071Z" fill="white"/>
<path d="M60.9673 112.98C60.3648 112.98 59.2374 112.98 58.5583 112.98C58.2233 112.98 57.9973 112.98 57.9973 112.98H57.7516H57.3373H56.916V118.92H57.3373H57.7516H57.9973C57.9973 118.92 58.225 118.92 58.5583 118.92C59.2791 118.92 60.4939 118.92 60.9673 118.92C62.6075 118.92 63.9373 117.591 63.9373 115.95C63.9373 114.31 62.6075 112.98 60.9673 112.98Z" fill="white"/>
<path d="M77.5746 112.98H76.9146C76.9146 112.98 76.5052 112.98 75.9808 112.98C75.9006 112.98 75.8178 112.98 75.7332 112.98C75.0668 112.98 74.2985 112.98 73.9446 112.98C72.3037 112.98 70.9746 114.311 70.9746 115.95C70.9746 117.59 72.3037 118.92 73.9446 118.92C74.3867 118.92 75.1107 118.92 75.7332 118.92C75.818 118.92 75.9008 118.92 75.9808 118.92C76.51 118.92 76.9146 118.92 76.9146 118.92H77.5746H77.9959V112.98H77.5746Z" fill="white"/>
<path d="M82.0474 112.98C81.4449 112.98 80.3175 112.98 79.6384 112.98C79.3034 112.98 79.0774 112.98 79.0774 112.98H78.8316H78.4174H77.9961V118.92H78.4174H78.8316H79.0774C79.0774 118.92 79.3051 118.92 79.6384 118.92C80.3592 118.92 81.574 118.92 82.0474 118.92C83.6876 118.92 85.0174 117.591 85.0174 115.95C85.0174 114.31 83.6876 112.98 82.0474 112.98Z" fill="white"/>
<path d="M95.5442 112.98C97.1846 112.98 98.5142 114.31 98.5142 115.95C98.5142 117.591 97.1846 118.92 95.5442 118.92C93.904 118.92 92.5742 117.591 92.5742 115.95C92.5742 114.31 93.904 112.98 95.5442 112.98Z" fill="white"/>
<path d="M112.668 112.98H112.008C112.008 112.98 111.599 112.98 111.075 112.98C110.994 112.98 110.912 112.98 110.827 112.98C110.161 112.98 109.392 112.98 109.038 112.98C107.397 112.98 106.068 114.311 106.068 115.95C106.068 117.59 107.397 118.92 109.038 118.92C109.48 118.92 110.204 118.92 110.827 118.92C110.912 118.92 110.995 118.92 111.075 118.92C111.604 118.92 112.008 118.92 112.008 118.92H112.668H113.09V112.98H112.668Z" fill="white"/>
<path d="M116.599 112.98H113.088V118.92H116.599H120.109V112.98H116.599Z" fill="white"/>
<path d="M123.636 112.98H120.125V118.92H123.636H127.146V112.98H123.636Z" fill="white"/>
<path d="M130.657 112.98H127.146V118.92H130.657H134.168V112.98H130.657Z" fill="white"/>
<path d="M137.677 112.98H134.166V118.92H137.677H141.187V112.98H137.677Z" fill="white"/>
<path d="M144.684 112.98H141.174V118.92H144.684H148.195V112.98H144.684Z" fill="white"/>
<path d="M151.706 112.98H148.195V118.92H151.706H155.217V112.98H151.706Z" fill="white"/>
<path d="M158.729 112.98H155.219V118.92H158.729H162.24V112.98H158.729Z" fill="white"/>
<path d="M165.749 112.98H162.238V118.92H165.749H169.26V112.98H165.749Z" fill="white"/>
<path d="M173.327 112.98C172.724 112.98 171.597 112.98 170.918 112.98C170.583 112.98 170.357 112.98 170.357 112.98H170.111H169.697H169.275V118.92H169.697H170.111H170.357C170.357 118.92 170.584 118.92 170.918 118.92C171.639 118.92 172.853 118.92 173.327 118.92C174.967 118.92 176.297 117.591 176.297 115.95C176.297 114.31 174.967 112.98 173.327 112.98Z" fill="white"/>
<path d="M63.516 120.004H62.856C62.856 120.004 62.4466 120.004 61.9222 120.004C61.842 120.004 61.7592 120.004 61.6746 120.004C61.0082 120.004 60.2399 120.004 59.886 120.004C58.2451 120.004 56.916 121.334 56.916 122.974C56.916 124.614 58.2451 125.944 59.886 125.944C60.3281 125.944 61.0521 125.944 61.6746 125.944C61.7594 125.944 61.8422 125.944 61.9222 125.944C62.4514 125.944 62.856 125.944 62.856 125.944H63.516H63.9373V120.004H63.516Z" fill="white"/>
<path d="M67.4482 120.004H63.9375V125.944H67.4482H70.9588V120.004H67.4482Z" fill="white"/>
<path d="M75.0259 120.004C74.4234 120.004 73.296 120.004 72.6169 120.004C72.2819 120.004 72.0559 120.004 72.0559 120.004H71.8101H71.3959H70.9746V125.944H71.3959H71.8101H72.0559C72.0559 125.944 72.2836 125.944 72.6169 125.944C73.3377 125.944 74.5525 125.944 75.0259 125.944C76.6661 125.944 77.9959 124.614 77.9959 122.974C77.9959 121.334 76.6661 120.004 75.0259 120.004Z" fill="white"/>
<path d="M88.5227 120.004C90.1631 120.004 91.4928 121.334 91.4928 122.974C91.4928 124.614 90.1631 125.944 88.5227 125.944C86.8825 125.944 85.5527 124.614 85.5527 122.974C85.5527 121.334 86.8825 120.004 88.5227 120.004Z" fill="white"/>
<path d="M116.597 120.004C118.237 120.004 119.567 121.334 119.567 122.974C119.567 124.614 118.237 125.944 116.597 125.944C114.957 125.944 113.627 124.614 113.627 122.974C113.627 121.334 114.957 120.004 116.597 120.004Z" fill="white"/>
<path d="M144.695 120.004C146.335 120.004 147.665 121.334 147.665 122.974C147.665 124.614 146.335 125.944 144.695 125.944C143.054 125.944 141.725 124.614 141.725 122.974C141.725 121.334 143.054 120.004 144.695 120.004Z" fill="white"/>
<path d="M158.726 120.004C160.366 120.004 161.696 121.334 161.696 122.974C161.696 124.614 160.366 125.944 158.726 125.944C157.086 125.944 155.756 124.614 155.756 122.974C155.756 121.334 157.086 120.004 158.726 120.004Z" fill="white"/>
<path d="M172.784 120.004C174.425 120.004 175.754 121.334 175.754 122.974C175.754 124.614 174.425 125.944 172.784 125.944C171.144 125.944 169.814 124.614 169.814 122.974C169.814 121.334 171.144 120.004 172.784 120.004Z" fill="white"/>
<path d="M63.516 127.023H62.856C62.856 127.023 62.4466 127.023 61.9222 127.023C61.842 127.023 61.7592 127.023 61.6746 127.023C61.0082 127.023 60.2399 127.023 59.886 127.023C58.2451 127.023 56.916 128.354 56.916 129.993C56.916 131.633 58.2451 132.963 59.886 132.963C60.3281 132.963 61.0521 132.963 61.6746 132.963C61.7594 132.963 61.8422 132.963 61.9222 132.963C62.4514 132.963 62.856 132.963 62.856 132.963H63.516H63.9373V127.023H63.516Z" fill="white"/>
<path d="M67.9888 127.023C67.3863 127.023 66.2589 127.023 65.5798 127.023C65.2448 127.023 65.0188 127.023 65.0188 127.023H64.773H64.3588H63.9375V132.963H64.3588H64.773H65.0188C65.0188 132.963 65.2465 132.963 65.5798 132.963C66.3006 132.963 67.5154 132.963 67.9888 132.963C69.629 132.963 70.9588 131.634 70.9588 129.993C70.9588 128.353 69.629 127.023 67.9888 127.023Z" fill="white"/>
<path d="M84.5961 127.023H83.9361C83.9361 127.023 83.5267 127.023 83.0023 127.023C82.9221 127.023 82.8392 127.023 82.7547 127.023C82.0882 127.023 81.32 127.023 80.9661 127.023C79.3252 127.023 77.9961 128.354 77.9961 129.993C77.9961 131.633 79.3252 132.963 80.9661 132.963C81.4082 132.963 82.1322 132.963 82.7547 132.963C82.8395 132.963 82.9223 132.963 83.0023 132.963C83.5315 132.963 83.9361 132.963 83.9361 132.963H84.5961H85.0174V127.023H84.5961Z" fill="white"/>
<path d="M89.0669 127.023C88.4644 127.023 87.337 127.023 86.6579 127.023C86.3229 127.023 86.0969 127.023 86.0969 127.023H85.8512H85.4369H85.0156V132.963H85.4369H85.8512H86.0969C86.0969 132.963 86.3246 132.963 86.6579 132.963C87.3787 132.963 88.5935 132.963 89.0669 132.963C90.7071 132.963 92.0369 131.634 92.0369 129.993C92.0369 128.353 90.7071 127.023 89.0669 127.023Z" fill="white"/>
<path d="M102.556 127.023C104.196 127.023 105.526 128.353 105.526 129.993C105.526 131.634 104.196 132.963 102.556 132.963C100.916 132.963 99.5859 131.634 99.5859 129.993C99.5859 128.353 100.916 127.023 102.556 127.023Z" fill="white"/>
<path d="M116.597 127.023C118.237 127.023 119.567 128.353 119.567 129.993C119.567 131.634 118.237 132.963 116.597 132.963C114.957 132.963 113.627 131.634 113.627 129.993C113.627 128.353 114.957 127.023 116.597 127.023Z" fill="white"/>
<path d="M130.656 127.023C132.296 127.023 133.626 128.353 133.626 129.993C133.626 131.634 132.296 132.963 130.656 132.963C129.015 132.963 127.686 131.634 127.686 129.993C127.686 128.353 129.015 127.023 130.656 127.023Z" fill="white"/>
<path d="M144.695 127.023C146.335 127.023 147.665 128.353 147.665 129.993C147.665 131.634 146.335 132.963 144.695 132.963C143.054 132.963 141.725 131.634 141.725 129.993C141.725 128.353 143.054 127.023 144.695 127.023Z" fill="white"/>
<path d="M161.819 127.023H161.159C161.159 127.023 160.749 127.023 160.225 127.023C160.145 127.023 160.062 127.023 159.977 127.023C159.311 127.023 158.543 127.023 158.189 127.023C156.548 127.023 155.219 128.354 155.219 129.993C155.219 131.633 156.548 132.963 158.189 132.963C158.631 132.963 159.355 132.963 159.977 132.963C160.062 132.963 160.145 132.963 160.225 132.963C160.754 132.963 161.159 132.963 161.159 132.963H161.819H162.24V127.023H161.819Z" fill="white"/>
<path d="M165.749 127.023H162.238V132.963H165.749H169.26V127.023H165.749Z" fill="white"/>
<path d="M173.327 127.023C172.724 127.023 171.597 127.023 170.918 127.023C170.583 127.023 170.357 127.023 170.357 127.023H170.111H169.697H169.275V132.963H169.697H170.111H170.357C170.357 132.963 170.584 132.963 170.918 132.963C171.639 132.963 172.853 132.963 173.327 132.963C174.967 132.963 176.297 131.634 176.297 129.993C176.297 128.353 174.967 127.023 173.327 127.023Z" fill="white"/>
<path d="M60.4251 134.045C62.0655 134.045 63.3951 135.375 63.3951 137.015C63.3951 138.655 62.0655 139.985 60.4251 139.985C58.7848 139.985 57.4551 138.655 57.4551 137.015C57.4551 135.375 58.7848 134.045 60.4251 134.045Z" fill="white"/>
<path d="M74.4837 134.045C76.124 134.045 77.4537 135.375 77.4537 137.015C77.4537 138.655 76.124 139.985 74.4837 139.985C72.8434 139.985 71.5137 138.655 71.5137 137.015C71.5137 135.375 72.8434 134.045 74.4837 134.045Z" fill="white"/>
<path d="M88.5227 134.045C90.1631 134.045 91.4928 135.375 91.4928 137.015C91.4928 138.655 90.1631 139.985 88.5227 139.985C86.8825 139.985 85.5527 138.655 85.5527 137.015C85.5527 135.375 86.8825 134.045 88.5227 134.045Z" fill="white"/>
<path d="M112.668 134.045H112.008C112.008 134.045 111.599 134.045 111.075 134.045C110.994 134.045 110.912 134.045 110.827 134.045C110.161 134.045 109.392 134.045 109.038 134.045C107.397 134.045 106.068 135.375 106.068 137.015C106.068 138.655 107.397 139.985 109.038 139.985C109.48 139.985 110.204 139.985 110.827 139.985C110.912 139.985 110.995 139.985 111.075 139.985C111.604 139.985 112.008 139.985 112.008 139.985H112.668H113.09V134.045H112.668Z" fill="white"/>
<path d="M117.139 134.045C116.537 134.045 115.409 134.045 114.73 134.045C114.395 134.045 114.169 134.045 114.169 134.045H113.923H113.509H113.088V139.985H113.509H113.923H114.169C114.169 139.985 114.397 139.985 114.73 139.985C115.451 139.985 116.666 139.985 117.139 139.985C118.779 139.985 120.109 138.655 120.109 137.015C120.109 135.375 118.779 134.045 117.139 134.045Z" fill="white"/>
<path d="M144.695 134.045C146.335 134.045 147.665 135.375 147.665 137.015C147.665 138.655 146.335 139.985 144.695 139.985C143.054 139.985 141.725 138.655 141.725 137.015C141.725 135.375 143.054 134.045 144.695 134.045Z" fill="white"/>
<path d="M168.838 134.045H168.178C168.178 134.045 167.769 134.045 167.244 134.045C167.164 134.045 167.081 134.045 166.997 134.045C166.33 134.045 165.562 134.045 165.208 134.045C163.567 134.045 162.238 135.375 162.238 137.015C162.238 138.655 163.567 139.985 165.208 139.985C165.65 139.985 166.374 139.985 166.997 139.985C167.082 139.985 167.164 139.985 167.244 139.985C167.774 139.985 168.178 139.985 168.178 139.985H168.838H169.26V134.045H168.838Z" fill="white"/>
<path d="M173.327 134.045C172.724 134.045 171.597 134.045 170.918 134.045C170.583 134.045 170.357 134.045 170.357 134.045H170.111H169.697H169.275V139.985H169.697H170.111H170.357C170.357 139.985 170.584 139.985 170.918 139.985C171.639 139.985 172.853 139.985 173.327 139.985C174.967 139.985 176.297 138.655 176.297 137.015C176.297 135.375 174.967 134.045 173.327 134.045Z" fill="white"/>
<path d="M70.5375 141.066H69.8775C69.8775 141.066 69.4681 141.066 68.9437 141.066C68.8635 141.066 68.7806 141.066 68.6961 141.066C68.0296 141.066 67.2614 141.066 66.9075 141.066C65.2666 141.066 63.9375 142.397 63.9375 144.036C63.9375 145.676 65.2666 147.006 66.9075 147.006C67.3496 147.006 68.0736 147.006 68.6961 147.006C68.7809 147.006 68.8637 147.006 68.9437 147.006C69.4729 147.006 69.8775 147.006 69.8775 147.006H70.5375H70.9588V141.066H70.5375Z" fill="white"/>
<path d="M74.4853 141.066H70.9746V147.006H74.4853H77.9959V141.066H74.4853Z" fill="white"/>
<path d="M81.5067 141.066H77.9961V147.006H81.5067H85.0174V141.066H81.5067Z" fill="white"/>
<path d="M88.5263 141.066H85.0156V147.006H88.5263H92.0369V141.066H88.5263Z" fill="white"/>
<path d="M96.0747 141.066C95.4722 141.066 94.3448 141.066 93.6657 141.066C93.3307 141.066 93.1047 141.066 93.1047 141.066H92.859H92.4447H92.0234V147.006H92.4447H92.859H93.1047C93.1047 147.006 93.3324 147.006 93.6657 147.006C94.3866 147.006 95.6014 147.006 96.0747 147.006C97.7149 147.006 99.0447 145.677 99.0447 144.036C99.0447 142.396 97.7149 141.066 96.0747 141.066Z" fill="white"/>
<path d="M119.688 141.066H119.028C119.028 141.066 118.618 141.066 118.094 141.066C118.014 141.066 117.931 141.066 117.847 141.066C117.18 141.066 116.412 141.066 116.058 141.066C114.417 141.066 113.088 142.397 113.088 144.036C113.088 145.676 114.417 147.006 116.058 147.006C116.5 147.006 117.224 147.006 117.847 147.006C117.931 147.006 118.014 147.006 118.094 147.006C118.623 147.006 119.028 147.006 119.028 147.006H119.688H120.109V141.066H119.688Z" fill="white"/>
<path d="M123.636 141.066H120.125V147.006H123.636H127.146V141.066H123.636Z" fill="white"/>
<path d="M130.657 141.066H127.146V147.006H130.657H134.168V141.066H130.657Z" fill="white"/>
<path d="M137.677 141.066H134.166V147.006H137.677H141.187V141.066H137.677Z" fill="white"/>
<path d="M144.684 141.066H141.174V147.006H144.684H148.195V141.066H144.684Z" fill="white"/>
<path d="M152.247 141.066C151.644 141.066 150.517 141.066 149.838 141.066C149.503 141.066 149.277 141.066 149.277 141.066H149.031H148.617H148.195V147.006H148.617H149.031H149.277C149.277 147.006 149.504 147.006 149.838 147.006C150.558 147.006 151.773 147.006 152.247 147.006C153.887 147.006 155.217 145.677 155.217 144.036C155.217 142.396 153.887 141.066 152.247 141.066Z" fill="white"/>
<path d="M165.747 141.066C167.388 141.066 168.717 142.396 168.717 144.036C168.717 145.677 167.388 147.006 165.747 147.006C164.107 147.006 162.777 145.677 162.777 144.036C162.777 142.396 164.107 141.066 165.747 141.066Z" fill="white"/>
<path d="M60.4251 148.088C62.0655 148.088 63.3951 149.418 63.3951 151.058C63.3951 152.698 62.0655 154.028 60.4251 154.028C58.7848 154.028 57.4551 152.698 57.4551 151.058C57.4551 149.418 58.7848 148.088 60.4251 148.088Z" fill="white"/>
<path d="M74.4837 148.088C76.124 148.088 77.4537 149.418 77.4537 151.058C77.4537 152.698 76.124 154.028 74.4837 154.028C72.8434 154.028 71.5137 152.698 71.5137 151.058C71.5137 149.418 72.8434 148.088 74.4837 148.088Z" fill="white"/>
<path d="M91.6157 148.088H90.9556C90.9556 148.088 90.5462 148.088 90.0218 148.088C89.9416 148.088 89.8588 148.088 89.7742 148.088C89.1078 148.088 88.3395 148.088 87.9856 148.088C86.3448 148.088 85.0156 149.418 85.0156 151.058C85.0156 152.698 86.3448 154.028 87.9856 154.028C88.4277 154.028 89.1517 154.028 89.7742 154.028C89.859 154.028 89.9418 154.028 90.0218 154.028C90.551 154.028 90.9556 154.028 90.9556 154.028H91.6157H92.0369V148.088H91.6157Z" fill="white"/>
<path d="M96.0747 148.088C95.4722 148.088 94.3448 148.088 93.6657 148.088C93.3307 148.088 93.1047 148.088 93.1047 148.088H92.859H92.4447H92.0234V154.028H92.4447H92.859H93.1047C93.1047 154.028 93.3324 154.028 93.6657 154.028C94.3866 154.028 95.6014 154.028 96.0747 154.028C97.7149 154.028 99.0447 152.698 99.0447 151.058C99.0447 149.418 97.7149 148.088 96.0747 148.088Z" fill="white"/>
<path d="M116.597 148.088C118.237 148.088 119.567 149.418 119.567 151.058C119.567 152.698 118.237 154.028 116.597 154.028C114.957 154.028 113.627 152.698 113.627 151.058C113.627 149.418 114.957 148.088 116.597 148.088Z" fill="white"/>
<path d="M130.656 148.088C132.296 148.088 133.626 149.418 133.626 151.058C133.626 152.698 132.296 154.028 130.656 154.028C129.015 154.028 127.686 152.698 127.686 151.058C127.686 149.418 129.015 148.088 130.656 148.088Z" fill="white"/>
<path d="M147.774 148.088H147.114C147.114 148.088 146.704 148.088 146.18 148.088C146.1 148.088 146.017 148.088 145.932 148.088C145.266 148.088 144.498 148.088 144.144 148.088C142.503 148.088 141.174 149.418 141.174 151.058C141.174 152.698 142.503 154.028 144.144 154.028C144.586 154.028 145.31 154.028 145.932 154.028C146.017 154.028 146.1 154.028 146.18 154.028C146.709 154.028 147.114 154.028 147.114 154.028H147.774H148.195V148.088H147.774Z" fill="white"/>
<path d="M151.706 148.088H148.195V154.028H151.706H155.217V148.088H151.706Z" fill="white"/>
<path d="M158.729 148.088H155.219V154.028H158.729H162.24V148.088H158.729Z" fill="white"/>
<path d="M165.749 148.088H162.238V154.028H165.749H169.26V148.088H165.749Z" fill="white"/>
<path d="M173.327 148.088C172.724 148.088 171.597 148.088 170.918 148.088C170.583 148.088 170.357 148.088 170.357 148.088H170.111H169.697H169.275V154.028H169.697H170.111H170.357C170.357 154.028 170.584 154.028 170.918 154.028C171.639 154.028 172.853 154.028 173.327 154.028C174.967 154.028 176.297 152.698 176.297 151.058C176.297 149.418 174.967 148.088 173.327 148.088Z" fill="white"/>
<path d="M63.516 155.107H62.856C62.856 155.107 62.4466 155.107 61.9222 155.107C61.842 155.107 61.7592 155.107 61.6746 155.107C61.0082 155.107 60.2399 155.107 59.886 155.107C58.2451 155.107 56.916 156.438 56.916 158.077C56.916 159.717 58.2451 161.047 59.886 161.047C60.3281 161.047 61.0521 161.047 61.6746 161.047C61.7594 161.047 61.8422 161.047 61.9222 161.047C62.4514 161.047 62.856 161.047 62.856 161.047H63.516H63.9373V155.107H63.516Z" fill="white"/>
<path d="M67.9888 155.107C67.3863 155.107 66.2589 155.107 65.5798 155.107C65.2448 155.107 65.0188 155.107 65.0188 155.107H64.773H64.3588H63.9375V161.047H64.3588H64.773H65.0188C65.0188 161.047 65.2465 161.047 65.5798 161.047C66.3006 161.047 67.5154 161.047 67.9888 161.047C69.629 161.047 70.9588 159.718 70.9588 158.077C70.9588 156.437 69.629 155.107 67.9888 155.107Z" fill="white"/>
<path d="M84.5961 155.107H83.9361C83.9361 155.107 83.5267 155.107 83.0023 155.107C82.9221 155.107 82.8392 155.107 82.7547 155.107C82.0882 155.107 81.32 155.107 80.9661 155.107C79.3252 155.107 77.9961 156.438 77.9961 158.077C77.9961 159.717 79.3252 161.047 80.9661 161.047C81.4082 161.047 82.1322 161.047 82.7547 161.047C82.8395 161.047 82.9223 161.047 83.0023 161.047C83.5315 161.047 83.9361 161.047 83.9361 161.047H84.5961H85.0174V155.107H84.5961Z" fill="white"/>
<path d="M88.5263 155.107H85.0156V161.047H88.5263H92.0369V155.107H88.5263Z" fill="white"/>
<path d="M96.0747 155.107C95.4722 155.107 94.3448 155.107 93.6657 155.107C93.3307 155.107 93.1047 155.107 93.1047 155.107H92.859H92.4447H92.0234V161.047H92.4447H92.859H93.1047C93.1047 161.047 93.3324 161.047 93.6657 161.047C94.3866 161.047 95.6014 161.047 96.0747 161.047C97.7149 161.047 99.0447 159.718 99.0447 158.077C99.0447 156.437 97.7149 155.107 96.0747 155.107Z" fill="white"/>
<path d="M109.575 155.107C111.216 155.107 112.545 156.437 112.545 158.077C112.545 159.718 111.216 161.047 109.575 161.047C107.935 161.047 106.605 159.718 106.605 158.077C106.605 156.437 107.935 155.107 109.575 155.107Z" fill="white"/>
<path d="M126.725 155.107H126.065C126.065 155.107 125.656 155.107 125.131 155.107C125.051 155.107 124.968 155.107 124.884 155.107C124.217 155.107 123.449 155.107 123.095 155.107C121.454 155.107 120.125 156.438 120.125 158.077C120.125 159.717 121.454 161.047 123.095 161.047C123.537 161.047 124.261 161.047 124.884 161.047C124.968 161.047 125.051 161.047 125.131 161.047C125.66 161.047 126.065 161.047 126.065 161.047H126.725H127.146V155.107H126.725Z" fill="white"/>
<path d="M131.198 155.107C130.595 155.107 129.468 155.107 128.789 155.107C128.454 155.107 128.228 155.107 128.228 155.107H127.982H127.568H127.146V161.047H127.568H127.982H128.228C128.228 161.047 128.455 161.047 128.789 161.047C129.51 161.047 130.724 161.047 131.198 161.047C132.838 161.047 134.168 159.718 134.168 158.077C134.168 156.437 132.838 155.107 131.198 155.107Z" fill="white"/>
<path d="M144.695 155.107C146.335 155.107 147.665 156.437 147.665 158.077C147.665 159.718 146.335 161.047 144.695 161.047C143.054 161.047 141.725 159.718 141.725 158.077C141.725 156.437 143.054 155.107 144.695 155.107Z" fill="white"/>
<path d="M161.819 155.107H161.159C161.159 155.107 160.749 155.107 160.225 155.107C160.145 155.107 160.062 155.107 159.977 155.107C159.311 155.107 158.543 155.107 158.189 155.107C156.548 155.107 155.219 156.438 155.219 158.077C155.219 159.717 156.548 161.047 158.189 161.047C158.631 161.047 159.355 161.047 159.977 161.047C160.062 161.047 160.145 161.047 160.225 161.047C160.754 161.047 161.159 161.047 161.159 161.047H161.819H162.24V155.107H161.819Z" fill="white"/>
<path d="M166.29 155.107C165.687 155.107 164.56 155.107 163.881 155.107C163.546 155.107 163.32 155.107 163.32 155.107H163.074H162.66H162.238V161.047H162.66H163.074H163.32C163.32 161.047 163.547 161.047 163.881 161.047C164.601 161.047 165.816 161.047 166.29 161.047C167.93 161.047 169.26 159.718 169.26 158.077C169.26 156.437 167.93 155.107 166.29 155.107Z" fill="white"/>
<path d="M126.725 162.131H126.065C126.065 162.131 125.656 162.131 125.131 162.131C125.051 162.131 124.968 162.131 124.884 162.131C124.217 162.131 123.449 162.131 123.095 162.131C121.454 162.131 120.125 163.461 120.125 165.101C120.125 166.741 121.454 168.071 123.095 168.071C123.537 168.071 124.261 168.071 124.884 168.071C124.968 168.071 125.051 168.071 125.131 168.071C125.66 168.071 126.065 168.071 126.065 168.071H126.725H127.146V162.131H126.725Z" fill="white"/>
<path d="M131.198 162.131C130.595 162.131 129.468 162.131 128.789 162.131C128.454 162.131 128.228 162.131 128.228 162.131H127.982H127.568H127.146V168.071H127.568H127.982H128.228C128.228 168.071 128.455 168.071 128.789 168.071C129.51 168.071 130.724 168.071 131.198 168.071C132.838 168.071 134.168 166.741 134.168 165.101C134.168 163.461 132.838 162.131 131.198 162.131Z" fill="white"/>
<path d="M144.695 162.131C146.335 162.131 147.665 163.461 147.665 165.101C147.665 166.741 146.335 168.071 144.695 168.071C143.054 168.071 141.725 166.741 141.725 165.101C141.725 163.461 143.054 162.131 144.695 162.131Z" fill="white"/>
<path d="M158.726 162.131C160.366 162.131 161.696 163.461 161.696 165.101C161.696 166.741 160.366 168.071 158.726 168.071C157.086 168.071 155.756 166.741 155.756 165.101C155.756 163.461 157.086 162.131 158.726 162.131Z" fill="white"/>
<path d="M60.4251 169.15C62.0655 169.15 63.3951 170.48 63.3951 172.12C63.3951 173.761 62.0655 175.09 60.4251 175.09C58.7848 175.09 57.4551 173.761 57.4551 172.12C57.4551 170.48 58.7848 169.15 60.4251 169.15Z" fill="white"/>
<path d="M88.5227 169.15C90.1631 169.15 91.4928 170.48 91.4928 172.12C91.4928 173.761 90.1631 175.09 88.5227 175.09C86.8825 175.09 85.5527 173.761 85.5527 172.12C85.5527 170.48 86.8825 169.15 88.5227 169.15Z" fill="white"/>
<path d="M102.556 169.15C104.196 169.15 105.526 170.48 105.526 172.12C105.526 173.761 104.196 175.09 102.556 175.09C100.916 175.09 99.5859 173.761 99.5859 172.12C99.5859 170.48 100.916 169.15 102.556 169.15Z" fill="white"/>
<path d="M140.766 169.15H140.106C140.106 169.15 139.697 169.15 139.172 169.15C139.092 169.15 139.009 169.15 138.925 169.15C138.258 169.15 137.49 169.15 137.136 169.15C135.495 169.15 134.166 170.481 134.166 172.12C134.166 173.76 135.495 175.09 137.136 175.09C137.578 175.09 138.302 175.09 138.925 175.09C139.009 175.09 139.092 175.09 139.172 175.09C139.701 175.09 140.106 175.09 140.106 175.09H140.766H141.187V169.15H140.766Z" fill="white"/>
<path d="M144.684 169.15H141.174V175.09H144.684H148.195V169.15H144.684Z" fill="white"/>
<path d="M151.706 169.15H148.195V175.09H151.706H155.217V169.15H151.706Z" fill="white"/>
<path d="M158.729 169.15H155.219V175.09H158.729H162.24V169.15H158.729Z" fill="white"/>
<path d="M165.749 169.15H162.238V175.09H165.749H169.26V169.15H165.749Z" fill="white"/>
<path d="M173.327 169.15C172.724 169.15 171.597 169.15 170.918 169.15C170.583 169.15 170.357 169.15 170.357 169.15H170.111H169.697H169.275V175.09H169.697H170.111H170.357C170.357 175.09 170.584 175.09 170.918 175.09C171.639 175.09 172.853 175.09 173.327 175.09C174.967 175.09 176.297 173.761 176.297 172.12C176.297 170.48 174.967 169.15 173.327 169.15Z" fill="white"/>
<path d="M25.329 0.582031C12.0236 0.582031 1.23633 11.3693 1.23633 24.6747C1.23633 37.9802 12.0236 48.7675 25.329 48.7675C38.6345 48.7675 49.4218 37.9802 49.4218 24.6747C49.4218 11.3693 38.6345 0.582031 25.329 0.582031ZM25.329 41.5396C16.0297 41.5396 8.46414 33.9741 8.46414 24.6747C8.46414 15.3754 16.0297 7.80985 25.329 7.80985C34.6283 7.80985 42.1939 15.3754 42.1939 24.6747C42.1939 33.9741 34.6283 41.5396 25.329 41.5396Z" fill="white"/>
<path d="M151.7 0.582031C138.395 0.582031 127.607 11.3693 127.607 24.6747C127.607 37.9802 138.395 48.7675 151.7 48.7675C165.006 48.7675 175.793 37.9802 175.793 24.6747C175.793 11.3693 165.006 0.582031 151.7 0.582031ZM151.7 41.5396C142.401 41.5396 134.835 33.9741 134.835 24.6747C134.835 15.3754 142.401 7.80985 151.7 7.80985C160.999 7.80985 168.565 15.3754 168.565 24.6747C168.565 33.9741 160.999 41.5396 151.7 41.5396Z" fill="white"/>
<path d="M25.329 126.963C12.0236 126.963 1.23633 137.75 1.23633 151.056C1.23633 164.361 12.0236 175.148 25.329 175.148C38.6345 175.148 49.4218 164.361 49.4218 151.056C49.4218 137.75 38.6345 126.963 25.329 126.963ZM25.329 167.921C16.0297 167.921 8.46414 160.355 8.46414 151.056C8.46414 141.756 16.0297 134.191 25.329 134.191C34.6283 134.191 42.1939 141.756 42.1939 151.056C42.1939 160.355 34.6283 167.921 25.329 167.921Z" fill="white"/>
<path d="M25.1145 34.7915C30.8171 34.7915 35.44 30.1687 35.44 24.4661C35.44 18.7635 30.8171 14.1406 25.1145 14.1406C19.4119 14.1406 14.7891 18.7635 14.7891 24.4661C14.7891 30.1687 19.4119 34.7915 25.1145 34.7915Z" fill="white"/>
<path d="M151.499 34.7915C157.202 34.7915 161.825 30.1687 161.825 24.4661C161.825 18.7635 157.202 14.1406 151.499 14.1406C145.797 14.1406 141.174 18.7635 141.174 24.4661C141.174 30.1687 145.797 34.7915 151.499 34.7915Z" fill="white"/>
<path d="M25.1145 161.178C30.8171 161.178 35.44 156.555 35.44 150.853C35.44 145.15 30.8171 140.527 25.1145 140.527C19.4119 140.527 14.7891 145.15 14.7891 150.853C14.7891 156.555 19.4119 161.178 25.1145 161.178Z" fill="white"/>
</svg>
