<svg width="41" height="41" viewBox="0 0 41 41" fill="none" xmlns="http://www.w3.org/2000/svg">
<g clip-path="url(#clip0_1_2718)">
<path d="M16.4086 30.2262C15.7039 31.7668 13.3524 35.3605 6.74455 35.3605C6.41303 35.3605 6.09509 35.2288 5.86067 34.9944C5.62625 34.76 5.49455 34.4421 5.49455 34.1105C5.49455 27.5027 9.0883 25.1512 10.6289 24.4465C10.7783 24.3784 10.9396 24.3403 11.1037 24.3345C11.2678 24.3288 11.4314 24.3554 11.5852 24.4128C11.739 24.4703 11.88 24.5575 12.0001 24.6694C12.1202 24.7813 12.2171 24.9158 12.2852 25.0652C12.3533 25.2146 12.3913 25.3759 12.3971 25.54C12.4029 25.7041 12.3763 25.8677 12.3188 26.0215C12.2614 26.1753 12.1742 26.3163 12.0622 26.4364C11.9503 26.5565 11.8158 26.6534 11.6664 26.7215C10.6617 27.1793 8.44455 28.6527 8.05393 32.8012C12.2024 32.4105 13.6789 30.1934 14.1336 29.1887C14.2017 29.0393 14.2986 28.9048 14.4187 28.7928C14.5388 28.6809 14.6798 28.5937 14.8336 28.5363C14.9874 28.4788 15.151 28.4522 15.3151 28.458C15.4792 28.4638 15.6405 28.5018 15.7899 28.5699C15.9392 28.638 16.0737 28.7349 16.1857 28.855C16.2976 28.9751 16.3848 29.1161 16.4423 29.2699C16.4997 29.4237 16.5263 29.5873 16.5205 29.7514C16.5148 29.9155 16.4767 30.0768 16.4086 30.2262ZM35.4711 7.72616C35.4341 7.11667 35.1753 6.54181 34.7435 6.11004C34.3117 5.67827 33.7369 5.41945 33.1274 5.38241C31.1617 5.26523 26.1383 5.44491 21.9711 9.6121L14.2446 17.3449C14.1285 17.4612 13.9907 17.5534 13.839 17.6164C13.6874 17.6794 13.5247 17.7119 13.3605 17.712C13.0288 17.7123 12.7106 17.5808 12.4758 17.3465C12.241 17.1121 12.109 16.7941 12.1087 16.4624C12.1084 16.1307 12.2399 15.8125 12.4742 15.5777L16.6242 11.4262C16.7111 11.3388 16.7702 11.2276 16.7941 11.1067C16.818 10.9859 16.8057 10.8606 16.7586 10.7467C16.7115 10.6328 16.6318 10.5354 16.5295 10.4667C16.4272 10.398 16.3068 10.3611 16.1836 10.3605H12.1117C11.7824 10.3588 11.4561 10.4226 11.1516 10.5481C10.8471 10.6736 10.5707 10.8584 10.3383 11.0918L4.97893 16.4543C4.65025 16.7827 4.41962 17.1963 4.31291 17.6485C4.2062 18.1008 4.22764 18.5738 4.37482 19.0145C4.522 19.4553 4.7891 19.8463 5.14614 20.1436C5.50318 20.441 5.93603 20.633 6.39612 20.698L12.4071 21.5371L19.3149 28.4449L20.1539 34.459C20.2185 34.9191 20.4104 35.352 20.708 35.7087C21.0057 36.0655 21.3972 36.3318 21.8383 36.4777C22.0952 36.5635 22.3643 36.6073 22.6352 36.6074C22.9632 36.608 23.288 36.5437 23.5911 36.4182C23.8941 36.2927 24.1693 36.1085 24.4008 35.8762L29.7633 30.5168C29.9959 30.2839 30.1803 30.0073 30.3058 29.703C30.4313 29.3987 30.4954 29.0725 30.4946 28.7434V24.6715C30.4943 24.5479 30.4575 24.4272 30.3887 24.3246C30.3199 24.2219 30.2223 24.142 30.1081 24.0949C29.9939 24.0477 29.8683 24.0355 29.7471 24.0597C29.6259 24.0839 29.5147 24.1434 29.4274 24.2309L25.2758 28.3809C25.1544 28.5024 25.0092 28.5976 24.8493 28.6605C24.6895 28.7235 24.5184 28.7528 24.3467 28.7466C24.175 28.7405 24.0064 28.699 23.8514 28.6247C23.6965 28.5505 23.5585 28.4452 23.4461 28.3152C23.2411 28.0672 23.1369 27.7511 23.1542 27.4297C23.1716 27.1084 23.3093 26.8053 23.5399 26.5809L31.2383 18.8824C35.4086 14.7137 35.5883 9.69023 35.4711 7.72304V7.72616Z" fill="white"/>
</g>
<defs>
<clipPath id="clip0_1_2718">
<rect width="40" height="40" fill="white" transform="translate(0.496094 0.359375)"/>
</clipPath>
</defs>
</svg>
