<svg width="16" height="16" viewBox="0 0 16 16" fill="none" xmlns="http://www.w3.org/2000/svg">
<path d="M4.43062 7.86305C4.51418 8.01794 4.67307 8.1145 4.84589 8.1145L7.53694 8.1145L7.53693 13.428C7.53693 13.6963 7.74964 13.9141 8.01171 13.9141C8.27379 13.9141 8.48649 13.6963 8.48649 13.428L8.48649 8.1145L11.1775 8.1145C11.351 8.1145 11.5099 8.01794 11.5928 7.86305C11.677 7.70816 11.6713 7.51892 11.5795 7.36922L8.41369 2.22615C8.32633 2.08487 8.17504 1.99932 8.01171 1.99932C7.84839 1.99932 7.69709 2.08487 7.60974 2.22615L4.44392 7.36922C4.3958 7.44828 4.37112 7.53836 4.37112 7.62845C4.37112 7.70881 4.39137 7.78982 4.43062 7.86305Z" fill="#8547F6"/>
</svg>
