<svg width="41" height="41" viewBox="0 0 41 41" fill="none" xmlns="http://www.w3.org/2000/svg">
<g clip-path="url(#clip0_1_2710)">
<path d="M8.42608 25.3611L14.5073 14.8251L14.1573 14.2189C13.6342 13.3411 13.2959 12.3657 13.1632 11.3525C13.0306 10.3393 13.1064 9.30968 13.3859 8.32683C13.6655 7.34397 14.143 6.42862 14.7891 5.63694C15.4352 4.84526 16.2362 4.19395 17.1431 3.72299C18.0499 3.25203 19.0434 2.97134 20.0626 2.89816C21.0819 2.82498 22.1053 2.96085 23.0701 3.29743C24.0349 3.63401 24.9208 4.1642 25.6734 4.85546C26.4259 5.54672 27.0293 6.38448 27.4464 7.31731C27.5773 7.60212 27.5989 7.92514 27.5069 8.22482C27.415 8.5245 27.2161 8.77989 26.948 8.94231C26.7956 9.0308 26.6262 9.08607 26.4509 9.10448C26.2756 9.1229 26.0984 9.10404 25.931 9.04915C25.7635 8.99426 25.6095 8.90458 25.4792 8.786C25.3488 8.66741 25.245 8.52259 25.1745 8.36106C24.8986 7.73754 24.4982 7.17704 23.9977 6.71401C23.4972 6.25097 22.9073 5.89519 22.2643 5.66853C21.6212 5.44186 20.9386 5.34911 20.2584 5.39598C19.5782 5.44284 18.9148 5.62832 18.3089 5.94103C17.703 6.25373 17.1675 6.68705 16.7353 7.21434C16.303 7.74164 15.9832 8.35177 15.7954 9.00722C15.6077 9.66267 15.5559 10.3496 15.6434 11.0258C15.7309 11.702 15.9558 12.3531 16.3042 12.9392C16.3093 12.9454 16.3135 12.9522 16.3167 12.9595L18.4776 16.7001C18.5874 16.8901 18.6451 17.1057 18.6451 17.3251C18.6451 17.5445 18.5874 17.7601 18.4776 17.9501L12.7558 27.8611C12.4199 28.4265 11.8747 28.8369 11.2384 29.0031C10.602 29.1694 9.92582 29.0782 9.35626 28.7494C8.78669 28.4205 8.36966 27.8804 8.19554 27.2462C8.02143 26.6119 8.10426 25.9346 8.42608 25.3611ZM30.4573 19.1111H28.5292L22.7558 9.11106C22.4199 8.54559 21.8747 8.13526 21.2384 7.96898C20.602 7.80271 19.9258 7.89389 19.3563 8.22276C18.7867 8.55164 18.3697 9.09171 18.1955 9.72594C18.0214 10.3602 18.1043 11.0375 18.4261 11.6111L23.8386 20.9861C23.9482 21.1759 24.1058 21.3336 24.2956 21.4433C24.4853 21.553 24.7006 21.6108 24.9198 21.6111H30.487C33.2823 21.6111 35.6355 23.8986 35.5901 26.6939C35.5686 27.9972 35.039 29.2406 34.114 30.1591C33.1891 31.0776 31.942 31.5986 30.6386 31.6111C30.3192 31.6072 30.0098 31.7223 29.7707 31.934C29.5315 32.1458 29.3797 32.4389 29.3448 32.7564C29.3303 32.9291 29.3519 33.103 29.4082 33.2669C29.4644 33.4309 29.5542 33.5813 29.6718 33.7087C29.7893 33.8361 29.9321 33.9377 30.091 34.007C30.2499 34.0762 30.4215 34.1117 30.5948 34.1111C31.5918 34.1102 32.5786 33.9108 33.4977 33.5244C34.4167 33.1381 35.2496 32.5726 35.9478 31.8609C36.646 31.1492 37.1954 30.3056 37.564 29.3793C37.9326 28.453 38.1131 27.4625 38.0948 26.4657C38.0105 22.3595 34.5714 19.1111 30.4636 19.1111H30.4573ZM33.0901 26.4907C33.0276 25.1454 31.8683 24.1111 30.523 24.1111H18.5292C18.3097 24.111 18.0941 24.1687 17.904 24.2785C17.714 24.3882 17.5561 24.546 17.4464 24.7361L14.9214 29.1111C14.5806 29.6987 14.1236 30.2108 13.5783 30.616C13.033 31.0212 12.4108 31.311 11.7498 31.4678C11.0888 31.6246 10.4028 31.645 9.73358 31.5278C9.0644 31.4106 8.42612 31.1583 7.85771 30.7862C7.28929 30.4141 6.80266 29.9301 6.42752 29.3637C6.05238 28.7973 5.7966 28.1604 5.67578 27.4919C5.55497 26.8234 5.57166 26.1372 5.72484 25.4754C5.87802 24.8135 6.16447 24.1898 6.56671 23.6423C6.76099 23.3893 6.85392 23.073 6.82734 22.7551C6.80076 22.4373 6.65656 22.1407 6.42296 21.9236C6.29381 21.8085 6.14218 21.7215 5.97766 21.668C5.81315 21.6145 5.63933 21.5958 5.4672 21.613C5.29508 21.6302 5.12839 21.6829 4.97769 21.7678C4.82699 21.8528 4.69556 21.968 4.59171 22.1064C3.6275 23.384 3.10094 24.9385 3.09015 26.5392C3.0753 28.1954 3.60913 29.81 4.60833 31.1309C5.60753 32.4519 7.01589 33.4049 8.61366 33.8413C10.2114 34.2778 11.9087 34.173 13.4407 33.5434C14.9727 32.9138 16.2532 31.7949 17.0823 30.3611L17.8042 29.1111H30.5901C30.9288 29.1114 31.2641 29.043 31.5755 28.9099C31.8869 28.7768 32.1681 28.5819 32.4018 28.3368C32.6356 28.0918 32.8172 27.8018 32.9355 27.4844C33.0538 27.1671 33.1064 26.829 33.0901 26.4907Z" fill="white"/>
</g>
<defs>
<clipPath id="clip0_1_2710">
<rect width="40" height="40" fill="white" transform="translate(0.589844 0.359375)"/>
</clipPath>
</defs>
</svg>
