<svg width="619" height="490" viewBox="0 0 619 490" fill="none" xmlns="http://www.w3.org/2000/svg">
<path opacity="0.5" d="M115.125 298.687L58.7293 266.127C57.7645 265.57 57.8859 264.597 58.9996 263.955L114.853 231.708C115.966 231.064 117.652 230.995 118.615 231.551L175.011 264.111C175.976 264.669 175.855 265.642 174.741 266.284L118.888 298.531C117.774 299.174 116.089 299.243 115.125 298.687Z" fill="#6D1DFF"/>
<path d="M116.715 315.388C115.711 315.388 114.747 315.179 114.011 314.755L31.5133 267.126C30.7012 266.657 30.2534 265.977 30.2534 265.212C30.2534 264.338 30.8566 263.489 31.9089 262.881L113.614 215.71C115.44 214.655 118.129 214.555 119.734 215.482L202.232 263.111C203.045 263.58 203.492 264.26 203.492 265.025C203.492 265.898 202.888 266.747 201.836 267.355L120.131 314.527C119.142 315.095 117.901 315.388 116.715 315.388ZM114.626 313.688C115.844 314.392 118.084 314.288 119.516 313.459L201.221 266.287C201.873 265.911 202.262 265.439 202.262 265.022C202.262 264.629 201.911 264.343 201.617 264.175L119.119 216.544C117.903 215.842 115.662 215.945 114.229 216.773L32.5238 263.945C31.8723 264.321 31.4833 264.794 31.4833 265.21C31.4833 265.605 31.8345 265.889 32.1282 266.058L114.626 313.688Z" fill="#8547F6"/>
<path d="M175.654 242.052V231.174L157.933 231.186L118.615 208.485C117.651 207.928 115.966 207.999 114.851 208.642L75.7086 231.241L58.0753 231.252L58.0779 242.158H58.0884C58.104 242.496 58.3064 242.818 58.7268 243.061L115.123 275.621C116.088 276.179 117.772 276.108 118.887 275.465L174.74 243.218C175.321 242.884 175.625 242.461 175.654 242.052Z" fill="url(#paint0_linear_85_6606)"/>
<path d="M115.125 264.742L58.7285 232.182C57.7637 231.624 57.8851 230.652 58.9987 230.009L114.852 197.763C115.965 197.119 117.651 197.05 118.614 197.606L175.011 230.166C175.975 230.724 175.854 231.696 174.74 232.339L118.887 264.585C117.774 265.229 116.088 265.298 115.125 264.742Z" fill="url(#paint1_linear_85_6606)"/>
<path d="M115.323 260.929L65.3332 232.068C64.4781 231.574 64.5851 230.711 65.5722 230.142L115.081 201.558C116.068 200.987 117.562 200.926 118.417 201.419L168.407 230.281C169.262 230.774 169.155 231.637 168.168 232.206L118.659 260.791C117.672 261.361 116.178 261.423 115.323 260.929Z" fill="#6D1DFF"/>
<path d="M115.449 258.512L69.5227 231.995C68.7367 231.542 68.836 230.75 69.7421 230.226L115.227 203.965C116.135 203.441 117.507 203.384 118.293 203.838L164.219 230.354C165.005 230.807 164.906 231.6 164 232.123L118.515 258.384C117.606 258.909 116.234 258.965 115.449 258.512Z" fill="#6C24F5"/>
<path d="M115.816 229.446L110.445 226.346L113.378 224.652L118.749 227.753L115.816 229.446Z" fill="#8547F6"/>
<path d="M125.796 229.006L120.426 232.107L117.493 230.413L122.864 227.312L125.796 229.006Z" fill="#8547F6"/>
<path d="M114.596 230.15L111.663 231.844L108.731 230.15L111.663 228.457L114.596 230.15Z" fill="#8547F6"/>
<path d="M124.731 236.004L121.799 237.696L113.342 232.814L116.275 231.121L124.731 236.004Z" fill="#8547F6"/>
<path d="M116.871 403.294C115.727 403.294 114.585 402.999 113.564 402.411L0.97136 337.468C0.362957 337.117 0 336.487 0 335.785C0 335.082 0.362957 334.453 0.972665 334.103L75.1691 291.266L75.7841 292.331L1.58629 335.169C1.26512 335.354 1.22986 335.661 1.22986 335.785C1.22986 335.909 1.26381 336.217 1.58629 336.402L114.179 401.346C115.839 402.304 117.902 402.304 119.562 401.345L213.653 348.141L214.258 349.211L120.173 402.413C119.156 403 118.013 403.294 116.871 403.294Z" fill="#8547F6"/>
<path d="M415.108 463.499C412.929 463.499 410.844 463.058 409.289 462.161L204.701 344.042C203.086 343.108 202.197 341.788 202.197 340.325C202.197 338.605 203.443 336.9 205.613 335.645L223.421 325.364C227.341 323.1 233.312 322.866 236.73 324.839L441.318 442.958C442.933 443.89 443.822 445.21 443.822 446.674C443.822 448.394 442.578 450.1 440.407 451.353L422.598 461.634C420.461 462.867 417.717 463.499 415.108 463.499ZM230.91 324.71C228.526 324.71 226.003 325.293 224.034 326.429L206.226 336.711C204.447 337.738 203.426 339.056 203.426 340.325C203.426 341.331 204.097 342.271 205.315 342.975L409.903 461.094C412.983 462.875 418.402 462.637 421.983 460.568L439.792 450.286C441.571 449.26 442.593 447.943 442.593 446.672C442.593 445.667 441.921 444.726 440.704 444.023L236.116 325.904C234.728 325.103 232.865 324.71 230.91 324.71Z" fill="#8547F6"/>
<path d="M406.879 236.54C405.742 236.54 404.604 236.246 403.589 235.662L369.005 215.694C368.231 215.247 367.77 214.447 367.77 213.553C367.77 212.658 368.232 211.858 369.005 211.412L443.939 168.148C445.964 166.977 448.485 166.976 450.518 168.148L485.102 188.116C485.876 188.563 486.337 189.363 486.337 190.257C486.337 191.151 485.876 191.952 485.102 192.398L410.167 235.662C409.154 236.248 408.016 236.54 406.879 236.54ZM447.228 168.5C446.302 168.5 445.378 168.737 444.553 169.214L369.619 212.477C369.23 212.701 368.997 213.104 368.997 213.553C368.997 214.002 369.23 214.404 369.619 214.629L404.202 234.596C405.852 235.549 407.902 235.549 409.553 234.596L484.487 191.334C484.876 191.11 485.108 190.708 485.108 190.258C485.108 189.809 484.876 189.407 484.487 189.183L449.903 169.215C449.078 168.737 448.152 168.5 447.228 168.5Z" fill="#8547F6"/>
<path d="M446.512 307.843C445.001 307.843 443.492 307.454 442.143 306.676L408.313 287.143C407.607 286.735 407.185 286.005 407.185 285.19C407.185 284.375 407.607 283.644 408.313 283.237L442.142 263.705C444.837 262.15 448.183 262.15 450.878 263.705L484.708 283.238C485.415 283.647 485.836 284.377 485.836 285.191C485.836 286.006 485.415 286.737 484.708 287.144L450.879 306.676C449.532 307.455 448.023 307.843 446.512 307.843ZM446.511 263.769C445.213 263.769 443.915 264.103 442.757 264.773L408.928 284.305C408.607 284.49 408.415 284.822 408.415 285.193C408.415 285.563 408.606 285.895 408.928 286.08L442.758 305.613C445.073 306.952 447.951 306.952 450.266 305.613L484.095 286.082C484.416 285.896 484.608 285.566 484.608 285.194C484.608 284.823 484.417 284.492 484.095 284.306L450.264 264.773C449.106 264.102 447.808 263.769 446.511 263.769Z" fill="#8547F6"/>
<path d="M244.902 10.0785L262.047 0.208234L262.048 0.238261C262.743 -0.123387 263.62 -0.0933591 264.59 0.466737L412.243 85.715C414.464 86.9971 416.263 90.436 416.263 93.3958V429.255C416.263 430.887 415.704 432.009 414.841 432.493L414.866 432.507L397.733 442.374L397.355 423.7L264.589 347.048C262.368 345.766 260.569 342.327 260.569 339.367V18.8951C260.224 19.9839 259.962 20.7777 259.924 20.8039C259.799 20.8874 244.902 10.0785 244.902 10.0785Z" fill="url(#paint2_radial_85_6606)"/>
<path d="M416.159 92.1604L371.544 117.918L364.806 114.028L412.96 86.2266C414.548 87.5269 415.807 89.8718 416.159 92.1604Z" fill="url(#paint3_linear_85_6606)"/>
<path d="M247.555 356.854L395.209 442.102C397.429 443.384 399.228 442.024 399.228 439.063V103.205C399.228 100.245 397.428 96.8059 395.209 95.5238L247.555 10.2756C245.334 8.99347 243.535 10.3539 243.535 13.315V349.174C243.535 352.134 245.335 355.573 247.555 356.854Z" fill="url(#paint4_linear_85_6606)"/>
<path d="M243.535 330.795L399.228 420.686V121.593L243.535 31.7031V330.795Z" fill="#6D1DFF"/>
<path d="M243.535 330.795L399.228 420.686V121.593L243.535 31.7031V330.795Z" fill="#6D1DFF"/>
<g opacity="0.51">
<path d="M243.535 320.301L399.228 410.19V131.167L243.535 41.2773V320.301Z" fill="#752CFF"/>
</g>
<path d="M309.253 61.0265L337.417 77.3437C338.24 77.8189 338.939 77.9599 339.242 77.187C339.344 76.9259 339.401 76.6073 339.401 76.2379C339.401 74.773 338.511 73.0705 337.412 72.436L308.95 56.0039C308.864 55.9543 308.783 55.855 308.697 55.8785C307.8 56.1292 307.651 56.3029 307.651 57.6541L307.778 58.0341C307.778 59.4976 308.154 60.392 309.253 61.0265Z" fill="#8547F6"/>
<path d="M308.69 55.8894C308.589 56.1492 308.532 56.4665 308.532 56.8333C308.532 58.2982 309.423 60.0007 310.521 60.6352L338.983 77.0673C339.072 77.1182 339.157 77.147 339.242 77.1822C338.939 77.959 338.233 78.2175 337.409 77.7423L308.947 61.3102C307.848 60.6757 306.957 58.9732 306.957 57.5083C306.959 56.161 307.714 55.4964 308.69 55.8894Z" fill="#BCD5FF"/>
<path d="M408.313 131.084L408.634 130.899C409.156 130.597 409.629 130.582 410.002 130.779L410.001 130.762L411.21 131.457L410.619 131.505C410.729 131.787 410.79 132.13 410.79 132.53V151.978C410.79 153.565 409.824 155.411 408.634 156.098L408.313 156.284C408.162 156.371 408.015 156.434 407.873 156.477L408.182 157.131L406.893 156.392L406.917 156.389C406.455 156.129 406.154 155.528 406.154 154.653V135.205C406.156 133.617 407.122 131.772 408.313 131.084Z" fill="#E9FFFF"/>
<path d="M409.538 156.983L409.859 156.798C411.05 156.11 412.016 154.265 412.016 152.677V133.229C412.016 131.642 411.05 130.911 409.859 131.599L409.538 131.784C408.347 132.472 407.381 134.317 407.381 135.904V155.353C407.381 156.94 408.347 157.671 409.538 156.983Z" fill="#BCD5FF"/>
<path d="M408.313 160.764L408.634 160.579C409.156 160.277 409.629 160.261 410.002 160.459L410.001 160.442L411.21 161.137L410.619 161.186C410.729 161.468 410.79 161.811 410.79 162.211V181.659C410.79 183.246 409.824 185.092 408.634 185.779L408.313 185.965C408.162 186.052 408.015 186.115 407.873 186.158L408.182 186.812L406.893 186.073L406.917 186.07C406.455 185.81 406.154 185.209 406.154 184.334V164.886C406.156 163.297 407.122 161.451 408.313 160.764Z" fill="#E9FFFF"/>
<path d="M409.538 186.668L409.859 186.483C411.05 185.795 412.016 183.95 412.016 182.362V162.913C412.016 161.325 411.05 160.594 409.859 161.282L409.538 161.468C408.347 162.156 407.381 164.001 407.381 165.588V185.036C407.381 186.625 408.347 187.355 409.538 186.668Z" fill="#BCD5FF"/>
<path opacity="0.6" d="M243.535 349.173V159.862C249.281 143.916 260.742 128.678 273.955 121.051L377.802 181.007C358.832 191.96 343.455 218.595 343.455 240.498V406.259C343.455 408.13 343.289 410.048 343.036 411.981L247.555 356.855C245.335 355.573 243.535 352.134 243.535 349.173Z" fill="#2A0076"/>
<path d="M244.657 100.117L255.223 94.0314V94.0405C255.362 93.9491 255.545 93.9439 255.75 94.0627L388.133 170.493C388.565 170.742 388.915 171.412 388.915 171.988V196.978C388.915 197.255 388.83 197.455 388.698 197.566L388.702 197.568L388.694 197.574C388.684 197.581 388.672 197.585 388.662 197.592L377.99 203.738L377.905 191.664L255.75 121.138C255.318 120.889 254.968 120.219 254.968 119.643V111.067L244.657 100.117Z" fill="url(#paint5_linear_85_6606)"/>
<path d="M245.126 127.256L377.508 203.687C377.941 203.936 378.291 203.671 378.291 203.095V178.105C378.291 177.529 377.941 176.859 377.508 176.61L245.126 100.18C244.694 99.9304 244.344 100.195 244.344 100.771V125.761C244.344 126.337 244.695 127.007 245.126 127.256Z" fill="url(#paint6_linear_85_6606)"/>
<path opacity="0.6" d="M263.389 122.191L366.466 182.801C363.28 185.544 360.263 188.684 357.495 192.129L253.657 132.178C256.645 128.456 259.921 125.083 263.389 122.191Z" fill="#6D1DFF"/>
<path d="M248.903 119.743L373.731 191.812C374.027 191.983 374.267 191.802 374.267 191.408V185.129C374.267 184.735 374.027 184.278 373.731 184.107L248.903 112.037C248.608 111.866 248.368 112.047 248.368 112.442V118.72C248.369 119.115 248.608 119.573 248.903 119.743Z" fill="#6D1DFF"/>
<path d="M248.903 112.037L251.441 113.503V116.892C251.441 117.287 251.68 117.744 251.976 117.915L374.267 188.52V191.409C374.267 191.803 374.027 191.983 373.731 191.814L248.903 119.744C248.608 119.573 248.368 119.116 248.368 118.722V112.443C248.368 112.047 248.608 111.866 248.903 112.037Z" fill="#6C24F5"/>
<path opacity="0.96" d="M300.374 454.316L196.526 394.36C212.665 385.042 225.748 362.382 225.748 343.748V177.986C225.748 156.083 241.127 129.447 260.095 118.496L363.943 178.453C344.973 189.405 329.596 216.039 329.596 237.943V403.704C329.594 422.339 316.512 444.998 300.374 454.316Z" fill="url(#paint7_linear_85_6606)"/>
<path opacity="0.8" d="M260.094 118.496L363.942 178.453C363.109 178.933 362.286 179.455 361.468 179.994L361.461 179.988L257.625 120.033C258.442 119.495 259.264 118.975 260.094 118.496Z" fill="#6C24F5"/>
<path d="M377.018 244.151L381.113 246.516V243.772L377.018 241.406V244.151Z" fill="#8547F6"/>
<path d="M377.018 262.714L381.113 265.078V249.017L377.018 246.652V262.714Z" fill="#8547F6"/>
<path d="M377.018 271.594L381.113 273.96V267.583L377.018 265.219V271.594Z" fill="#8547F6"/>
<path d="M377.018 280.794L381.113 283.159V276.784L377.018 274.418V280.794Z" fill="#8547F6"/>
<path d="M370.911 249.505L375.006 251.87V245.493L370.911 243.129V249.505Z" fill="#8547F6"/>
<path d="M370.911 261.696L375.006 264.06V254.698L370.911 252.332V261.696Z" fill="#8547F6"/>
<path d="M370.911 272.913L375.006 275.278V267.247L370.911 264.883V272.913Z" fill="#8547F6"/>
<path d="M377.018 290.001L381.113 292.366V285.989L377.018 283.625V290.001Z" fill="#8547F6"/>
<path d="M370.911 240.627L375.006 242.993V240.249L370.911 237.883V240.627Z" fill="#8547F6"/>
<path d="M373.967 297.16L381.115 301.288V298.623L373.967 294.496V297.16Z" fill="#8547F6"/>
<path opacity="0.5" d="M534.23 411.812L477.833 379.252C476.869 378.695 476.99 377.722 478.104 377.08L533.957 344.833C535.07 344.189 536.756 344.12 537.719 344.676L594.115 377.236C595.08 377.794 594.959 378.767 593.845 379.409L537.992 411.656C536.88 412.299 535.194 412.368 534.23 411.812Z" fill="#6D1DFF"/>
<path d="M535.828 426.432C534.861 426.432 533.932 426.231 533.223 425.821L454.179 380.186C453.391 379.73 452.958 379.071 452.958 378.329C452.96 377.483 453.542 376.661 454.559 376.073L532.843 330.875C534.602 329.862 537.19 329.765 538.734 330.657L617.778 376.294C618.564 376.748 618.999 377.406 618.999 378.149C618.999 378.995 618.415 379.816 617.4 380.404L539.115 425.602C538.162 426.152 536.968 426.432 535.828 426.432ZM536.14 331.279C535.207 331.279 534.213 331.504 533.456 331.942L455.171 377.14C454.555 377.495 454.187 377.94 454.187 378.329C454.187 378.693 454.516 378.96 454.793 379.119L533.837 424.755C534.999 425.427 537.132 425.326 538.498 424.537L616.782 379.338C617.398 378.983 617.767 378.538 617.767 378.149C617.767 377.786 617.438 377.52 617.161 377.359L538.117 331.722C537.6 331.423 536.889 331.279 536.14 331.279Z" fill="#8547F6"/>
<path d="M594.76 356.638V345.76L577.039 345.772L537.723 323.071C536.758 322.514 535.072 322.584 533.959 323.228L494.816 345.826L477.183 345.838L477.185 356.744H477.196C477.211 357.082 477.414 357.404 477.834 357.647L534.23 390.207C535.195 390.765 536.879 390.694 537.994 390.052L593.847 357.805C594.427 357.47 594.731 357.047 594.76 356.638Z" fill="url(#paint8_radial_85_6606)"/>
<path d="M534.231 379.328L477.836 346.768C476.871 346.211 476.992 345.237 478.106 344.595L533.959 312.348C535.073 311.705 536.758 311.636 537.722 312.193L594.118 344.753C595.083 345.311 594.961 346.283 593.848 346.926L537.995 379.172C536.881 379.815 535.195 379.884 534.231 379.328Z" fill="url(#paint9_linear_85_6606)"/>
<path d="M534.231 379.328L477.836 346.768C476.871 346.211 476.992 345.237 478.106 344.595L533.959 312.348C535.073 311.705 536.758 311.636 537.722 312.193L594.118 344.753C595.083 345.311 594.961 346.283 593.848 346.926L537.995 379.172C536.881 379.815 535.195 379.884 534.231 379.328Z" fill="url(#paint10_linear_85_6606)"/>
<path d="M534.428 375.515L484.438 346.654C483.583 346.16 483.69 345.297 484.679 344.728L534.188 316.144C535.175 315.573 536.668 315.512 537.524 316.005L587.513 344.867C588.368 345.36 588.261 346.223 587.274 346.792L537.765 375.377C536.777 375.947 535.283 376.009 534.428 375.515Z" fill="#6D1DFF"/>
<path d="M534.555 373.093L488.628 346.576C487.842 346.123 487.941 345.331 488.847 344.807L534.333 318.547C535.24 318.023 536.612 317.966 537.398 318.42L583.325 344.936C584.111 345.389 584.011 346.182 583.104 346.705L537.619 372.966C536.713 373.49 535.341 373.546 534.555 373.093Z" fill="#6C24F5"/>
<path d="M534.922 344.032L529.551 340.932L532.483 339.238L537.855 342.339L534.922 344.032Z" fill="#8547F6"/>
<path d="M544.902 343.596L539.532 346.696L536.598 345.003L541.97 341.902L544.902 343.596Z" fill="#8547F6"/>
<path d="M533.701 344.736L530.769 346.43L527.837 344.736L530.769 343.043L533.701 344.736Z" fill="#8547F6"/>
<path d="M543.838 350.589L540.906 352.282L532.448 347.4L535.382 345.707L543.838 350.589Z" fill="#8547F6"/>
<path opacity="0.4" d="M594.771 331.131L570.781 331.274L537.724 312.189C536.76 311.631 535.074 311.702 533.96 312.344L500.451 331.69L477.188 331.829V345.962L477.203 345.969C477.255 346.268 477.461 346.548 477.836 346.763L534.232 379.323C535.197 379.881 536.881 379.81 537.996 379.168L593.849 346.921C594.357 346.627 594.648 346.266 594.734 345.905L594.771 345.885V331.131Z" fill="#8547F6"/>
<path d="M594.761 332.529V321.651L577.04 321.662L537.723 298.962C536.758 298.405 535.072 298.475 533.959 299.118L494.816 321.716L477.183 321.728L477.185 332.633H477.196C477.211 332.971 477.414 333.294 477.834 333.537L534.23 366.097C535.195 366.654 536.879 366.584 537.994 365.94L593.847 333.693C594.428 333.36 594.732 332.936 594.761 332.529Z" fill="url(#paint11_radial_85_6606)"/>
<path d="M534.232 355.218L477.836 322.658C476.871 322.101 476.992 321.128 478.106 320.486L533.959 288.239C535.073 287.596 536.758 287.526 537.722 288.083L594.118 320.643C595.083 321.2 594.961 322.173 593.848 322.815L537.995 355.062C536.882 355.705 535.197 355.776 534.232 355.218Z" fill="url(#paint12_linear_85_6606)"/>
<path d="M534.43 351.41L484.44 322.548C483.585 322.055 483.692 321.192 484.681 320.623L534.19 292.038C535.177 291.468 536.67 291.406 537.526 291.9L587.515 320.761C588.37 321.255 588.263 322.118 587.276 322.687L537.767 351.271C536.779 351.84 535.285 351.903 534.43 351.41Z" fill="#6D1DFF"/>
<path d="M534.557 348.991L488.63 322.475C487.844 322.022 487.943 321.229 488.849 320.706L534.335 294.445C535.242 293.921 536.614 293.864 537.4 294.318L583.327 320.835C584.113 321.288 584.013 322.08 583.106 322.604L537.621 348.864C536.715 349.388 535.343 349.444 534.557 348.991Z" fill="#6C24F5"/>
<path d="M534.922 319.926L529.551 316.825L532.483 315.133L537.855 318.234L534.922 319.926Z" fill="#8547F6"/>
<path d="M544.902 319.486L539.532 322.586L536.598 320.894L541.97 317.793L544.902 319.486Z" fill="#8547F6"/>
<path d="M533.701 320.631L530.769 322.324L527.837 320.631L530.769 318.938L533.701 320.631Z" fill="#8547F6"/>
<path d="M543.838 326.479L540.906 328.173L532.448 323.29L535.382 321.598L543.838 326.479Z" fill="#8547F6"/>
<path d="M493.985 402.39L431.694 437.773L432.3 438.842L494.591 403.459L493.985 402.39Z" fill="#8547F6"/>
<g opacity="0.32">
<path d="M291.311 297.248L310.311 308.173L310.307 306.058L291.307 295.133L291.311 297.248Z" fill="#6C24F5"/>
<path d="M281.567 291.646L288.408 295.58L288.404 293.465L281.563 289.531L281.567 291.646Z" fill="#6C24F5"/>
<path d="M274.015 287.299L278.664 289.972L278.66 287.857L274.012 285.184L274.015 287.299Z" fill="#6C24F5"/>
<path d="M299.968 307.053L310.32 313.006L310.316 310.891L299.964 304.938L299.968 307.053Z" fill="#6C24F5"/>
<path d="M284.378 298.088L297.064 305.383L297.061 303.268L284.374 295.973L284.378 298.088Z" fill="#6C24F5"/>
<path d="M276.826 293.748L281.475 296.42L281.471 294.305L276.823 291.633L276.826 293.748Z" fill="#6C24F5"/>
<path d="M269.64 289.615L274.289 292.288L274.285 290.173L269.637 287.5L269.64 289.615Z" fill="#6C24F5"/>
<path d="M302.838 313.529L310.329 317.836L310.325 315.721L302.835 311.414L302.838 313.529Z" fill="#6C24F5"/>
<path d="M297.374 310.388L299.935 311.861L299.931 309.746L297.372 308.273L297.374 310.388Z" fill="#6C24F5"/>
<path d="M289.823 306.043L294.471 308.717L294.467 306.602L289.819 303.93L289.823 306.043Z" fill="#6C24F5"/>
<path d="M282.689 306.771L310.337 322.669L310.333 320.554L282.686 304.656L282.689 306.771Z" fill="#6C24F5"/>
<path d="M272.945 301.165L279.787 305.1L279.783 302.985L272.942 299.051L272.945 301.165Z" fill="#6C24F5"/>
<path d="M302.852 323.193L310.342 327.5L310.339 325.385L302.849 321.078L302.852 323.193Z" fill="#6C24F5"/>
<path d="M285.274 313.084L299.95 321.523L299.946 319.408L285.27 310.969L285.274 313.084Z" fill="#6C24F5"/>
<path d="M277.723 308.74L282.372 311.414L282.368 309.299L277.719 306.625L277.723 308.74Z" fill="#6C24F5"/>
<path d="M295.027 323.521L310.353 332.334L310.349 330.219L295.024 321.406L295.027 323.521Z" fill="#6C24F5"/>
<path d="M281.041 315.478L292.124 321.852L292.121 319.737L281.037 313.363L281.041 315.478Z" fill="#6C24F5"/>
<path d="M270.646 309.498L278.137 313.806L278.134 311.691L270.644 307.383L270.646 309.498Z" fill="#6C24F5"/>
<path d="M305.185 334.185L310.36 337.162L310.356 335.047L305.181 332.07L305.185 334.185Z" fill="#6C24F5"/>
<path d="M295.441 328.584L302.281 332.518L302.277 330.402L295.437 326.469L295.441 328.584Z" fill="#6C24F5"/>
<path d="M281.517 320.58L292.538 326.919L292.536 324.803L281.513 318.465L281.517 320.58Z" fill="#6C24F5"/>
<path d="M294.513 332.877L310.369 341.995L310.365 339.88L294.509 330.762L294.513 332.877Z" fill="#6C24F5"/>
<path d="M276.754 322.662L291.611 331.204L291.607 329.089L276.751 320.547L276.754 322.662Z" fill="#6C24F5"/>
<path d="M269.204 318.326L273.852 320.999L273.848 318.883L269.2 316.211L269.204 318.326Z" fill="#6C24F5"/>
<path d="M261.954 314.154L266.603 316.827L266.6 314.713L261.95 312.039L261.954 314.154Z" fill="#6C24F5"/>
<path d="M300.878 341.365L310.378 346.828L310.374 344.713L300.874 339.25L300.878 341.365Z" fill="#6C24F5"/>
<path d="M252.773 275.085L239.598 267.51L239.595 265.395L252.769 272.971L252.773 275.085Z" fill="#6C24F5"/>
<path d="M249.959 278.294L239.607 272.342L239.603 270.227L249.955 276.179L249.959 278.294Z" fill="#6C24F5"/>
<path d="M247.105 281.477L239.615 277.17L239.611 275.055L247.101 279.362L247.105 281.477Z" fill="#6C24F5"/>
<path d="M250.52 288.271L239.624 282.006L239.621 279.891L250.516 286.156L250.52 288.271Z" fill="#6C24F5"/>
<path d="M247.123 291.142L239.633 286.834L239.629 284.719L247.119 289.027L247.123 291.142Z" fill="#6C24F5"/>
<path d="M249.139 297.132L239.638 291.67L239.635 289.555L249.135 295.017L249.139 297.132Z" fill="#6C24F5"/>
<path d="M244.823 299.473L239.647 296.498L239.643 294.383L244.82 297.358L244.823 299.473Z" fill="#6C24F5"/>
<path d="M249.688 307.098L239.657 301.33L239.653 299.215L249.684 304.983L249.688 307.098Z" fill="#6C24F5"/>
<path d="M249.165 311.625L239.664 306.162L239.661 304.047L249.161 309.509L249.165 311.625Z" fill="#6C24F5"/>
<path d="M293.936 337.373L297.975 339.695L297.973 337.58L293.933 335.258L293.936 337.373Z" fill="#6C24F5"/>
<path d="M281.94 330.471L291.033 335.701L291.029 333.586L281.936 328.355L281.94 330.471Z" fill="#6C24F5"/>
<path d="M291.311 241.65L310.311 252.575L310.307 250.46L291.307 239.535L291.311 241.65Z" fill="#6C24F5"/>
<path d="M281.567 236.045L288.408 239.978L288.404 237.863L281.563 233.93L281.567 236.045Z" fill="#6C24F5"/>
<path d="M274.015 231.709L278.664 234.383L278.66 232.268L274.012 229.594L274.015 231.709Z" fill="#6C24F5"/>
<path d="M299.968 251.451L310.32 257.404L310.316 255.289L299.964 249.336L299.968 251.451Z" fill="#6C24F5"/>
<path d="M284.378 242.494L297.064 249.79L297.061 247.675L284.374 240.379L284.378 242.494Z" fill="#6C24F5"/>
<path d="M276.826 238.146L281.475 240.819L281.471 238.704L276.823 236.031L276.826 238.146Z" fill="#6C24F5"/>
<path d="M269.64 234.017L274.289 236.69L274.285 234.575L269.637 231.902L269.64 234.017Z" fill="#6C24F5"/>
<path d="M302.838 257.928L310.329 262.236L310.325 260.12L302.835 255.812L302.838 257.928Z" fill="#6C24F5"/>
<path d="M297.374 254.787L299.935 256.26L299.931 254.145L297.372 252.672L297.374 254.787Z" fill="#6C24F5"/>
<path d="M289.823 250.451L294.471 253.125L294.467 251.01L289.819 248.336L289.823 250.451Z" fill="#6C24F5"/>
<path d="M282.689 251.17L310.337 267.068L310.333 264.953L282.686 249.055L282.689 251.17Z" fill="#6C24F5"/>
<path d="M272.945 245.564L279.787 249.498L279.783 247.383L272.942 243.449L272.945 245.564Z" fill="#6C24F5"/>
<path d="M302.852 267.596L310.342 271.903L310.339 269.788L302.849 265.48L302.852 267.596Z" fill="#6C24F5"/>
<path d="M285.274 257.486L299.95 265.925L299.946 263.81L285.27 255.371L285.274 257.486Z" fill="#6C24F5"/>
<path d="M277.723 253.138L282.372 255.811L282.368 253.696L277.719 251.023L277.723 253.138Z" fill="#6C24F5"/>
<path d="M295.027 267.92L310.353 276.732L310.349 274.617L295.024 265.805L295.027 267.92Z" fill="#6C24F5"/>
<path d="M281.041 259.877L292.124 266.249L292.121 264.134L281.037 257.762L281.041 259.877Z" fill="#6C24F5"/>
<path d="M270.646 253.9L278.137 258.207L278.134 256.092L270.644 251.785L270.646 253.9Z" fill="#6C24F5"/>
<path d="M305.185 278.592L310.36 281.568L310.356 279.453L305.181 276.477L305.185 278.592Z" fill="#6C24F5"/>
<path d="M295.441 272.986L302.281 276.92L302.277 274.806L295.437 270.871L295.441 272.986Z" fill="#6C24F5"/>
<path d="M281.517 264.978L292.538 271.317L292.536 269.202L281.513 262.863L281.517 264.978Z" fill="#6C24F5"/>
<path d="M294.513 277.279L310.369 286.396L310.365 284.281L294.509 275.164L294.513 277.279Z" fill="#6C24F5"/>
<path d="M276.754 267.06L291.611 275.603L291.607 273.488L276.751 264.945L276.754 267.06Z" fill="#6C24F5"/>
<path d="M269.204 262.724L273.852 265.397L273.848 263.282L269.2 260.609L269.204 262.724Z" fill="#6C24F5"/>
<path d="M261.954 258.556L266.603 261.229L266.6 259.114L261.95 256.441L261.954 258.556Z" fill="#6C24F5"/>
<path d="M300.878 285.763L310.378 291.226L310.374 289.111L300.874 283.648L300.878 285.763Z" fill="#6C24F5"/>
<path d="M252.773 219.491L239.598 211.916L239.595 209.801L252.769 217.376L252.773 219.491Z" fill="#6C24F5"/>
<path d="M249.959 222.692L239.607 216.739L239.603 214.625L249.955 220.577L249.959 222.692Z" fill="#6C24F5"/>
<path d="M247.105 225.883L239.615 221.576L239.611 219.461L247.101 223.768L247.105 225.883Z" fill="#6C24F5"/>
<path d="M250.52 232.668L239.624 226.404L239.621 224.289L250.516 230.555L250.52 232.668Z" fill="#6C24F5"/>
<path d="M247.123 235.543L239.633 231.236L239.629 229.121L247.119 233.428L247.123 235.543Z" fill="#6C24F5"/>
<path d="M249.139 241.531L239.638 236.068L239.635 233.953L249.135 239.416L249.139 241.531Z" fill="#6C24F5"/>
<path d="M244.823 243.877L239.647 240.9L239.643 238.785L244.82 241.762L244.823 243.877Z" fill="#6C24F5"/>
<path d="M249.688 251.496L239.657 245.728L239.653 243.613L249.684 249.381L249.688 251.496Z" fill="#6C24F5"/>
<path d="M249.165 256.027L239.664 250.564L239.661 248.449L249.161 253.912L249.165 256.027Z" fill="#6C24F5"/>
<path d="M293.936 281.771L297.975 284.094L297.973 281.979L293.933 279.656L293.936 281.771Z" fill="#6C24F5"/>
<path d="M281.94 274.869L291.033 280.099L291.029 277.984L281.936 272.754L281.94 274.869Z" fill="#6C24F5"/>
<path d="M271.578 349.666L286.924 358.49L286.92 356.375L271.574 347.551L271.578 349.666Z" fill="#6C24F5"/>
<path d="M261.07 343.623L267.114 347.098L267.11 344.983L261.066 341.508L261.07 343.623Z" fill="#6C24F5"/>
</g>
<path d="M187.983 457.888C186.676 457.888 185.37 457.551 184.206 456.879L151.267 437.861C150.251 437.274 149.645 436.224 149.645 435.052C149.645 433.879 150.251 432.828 151.268 432.242L184.204 413.226C186.533 411.883 189.429 411.883 191.758 413.226L224.696 432.244C225.711 432.83 226.317 433.879 226.319 435.052C226.319 436.224 225.713 437.275 224.696 437.863L191.76 456.879C190.595 457.551 189.288 457.888 187.983 457.888ZM187.981 413.446C186.889 413.446 185.794 413.728 184.819 414.29L151.883 433.306C151.253 433.669 150.877 434.322 150.877 435.051C150.877 435.779 151.253 436.432 151.883 436.795L184.822 455.812C186.774 456.939 189.197 456.939 191.147 455.812L224.083 436.796C224.714 436.433 225.09 435.78 225.09 435.051C225.09 434.322 224.713 433.671 224.083 433.308L191.146 414.29C190.168 413.728 189.074 413.446 187.981 413.446Z" fill="#8547F6"/>
<path d="M521.059 262.964C519.707 262.964 518.356 262.617 517.15 261.921L483.744 242.635C482.853 242.12 482.322 241.2 482.321 240.171C482.321 239.142 482.852 238.221 483.744 237.706L493.947 231.863C496.357 230.473 499.351 230.472 501.762 231.864L535.168 251.151C536.06 251.667 536.591 252.587 536.591 253.615C536.591 254.644 536.06 255.564 535.168 256.08L524.965 261.922C523.761 262.618 522.41 262.964 521.059 262.964ZM497.856 232.052C496.716 232.052 495.577 232.346 494.562 232.932L484.359 238.774C483.853 239.065 483.553 239.589 483.553 240.173C483.553 240.756 483.856 241.28 484.36 241.57L517.766 260.856C519.8 262.029 522.322 262.028 524.354 260.856L534.557 255.013C535.062 254.722 535.363 254.2 535.363 253.616C535.363 253.034 535.062 252.51 534.556 252.219L501.15 232.932C500.133 232.344 498.994 232.052 497.856 232.052Z" fill="#8547F6"/>
<path d="M496.222 278.423C494.871 278.423 493.519 278.074 492.314 277.378L458.908 258.092C458.017 257.577 457.485 256.656 457.485 255.627C457.485 254.598 458.017 253.678 458.908 253.162L469.112 247.321C471.522 245.929 474.515 245.929 476.927 247.321L510.333 266.609C511.225 267.124 511.756 268.045 511.756 269.072C511.756 270.101 511.225 271.021 510.333 271.537L500.13 277.38C498.923 278.076 497.573 278.423 496.222 278.423ZM473.018 247.509C471.878 247.509 470.74 247.803 469.724 248.389L459.522 254.23C459.017 254.523 458.716 255.045 458.716 255.629C458.716 256.212 459.017 256.736 459.523 257.027L492.929 276.313C494.962 277.485 497.483 277.485 499.516 276.313L509.719 270.47C510.224 270.179 510.525 269.657 510.525 269.074C510.525 268.491 510.224 267.968 509.718 267.677L476.312 248.389C475.295 247.802 474.156 247.509 473.018 247.509Z" fill="#8547F6"/>
<path d="M159.136 474.544C157.785 474.544 156.433 474.195 155.227 473.499L121.821 454.213C120.929 453.698 120.398 452.776 120.399 451.747C120.399 450.718 120.931 449.798 121.821 449.283L132.024 443.442C134.432 442.05 137.428 442.05 139.839 443.442L173.244 462.73C174.136 463.245 174.667 464.167 174.666 465.196C174.666 466.225 174.134 467.145 173.244 467.66L163.041 473.501C161.837 474.197 160.487 474.544 159.136 474.544ZM135.932 443.629C134.792 443.629 133.653 443.923 132.638 444.509L122.435 450.35C121.931 450.641 121.629 451.163 121.629 451.747C121.629 452.332 121.931 452.856 122.437 453.147L155.843 472.433C157.875 473.604 160.397 473.605 162.43 472.433L172.633 466.592C173.137 466.3 173.439 465.778 173.439 465.195C173.439 464.61 173.137 464.086 172.63 463.795L139.226 444.509C138.21 443.923 137.07 443.629 135.932 443.629Z" fill="#8547F6"/>
<path d="M133.311 489.551C131.96 489.552 130.607 489.204 129.402 488.508L95.9972 469.22C95.1068 468.705 94.5754 467.784 94.5754 466.757C94.5754 465.728 95.1068 464.807 95.9972 464.292L106.2 458.451C108.609 457.057 111.604 457.059 114.014 458.451L147.42 477.737C148.311 478.251 148.842 479.172 148.842 480.2C148.843 481.229 148.311 482.151 147.42 482.665L137.216 488.508C136.013 489.205 134.662 489.551 133.311 489.551ZM110.107 458.636C108.968 458.636 107.83 458.93 106.814 459.517L96.6095 465.358C96.1056 465.651 95.804 466.173 95.804 466.757C95.804 467.339 96.1069 467.862 96.6122 468.154L130.017 487.441C132.05 488.613 134.573 488.613 136.605 487.441L146.808 481.6C147.312 481.307 147.614 480.784 147.614 480.2C147.614 479.617 147.312 479.093 146.805 478.803L113.399 459.517C112.384 458.93 111.245 458.636 110.107 458.636Z" fill="#8547F6"/>
<defs>
<linearGradient id="paint0_linear_85_6606" x1="150.537" y1="209.89" x2="58.9135" y2="283.362" gradientUnits="userSpaceOnUse">
<stop stop-color="#BCD5FF"/>
<stop offset="0.151" stop-color="#A3BEFF"/>
<stop offset="0.3866" stop-color="#82A0FF"/>
<stop offset="0.6124" stop-color="#6A8AFF"/>
<stop offset="0.8221" stop-color="#5C7DFF"/>
<stop offset="1" stop-color="#5778FF"/>
</linearGradient>
<linearGradient id="paint1_linear_85_6606" x1="167.852" y1="232.304" x2="40.4073" y2="192.5" gradientUnits="userSpaceOnUse">
<stop stop-color="#C0D6FF"/>
<stop offset="0.2978" stop-color="#C5DBFF"/>
<stop offset="0.6488" stop-color="#D3E9FF"/>
<stop offset="1" stop-color="#E9FFFF"/>
</linearGradient>
<radialGradient id="paint2_radial_85_6606" cx="0" cy="0" r="1" gradientUnits="userSpaceOnUse" gradientTransform="translate(329.862) rotate(90) scale(442.374 60.927)">
<stop stop-color="#B189FF"/>
<stop offset="1" stop-color="#8144F6"/>
</radialGradient>
<linearGradient id="paint3_linear_85_6606" x1="390.483" y1="117.919" x2="390.483" y2="86.2275" gradientUnits="userSpaceOnUse">
<stop stop-color="#C0D6FF"/>
<stop offset="0.2978" stop-color="#C5DBFF"/>
<stop offset="0.6488" stop-color="#D3E9FF"/>
<stop offset="1" stop-color="#E9FFFF"/>
</linearGradient>
<linearGradient id="paint4_linear_85_6606" x1="321.382" y1="399.48" x2="471.458" y2="139.547" gradientUnits="userSpaceOnUse">
<stop stop-color="#C0D6FF"/>
<stop offset="0.2978" stop-color="#C5DBFF"/>
<stop offset="0.6488" stop-color="#D3E9FF"/>
<stop offset="1" stop-color="#E9FFFF"/>
</linearGradient>
<linearGradient id="paint5_linear_85_6606" x1="362.708" y1="219.225" x2="292.67" y2="93.11" gradientUnits="userSpaceOnUse">
<stop stop-color="#5778FF"/>
<stop offset="0.0398" stop-color="#5C7DFF"/>
<stop offset="0.0867" stop-color="#6A8AFF"/>
<stop offset="0.1372" stop-color="#82A0FF"/>
<stop offset="0.1899" stop-color="#A3BEFF"/>
<stop offset="0.2237" stop-color="#BCD5FF"/>
</linearGradient>
<linearGradient id="paint6_linear_85_6606" x1="276.664" y1="219.677" x2="323.282" y2="128.544" gradientUnits="userSpaceOnUse">
<stop stop-color="#C0D6FF"/>
<stop offset="0.2978" stop-color="#C5DBFF"/>
<stop offset="0.6488" stop-color="#D3E9FF"/>
<stop offset="1" stop-color="#E9FFFF"/>
</linearGradient>
<linearGradient id="paint7_linear_85_6606" x1="208.789" y1="411.701" x2="354.871" y2="152.856" gradientUnits="userSpaceOnUse">
<stop stop-color="#C0D6FF"/>
<stop offset="0.1196" stop-color="#D0E6FF"/>
<stop offset="0.2627" stop-color="#E9FFFF"/>
<stop offset="0.5143" stop-color="#C0D6FF"/>
<stop offset="0.6239" stop-color="#D0E6FF"/>
<stop offset="0.755" stop-color="#E9FFFF"/>
<stop offset="1" stop-color="#C0D6FF"/>
</linearGradient>
<radialGradient id="paint8_radial_85_6606" cx="0" cy="0" r="1" gradientUnits="userSpaceOnUse" gradientTransform="translate(535.477 322.695) rotate(90) scale(67.8882 41.8043)">
<stop stop-color="#B189FF"/>
<stop offset="1" stop-color="#8144F6"/>
</radialGradient>
<linearGradient id="paint9_linear_85_6606" x1="586.959" y1="346.89" x2="459.514" y2="307.085" gradientUnits="userSpaceOnUse">
<stop stop-color="#C0D6FF"/>
<stop offset="0.2978" stop-color="#C5DBFF"/>
<stop offset="0.6488" stop-color="#D3E9FF"/>
<stop offset="1" stop-color="#E9FFFF"/>
</linearGradient>
<linearGradient id="paint10_linear_85_6606" x1="586.959" y1="346.89" x2="459.514" y2="307.085" gradientUnits="userSpaceOnUse">
<stop stop-color="#C0D6FF"/>
<stop offset="0.2978" stop-color="#C5DBFF"/>
<stop offset="0.6488" stop-color="#D3E9FF"/>
<stop offset="1" stop-color="#E9FFFF"/>
</linearGradient>
<radialGradient id="paint11_radial_85_6606" cx="0" cy="0" r="1" gradientUnits="userSpaceOnUse" gradientTransform="translate(535.478 298.586) rotate(90) scale(67.8869 41.8048)">
<stop stop-color="#B189FF"/>
<stop offset="1" stop-color="#8144F6"/>
</radialGradient>
<linearGradient id="paint12_linear_85_6606" x1="586.96" y1="322.782" x2="459.516" y2="282.977" gradientUnits="userSpaceOnUse">
<stop stop-color="#C0D6FF"/>
<stop offset="0.2978" stop-color="#C5DBFF"/>
<stop offset="0.6488" stop-color="#D3E9FF"/>
<stop offset="1" stop-color="#E9FFFF"/>
</linearGradient>
</defs>
</svg>
