<svg width="34" height="34" viewBox="0 0 34 34" fill="none" xmlns="http://www.w3.org/2000/svg">
<path d="M30.2334 15.7181L28.3674 13.5502C28.0107 13.1386 27.7225 12.3702 27.7225 11.8214V9.48884C27.7225 8.03443 26.5288 6.84072 25.0744 6.84072H22.7419C22.2067 6.84072 21.4247 6.55258 21.013 6.19584L18.8451 4.3298C17.8984 3.52027 16.3479 3.52027 15.3875 4.3298L13.2333 6.20956C12.8217 6.55258 12.0396 6.84072 11.5045 6.84072H9.13079C7.67638 6.84072 6.48267 8.03443 6.48267 9.48884V11.8351C6.48267 12.3702 6.19453 13.1386 5.85151 13.5502L3.9992 15.7318C3.20339 16.6786 3.20339 18.2153 3.9992 19.162L5.85151 21.3436C6.19453 21.7553 6.48267 22.5236 6.48267 23.0587V25.405C6.48267 26.8594 7.67638 28.0531 9.13079 28.0531H11.5045C12.0396 28.0531 12.8217 28.3413 13.2333 28.698L15.4012 30.564C16.3479 31.3736 17.8984 31.3736 18.8589 30.564L21.0268 28.698C21.4384 28.3413 22.2067 28.0531 22.7556 28.0531H25.0881C26.5425 28.0531 27.7362 26.8594 27.7362 25.405V23.0725C27.7362 22.5373 28.0244 21.7553 28.3811 21.3436L30.2472 19.1757C31.043 18.229 31.043 16.6648 30.2334 15.7181ZM22.8242 14.8537L16.197 21.4808C16.0049 21.6729 15.7442 21.7827 15.4698 21.7827C15.1954 21.7827 14.9347 21.6729 14.7426 21.4808L11.4222 18.1604C11.0243 17.7625 11.0243 17.1039 11.4222 16.706C11.8201 16.3081 12.4787 16.3081 12.8766 16.706L15.4698 19.2992L21.3698 13.3993C21.7677 13.0014 22.4263 13.0014 22.8242 13.3993C23.2221 13.7972 23.2221 14.4558 22.8242 14.8537Z" fill="white"/>
</svg>
