<svg width="31" height="31" viewBox="0 0 31 31" fill="none" xmlns="http://www.w3.org/2000/svg">
<g clip-path="url(#clip0_63_12296)">
<path d="M30.163 15.7788C30.163 23.9109 23.571 30.5028 15.4389 30.5028C7.3071 30.5028 0.714844 23.9109 0.714844 15.7788C0.714844 7.6468 7.3071 1.05469 15.4389 1.05469C23.571 1.05469 30.163 7.6468 30.163 15.7788Z" fill="#1BA27A"/>
<path d="M22.3485 8.48047H8.40625V11.8464H13.6944V16.7937H17.0603V11.8464H22.3485V8.48047Z" fill="white"/>
<path d="M15.4098 17.3179C11.0353 17.3179 7.48874 16.6256 7.48874 15.7714C7.48874 14.9174 11.0352 14.2249 15.4098 14.2249C19.7844 14.2249 23.3308 14.9174 23.3308 15.7714C23.3308 16.6256 19.7844 17.3179 15.4098 17.3179ZM24.3039 16.0292C24.3039 14.9279 20.3219 14.0352 15.4098 14.0352C10.4979 14.0352 6.51562 14.9279 6.51562 16.0292C6.51562 16.9991 9.60341 17.8072 13.6951 17.9862V25.0882H17.0607V17.989C21.1839 17.8156 24.3039 17.0041 24.3039 16.0292Z" fill="white"/>
</g>
<defs>
<clipPath id="clip0_63_12296">
<rect width="29.5954" height="29.5954" fill="white" transform="translate(0.59375 0.988281)"/>
</clipPath>
</defs>
</svg>
