<svg width="172" height="45" viewBox="0 0 172 45" fill="none" xmlns="http://www.w3.org/2000/svg">
<path d="M167.19 36.4662L171.156 33.4389V43.7498C171.156 44.4308 170.604 44.9829 169.923 44.9829H2.21599C1.53494 44.9829 0.982849 44.4308 0.982849 43.7498V6.47326L7.50337 11.2103C8.01604 11.5827 8.72752 11.506 9.14899 11.0328L15.1944 4.24537C15.5686 3.82522 16.1798 3.71164 16.68 3.9693L17.843 4.56845C18.3398 4.82434 18.9465 4.71424 19.3217 4.30012L22.017 1.3248C22.4058 0.895612 23.0409 0.794796 23.5435 1.08247L25.873 2.41586C26.0286 2.50487 26.2016 2.55892 26.3801 2.57425L36.7826 3.46737C37.2418 3.5068 37.6407 3.79902 37.8167 4.22498L42.8369 16.3716C43.2309 17.325 44.5517 17.4019 45.0538 16.5007L49.7407 8.08688C49.9583 7.69609 50.3706 7.45383 50.8179 7.45383H55.4203C55.9823 7.45383 56.4732 7.83387 56.6141 8.37798L58.4199 15.3548C58.5607 15.8989 59.0516 16.279 59.6137 16.279H62.4291C62.5794 16.279 62.7284 16.2515 62.8688 16.1979L66.8176 14.6911C67.3818 14.4758 68.0189 14.7008 68.3228 15.2227L73.3322 23.8244C73.7199 24.4902 74.6165 24.6413 75.2011 24.1394L76.4324 23.0823C76.9992 22.5956 77.8651 22.7207 78.2709 23.348L79.3691 25.045C79.8431 25.7777 80.9073 25.7996 81.4112 25.0871L88.8619 14.551C89.4036 13.7849 90.5685 13.8805 90.9781 14.7246L92.5175 17.8966C92.7572 18.3905 93.2945 18.6664 93.8356 18.5735L97.7483 17.9017C98.2755 17.8111 98.8009 18.0708 99.0492 18.5446L103.451 26.9431C103.651 27.3235 104.034 27.5728 104.462 27.6011L110.62 28.0078C110.985 28.0319 111.32 28.2167 111.536 28.5125L115.64 34.1512C116.201 34.9214 117.386 34.7921 117.767 33.9191L119.638 29.6372C119.977 28.8592 120.983 28.6493 121.606 29.2266L133.436 40.1958C134.029 40.7456 134.981 40.5856 135.362 39.8723L139.888 31.3937C140.335 30.5578 141.518 30.5165 142.021 31.3192L144.649 35.5095C144.803 35.7555 145.039 35.9391 145.316 36.0281L148.395 37.0194C148.997 37.2135 149.649 36.9195 149.903 36.3392L152.56 30.2562C152.756 29.807 153.199 29.5166 153.69 29.5166H155.705C156.086 29.5166 156.446 29.3406 156.679 29.0398L158.547 26.634C159.101 25.9213 160.207 26.0248 160.619 26.8279L165.344 36.0483C165.695 36.7323 166.579 36.9325 167.19 36.4662Z" fill="url(#paint0_linear_1_3058)"/>
<path d="M171.156 33.4389L167.19 36.4662C166.579 36.9325 165.695 36.7323 165.344 36.0484L160.619 26.8279C160.207 26.0249 159.101 25.9213 158.547 26.634L156.679 29.0398C156.446 29.3406 156.086 29.5167 155.705 29.5167H153.69C153.199 29.5167 152.756 29.807 152.56 30.2562L149.903 36.3392C149.649 36.9195 148.997 37.2135 148.395 37.0194L145.316 36.0281C145.039 35.9391 144.803 35.7555 144.649 35.5095L142.021 31.3192C141.518 30.5165 140.335 30.5578 139.888 31.3937L135.362 39.8723C134.981 40.5856 134.029 40.7456 133.436 40.1959L121.606 29.2266C120.983 28.6493 119.977 28.8592 119.638 29.6372L117.767 33.9191C117.386 34.7921 116.201 34.9214 115.64 34.1512L111.536 28.5125C111.32 28.2168 110.985 28.0319 110.62 28.0078L104.462 27.6011C104.034 27.5728 103.651 27.3235 103.451 26.9431L99.0492 18.5446C98.8009 18.0708 98.2755 17.8111 97.7483 17.9017L93.8356 18.5735C93.2945 18.6664 92.7572 18.3905 92.5175 17.8966L90.9781 14.7246C90.5685 13.8805 89.4036 13.7849 88.8619 14.551L81.4112 25.0871C80.9073 25.7996 79.8431 25.7777 79.3691 25.045L78.2709 23.348C77.8651 22.7207 76.9992 22.5956 76.4323 23.0823L75.2011 24.1394C74.6165 24.6413 73.7199 24.4902 73.3322 23.8244L68.3228 15.2227C68.0189 14.7008 67.3818 14.4758 66.8176 14.6911L62.8688 16.1979C62.7284 16.2515 62.5794 16.279 62.4291 16.279H59.6137C59.0516 16.279 58.5607 15.8989 58.4199 15.3548L56.6141 8.37798C56.4732 7.83387 55.9823 7.45383 55.4203 7.45383H50.8179C50.3706 7.45383 49.9583 7.69609 49.7407 8.08688L45.0538 16.5007C44.5517 17.4019 43.2309 17.325 42.8369 16.3716L37.8167 4.22498C37.6407 3.79902 37.2418 3.5068 36.7826 3.46737L26.3801 2.57425C26.2016 2.55892 26.0286 2.50487 25.873 2.41586L23.5435 1.08247C23.0409 0.794796 22.4058 0.895612 22.017 1.3248L19.3217 4.30012C18.9465 4.71424 18.3398 4.82434 17.843 4.56845L16.68 3.9693C16.1798 3.71164 15.5686 3.82522 15.1944 4.24537L9.14899 11.0328C8.72753 11.506 8.01603 11.5827 7.50337 11.2103L0.982842 6.47326" stroke="#FA2256" stroke-width="1.23314" stroke-linecap="round"/>
<defs>
<linearGradient id="paint0_linear_1_3058" x1="86.0695" y1="0.589844" x2="86.0695" y2="44.9829" gradientUnits="userSpaceOnUse">
<stop offset="0.104167" stop-color="#FCE2ED" stop-opacity="0.38"/>
<stop offset="1" stop-color="#2C2C2C" stop-opacity="0"/>
</linearGradient>
</defs>
</svg>
