<svg width="172" height="44" viewBox="0 0 172 44" fill="none" xmlns="http://www.w3.org/2000/svg">
<path d="M5.4135 39.4585L0.984375 36.9704V42.0791C0.984375 42.7602 1.53647 43.3123 2.21752 43.3123H169.925C170.606 43.3123 171.158 42.7602 171.158 42.0791V22.437L168.475 27.8632C168.351 28.1138 168.145 28.3149 167.892 28.4334L164.26 30.1336C163.63 30.4286 162.881 30.1442 162.605 29.5054L158.831 20.7593C158.636 20.3074 158.191 20.0147 157.699 20.0147H154.749C154.243 20.0147 153.788 19.7057 153.602 19.2352L151.731 14.5049C151.403 13.677 150.333 13.4583 149.707 14.0914L148.523 15.2886C148.292 15.5229 147.976 15.6547 147.647 15.6547H139.362C139.102 15.6547 138.85 15.573 138.64 15.4212L135.986 13.505C135.416 13.0928 134.617 13.2412 134.232 13.8306L129.899 20.4696C129.355 21.3019 128.101 21.1825 127.725 20.2626L123.04 8.81381C122.927 8.53916 122.72 8.31425 122.455 8.18036L117.461 5.65572C117.237 5.54215 116.983 5.50004 116.733 5.53504L110.902 6.35395C110.477 6.41371 110.051 6.24764 109.778 5.91561L105.987 1.30085C105.496 0.704113 104.585 0.699761 104.089 1.29179L99.1484 7.18923C98.6364 7.80045 97.6876 7.77239 97.2126 7.13198L96.2904 5.88863C95.7886 5.21199 94.771 5.22661 94.2888 5.91739L90.6583 11.1181C90.1347 11.8683 89.0052 11.807 88.5657 11.0046L83.8034 2.31004C83.3158 1.4198 82.0216 1.467 81.6001 2.39039L77.2017 12.0269C77.0012 12.4662 76.5627 12.748 76.0798 12.748H73.6226C73.1491 12.748 72.7174 13.0191 72.5118 13.4456L65.4888 28.0128C65.4133 28.1694 65.3056 28.3082 65.1727 28.4203L56.9194 35.3748C56.4833 35.7424 55.8521 35.7628 55.393 35.4244L52.0492 32.9589C51.7501 32.7384 51.3676 32.6645 51.0079 32.7578L44.8383 34.3574C44.3872 34.4744 44.0406 34.8355 43.9424 35.291L43.1628 38.904C43.0403 39.4718 42.5382 39.8771 41.9574 39.8771H37.1584C36.8203 39.8771 36.497 39.7382 36.2641 39.493L30.5814 33.5073C30.1115 33.0124 29.329 32.9932 28.8355 33.4646L21.8522 40.1336C21.4204 40.5459 20.7554 40.5897 20.2732 40.2377L13.2643 35.119C12.8054 34.7839 12.1769 34.8057 11.7424 35.1719L6.81207 39.3264C6.41899 39.6576 5.86166 39.7103 5.4135 39.4585Z" fill="url(#paint0_linear_1_3046)"/>
<path d="M0.984375 36.9704L5.4135 39.4585C5.86166 39.7103 6.41899 39.6577 6.81207 39.3264L11.7424 35.1719C12.1769 34.8057 12.8054 34.7839 13.2643 35.119L20.2732 40.2377C20.7554 40.5897 21.4204 40.5459 21.8522 40.1336L28.8355 33.4645C29.329 32.9932 30.1115 33.0124 30.5814 33.5073L36.2641 39.493C36.497 39.7382 36.8203 39.8771 37.1584 39.8771H41.9574C42.5382 39.8771 43.0403 39.4718 43.1628 38.904L43.9424 35.291C44.0406 34.8355 44.3872 34.4744 44.8383 34.3574L51.0079 32.7578C51.3676 32.6645 51.7501 32.7384 52.0492 32.9589L55.393 35.4244C55.8521 35.7628 56.4833 35.7424 56.9194 35.3748L65.1727 28.4203C65.3056 28.3082 65.4133 28.1694 65.4888 28.0128L72.5118 13.4456C72.7174 13.0191 73.1491 12.748 73.6226 12.748H76.0798C76.5627 12.748 77.0012 12.4662 77.2017 12.0269L81.6001 2.39039C82.0216 1.467 83.3158 1.4198 83.8034 2.31004L88.5657 11.0046C89.0052 11.807 90.1347 11.8683 90.6583 11.1181L94.2888 5.91739C94.7711 5.22661 95.7886 5.21199 96.2904 5.88863L97.2126 7.13198C97.6876 7.77239 98.6364 7.80045 99.1484 7.18923L104.089 1.29179C104.585 0.699761 105.496 0.704113 105.987 1.30085L109.778 5.9156C110.051 6.24764 110.477 6.41371 110.902 6.35395L116.733 5.53504C116.983 5.50004 117.237 5.54215 117.461 5.65572L122.455 8.18036C122.72 8.31425 122.927 8.53916 123.04 8.81381L127.725 20.2626C128.101 21.1825 129.355 21.3019 129.899 20.4696L134.232 13.8306C134.617 13.2412 135.416 13.0928 135.986 13.505L138.64 15.4212C138.85 15.573 139.102 15.6547 139.362 15.6547H147.647C147.976 15.6547 148.292 15.5229 148.523 15.2886L149.707 14.0914C150.333 13.4583 151.403 13.677 151.731 14.5049L153.602 19.2352C153.788 19.7057 154.243 20.0147 154.749 20.0147H157.699C158.191 20.0147 158.636 20.3074 158.831 20.7593L162.605 29.5054C162.881 30.1442 163.63 30.4286 164.26 30.1336L167.793 28.4799C168.105 28.3336 168.342 28.0631 168.446 27.734L170.145 22.3489" stroke="#11CABE" stroke-width="1.23314" stroke-linecap="round"/>
<defs>
<linearGradient id="paint0_linear_1_3046" x1="86.0711" y1="0.152344" x2="86.0711" y2="43.3123" gradientUnits="userSpaceOnUse">
<stop offset="0.260417" stop-color="#BCFFE9" stop-opacity="0.4"/>
<stop offset="1" stop-opacity="0"/>
</linearGradient>
</defs>
</svg>
