<svg width="31" height="31" viewBox="0 0 31 31" fill="none" xmlns="http://www.w3.org/2000/svg">
<g clip-path="url(#clip0_63_10957)">
<circle cx="15.3914" cy="15.7313" r="14.7977" fill="#25292C"/>
<path d="M21.4963 7.09766H23.9915L18.7988 13.3062C16.9184 15.5533 13.8695 15.5533 11.9877 13.3062L6.79297 7.09766H9.29017L13.2353 11.8139C13.8101 12.498 14.5847 12.8815 15.3917 12.8815C16.1988 12.8815 16.9734 12.498 17.5482 11.8139L21.4963 7.09766Z" fill="white"/>
<path d="M9.25468 24.3619H6.75781L11.9842 18.1151C13.8647 15.8679 16.9135 15.8679 18.7954 18.1151L24.0218 24.3619H21.5266L17.5478 19.6073C16.973 18.9233 16.1984 18.5398 15.3913 18.5398C14.5843 18.5398 13.8096 18.9233 13.2348 19.6073L9.25468 24.3619Z" fill="white"/>
</g>
<defs>
<clipPath id="clip0_63_10957">
<rect width="29.5954" height="29.5954" fill="white" transform="translate(0.59375 0.933594)"/>
</clipPath>
</defs>
</svg>
